<svg width="44" height="44" viewBox="0 0 44 44" fill="none" xmlns="http://www.w3.org/2000/svg">
<circle cx="22" cy="22" r="21" fill="white" stroke="#597485" stroke-width="2"/>
<circle cx="22.0002" cy="22" r="16.9231" fill="#5A7484"/>
<path d="M13.5459 21.9898C13.5483 19.9078 14.2723 17.8911 15.5948 16.2832C16.9172 14.6752 18.7563 13.5755 20.7986 13.1713C22.8409 12.7671 24.9602 13.0834 26.7954 14.0665C28.6307 15.0495 30.0683 16.6384 30.8635 18.5624C31.6587 20.4865 31.7622 22.6268 31.1565 24.6186C30.5507 26.6105 29.2731 28.3307 27.5414 29.4863C25.8096 30.6419 23.7307 31.1613 21.6589 30.9562C19.5871 30.751 17.6506 29.8339 16.1791 28.3611" stroke="white" stroke-width="1.4" stroke-miterlimit="10"/>
<path d="M22.5508 16.2012V21.9898H28.3394" stroke="white" stroke-width="1.4" stroke-miterlimit="10" stroke-linecap="square"/>
<path d="M14.1693 30.3711L18.1956 26.3448L13 25.1736L14.1693 30.3711Z" stroke="white" stroke-width="1.4" stroke-miterlimit="10" stroke-linecap="square"/>
</svg>
