<svg width="44" height="44" viewBox="0 0 44 44" fill="none" xmlns="http://www.w3.org/2000/svg">
<circle cx="22" cy="22" r="21" fill="white" stroke="#F6504B" stroke-width="2"/>
<circle cx="22.0002" cy="22" r="16.9231" fill="#F6504B"/>
<circle cx="22" cy="22" r="16" fill="white"/>
<path d="M22 6C18.8355 6 15.7421 6.93838 13.1109 8.69649C10.4797 10.4546 8.42894 12.9534 7.21793 15.8771C6.00693 18.8007 5.69008 22.0177 6.30744 25.1214C6.92481 28.2251 8.44866 31.0761 10.6863 33.3137C12.9239 35.5513 15.7749 37.0752 18.8786 37.6926C21.9823 38.3099 25.1993 37.9931 28.1229 36.7821C31.0466 35.5711 33.5454 33.5203 35.3035 30.8891C37.0616 28.2579 38 25.1645 38 22C37.9876 17.7603 36.2979 13.6979 33.3 10.7C30.3021 7.70209 26.2397 6.0124 22 6V6ZM30.121 28L28 30.121L22 24.121L16 30.121L13.879 28L19.879 22L13.879 16L16 13.879L22 19.879L28 13.879L30.121 16L24.121 22L30.121 28Z" fill="#F6504B"/>
</svg>
