<svg width="44" height="44" viewBox="0 0 44 44" fill="none" xmlns="http://www.w3.org/2000/svg">
<circle cx="22" cy="22" r="21" fill="white" stroke="#5A7484" stroke-width="2"/>
<circle cx="22.0002" cy="22" r="16.9231" fill="#5A7484"/>
<path d="M22.0001 24.4176C23.3353 24.4176 24.4177 23.3352 24.4177 22C24.4177 20.6648 23.3353 19.5824 22.0001 19.5824C20.6649 19.5824 19.5825 20.6648 19.5825 22C19.5825 23.3352 20.6649 24.4176 22.0001 24.4176Z" fill="white"/>
<path d="M22.0001 14.7473C23.8212 14.7473 25.5413 15.4399 26.8522 16.6179L24.0224 18.7792L29.659 19.5341L30.4139 13.8975L27.8271 15.8732C26.2786 14.4064 24.2019 13.5385 22.0001 13.5385C17.3342 13.5385 13.5386 17.3341 13.5386 22H14.7474C14.7474 18.0007 18.0008 14.7473 22.0001 14.7473Z" fill="white"/>
<path d="M22.0001 29.2527C20.1791 29.2527 18.4589 28.5601 17.148 27.3821L19.9778 25.2208L14.3418 24.4659L13.5869 30.1019L16.1737 28.1262C17.7216 29.5936 19.7983 30.4615 22.0001 30.4615C26.666 30.4615 30.4616 26.6659 30.4616 22H29.2528C29.2528 25.9993 25.9994 29.2527 22.0001 29.2527Z" fill="white"/>
</svg>
