<svg width="44" height="44" viewBox="0 0 44 44" fill="none" xmlns="http://www.w3.org/2000/svg">
<circle cx="22" cy="22" r="21" fill="white" stroke="#597485" stroke-width="2"/>
<circle cx="22.0002" cy="22" r="16.9231" fill="#5A7484"/>
<path d="M22.0001 24.4177C23.3353 24.4177 24.4177 23.3353 24.4177 22.0001C24.4177 20.6649 23.3353 19.5825 22.0001 19.5825C20.6649 19.5825 19.5825 20.6649 19.5825 22.0001C19.5825 23.3353 20.6649 24.4177 22.0001 24.4177Z" fill="white"/>
<path d="M22.0001 14.7474C23.8212 14.7474 25.5413 15.44 26.8522 16.618L24.0224 18.7793L29.659 19.5342L30.4139 13.8976L27.8271 15.8734C26.2786 14.4065 24.2019 13.5386 22.0001 13.5386C17.3342 13.5386 13.5386 17.3342 13.5386 22.0001H14.7474C14.7474 18.0008 18.0008 14.7474 22.0001 14.7474Z" fill="white"/>
<path d="M22.0001 29.2527C20.1791 29.2527 18.4589 28.5601 17.148 27.3821L19.9778 25.2208L14.3418 24.4659L13.5869 30.1019L16.1737 28.1262C17.7216 29.5936 19.7983 30.4615 22.0001 30.4615C26.666 30.4615 30.4616 26.6659 30.4616 22H29.2528C29.2528 25.9993 25.9994 29.2527 22.0001 29.2527Z" fill="white"/>
</svg>
