<svg width="44" height="44" viewBox="0 0 44 44" fill="none" xmlns="http://www.w3.org/2000/svg">
<circle cx="22" cy="22" r="21" fill="white" stroke="#597485" stroke-width="2"/>
<circle cx="22.0002" cy="22" r="16.9231" fill="#5A7484"/>
<path d="M21.9842 18C22.5786 18 23.1596 17.8241 23.6538 17.4944C24.148 17.1648 24.5332 16.6962 24.7607 16.1481C24.9881 15.5999 25.0476 14.9967 24.9317 14.4147C24.8157 13.8328 24.5295 13.2982 24.1092 12.8787C23.6889 12.4591 23.1535 12.1734 22.5705 12.0576C21.9876 11.9419 21.3833 12.0013 20.8342 12.2284C20.285 12.4554 19.8157 12.8399 19.4855 13.3333C19.1553 13.8266 18.979 14.4067 18.979 15C18.98 15.7954 19.2969 16.5579 19.8603 17.1203C20.4236 17.6827 21.1875 17.999 21.9842 18V18ZM21.9842 13.2C22.3408 13.2 22.6895 13.3056 22.986 13.5034C23.2825 13.7011 23.5136 13.9823 23.6501 14.3112C23.7866 14.6401 23.8223 15.002 23.7527 15.3512C23.6831 15.7003 23.5114 16.0211 23.2592 16.2728C23.0071 16.5245 22.6858 16.696 22.336 16.7654C21.9862 16.8349 21.6237 16.7992 21.2942 16.663C20.9647 16.5267 20.6831 16.296 20.485 16C20.2868 15.704 20.1811 15.356 20.1811 15C20.1811 14.5226 20.3711 14.0648 20.7092 13.7272C21.0474 13.3896 21.506 13.2 21.9842 13.2V13.2Z" fill="white"/>
<path d="M27.9948 24.0002C27.2268 24.0016 26.4889 24.2978 25.9338 24.8276L22.5854 22.4876V19.2002H21.3833V22.4876L18.0349 24.8276C17.4948 24.3218 16.7858 24.0342 16.0453 24.0204C15.3049 24.0066 14.5857 24.2677 14.027 24.753C13.4683 25.2383 13.11 25.9134 13.0215 26.6474C12.9329 27.3813 13.1204 28.122 13.5476 28.7259C13.9748 29.3298 14.6114 29.7539 15.3339 29.916C16.0565 30.0781 16.8136 29.9668 17.4586 29.6035C18.1036 29.2403 18.5906 28.6509 18.8252 27.9497C19.0598 27.2485 19.0254 26.4853 18.7285 25.808L21.9844 23.5328L25.2402 25.808C25.0751 26.1839 24.9898 26.5898 24.9896 27.0002C24.9896 27.5935 25.1658 28.1736 25.496 28.6669C25.8263 29.1603 26.2956 29.5448 26.8447 29.7718C27.3939 29.9989 27.9981 30.0583 28.5811 29.9426C29.164 29.8268 29.6995 29.5411 30.1198 29.1215C30.5401 28.702 30.8263 28.1674 30.9423 27.5855C31.0582 27.0035 30.9987 26.4003 30.7712 25.8521C30.5438 25.304 30.1586 24.8354 29.6644 24.5058C29.1702 24.1761 28.5892 24.0002 27.9948 24.0002Z" fill="white"/>
</svg>
