<svg width="44" height="44" viewBox="0 0 44 44" fill="none" xmlns="http://www.w3.org/2000/svg">
<circle cx="22" cy="22" r="21" fill="white" stroke="#FAE06C" stroke-width="2"/>
<circle cx="22.0002" cy="22" r="16.4231" fill="#FAE06C" stroke="#FAE06C"/>
<path d="M22 11C15.9349 11 11 15.9349 11 22C11 28.0651 15.9349 33 22 33C28.0651 33 33 28.0651 33 22C33 15.9349 28.0651 11 22 11ZM23.3262 15.8125L22.6875 24.0625H21.3125L20.6738 15.8125H23.3262ZM22 28.1875C21.2403 28.1875 20.625 27.5722 20.625 26.8125C20.625 26.0528 21.2403 25.4375 22 25.4375C22.7597 25.4375 23.375 26.0528 23.375 26.8125C23.375 27.5722 22.7597 28.1875 22 28.1875Z" fill="white"/>
</svg>
