<svg width="24" height="24" viewBox="0 0 24 24" fill="none" xmlns="http://www.w3.org/2000/svg">
<path fill-rule="evenodd" clip-rule="evenodd" d="M13.3648 4.00245C13.2631 3.82724 13.1354 3.62491 12.9787 3.45597C12.8322 3.29791 12.5304 3.02739 12.0712 3.00186C11.5912 2.97517 11.253 3.23031 11.076 3.40481C10.8971 3.58129 10.7533 3.80017 10.6366 3.99998L10.6169 4.03368L3.09987 19.5643C2.85926 20.0615 3.0672 20.6595 3.56432 20.9001C4.06144 21.1407 4.65948 20.9328 4.90009 20.4357L7.53101 15H16.469L19.0999 20.4357C19.3405 20.9328 19.9385 21.1407 20.4356 20.9001C20.9328 20.6595 21.1407 20.0615 20.9001 19.5643L13.3837 4.03497L13.3648 4.00245ZM15.5009 13L12 5.7668L8.49904 13H15.5009Z" fill="#111111"/>
</svg>
