<svg width="24" height="24" viewBox="0 0 24 24" fill="none" xmlns="http://www.w3.org/2000/svg">
<path fill-rule="evenodd" clip-rule="evenodd" d="M17.9705 4.182C16.9942 3.20569 15.4113 3.20569 14.435 4.182L5.41936 13.1976C3.75963 14.8573 3.75963 17.5483 5.41936 19.208C7.07908 20.8677 9.77004 20.8677 11.4298 19.208L20.4454 10.1924C20.8359 9.80188 21.4691 9.80188 21.8596 10.1924C22.2501 10.5829 22.2501 11.2161 21.8596 11.6066L12.844 20.6222C10.4032 23.063 6.44592 23.063 4.00514 20.6222C1.56437 18.1815 1.56437 14.2242 4.00514 11.7834L13.0208 2.76779C14.7781 1.01043 17.6274 1.01043 19.3847 2.76779C21.1421 4.52515 21.1421 7.37439 19.3847 9.13175L10.7227 17.7938C9.64872 18.8677 7.90751 18.8677 6.83357 17.7938C5.75963 16.7199 5.75963 14.9787 6.83357 13.9047L14.435 6.30332C14.8255 5.9128 15.4587 5.9128 15.8492 6.30332C16.2397 6.69385 16.2397 7.32701 15.8492 7.71753L8.24778 15.3189C7.95489 15.6118 7.95489 16.0867 8.24778 16.3796C8.54068 16.6725 9.01555 16.6725 9.30844 16.3796L17.9705 7.71753C18.9468 6.74122 18.9468 5.15831 17.9705 4.182Z" fill="#111111"/>
</svg>
