<svg width="24" height="24" viewBox="0 0 24 24" fill="none" xmlns="http://www.w3.org/2000/svg">
<path opacity="0.4" d="M21 9.25H12M21 4L12 4M21 14.75H3M21 20H3" stroke="#111111" stroke-width="2" stroke-linecap="round" stroke-linejoin="round"/>
<path d="M3 9.40001C3 9.91499 3 10.1725 3.10632 10.3083C3.19885 10.4264 3.33956 10.4968 3.48961 10.4999C3.66203 10.5035 3.86802 10.349 4.28 10.04L8.14667 7.14001C8.43616 6.92289 8.5809 6.81434 8.63266 6.68125C8.678 6.56468 8.678 6.43535 8.63266 6.31878C8.5809 6.18569 8.43616 6.07713 8.14667 5.86001L4.28 2.96001C3.86802 2.65103 3.66203 2.49654 3.48961 2.50012C3.33956 2.50324 3.19885 2.5736 3.10632 2.69176C3 2.82755 3 3.08504 3 3.60001V9.40001Z" stroke="#111111" stroke-width="2" stroke-linecap="round" stroke-linejoin="round"/>
</svg>
