<svg width="24" height="24" viewBox="0 0 24 24" fill="none" xmlns="http://www.w3.org/2000/svg">
<path opacity="0.4" d="M3 3L4.8 4.8M21 3L19.2 4.8M21 21L19.2 19.2M3 21L4.8 19.2M3 15.6H4.35M8.4 3V4.35M21 8.4H19.65M15.6 21V19.65M17.4 15.6H20.55M15.6 3V6.6M3 8.4H6.6M8.4 21V17.4" stroke="black" stroke-width="2" stroke-linecap="round" stroke-linejoin="round"/>
<path d="M12 15C13.6569 15 15 13.6569 15 12C15 10.3431 13.6569 9 12 9C10.3431 9 9 10.3431 9 12C9 13.6569 10.3431 15 12 15Z" stroke="black" stroke-width="2" stroke-linecap="round" stroke-linejoin="round"/>
</svg>
