<svg width="24" height="24" viewBox="0 0 24 24" fill="none" xmlns="http://www.w3.org/2000/svg">
<path opacity="0.12" d="M8 12C8 14.2091 9.79086 16 12 16C14.2091 16 16 14.2091 16 12C16 9.79086 14.2091 8 12 8C9.79086 8 8 9.79086 8 12Z" fill="#1B1C1E"/>
<path d="M22 2L20 4M22 22L20 20M2 22L4 20M2 2L4 4M8 2L8 3.5M22 8L20.5 8M16 22L16 20.5M2 16L3.5 16M8 18L8 21.5M22 16L18 16M16 2L16 6M2 8L6 8M12 16C9.79086 16 8 14.2091 8 12C8 9.79086 9.79086 8 12 8C14.2091 8 16 9.79086 16 12C16 14.2091 14.2091 16 12 16Z" stroke="#1B1C1E" stroke-width="2" stroke-linecap="round" stroke-linejoin="round"/>
</svg>
