<svg width="24" height="24" viewBox="0 0 24 24" fill="none" xmlns="http://www.w3.org/2000/svg">
<path d="M3.23964 3.23964C3.55916 2.92012 4.0772 2.92012 4.39672 3.23964L6.03309 4.876C6.35261 5.19552 6.35261 5.71357 6.03309 6.03309C5.71357 6.35261 5.19552 6.35261 4.876 6.03309L3.23964 4.39672C2.92012 4.0772 2.92012 3.55916 3.23964 3.23964Z" fill="black"/>
<path d="M8.72727 3C9.17914 3 9.54545 3.36631 9.54545 3.81818V5.04545C9.54545 5.49732 9.17914 5.86364 8.72727 5.86364C8.2754 5.86364 7.90909 5.49732 7.90909 5.04545V3.81818C7.90909 3.36631 8.2754 3 8.72727 3Z" fill="black"/>
<path d="M19.6033 3.23964C19.9228 2.92012 20.4408 2.92012 20.7604 3.23964C21.0799 3.55916 21.0799 4.0772 20.7604 4.39672L19.124 6.03309C18.8045 6.35261 18.2864 6.35261 17.9669 6.03309C17.6474 5.71357 17.6474 5.19552 17.9669 4.876L19.6033 3.23964Z" fill="black"/>
<path d="M18.1364 8.72727C18.1364 8.2754 18.5027 7.90909 18.9545 7.90909H20.1818C20.6337 7.90909 21 8.2754 21 8.72727C21 9.17914 20.6337 9.54545 20.1818 9.54545H18.9545C18.5027 9.54545 18.1364 9.17914 18.1364 8.72727Z" fill="black"/>
<path d="M5.04545 16.0909H3.81818C3.36631 16.0909 3 15.7246 3 15.2727C3 14.8209 3.36631 14.4545 3.81818 14.4545H5.04545C5.49732 14.4545 5.86364 14.8209 5.86364 15.2727C5.86364 15.7246 5.49732 16.0909 5.04545 16.0909Z" fill="black"/>
<path d="M6.03309 17.9669C6.35261 18.2864 6.35261 18.8045 6.03309 19.124L4.39672 20.7604C4.0772 21.0799 3.55916 21.0799 3.23964 20.7604C2.92012 20.4408 2.92012 19.9228 3.23964 19.6033L4.876 17.9669C5.19552 17.6474 5.71357 17.6474 6.03309 17.9669Z" fill="black"/>
<path d="M17.9669 17.9669C18.2864 17.6474 18.8045 17.6474 19.124 17.9669L20.7604 19.6033C21.0799 19.9228 21.0799 20.4408 20.7604 20.7604C20.4408 21.0799 19.9228 21.0799 19.6033 20.7604L17.9669 19.124C17.6474 18.8045 17.6474 18.2864 17.9669 17.9669Z" fill="black"/>
<path d="M15.2727 18.1364C15.7246 18.1364 16.0909 18.5027 16.0909 18.9545V20.1818C16.0909 20.6337 15.7246 21 15.2727 21C14.8209 21 14.4545 20.6337 14.4545 20.1818V18.9545C14.4545 18.5027 14.8209 18.1364 15.2727 18.1364Z" fill="black"/>
<path d="M16.0909 15.2727C16.0909 14.8209 16.4572 14.4545 16.9091 14.4545H19.7727C20.2246 14.4545 20.5909 14.8209 20.5909 15.2727C20.5909 15.7246 20.2246 16.0909 19.7727 16.0909H16.9091C16.4572 16.0909 16.0909 15.7246 16.0909 15.2727Z" fill="black"/>
<path d="M16.0909 7.09091V3.81818C16.0909 3.36631 15.7246 3 15.2727 3C14.8209 3 14.4545 3.36631 14.4545 3.81818V7.09091C14.4545 7.54278 14.8209 7.90909 15.2727 7.90909C15.7246 7.90909 16.0909 7.54278 16.0909 7.09091Z" fill="black"/>
<path d="M3 8.72727C3 8.2754 3.36631 7.90909 3.81818 7.90909H7.09091C7.54278 7.90909 7.90909 8.2754 7.90909 8.72727C7.90909 9.17914 7.54278 9.54545 7.09091 9.54545H3.81818C3.36631 9.54545 3 9.17914 3 8.72727Z" fill="black"/>
<path d="M9.54545 16.9091C9.54545 16.4572 9.17914 16.0909 8.72727 16.0909C8.2754 16.0909 7.90909 16.4572 7.90909 16.9091V20.1818C7.90909 20.6337 8.2754 21 8.72727 21C9.17914 21 9.54545 20.6337 9.54545 20.1818V16.9091Z" fill="black"/>
<path d="M12 7.90909C9.74065 7.90909 7.90909 9.74065 7.90909 12C7.90909 14.2593 9.74065 16.0909 12 16.0909C14.2593 16.0909 16.0909 14.2593 16.0909 12C16.0909 9.74065 14.2593 7.90909 12 7.90909Z" fill="black"/>
</svg>
