<svg width="24" height="24" viewBox="0 0 24 24" fill="none" xmlns="http://www.w3.org/2000/svg">
<path fill-rule="evenodd" clip-rule="evenodd" d="M22.7071 1.29289C23.0976 1.68342 23.0976 2.31658 22.7071 2.70711L20.7071 4.70711C20.3166 5.09763 19.6834 5.09763 19.2929 4.70711C18.9024 4.31658 18.9024 3.68342 19.2929 3.29289L21.2929 1.29289C21.6834 0.902369 22.3166 0.902369 22.7071 1.29289ZM23 8C23 8.55228 22.5523 9 22 9L20.5 9C19.9477 9 19.5 8.55228 19.5 8C19.5 7.44772 19.9477 7 20.5 7L22 7C22.5523 7 23 7.44772 23 8ZM22.7071 21.2929C23.0976 21.6834 23.0976 22.3166 22.7071 22.7071C22.3166 23.0976 21.6834 23.0976 21.2929 22.7071L19.2929 20.7071C18.9024 20.3166 18.9024 19.6834 19.2929 19.2929C19.6834 18.9024 20.3166 18.9024 20.7071 19.2929L22.7071 21.2929ZM23 16C23 16.5523 22.5523 17 22 17L18 17C17.4477 17 17 16.5523 17 16C17 15.4477 17.4477 15 18 15L22 15C22.5523 15 23 15.4477 23 16ZM16 1C16.5523 1 17 1.44771 17 2L17 6C17 6.55228 16.5523 7 16 7C15.4477 7 15 6.55228 15 6L15 2C15 1.44771 15.4477 1 16 1ZM12 7C14.7614 7 17 9.23858 17 12C17 14.7614 14.7614 17 12 17C9.23858 17 7 14.7614 7 12C7 9.23858 9.23858 7 12 7ZM16 19.5C16.5523 19.5 17 19.9477 17 20.5L17 22C17 22.5523 16.5523 23 16 23C15.4477 23 15 22.5523 15 22L15 20.5C15 19.9477 15.4477 19.5 16 19.5ZM7 3.5L7 2C7 1.44771 7.44771 0.999999 8 0.999999C8.55229 0.999999 9 1.44771 9 2L9 3.5C9 4.05228 8.55229 4.5 8 4.5C7.44771 4.5 7 4.05228 7 3.5ZM8 17C8.55228 17 9 17.4477 9 18L9 21.5C9 22.0523 8.55228 22.5 8 22.5C7.44771 22.5 7 22.0523 7 21.5L7 18C7 17.4477 7.44771 17 8 17ZM7 8C7 8.55228 6.55228 9 6 9L2 9C1.44772 9 1 8.55228 1 8C1 7.44771 1.44772 7 2 7L6 7C6.55228 7 7 7.44771 7 8ZM4.70711 4.70711C4.31658 5.09763 3.68342 5.09763 3.29289 4.70711L1.29289 2.70711C0.902368 2.31658 0.902369 1.68342 1.29289 1.29289C1.68342 0.902368 2.31658 0.902368 2.70711 1.29289L4.70711 3.29289C5.09763 3.68342 5.09763 4.31658 4.70711 4.70711ZM4.70711 19.2929C5.09763 19.6834 5.09763 20.3166 4.70711 20.7071L2.70711 22.7071C2.31658 23.0976 1.68342 23.0976 1.29289 22.7071C0.902368 22.3166 0.902368 21.6834 1.29289 21.2929L3.29289 19.2929C3.68342 18.9024 4.31658 18.9024 4.70711 19.2929ZM4.5 16C4.5 16.5523 4.05228 17 3.5 17L2 17C1.44772 17 0.999999 16.5523 0.999999 16C0.999999 15.4477 1.44772 15 2 15L3.5 15C4.05228 15 4.5 15.4477 4.5 16Z" fill="#1B1C1E"/>
</svg>
