<svg width="24" height="24" viewBox="0 0 24 24" fill="none" xmlns="http://www.w3.org/2000/svg">
<path d="M18 22C18 22.5523 18.4477 23 19 23C19.5523 23 20 22.5523 20 22V18.4142L21.2929 19.7071C21.6834 20.0976 22.3166 20.0976 22.7071 19.7071C23.0976 19.3166 23.0976 18.6834 22.7071 18.2929L19.7071 15.2929C19.5196 15.1054 19.2652 15 19 15C18.7348 15 18.4804 15.1054 18.2929 15.2929L15.2929 18.2929C14.9024 18.6834 14.9024 19.3166 15.2929 19.7071C15.6834 20.0976 16.3166 20.0976 16.7071 19.7071L18 18.4142V22Z" fill="#111111"/>
<path fill-rule="evenodd" clip-rule="evenodd" d="M16 1C16.5523 1 17 1.44772 17 2V3.00195C17.4755 3.00522 17.8911 3.01447 18.252 3.04395C18.814 3.08987 19.3311 3.18827 19.8164 3.43555C20.5689 3.81902 21.181 4.43109 21.5645 5.18359C21.8117 5.6689 21.9101 6.18599 21.9561 6.74805C22.0003 7.28924 22 7.95383 22 8.75879V14.7578L21.1211 13.8789C20.5585 13.3164 19.7956 13 19 13C18.2044 13 17.4415 13.3163 16.8789 13.8789L13.8789 16.8789C12.744 18.0139 12.7083 19.8321 13.7725 21.0098L13.8789 21.1211L13.9902 21.2275C14.5601 21.7425 15.2802 22 16 22C16 22.3511 16.064 22.6869 16.1748 23H7.75879C6.95383 23 6.28924 23.0003 5.74805 22.9561C5.18599 22.9101 4.6689 22.8117 4.18359 22.5645C3.43109 22.181 2.81902 21.5689 2.43555 20.8164C2.18827 20.3311 2.08987 19.814 2.04395 19.252C1.99973 18.7108 1.99999 18.0462 2 17.2412V8.75879C1.99999 7.95383 1.99973 7.28924 2.04395 6.74805C2.08987 6.18599 2.18827 5.6689 2.43555 5.18359C2.81902 4.43109 3.43109 3.81902 4.18359 3.43555C4.6689 3.18827 5.18599 3.08987 5.74805 3.04395C6.10886 3.01447 6.52454 3.00522 7 3.00195V2C7 1.44772 7.44772 1 8 1C8.55229 1 9 1.44772 9 2V3H15V2C15 1.44772 15.4477 1 16 1ZM9 6C9 6.55228 8.55229 7 8 7C7.44772 7 7 6.55228 7 6V5.00195C6.55454 5.00508 6.2047 5.01313 5.91113 5.03711C5.47272 5.07293 5.2482 5.13808 5.0918 5.21777C4.71555 5.40951 4.40951 5.71554 4.21777 6.0918C4.13808 6.2482 4.07293 6.47272 4.03711 6.91113C4.00035 7.36117 4 7.94341 4 8.7998V9H20V8.7998C20 7.94341 19.9997 7.36117 19.9629 6.91113C19.9271 6.47272 19.8619 6.2482 19.7822 6.0918C19.5905 5.71554 19.2845 5.40951 18.9082 5.21777C18.7518 5.13808 18.5273 5.07293 18.0889 5.03711C17.7953 5.01313 17.4455 5.00508 17 5.00195V6C17 6.55228 16.5523 7 16 7C15.4477 7 15 6.55228 15 6V5H9V6Z" fill="#111111"/>
</svg>
