<svg width="24" height="24" viewBox="0 0 24 24" fill="none" xmlns="http://www.w3.org/2000/svg">
<path d="M13.595 1.11478C18.3935 1.81176 22.1882 5.60649 22.8852 10.405C22.9541 10.8794 22.9886 11.1166 22.8934 11.3619C22.8169 11.5587 22.6371 11.7666 22.4532 11.8705C22.2242 12 21.9495 12 21.4 12H13.6C13.0399 12 12.7599 12 12.546 11.891C12.3578 11.7951 12.2049 11.6421 12.109 11.454C12 11.2401 12 10.96 12 10.4V2.6C12 2.05052 12 1.77578 12.1295 1.54675C12.2334 1.36291 12.4413 1.18305 12.6381 1.10663C12.8834 1.01143 13.1206 1.04588 13.595 1.11478Z" fill="black"/>
<path d="M10 3.10203C10 2.46396 10 2.14493 9.83731 1.89575C9.70823 1.69808 9.44954 1.51858 9.2192 1.46683C8.92885 1.40161 8.66954 1.49848 8.15093 1.69222C3.97411 3.25258 1 7.27897 1 12C1 18.0751 5.92487 23 12 23C16.721 23 20.7474 20.0259 22.3078 15.8491C22.5015 15.3305 22.5984 15.0712 22.5332 14.7808C22.4814 14.5505 22.3019 14.2918 22.1042 14.1627C21.8551 14 21.536 14 20.898 14L13.5537 14C13.3155 14.0001 13.031 14.0002 12.7804 13.9797C12.4899 13.956 12.0739 13.8951 11.6381 13.673C11.0736 13.3854 10.6146 12.9265 10.327 12.362C10.1049 11.9261 10.044 11.5101 10.0203 11.2197C9.99981 10.969 9.99992 10.6845 10 10.4463L10 3.10203Z" fill="black"/>
</svg>
