<svg width="24" height="24" viewBox="0 0 24 24" fill="none" xmlns="http://www.w3.org/2000/svg">
<path opacity="0.4" d="M21.21 15.89C20.5738 17.3945 19.5788 18.7202 18.3119 19.7513C17.045 20.7824 15.5448 21.4874 13.9424 21.8048C12.3401 22.1221 10.6844 22.0421 9.12015 21.5718C7.55588 21.1015 6.13063 20.2551 4.96903 19.1067C3.80742 17.9582 2.94482 16.5428 2.45664 14.984C1.96846 13.4251 1.86957 11.7705 2.1686 10.1646C2.46764 8.55878 3.1555 7.05063 4.17205 5.77203C5.1886 4.49343 6.50289 3.48332 8.00001 2.83" stroke="black" stroke-width="2" stroke-linecap="round" stroke-linejoin="round"/>
<path d="M21.2 12C21.4779 12 21.6168 12 21.728 11.9399C21.8209 11.8897 21.9053 11.7983 21.9479 11.7017C21.9989 11.586 21.9886 11.4576 21.968 11.2008C21.8847 10.1614 21.6391 9.13962 21.2388 8.17316C20.7362 6.9599 19.9997 5.85751 19.0711 4.92893C18.1425 4.00034 17.0401 3.26375 15.8268 2.7612C14.8604 2.36088 13.8386 2.11531 12.7992 2.03198C12.5424 2.01139 12.414 2.00109 12.2983 2.05209C12.2017 2.09468 12.1103 2.17907 12.0601 2.27198C12 2.38319 12 2.52213 12 2.79999V11.2C12 11.48 12 11.62 12.0545 11.727C12.1024 11.8211 12.1789 11.8976 12.273 11.9455C12.38 12 12.52 12 12.8 12H21.2Z" stroke="black" stroke-width="2" stroke-linecap="round" stroke-linejoin="round"/>
</svg>
