<svg width="24" height="24" viewBox="0 0 24 24" fill="none" xmlns="http://www.w3.org/2000/svg">
<path d="M21 21H4.6C4.03995 21 3.75992 21 3.54601 20.891C3.35785 20.7951 3.20487 20.6422 3.10899 20.454C3 20.2401 3 19.9601 3 19.4V3" stroke="black" stroke-width="2" stroke-linecap="round" stroke-linejoin="round"/>
<path d="M11.8572 14.5C11.8572 15.8807 10.7379 17 9.35718 17C7.97647 17 6.85718 15.8807 6.85718 14.5C6.85718 13.1193 7.97647 12 9.35718 12C10.7379 12 11.8572 13.1193 11.8572 14.5Z" fill="black"/>
<path d="M20.4286 14.5C20.4286 15.8807 19.3093 17 17.9286 17C16.5479 17 15.4286 15.8807 15.4286 14.5C15.4286 13.1193 16.5479 12 17.9286 12C19.3093 12 20.4286 13.1193 20.4286 14.5Z" fill="black"/>
<path d="M17.1429 6.85714C17.1429 8.75069 15.6079 10.2857 13.7143 10.2857C11.8208 10.2857 10.2857 8.75069 10.2857 6.85714C10.2857 4.96359 11.8208 3.42857 13.7143 3.42857C15.6079 3.42857 17.1429 4.96359 17.1429 6.85714Z" fill="black"/>
<path d="M11.8572 14.5C11.8572 15.8807 10.7379 17 9.35718 17C7.97647 17 6.85718 15.8807 6.85718 14.5C6.85718 13.1193 7.97647 12 9.35718 12C10.7379 12 11.8572 13.1193 11.8572 14.5Z" stroke="black" stroke-width="1.5"/>
<path d="M20.4286 14.5C20.4286 15.8807 19.3093 17 17.9286 17C16.5479 17 15.4286 15.8807 15.4286 14.5C15.4286 13.1193 16.5479 12 17.9286 12C19.3093 12 20.4286 13.1193 20.4286 14.5Z" stroke="black" stroke-width="1.5"/>
<path d="M17.1429 6.85714C17.1429 8.75069 15.6079 10.2857 13.7143 10.2857C11.8208 10.2857 10.2857 8.75069 10.2857 6.85714C10.2857 4.96359 11.8208 3.42857 13.7143 3.42857C15.6079 3.42857 17.1429 4.96359 17.1429 6.85714Z" stroke="black" stroke-width="1.5"/>
</svg>
