<svg width="22" height="9" viewBox="0 0 22 9" fill="none" xmlns="http://www.w3.org/2000/svg">
<path d="M14 8V5H11V8H14Z" stroke="#D9D9D9" stroke-width="0.2"/>
<path fill-rule="evenodd" clip-rule="evenodd" d="M13.081 6.02247C13.087 6.02936 13.0918 6.03773 13.095 6.04704C13.0983 6.05635 13.1 6.06641 13.1 6.07658C13.1 6.08675 13.0983 6.09681 13.095 6.10613C13.0918 6.11544 13.087 6.1238 13.081 6.13069L12.3473 6.97753C12.3343 6.992 12.3176 7 12.3002 7C12.2828 7 12.2661 6.992 12.2531 6.97753L11.9194 6.59298C11.9133 6.58609 11.9084 6.57766 11.9051 6.56825C11.9017 6.55884 11.9 6.54865 11.9 6.53835C11.9 6.52805 11.9017 6.51786 11.9051 6.50845C11.9084 6.49904 11.9133 6.49061 11.9194 6.48371C11.9324 6.46924 11.9491 6.46124 11.9665 6.46124C11.9839 6.46124 12.0006 6.46924 12.0136 6.48371L12.2086 6.70961C12.2414 6.74638 12.2573 6.76529 12.2758 6.77265C12.2917 6.77867 12.3087 6.77867 12.3246 6.77265C12.3431 6.76529 12.359 6.74638 12.3918 6.70961L12.9869 6.02247C12.9998 6.008 13.0166 6 13.0339 6C13.0513 6 13.0681 6.008 13.081 6.02247Z" fill="#2A8BFB" stroke="#2A8BFB" stroke-width="0.1" stroke-linecap="round" stroke-linejoin="round"/>
<path d="M21 4V1H11V4H21Z" stroke="#2A8BFB" stroke-width="0.2"/>
<path d="M17 2H18V3H17V2Z" fill="#E72B78"/>
<path d="M19.9665 2.86403C19.9786 2.88015 19.9845 2.90008 19.983 2.92017C19.9816 2.94027 19.973 2.95917 19.9587 2.97341C19.9445 2.98766 19.9256 2.99629 19.9055 2.99771C19.8854 2.99914 19.8654 2.99327 19.8493 2.98119L19.4924 2.62553L19.1366 2.98119C19.1206 2.99424 19.1003 3.0009 19.0797 2.9999C19.059 2.9989 19.0395 2.9903 19.0248 2.97575C19.0101 2.96121 19.0013 2.94175 19.0001 2.92112C18.999 2.9005 19.0054 2.88016 19.0184 2.86403L19.3742 2.50838L19.0184 2.15063C19.0063 2.13451 19.0004 2.11458 19.0018 2.09449C19.0032 2.07439 19.0119 2.05549 19.0261 2.04125C19.0404 2.027 19.0593 2.01838 19.0794 2.01695C19.0995 2.01552 19.1194 2.02139 19.1356 2.03347L19.4914 2.38913L19.8493 2.03347C19.8565 2.02388 19.8657 2.01595 19.8762 2.01021C19.8867 2.00447 19.8984 2.00106 19.9103 2.00021C19.9223 1.99936 19.9343 2.00109 19.9456 2.00528C19.9568 2.00948 19.967 2.01603 19.9755 2.02451C19.984 2.03299 19.9905 2.04319 19.9947 2.05442C19.9989 2.06565 20.0006 2.07766 19.9998 2.08962C19.9989 2.10158 19.9955 2.11321 19.9898 2.12374C19.984 2.13427 19.9761 2.14344 19.9665 2.15063L19.6107 2.50733L19.9665 2.86403Z" fill="#C5C5C5"/>
<path d="M0.209996 1C0.154301 1 0.100888 1.02107 0.0615064 1.05858C0.0221246 1.09609 0 1.14696 0 1.2V2.8C0 2.91 0.0944982 3 0.209996 3H9.79C9.8457 3 9.89911 2.97893 9.93849 2.94142C9.97788 2.90391 10 2.85304 10 2.8V1.2C10 1.14696 9.97788 1.09609 9.93849 1.05858C9.89911 1.02107 9.8457 1 9.79 1H0.209996Z" fill="#2A8BFB"/>
<path d="M0.209996 3.5C0.154301 3.5 0.100888 3.52107 0.0615064 3.55858C0.0221246 3.59609 0 3.64696 0 3.7V5.3C0 5.41 0.0944982 5.5 0.209996 5.5H9.79C9.8457 5.5 9.89911 5.47893 9.93849 5.44142C9.97788 5.40391 10 5.35304 10 5.3V3.7C10 3.64696 9.97788 3.59609 9.93849 3.55858C9.89911 3.52107 9.8457 3.5 9.79 3.5H0.209996Z" fill="#EAEAEA"/>
<path d="M0.209996 6C0.154301 6 0.100888 6.02107 0.0615064 6.05858C0.0221246 6.09609 0 6.14696 0 6.2V7.8C0 7.91 0.0944982 8 0.209996 8H9.79C9.8457 8 9.89911 7.97893 9.93849 7.94142C9.97788 7.90391 10 7.85304 10 7.8V6.2C10 6.14696 9.97788 6.09609 9.93849 6.05858C9.89911 6.02107 9.8457 6 9.79 6H0.209996Z" fill="#FCECA7"/>
<path d="M19.5 7H16.5C16.2239 7 16 6.77614 16 6.5C16 6.22386 16.2239 6 16.5 6H19.5C19.7761 6 20 6.22386 20 6.5C20 6.77614 19.7761 7 19.5 7Z" fill="#EAEAEA"/>
<path d="M18 6.5C18 6.23478 18.1054 5.98043 18.2929 5.79289C18.4804 5.60536 18.7348 5.5 19 5.5C19.2652 5.5 19.5196 5.60536 19.7071 5.79289C19.8946 5.98043 20 6.23478 20 6.5C20 6.76522 19.8946 7.01957 19.7071 7.20711C19.5196 7.39464 19.2652 7.5 19 7.5C18.7348 7.5 18.4804 7.39464 18.2929 7.20711C18.1054 7.01957 18 6.76522 18 6.5Z" fill="#2A8BFB"/>
</svg>
