<svg width="24" height="13" viewBox="0 0 24 13" fill="none" xmlns="http://www.w3.org/2000/svg">
<path d="M15.234 9.80015L15.234 7.143L12.5768 7.143L12.5768 9.80015L15.234 9.80015Z" stroke="#D9D9D9" stroke-width="0.2"/>
<path fill-rule="evenodd" clip-rule="evenodd" d="M14.5489 8.01682C14.5799 8.04543 14.5799 8.09181 14.5489 8.12042L13.6759 8.92628C13.6449 8.95489 13.5946 8.95489 13.5636 8.92628L13.1668 8.55998C13.1358 8.53137 13.1358 8.48499 13.1668 8.45638C13.1978 8.42777 13.248 8.42777 13.279 8.45638L13.5112 8.6707C13.5495 8.70603 13.5686 8.72369 13.5904 8.73037C13.6095 8.73626 13.63 8.73626 13.6491 8.73037C13.6709 8.72369 13.69 8.70603 13.7283 8.6707L14.4366 8.01682C14.4676 7.98821 14.5179 7.98821 14.5489 8.01682Z" fill="#2A8BFB" stroke="#2A8BFB" stroke-width="0.1" stroke-linecap="round" stroke-linejoin="round"/>
<path d="M21.9 5.68564L21.9 3.0285L12.5762 3.0285L12.5762 5.68565L21.9 5.68564Z" stroke="#2A8BFB" stroke-width="0.2"/>
<rect x="18.1904" y="3.88086" width="0.952381" height="0.952381" fill="#E72B78"/>
<path d="M21.0248 4.69777C21.0558 4.72876 21.0558 4.77901 21.0248 4.81001C20.9938 4.841 20.9436 4.841 20.9126 4.81001L20.5719 4.4693L20.2312 4.81001C20.2002 4.841 20.1499 4.841 20.1189 4.81001C20.088 4.77901 20.088 4.72876 20.1189 4.69777L20.4597 4.35706L20.1189 4.01636C20.088 3.98536 20.088 3.93511 20.1189 3.90412C20.1499 3.87312 20.2002 3.87312 20.2312 3.90412L20.5719 4.24482L20.9126 3.90412C20.9436 3.87312 20.9938 3.87312 21.0248 3.90412C21.0558 3.93511 21.0558 3.98536 21.0248 4.01636L20.6841 4.35706L21.0248 4.69777Z" fill="#C5C5C5"/>
<path d="M2.2 3C2.08954 3 2 3.08954 2 3.2L2 4.79999C2 4.91044 2.08954 4.99999 2.2 4.99999L11.3238 4.99999C11.4343 4.99999 11.5238 4.91045 11.5238 4.79999L11.5238 3.2C11.5238 3.08954 11.4343 3 11.3238 3L2.2 3Z" fill="#2A8BFB"/>
<path d="M2.2 5.5C2.08954 5.5 2 5.58954 2 5.7L2 7.29999C2 7.41044 2.08954 7.49999 2.2 7.49999L11.3238 7.49999C11.4343 7.49999 11.5238 7.41045 11.5238 7.29999L11.5238 5.7C11.5238 5.58954 11.4343 5.5 11.3238 5.5L2.2 5.5Z" fill="#EAEAEA"/>
<path d="M2.2 8C2.08954 8 2 8.08954 2 8.2L2 9.79999C2 9.91044 2.08954 9.99999 2.2 9.99999L11.3238 9.99999C11.4343 9.99999 11.5238 9.91045 11.5238 9.79999L11.5238 8.2C11.5238 8.08954 11.4343 8 11.3238 8L2.2 8Z" fill="#FCECA7"/>
<rect width="4" height="1" rx="0.5" transform="matrix(1 0 0 -1 17 9)" fill="#EAEAEA"/>
<path d="M19 8.5C19 7.94771 19.4477 7.5 20 7.5C20.5523 7.5 21 7.94771 21 8.5C21 9.05229 20.5523 9.5 20 9.5C19.4477 9.5 19 9.05229 19 8.5Z" fill="#2A8BFB"/>
</svg>
