<svg width="24" height="24" viewBox="0 0 24 24" fill="none" xmlns="http://www.w3.org/2000/svg">
<path d="M18.2378 6.99474C17.0905 6.53432 15.8602 6.1951 14.5739 6.00082C14.4153 5.97544 14.121 6.717 14.0588 6.8448C12.6753 6.66364 11.2989 6.66364 9.94374 6.8448C9.88121 6.71338 9.58509 5.97901 9.42154 6.00082C8.13593 6.19448 6.90567 6.5337 5.7577 6.99474C4.42773 7.49624 1.63593 15.0106 3.0978 16.0106C4.6374 16.9995 6.12878 17.5999 7.59246 17.9978C7.81862 18.0582 8.46788 16.8573 8.5751 16.6716C8.59072 16.6447 8.57581 16.6128 8.5439 16.6022C8.05435 16.4398 7.5882 16.2418 7.13979 16.0169C7.0354 15.9635 7.39555 15.7055 7.47115 15.7351C10.417 16.9115 13.6062 16.9115 16.5172 15.7351C16.5926 15.7032 16.9539 15.9641 16.8507 16.0169C16.4023 16.2461 15.9361 16.4398 15.4459 16.6016C15.414 16.6122 15.3998 16.6447 15.4154 16.6716C15.5233 16.8544 16.1778 18.0564 16.3973 17.9978C17.8681 17.5999 19.3595 16.9995 20.8991 16.0106C22.3461 15.0733 19.6227 7.51696 18.2378 6.99474Z" stroke="#111111" stroke-width="2"/>
<g opacity="0.5">
<path d="M7.39171 12.2668C7.39171 13.1414 8.12248 13.8535 9.00938 13.8535C9.91041 13.8535 10.627 13.1414 10.627 12.2668C10.6412 11.3984 9.91751 10.68 9.00938 10.68C8.10831 10.68 7.39171 11.3922 7.39171 12.2668Z" stroke="#111111" stroke-width="2"/>
<path d="M13.3728 12.2668C13.3728 13.1414 14.1036 13.8535 14.9904 13.8535C15.8986 13.8535 16.6081 13.1414 16.6081 12.2668C16.6223 11.3984 15.8986 10.68 14.9904 10.68C14.0894 10.68 13.3728 11.3922 13.3728 12.2668Z" stroke="#111111" stroke-width="2"/>
</g>
</svg>
