<svg width="24" height="24" viewBox="0 0 24 24" fill="none" xmlns="http://www.w3.org/2000/svg">
<path fill-rule="evenodd" clip-rule="evenodd" d="M9.28904 5.00951C9.58994 4.96939 9.95341 5.06023 10.2099 5.33959L10.3125 5.47045L10.3203 5.48217C10.3787 5.57257 10.4366 5.6746 10.498 5.77807C11.4905 5.6878 12.491 5.68881 13.4951 5.77904C13.5543 5.67685 13.6144 5.57654 13.6738 5.48412C13.9248 5.09459 14.359 4.95861 14.7226 5.01342L14.7236 5.01146C16.0789 5.21619 17.377 5.57341 18.5898 6.05834L18.5947 6.05932C18.5999 6.06141 18.6051 6.06405 18.6103 6.06615L18.6094 6.06713C18.7466 6.12206 18.9148 6.22371 19.0498 6.39916C21.2185 9.18923 22.3204 12.3898 21.917 16.071L21.918 16.072C21.8828 16.428 21.6766 16.6976 21.4424 16.8494L21.4394 16.8513C19.8027 17.9026 18.2144 18.5416 16.6582 18.9626L16.6553 18.9636C16.294 19.0601 15.8502 18.9651 15.5615 18.613C15.2316 18.2115 14.928 17.7869 14.6543 17.3415C12.9015 17.708 11.1009 17.7047 9.33983 17.3367C9.06745 17.7873 8.76073 18.2171 8.42186 18.6218L8.41404 18.6316L8.40526 18.6413C8.12926 18.9538 7.70946 19.0634 7.33494 18.9636L7.33006 18.9626C5.78166 18.5417 4.19422 17.9025 2.5576 16.8513L2.5449 16.8435L2.53319 16.8357C2.32491 16.6932 2.1149 16.4339 2.07908 16.072L2.08006 16.071C1.74207 12.8871 2.44919 9.65905 4.93944 6.40502L4.94139 6.406C5.06904 6.23856 5.22962 6.12935 5.38475 6.06713C6.60434 5.57733 7.90989 5.21672 9.27244 5.01146L9.28123 5.01049L9.28904 5.00951ZM9.00975 10.6804C8.10882 10.6804 7.3918 11.3919 7.39158 12.2663C7.39158 13.141 8.12285 13.8533 9.00975 13.8533C9.91061 13.8531 10.6269 13.1408 10.6269 12.2663C10.6409 11.3983 9.91757 10.6806 9.00975 10.6804ZM14.9902 10.6804C14.0894 10.6805 13.3732 11.392 13.373 12.2663C13.373 13.1409 14.1034 13.8532 14.9902 13.8533C15.8984 13.8533 16.6084 13.141 16.6084 12.2663C16.6223 11.3982 15.8982 10.6804 14.9902 10.6804Z" fill="#111111"/>
</svg>
