<svg width="24" height="24" viewBox="0 0 24 24" fill="none" xmlns="http://www.w3.org/2000/svg">
<path fill-rule="evenodd" clip-rule="evenodd" d="M11.7234 3.57571C11.9062 3.54141 12.0938 3.54141 12.2766 3.57571C12.493 3.61632 12.6861 3.71485 12.7794 3.76246C12.789 3.76736 12.7976 3.77172 12.805 3.77543L22.4472 8.59654C22.786 8.76594 23 9.1122 23 9.49097C23 9.86974 22.786 10.216 22.4472 10.3854L12.805 15.2065C12.7976 15.2102 12.789 15.2146 12.7794 15.2195C12.6861 15.2671 12.493 15.3656 12.2766 15.4062C12.0938 15.4405 11.9062 15.4405 11.7234 15.4062C11.507 15.3656 11.3139 15.2671 11.2206 15.2195C11.211 15.2146 11.2024 15.2102 11.195 15.2065L1.55279 10.3854C1.214 10.216 1 9.86974 1 9.49097C1 9.1122 1.214 8.76594 1.55279 8.59654L11.195 3.77543C11.2024 3.77172 11.211 3.76736 11.2206 3.76246C11.3139 3.71485 11.507 3.61632 11.7234 3.57571Z" fill="#111111"/>
<path d="M2.52769 13.109L1.55279 13.5964C1.214 13.7658 1 14.1121 1 14.4909C1 14.8696 1.214 15.2159 1.55279 15.3853L11.195 20.2064L11.2206 20.2194C11.3139 20.267 11.507 20.3655 11.7234 20.4061C11.9062 20.4404 12.0938 20.4404 12.2766 20.4061C12.493 20.3655 12.6861 20.267 12.7794 20.2194L12.805 20.2064L22.4472 15.3853C22.786 15.2159 23 14.8696 23 14.4909C23 14.1121 22.786 13.7658 22.4472 13.5964L21.4723 13.109L13.6994 16.9954L13.6876 17.0013C13.6388 17.0259 13.5187 17.0861 13.3985 17.1384C13.2382 17.2082 12.9785 17.3095 12.6454 17.372C12.2189 17.452 11.7811 17.452 11.3546 17.372C11.0215 17.3095 10.7618 17.2082 10.6015 17.1384C10.4813 17.0861 10.3612 17.0259 10.3124 17.0014L10.3006 16.9954L2.52769 13.109Z" fill="#111111"/>
</svg>
