<svg width="24" height="24" viewBox="0 0 24 24" fill="none" xmlns="http://www.w3.org/2000/svg">
<path opacity="0.4" d="M21 21L13 21" stroke="#111111" stroke-width="2" stroke-linecap="round" stroke-linejoin="round"/>
<path d="M2.49997 21.5L8.04924 19.3657C8.40418 19.2291 8.58165 19.1609 8.74769 19.0718C8.89517 18.9926 9.03577 18.9012 9.16801 18.7986C9.31689 18.6831 9.45135 18.5486 9.72025 18.2797L21 7C22.1046 5.89543 22.1046 4.10457 21 3C19.8954 1.89543 18.1046 1.89543 17 2.99999L5.72025 14.2797C5.45135 14.5486 5.3169 14.6831 5.20136 14.832C5.09875 14.9642 5.00737 15.1048 4.92821 15.2523C4.83908 15.4183 4.77082 15.5958 4.6343 15.9507L2.49997 21.5ZM2.49997 21.5L4.55809 16.149C4.70537 15.766 4.77901 15.5746 4.90531 15.4869C5.01569 15.4102 5.15228 15.3813 5.28427 15.4065C5.43531 15.4353 5.58036 15.5804 5.87046 15.8705L8.12955 18.1295C8.41965 18.4196 8.56469 18.5647 8.59354 18.7157C8.61874 18.8477 8.58976 18.9843 8.51312 19.0947C8.42542 19.221 8.23396 19.2946 7.85104 19.4419L2.49997 21.5Z" stroke="#111111" stroke-width="2" stroke-linecap="round" stroke-linejoin="round"/>
</svg>
