<svg width="24" height="24" viewBox="0 0 24 24" fill="none" xmlns="http://www.w3.org/2000/svg">
<path opacity="0.4" d="M10.7425 5.09232C11.1489 5.03223 11.5682 5 12 5C17.105 5 20.4549 9.50484 21.5803 11.2868C21.7165 11.5025 21.7846 11.6103 21.8227 11.7767C21.8513 11.9016 21.8513 12.0987 21.8227 12.2236C21.7845 12.3899 21.7159 12.4985 21.5788 12.7156C21.2789 13.1901 20.8218 13.8571 20.2161 14.5805M6.72391 6.71504C4.56184 8.1817 3.09404 10.2194 2.42069 11.2853C2.28387 11.5019 2.21546 11.6102 2.17733 11.7765C2.14869 11.9014 2.14867 12.0984 2.1773 12.2234C2.21542 12.3897 2.28352 12.4975 2.41972 12.7132C3.54513 14.4952 6.895 19 12 19C14.0584 19 15.8315 18.2676 17.2884 17.2766" stroke="#111111" stroke-width="2" stroke-linecap="round" stroke-linejoin="round"/>
<path d="M3 3L21 21M9.87868 9.87868C9.33579 10.4216 9 11.1716 9 12C9 13.6569 10.3431 15 12 15C12.8284 15 13.5784 14.6642 14.1213 14.1213" stroke="#111111" stroke-width="2" stroke-linecap="round" stroke-linejoin="round"/>
</svg>
