<svg width="24" height="24" viewBox="0 0 24 24" fill="none" xmlns="http://www.w3.org/2000/svg">
<path d="M13.8916 7.99999C14.2613 7.99944 14.631 8.00995 15 8.03026V8.49022H14.5527C13.8667 8.49022 13.1686 8.6395 12.6924 9.18749C12.2429 9.70485 12.1973 10.3546 12.1973 10.7871V13.4902H14.7666L14.6777 14.1601H12.1973V21H11.3643V14.1601H9V13.4902H11.3643V10.5254C11.3643 9.60036 11.6489 8.9995 12.0352 8.62792C12.4278 8.25034 13.0402 7.99999 13.8916 7.99999Z" stroke="#111111" stroke-width="2"/>
<path opacity="0.5" d="M8.35141 20.2297C5.19859 18.8299 3 15.6716 3 12.0003C3 7.02971 7.02971 3 11.9997 3C16.9697 3 21 7.02971 21 12.0003C21 15.7908 18.657 19.0335 15.3406 20.3599" stroke="#111111" stroke-width="2" stroke-linecap="round"/>
</svg>
