<svg width="24" height="24" viewBox="0 0 24 24" fill="none" xmlns="http://www.w3.org/2000/svg">
<path d="M12 2C17.522 2.00017 21.9998 6.47731 22 12C22 17.0514 18.256 21.2265 13.3916 21.9043C13.3271 21.9132 13.2622 21.92 13.1973 21.9277V15.1602H15.5537L15.9072 12.4902H13.1973V10.7871C13.1973 9.99984 13.4134 9.49023 14.5527 9.49023H16V7.10547C15.2992 7.03449 14.5952 6.99897 13.8906 7C11.7963 7 10.3643 8.24539 10.3643 10.5254V12.4902H8V15.1602H10.3643V21.8652C5.61911 21.0837 2 16.9656 2 12C2.00017 6.4773 6.4778 2 12 2Z" fill="#111111"/>
</svg>
