<svg width="21" height="7" viewBox="0 0 21 7" fill="none" xmlns="http://www.w3.org/2000/svg">
<mask id="mask0_111_126" style="mask-type:luminance" maskUnits="userSpaceOnUse" x="9" y="2" width="3" height="3">
<path d="M9 2H12V5H9V2Z" fill="white"/>
</mask>
<g mask="url(#mask0_111_126)">
<path d="M9.625 2.625C9.625 2.3835 9.821 2.1875 10.0625 2.1875H10.5V3.0625H10.0625C9.94647 3.0625 9.83519 3.01641 9.75314 2.93436C9.67109 2.85231 9.625 2.74103 9.625 2.625Z" fill="#FCECA7"/>
<path d="M9.625 4.375C9.625 4.1335 9.821 3.9375 10.0625 3.9375H10.5V4.375C10.5 4.49103 10.4539 4.60231 10.3719 4.68436C10.2898 4.76641 10.1785 4.8125 10.0625 4.8125C9.94647 4.8125 9.83519 4.76641 9.75314 4.68436C9.67109 4.60231 9.625 4.49103 9.625 4.375ZM10.5 3.5C10.5 3.38397 10.5461 3.27269 10.6281 3.19064C10.7102 3.10859 10.8215 3.0625 10.9375 3.0625C11.0535 3.0625 11.1648 3.10859 11.2469 3.19064C11.3289 3.27269 11.375 3.38397 11.375 3.5C11.375 3.61603 11.3289 3.72731 11.2469 3.80936C11.1648 3.89141 11.0535 3.9375 10.9375 3.9375C10.8215 3.9375 10.7102 3.89141 10.6281 3.80936C10.5461 3.72731 10.5 3.61603 10.5 3.5Z" fill="#2A8BFB"/>
<path d="M10.5 2.1875H10.0625C9.94647 2.1875 9.83519 2.23359 9.75314 2.31564C9.67109 2.39769 9.625 2.50897 9.625 2.625C9.625 2.74103 9.67109 2.85231 9.75314 2.93436C9.83519 3.01641 9.94647 3.0625 10.0625 3.0625M10.5 2.1875V3.0625M10.5 2.1875H10.9375C11.0535 2.1875 11.1648 2.23359 11.2469 2.31564C11.3289 2.39769 11.375 2.50897 11.375 2.625C11.375 2.74103 11.3289 2.85231 11.2469 2.93436C11.1648 3.01641 11.0535 3.0625 10.9375 3.0625M10.0625 3.0625H10.5M10.0625 3.0625C9.94647 3.0625 9.83519 3.10859 9.75314 3.19064C9.67109 3.27269 9.625 3.38397 9.625 3.5C9.625 3.61603 9.67109 3.72731 9.75314 3.80936C9.83519 3.89141 9.94647 3.9375 10.0625 3.9375M10.5 3.0625V3.9375M10.5 3.0625H10.9375M10.9375 3.0625C11.0535 3.0625 11.1648 3.10859 11.2469 3.19064C11.3289 3.27269 11.375 3.38397 11.375 3.5C11.375 3.61603 11.3289 3.72731 11.2469 3.80936C11.1648 3.89141 11.0535 3.9375 10.9375 3.9375C10.8215 3.9375 10.7102 3.89141 10.6281 3.80936C10.5461 3.72731 10.5 3.61603 10.5 3.5C10.5 3.38397 10.5461 3.27269 10.6281 3.19064C10.7102 3.10859 10.8215 3.0625 10.9375 3.0625ZM10.5 3.9375H10.0625M10.5 3.9375V4.375C10.5 4.46153 10.4743 4.54612 10.4263 4.61806C10.3782 4.69001 10.3099 4.74608 10.2299 4.7792C10.15 4.81231 10.062 4.82097 9.97715 4.80409C9.89228 4.78721 9.81433 4.74554 9.75314 4.68436C9.69196 4.62317 9.65029 4.54522 9.63341 4.46035C9.61653 4.37549 9.62519 4.28752 9.6583 4.20758C9.69142 4.12763 9.74749 4.05931 9.81944 4.01123C9.89138 3.96316 9.97597 3.9375 10.0625 3.9375" stroke="black" stroke-width="0.2" stroke-linecap="round" stroke-linejoin="round"/>
</g>
<path d="M19 1H2" stroke="#AFB7BF" stroke-width="0.2"/>
<path d="M19 0H21V2H19V0Z" fill="#EAEAEA"/>
<path d="M11 1C11 0.723858 10.7761 0.5 10.5 0.5C10.2239 0.5 10 0.723858 10 1C10 1.27614 10.2239 1.5 10.5 1.5C10.7761 1.5 11 1.27614 11 1Z" fill="#AAD1FD"/>
<path d="M19 6H2" stroke="#AFB7BF" stroke-width="0.2"/>
<path d="M19 5H21V7H19V5Z" fill="#EAEAEA"/>
<path d="M11 6C11 5.72386 10.7761 5.5 10.5 5.5C10.2239 5.5 10 5.72386 10 6C10 6.27614 10.2239 6.5 10.5 6.5C10.7761 6.5 11 6.27614 11 6Z" fill="#AAD1FD"/>
<path d="M0 5H2V7H0V5Z" fill="#EAEAEA"/>
<path d="M1 2L1 5" stroke="#AFB7BF" stroke-width="0.2"/>
<path d="M0 2V0H2V2H0Z" fill="#EAEAEA"/>
<path d="M1 3C0.723858 3 0.5 3.22386 0.5 3.5C0.5 3.77614 0.723858 4 1 4C1.27614 4 1.5 3.77614 1.5 3.5C1.5 3.22386 1.27614 3 1 3Z" fill="#AAD1FD"/>
<path d="M20 2V5" stroke="#AFB7BF" stroke-width="0.2"/>
<path d="M20 3C19.7239 3 19.5 3.22386 19.5 3.5C19.5 3.77614 19.7239 4 20 4C20.2761 4 20.5 3.77614 20.5 3.5C20.5 3.22386 20.2761 3 20 3Z" fill="#AAD1FD"/>
</svg>
