<svg width="24" height="13" viewBox="0 0 24 13" fill="none" xmlns="http://www.w3.org/2000/svg">
<g clip-path="url(#clip0_6248_88923)">
<path d="M10.25 4.75C10.25 4.26675 10.6418 3.875 11.125 3.875H12V5.625H11.125C10.6418 5.625 10.25 5.23325 10.25 4.75Z" fill="#FCECA7"/>
<path d="M10.25 8.25C10.25 7.76675 10.6418 7.375 11.125 7.375H12V8.25C12 8.73325 11.6082 9.125 11.125 9.125C10.6418 9.125 10.25 8.73325 10.25 8.25Z" fill="#2A8BFB"/>
<path d="M12 6.5C12 6.01675 12.3918 5.625 12.875 5.625C13.3582 5.625 13.75 6.01675 13.75 6.5C13.75 6.98325 13.3582 7.375 12.875 7.375C12.3918 7.375 12 6.98325 12 6.5Z" fill="#2A8BFB"/>
<path d="M12 3.875H11.125C10.6418 3.875 10.25 4.26675 10.25 4.75C10.25 5.23325 10.6418 5.625 11.125 5.625M12 3.875V5.625M12 3.875H12.875C13.3582 3.875 13.75 4.26675 13.75 4.75C13.75 5.23325 13.3582 5.625 12.875 5.625M12 5.625H11.125M12 5.625V7.375M12 5.625H12.875M11.125 5.625C10.6418 5.625 10.25 6.01675 10.25 6.5C10.25 6.98325 10.6418 7.375 11.125 7.375M12 7.375H11.125M12 7.375V8.25C12 8.73325 11.6082 9.125 11.125 9.125C10.6418 9.125 10.25 8.73325 10.25 8.25C10.25 7.76675 10.6418 7.375 11.125 7.375M12.875 5.625C13.3582 5.625 13.75 6.01675 13.75 6.5C13.75 6.98325 13.3582 7.375 12.875 7.375C12.3918 7.375 12 6.98325 12 6.5C12 6.01675 12.3918 5.625 12.875 5.625Z" stroke="black" stroke-width="0.3" stroke-linecap="round" stroke-linejoin="round"/>
</g>
<line x1="18" y1="2.1" x2="6" y2="2.1" stroke="#AFB7BF" stroke-width="0.2"/>
<rect x="18" y="1" width="2" height="2" fill="#EAEAEA"/>
<rect x="11.5" y="1.5" width="1" height="1" rx="0.5" fill="#AAD1FD"/>
<rect x="4" y="1" width="2" height="2" fill="#D9D9D9"/>
<line x1="18" y1="11.1" x2="6" y2="11.1" stroke="#AFB7BF" stroke-width="0.2"/>
<rect x="18" y="10" width="2" height="2" fill="#EAEAEA"/>
<rect x="11.5" y="10.5" width="1" height="1" rx="0.5" fill="#AAD1FD"/>
<rect x="4" y="10" width="2" height="2" fill="#EAEAEA"/>
<line x1="5.1" y1="3" x2="5.1" y2="10" stroke="#AFB7BF" stroke-width="0.2"/>
<rect x="4" y="3" width="2" height="2" transform="rotate(-90 4 3)" fill="#EAEAEA"/>
<rect x="4.5498" y="7.30005" width="1" height="1" rx="0.5" transform="rotate(-90 4.5498 7.30005)" fill="#AAD1FD"/>
<line x1="19.1" y1="3" x2="19.1" y2="10" stroke="#AFB7BF" stroke-width="0.2"/>
<rect x="18.5498" y="7.30005" width="1" height="1" rx="0.5" transform="rotate(-90 18.5498 7.30005)" fill="#AAD1FD"/>
<defs>
<clipPath id="clip0_6248_88923">
<rect width="6" height="6" fill="white" transform="translate(9 3.5)"/>
</clipPath>
</defs>
</svg>
