<svg width="24" height="24" viewBox="0 0 24 24" fill="none" xmlns="http://www.w3.org/2000/svg">
<path fill-rule="evenodd" clip-rule="evenodd" d="M12.9989 1.95227C13 1.97612 13 1.98928 13 2.01558L13 6.43191C13 6.68429 12.9999 6.93008 13.017 7.13824C13.0356 7.36683 13.0797 7.63657 13.218 7.90799C13.4097 8.28432 13.7157 8.59028 14.092 8.78202C14.3634 8.92032 14.6332 8.96439 14.8618 8.98307C15.0699 9.00007 15.3157 9.00004 15.5681 9.00001L19.9845 9.00001C20.0107 9.00001 20.0238 9.00001 20.0477 9.00115C20.5415 9.02471 20.9756 9.45899 20.9989 9.95282C21 9.97664 21 9.98441 21 9.99994V13.1707C22.1652 13.5825 23 14.6938 23 16V20C23 21.6569 21.6569 23 20 23H4C2.34315 23 1 21.6569 1 20V16C1 14.6938 1.83481 13.5825 3 13.1707V6.75869C2.99999 5.95373 2.99998 5.28937 3.0442 4.74818C3.09012 4.18608 3.18868 3.66938 3.43598 3.18404C3.81947 2.43139 4.43139 1.81947 5.18404 1.43598C5.66938 1.18869 6.18608 1.09012 6.74818 1.0442C7.28935 0.999981 7.95368 0.99999 8.75862 1H12C12.0156 0.999995 12.0234 0.999993 12.0473 1.00112C12.541 1.02448 12.9753 1.4585 12.9989 1.95227ZM4 15C3.44772 15 3 15.4477 3 16V20C3 20.5523 3.44772 21 4 21H20C20.5523 21 21 20.5523 21 20V16C21 15.4477 20.5523 15 20 15H4Z" fill="black"/>
<path d="M19.4686 6.92627C19.3484 7 19.2016 7 18.908 6.99999L15.8 6.99995C15.52 6.99995 15.38 6.99995 15.273 6.94545C15.1789 6.89751 15.1024 6.82102 15.0545 6.72694C15 6.61999 15 6.47998 15 6.19996L15 3.09204C15 2.79842 15 2.65161 15.0737 2.53134C15.1779 2.3615 15.4232 2.25996 15.6169 2.30652C15.754 2.33949 15.8497 2.43523 16.041 2.62672L19.3733 5.95904C19.5648 6.15033 19.6605 6.24598 19.6935 6.38313C19.74 6.57684 19.6385 6.82215 19.4686 6.92627Z" fill="black"/>
<path d="M8.50331 18.7861V16.0898H9.37343V18.7861C9.37343 19.0475 9.31435 19.2731 9.19618 19.4629C9.07981 19.6509 8.92136 19.7968 8.72084 19.9006C8.52211 20.0027 8.29742 20.0537 8.04677 20.0537C7.78896 20.0537 7.55979 20.0107 7.35927 19.9248C7.15875 19.8371 7.00119 19.7037 6.88661 19.5247C6.77382 19.3438 6.71742 19.1138 6.71742 18.8345H7.59291C7.59291 18.9723 7.60992 19.0815 7.64394 19.1621C7.67974 19.2409 7.73166 19.2964 7.7997 19.3286C7.86773 19.3608 7.95009 19.377 8.04677 19.377C8.13987 19.377 8.22043 19.3546 8.28847 19.3098C8.3565 19.2633 8.40932 19.1961 8.44691 19.1084C8.48451 19.0189 8.50331 18.9115 8.50331 18.7861Z" fill="black"/>
<path d="M11.6118 18.6411H10.6289V17.9617H11.6118C11.7568 17.9617 11.8732 17.9375 11.9609 17.8892C12.0504 17.8408 12.1158 17.7746 12.1569 17.6904C12.1999 17.6045 12.2214 17.5078 12.2214 17.4004C12.2214 17.2894 12.1999 17.1864 12.1569 17.0916C12.1158 16.9949 12.0504 16.917 11.9609 16.8579C11.8732 16.7988 11.7568 16.7693 11.6118 16.7693H10.9458V20H10.0703V16.0898H11.6118C11.9233 16.0898 12.1901 16.1462 12.4121 16.259C12.6359 16.3718 12.8068 16.5267 12.925 16.7236C13.045 16.9188 13.1049 17.1426 13.1049 17.395C13.1049 17.6475 13.045 17.8668 12.925 18.053C12.8068 18.2392 12.6359 18.3842 12.4121 18.488C12.1901 18.5901 11.9233 18.6411 11.6118 18.6411Z" fill="black"/>
<path d="M16.8418 17.9348V19.5112C16.7774 19.5846 16.6789 19.6634 16.5464 19.7476C16.4157 19.8317 16.2483 19.9042 16.0442 19.9651C15.8401 20.0242 15.5966 20.0537 15.3138 20.0537C15.0577 20.0537 14.825 20.0125 14.6155 19.9302C14.406 19.846 14.2261 19.7234 14.0757 19.5623C13.9253 19.3993 13.8089 19.2006 13.7266 18.9661C13.646 18.7315 13.6057 18.463 13.6057 18.1604V17.9294C13.6057 17.6269 13.646 17.3583 13.7266 17.1238C13.8072 16.8892 13.9208 16.6914 14.0677 16.5303C14.2145 16.3674 14.389 16.2438 14.5913 16.1597C14.7936 16.0755 15.0174 16.0334 15.2627 16.0334C15.6118 16.0334 15.8974 16.0898 16.1194 16.2026C16.3414 16.3136 16.5097 16.4676 16.6243 16.6646C16.7407 16.8615 16.8123 17.088 16.8391 17.344H15.9959C15.978 17.2133 15.9422 17.1005 15.8885 17.0056C15.8365 16.9107 15.7622 16.8382 15.6656 16.7881C15.5689 16.7362 15.4436 16.7102 15.2896 16.7102C15.166 16.7102 15.0541 16.7362 14.9539 16.7881C14.8554 16.8382 14.7722 16.9143 14.7041 17.0164C14.6361 17.1184 14.5842 17.2455 14.5484 17.3977C14.5126 17.5481 14.4947 17.7236 14.4947 17.9241V18.1604C14.4947 18.3609 14.5126 18.5373 14.5484 18.6895C14.586 18.8416 14.6406 18.9688 14.7122 19.0708C14.7838 19.1711 14.8742 19.2472 14.9834 19.2991C15.0944 19.351 15.2233 19.377 15.3701 19.377C15.4847 19.377 15.5814 19.368 15.6602 19.3501C15.739 19.3304 15.8034 19.3062 15.8535 19.2776C15.9037 19.2472 15.9413 19.2194 15.9663 19.1943V18.5444H15.2708V17.9348H16.8418Z" fill="black"/>
</svg>
