<svg width="24" height="24" viewBox="0 0 24 24" fill="none" xmlns="http://www.w3.org/2000/svg">
<path fill-rule="evenodd" clip-rule="evenodd" d="M12.9989 1.95227C13 1.97612 13 1.98928 13 2.01558L13 6.43191C13 6.68429 12.9999 6.93008 13.017 7.13824C13.0356 7.36683 13.0797 7.63657 13.218 7.90799C13.4097 8.28432 13.7157 8.59028 14.092 8.78202C14.3634 8.92032 14.6332 8.96439 14.8618 8.98307C15.0699 9.00007 15.3157 9.00004 15.5681 9.00001L19.9845 9.00001C20.0107 9.00001 20.0238 9.00001 20.0477 9.00115C20.5415 9.02471 20.9756 9.45899 20.9989 9.95282C21 9.97664 21 9.98441 21 9.99994V13.1707C22.1652 13.5825 23 14.6938 23 16V20C23 21.6569 21.6569 23 20 23H4C2.34315 23 1 21.6569 1 20V16C1 14.6938 1.83481 13.5825 3 13.1707V6.75869C2.99999 5.95373 2.99998 5.28937 3.0442 4.74818C3.09012 4.18608 3.18868 3.66938 3.43598 3.18404C3.81947 2.43139 4.43139 1.81947 5.18404 1.43598C5.66938 1.18869 6.18608 1.09012 6.74818 1.0442C7.28935 0.999981 7.95368 0.99999 8.75862 1H12C12.0156 0.999995 12.0234 0.999993 12.0473 1.00112C12.541 1.02448 12.9753 1.4585 12.9989 1.95227ZM4 15C3.44772 15 3 15.4477 3 16V20C3 20.5523 3.44772 21 4 21H20C20.5523 21 21 20.5523 21 20V16C21 15.4477 20.5523 15 20 15H4Z" fill="black"/>
<path d="M19.4686 6.92627C19.3484 7 19.2016 7 18.908 6.99999L15.8 6.99995C15.52 6.99995 15.38 6.99995 15.273 6.94545C15.1789 6.89751 15.1024 6.82102 15.0545 6.72694C15 6.61999 15 6.47998 15 6.19996L15 3.09204C15 2.79842 15 2.65161 15.0737 2.53134C15.1779 2.3615 15.4232 2.25996 15.6169 2.30652C15.754 2.33949 15.8497 2.43523 16.041 2.62672L19.3733 5.95904C19.5648 6.15033 19.6605 6.24598 19.6935 6.38313C19.74 6.57684 19.6385 6.82215 19.4686 6.92627Z" fill="black"/>
<path d="M11.0124 17.9348V19.5112C10.948 19.5846 10.8495 19.6634 10.717 19.7476C10.5863 19.8317 10.4189 19.9042 10.2148 19.9651C10.0107 20.0242 9.76721 20.0537 9.48434 20.0537C9.22831 20.0537 8.99557 20.0125 8.78609 19.9302C8.57662 19.846 8.39669 19.7234 8.2463 19.5623C8.09591 19.3993 7.97953 19.2006 7.89718 18.9661C7.81661 18.7315 7.77633 18.463 7.77633 18.1604V17.9294C7.77633 17.6269 7.81661 17.3583 7.89718 17.1238C7.97774 16.8892 8.09143 16.6914 8.23824 16.5303C8.38505 16.3674 8.55961 16.2438 8.76192 16.1597C8.96423 16.0755 9.18803 16.0334 9.43331 16.0334C9.78243 16.0334 10.068 16.0898 10.29 16.2026C10.512 16.3136 10.6803 16.4676 10.7949 16.6646C10.9113 16.8615 10.9829 17.088 11.0097 17.344H10.1665C10.1486 17.2133 10.1128 17.1005 10.059 17.0056C10.0071 16.9107 9.93282 16.8382 9.83614 16.7881C9.73946 16.7362 9.61414 16.7102 9.46017 16.7102C9.33663 16.7102 9.22473 16.7362 9.12447 16.7881C9.026 16.8382 8.94275 16.9143 8.87472 17.0164C8.80668 17.1184 8.75476 17.2455 8.71896 17.3977C8.68315 17.5481 8.66524 17.7236 8.66524 17.9241V18.1604C8.66524 18.3609 8.68315 18.5373 8.71896 18.6895C8.75655 18.8416 8.81116 18.9688 8.88277 19.0708C8.95439 19.1711 9.0448 19.2472 9.15401 19.2991C9.26502 19.351 9.39392 19.377 9.54073 19.377C9.65532 19.377 9.752 19.368 9.83077 19.3501C9.90955 19.3304 9.974 19.3062 10.0241 19.2776C10.0743 19.2472 10.1119 19.2194 10.1369 19.1943V18.5444H9.44137V17.9348H11.0124Z" fill="black"/>
<path d="M12.5982 16.0898V20H11.7254V16.0898H12.5982Z" fill="black"/>
<path d="M14.235 16.0898V20H13.3595V16.0898H14.235ZM15.7738 17.7388V18.4155H13.9906V17.7388H15.7738ZM15.9457 16.0898V16.7693H13.9906V16.0898H15.9457Z" fill="black"/>
</svg>
