<svg width="24" height="24" viewBox="0 0 24 24" fill="none" xmlns="http://www.w3.org/2000/svg">
<path opacity="0.4" d="M20 8C20 8 20 10 20 9.98823V14M20 8C20 8 19.113 7.11297 18.5941 6.59411L15.4059 3.40589C14.887 2.88703 14 2.00001 14 2.00001M20 8L15.6 8C15.0399 8 14.7599 8 14.546 7.89101C14.3578 7.79513 14.2049 7.64215 14.109 7.45399C14 7.24008 14 6.96005 14 6.4V2.00001M14 2.00001C14 2.00001 12.7455 2 12.0118 2H8.8C7.11984 2 6.27976 2 5.63803 2.32698C5.07354 2.6146 4.6146 3.07354 4.32698 3.63803C4 4.27977 4 5.11984 4 6.8V14M20 14V14C21.1046 14 22 14.8948 22 15.9994C22 16.8716 22 17.871 22 18.8007C22 19.9204 22 20.4802 21.782 20.908C21.5903 21.2843 21.2843 21.5903 20.908 21.782C20.4802 22 19.9201 22 18.8 22H15.2H8.8H5.2C4.07989 22 3.51984 22 3.09202 21.782C2.71569 21.5903 2.40973 21.2843 2.21799 20.908C2 20.4802 2 19.9204 2 18.8007C2 17.871 2 16.8716 2 15.9994C2 14.8948 2.89543 14 4 14V14M20 14H4" stroke="black" stroke-width="2" stroke-linecap="round" stroke-linejoin="round"/>
<path d="M6.74121 16.0898H7.46631L8.40625 18.8855L9.34351 16.0898H10.0686L8.69897 20H8.11084L6.74121 16.0898ZM6.32227 16.0898H7.06079L7.19775 18.9875V20H6.32227V16.0898ZM9.74902 16.0898H10.4902V20H9.61206V18.9875L9.74902 16.0898Z" fill="black"/>
<path d="M12.7366 18.6411H11.7537V17.9617H12.7366C12.8817 17.9617 12.998 17.9375 13.0858 17.8892C13.1753 17.8408 13.2406 17.7746 13.2818 17.6904C13.3248 17.6045 13.3463 17.5078 13.3463 17.4004C13.3463 17.2894 13.3248 17.1864 13.2818 17.0916C13.2406 16.9949 13.1753 16.917 13.0858 16.8579C12.998 16.7988 12.8817 16.7693 12.7366 16.7693H12.0706V20H11.1951V16.0898H12.7366C13.0482 16.0898 13.3149 16.1462 13.5369 16.259C13.7607 16.3718 13.9317 16.5267 14.0499 16.7236C14.1698 16.9188 14.2298 17.1426 14.2298 17.395C14.2298 17.6475 14.1698 17.8668 14.0499 18.053C13.9317 18.2392 13.7607 18.3842 13.5369 18.488C13.3149 18.5901 13.0482 18.6411 12.7366 18.6411Z" fill="black"/>
<path d="M17.5101 18.5068V19.1567H14.6957L14.65 18.6465L16.2506 16.0898H16.914L16.1942 17.2822L15.4664 18.5068H17.5101ZM17.0912 16.0898V20H16.2533V16.0898H17.0912Z" fill="black"/>
</svg>
