<svg width="24" height="24" viewBox="0 0 24 24" fill="none" xmlns="http://www.w3.org/2000/svg">
<path opacity="0.4" d="M20 8C20 8 20 10 20 9.98823V14M20 8C20 8 19.113 7.11297 18.5941 6.59411L15.4059 3.40589C14.887 2.88703 14 2.00001 14 2.00001M20 8L15.6 8C15.0399 8 14.7599 8 14.546 7.89101C14.3578 7.79513 14.2049 7.64215 14.109 7.45399C14 7.24008 14 6.96005 14 6.4V2.00001M14 2.00001C14 2.00001 12.7455 2 12.0118 2H8.8C7.11984 2 6.27976 2 5.63803 2.32698C5.07354 2.6146 4.6146 3.07354 4.32698 3.63803C4 4.27977 4 5.11984 4 6.8V14M20 14V14C21.1046 14 22 14.8948 22 15.9994C22 16.8716 22 17.871 22 18.8007C22 19.9204 22 20.4802 21.782 20.908C21.5903 21.2843 21.2843 21.5903 20.908 21.782C20.4802 22 19.9201 22 18.8 22H15.2H8.8H5.2C4.07989 22 3.51984 22 3.09202 21.782C2.71569 21.5903 2.40973 21.2843 2.21799 20.908C2 20.4802 2 19.9204 2 18.8007C2 17.871 2 16.8716 2 15.9994C2 14.8948 2.89543 14 4 14V14M20 14H4" stroke="black" stroke-width="2" stroke-linecap="round" stroke-linejoin="round"/>
<path d="M8.06377 18.6411H7.08086V17.9617H8.06377C8.20879 17.9617 8.32516 17.9375 8.41289 17.8892C8.50241 17.8408 8.56776 17.7746 8.60894 17.6904C8.6519 17.6045 8.67339 17.5078 8.67339 17.4004C8.67339 17.2894 8.6519 17.1864 8.60894 17.0916C8.56776 16.9949 8.50241 16.917 8.41289 16.8579C8.32516 16.7988 8.20879 16.7693 8.06377 16.7693H7.39775V20H6.52227V16.0898H8.06377C8.37529 16.0898 8.64206 16.1462 8.86406 16.259C9.08786 16.3718 9.25884 16.5267 9.377 16.7236C9.49696 16.9188 9.55693 17.1426 9.55693 17.395C9.55693 17.6475 9.49696 17.8668 9.377 18.053C9.25884 18.2392 9.08786 18.3842 8.86406 18.488C8.64206 18.5901 8.37529 18.6411 8.06377 18.6411Z" fill="black"/>
<path d="M13.369 16.0898V20H12.4962L11.0192 17.4729V20H10.1437V16.0898H11.0192L12.4989 18.6169V16.0898H13.369Z" fill="black"/>
<path d="M17.2214 17.9348V19.5112C17.1569 19.5846 17.0585 19.6634 16.926 19.7476C16.7953 19.8317 16.6279 19.9042 16.4238 19.9651C16.2197 20.0242 15.9762 20.0537 15.6933 20.0537C15.4373 20.0537 15.2045 20.0125 14.9951 19.9302C14.7856 19.846 14.6057 19.7234 14.4553 19.5623C14.3049 19.3993 14.1885 19.2006 14.1061 18.9661C14.0256 18.7315 13.9853 18.463 13.9853 18.1604V17.9294C13.9853 17.6269 14.0256 17.3583 14.1061 17.1238C14.1867 16.8892 14.3004 16.6914 14.4472 16.5303C14.594 16.3674 14.7686 16.2438 14.9709 16.1597C15.1732 16.0755 15.397 16.0334 15.6423 16.0334C15.9914 16.0334 16.277 16.0898 16.499 16.2026C16.721 16.3136 16.8893 16.4676 17.0038 16.6646C17.1202 16.8615 17.1918 17.088 17.2187 17.344H16.3754C16.3575 17.2133 16.3217 17.1005 16.268 17.0056C16.2161 16.9107 16.1418 16.8382 16.0451 16.7881C15.9484 16.7362 15.8231 16.7102 15.6691 16.7102C15.5456 16.7102 15.4337 16.7362 15.3334 16.7881C15.235 16.8382 15.1517 16.9143 15.0837 17.0164C15.0156 17.1184 14.9637 17.2455 14.9279 17.3977C14.8921 17.5481 14.8742 17.7236 14.8742 17.9241V18.1604C14.8742 18.3609 14.8921 18.5373 14.9279 18.6895C14.9655 18.8416 15.0201 18.9688 15.0917 19.0708C15.1634 19.1711 15.2538 19.2472 15.363 19.2991C15.474 19.351 15.6029 19.377 15.7497 19.377C15.8643 19.377 15.961 19.368 16.0397 19.3501C16.1185 19.3304 16.183 19.3062 16.2331 19.2776C16.2832 19.2472 16.3208 19.2194 16.3459 19.1943V18.5444H15.6503V17.9348H17.2214Z" fill="black"/>
</svg>
