<svg width="24" height="24" viewBox="0 0 24 24" fill="none" xmlns="http://www.w3.org/2000/svg">
<path fill-rule="evenodd" clip-rule="evenodd" d="M12.9989 1.95227C13 1.97612 13 1.98928 13 2.01558L13 6.43191C13 6.68429 12.9999 6.93008 13.017 7.13824C13.0356 7.36683 13.0797 7.63657 13.218 7.90799C13.4097 8.28432 13.7157 8.59028 14.092 8.78202C14.3634 8.92032 14.6332 8.96439 14.8618 8.98307C15.0699 9.00007 15.3157 9.00004 15.5681 9.00001L19.9845 9.00001C20.0107 9.00001 20.0238 9.00001 20.0477 9.00115C20.5415 9.02471 20.9756 9.45899 20.9989 9.95282C21 9.97664 21 9.98441 21 9.99994V13.1707C22.1652 13.5825 23 14.6938 23 16V20C23 21.6569 21.6569 23 20 23H4C2.34315 23 1 21.6569 1 20V16C1 14.6938 1.83481 13.5825 3 13.1707V6.75869C2.99999 5.95373 2.99998 5.28937 3.0442 4.74818C3.09012 4.18608 3.18868 3.66938 3.43598 3.18404C3.81947 2.43139 4.43139 1.81947 5.18404 1.43598C5.66938 1.18869 6.18608 1.09012 6.74818 1.0442C7.28935 0.999981 7.95368 0.99999 8.75862 1H12C12.0156 0.999995 12.0234 0.999993 12.0473 1.00112C12.541 1.02448 12.9753 1.4585 12.9989 1.95227ZM4 15C3.44772 15 3 15.4477 3 16V20C3 20.5523 3.44772 21 4 21H20C20.5523 21 21 20.5523 21 20V16C21 15.4477 20.5523 15 20 15H4Z" fill="black"/>
<path d="M19.4686 6.92627C19.3484 7 19.2016 7 18.908 6.99999L15.8 6.99995C15.52 6.99995 15.38 6.99995 15.273 6.94545C15.1789 6.89751 15.1024 6.82102 15.0545 6.72694C15 6.61999 15 6.47998 15 6.19996L15 3.09204C15 2.79842 15 2.65161 15.0737 2.53134C15.1779 2.3615 15.4232 2.25996 15.6169 2.30652C15.754 2.33949 15.8497 2.43523 16.041 2.62672L19.3733 5.95904C19.5648 6.15033 19.6605 6.24598 19.6935 6.38313C19.74 6.57684 19.6385 6.82215 19.4686 6.92627Z" fill="black"/>
<path d="M7.43798 19.9468H6V16.0532H7.44986C7.85789 16.0532 8.20913 16.1312 8.50359 16.2871C8.79805 16.4417 9.02451 16.6641 9.18297 16.9544C9.34274 17.2446 9.42263 17.5919 9.42263 17.9962C9.42263 18.4018 9.34274 18.7503 9.18297 19.0418C9.02451 19.3333 8.79673 19.557 8.49963 19.7129C8.20385 19.8688 7.84996 19.9468 7.43798 19.9468ZM6.85764 19.2414H7.40233C7.65586 19.2414 7.86911 19.1984 8.04209 19.1122C8.21639 19.0247 8.34712 18.8897 8.43427 18.7072C8.52274 18.5234 8.56697 18.2864 8.56697 17.9962C8.56697 17.7085 8.52274 17.4734 8.43427 17.2909C8.34712 17.1084 8.21705 16.974 8.04407 16.8878C7.87109 16.8016 7.65784 16.7586 7.40431 16.7586H6.85764V19.2414Z" fill="black"/>
<path d="M13.7856 18C13.7856 18.4246 13.7017 18.7858 13.534 19.0837C13.3677 19.3815 13.1405 19.609 12.8527 19.7662C12.5661 19.9221 12.244 20 11.8861 20C11.5256 20 11.2021 19.9214 10.9156 19.7643C10.629 19.6071 10.4026 19.3796 10.2362 19.0817C10.0698 18.7839 9.98663 18.4233 9.98663 18C9.98663 17.5754 10.0698 17.2142 10.2362 16.9164C10.4026 16.6185 10.629 16.3916 10.9156 16.2357C11.2021 16.0786 11.5256 16 11.8861 16C12.244 16 12.5661 16.0786 12.8527 16.2357C13.1405 16.3916 13.3677 16.6185 13.534 16.9164C13.7017 17.2142 13.7856 17.5754 13.7856 18ZM12.9161 18C12.9161 17.725 12.8732 17.493 12.7873 17.3042C12.7028 17.1153 12.5833 16.9721 12.4288 16.8745C12.2743 16.7769 12.0934 16.7281 11.8861 16.7281C11.6788 16.7281 11.4979 16.7769 11.3434 16.8745C11.1889 16.9721 11.0687 17.1153 10.9829 17.3042C10.8984 17.493 10.8562 17.725 10.8562 18C10.8562 18.275 10.8984 18.507 10.9829 18.6958C11.0687 18.8847 11.1889 19.0279 11.3434 19.1255C11.4979 19.2231 11.6788 19.2719 11.8861 19.2719C12.0934 19.2719 12.2743 19.2231 12.4288 19.1255C12.5833 19.0279 12.7028 18.8847 12.7873 18.6958C12.8732 18.507 12.9161 18.275 12.9161 18Z" fill="black"/>
<path d="M18 17.4163H17.1325C17.1166 17.3086 17.0843 17.2129 17.0354 17.1293C16.9865 17.0444 16.9238 16.9721 16.8472 16.9125C16.7707 16.853 16.6822 16.8074 16.5818 16.7757C16.4828 16.744 16.3752 16.7281 16.259 16.7281C16.049 16.7281 15.8661 16.7782 15.7103 16.8783C15.5545 16.9772 15.4337 17.1217 15.3479 17.3118C15.262 17.5006 15.2191 17.73 15.2191 18C15.2191 18.2776 15.262 18.5108 15.3479 18.6996C15.435 18.8885 15.5565 19.0311 15.7123 19.1274C15.8681 19.2237 16.0484 19.2719 16.253 19.2719C16.3679 19.2719 16.4742 19.2573 16.5719 19.2281C16.671 19.199 16.7588 19.1565 16.8354 19.1008C16.9119 19.0437 16.9753 18.9747 17.0255 18.8935C17.077 18.8124 17.1127 18.7199 17.1325 18.616L18 18.6198C17.9776 18.7985 17.9214 18.9708 17.8316 19.1369C17.7432 19.3016 17.6237 19.4493 17.4731 19.5798C17.3239 19.7091 17.1457 19.8118 16.9384 19.8878C16.7324 19.9626 16.4993 20 16.2392 20C15.8774 20 15.5539 19.9214 15.2686 19.7643C14.9847 19.6071 14.7603 19.3796 14.5952 19.0817C14.4315 18.7839 14.3496 18.4233 14.3496 18C14.3496 17.5754 14.4328 17.2142 14.5992 16.9164C14.7655 16.6185 14.9913 16.3916 15.2766 16.2357C15.5618 16.0786 15.8826 16 16.2392 16C16.4742 16 16.6921 16.0317 16.8928 16.0951C17.0948 16.1584 17.2737 16.251 17.4296 16.3726C17.5854 16.493 17.7121 16.6407 17.8099 16.8156C17.9089 16.9905 17.9723 17.1907 18 17.4163Z" fill="black"/>
</svg>
