<svg width="24" height="24" viewBox="0 0 24 24" fill="none" xmlns="http://www.w3.org/2000/svg">
<path opacity="0.4" d="M20 8C20 8 20 10 20 9.98823V14M20 8C20 8 19.113 7.11297 18.5941 6.59411L15.4059 3.40589C14.887 2.88703 14 2.00001 14 2.00001M20 8L15.6 8C15.0399 8 14.7599 8 14.546 7.89101C14.3578 7.79513 14.2049 7.64215 14.109 7.45399C14 7.24008 14 6.96005 14 6.4V2.00001M14 2.00001C14 2.00001 12.7455 2 12.0118 2H8.8C7.11984 2 6.27976 2 5.63803 2.32698C5.07354 2.6146 4.6146 3.07354 4.32698 3.63803C4 4.27977 4 5.11984 4 6.8V14M20 14V14C21.1046 14 22 14.8948 22 15.9994C22 16.8716 22 17.871 22 18.8007C22 19.9204 22 20.4802 21.782 20.908C21.5903 21.2843 21.2843 21.5903 20.908 21.782C20.4802 22 19.9201 22 18.8 22H15.2H8.8H5.2C4.07989 22 3.51984 22 3.09202 21.782C2.71569 21.5903 2.40973 21.2843 2.21799 20.908C2 20.4802 2 19.9204 2 18.8007C2 17.871 2 16.8716 2 15.9994C2 14.8948 2.89543 14 4 14V14M20 14H4" stroke="black" stroke-width="2" stroke-linecap="round" stroke-linejoin="round"/>
<path d="M6.89331 18.7861V16.0898H7.76343V18.7861C7.76343 19.0475 7.70435 19.2731 7.58618 19.4629C7.46981 19.6509 7.31136 19.7968 7.11084 19.9006C6.91211 20.0027 6.68742 20.0537 6.43677 20.0537C6.17896 20.0537 5.94979 20.0107 5.74927 19.9248C5.54875 19.8371 5.39119 19.7037 5.27661 19.5247C5.16382 19.3438 5.10742 19.1138 5.10742 18.8345H5.98291C5.98291 18.9723 5.99992 19.0815 6.03394 19.1621C6.06974 19.2409 6.12166 19.2964 6.1897 19.3286C6.25773 19.3608 6.34009 19.377 6.43677 19.377C6.52987 19.377 6.61043 19.3546 6.67847 19.3098C6.7465 19.2633 6.79932 19.1961 6.83691 19.1084C6.87451 19.0189 6.89331 18.9115 6.89331 18.7861Z" fill="black"/>
<path d="M10.0018 18.6411H9.01887V17.9617H10.0018C10.1468 17.9617 10.2632 17.9375 10.3509 17.8892C10.4404 17.8408 10.5058 17.7746 10.5469 17.6904C10.5899 17.6045 10.6114 17.5078 10.6114 17.4004C10.6114 17.2894 10.5899 17.1864 10.5469 17.0916C10.5058 16.9949 10.4404 16.917 10.3509 16.8579C10.2632 16.7988 10.1468 16.7693 10.0018 16.7693H9.33576V20H8.46027V16.0898H10.0018C10.3133 16.0898 10.5801 16.1462 10.8021 16.259C11.0259 16.3718 11.1968 16.5267 11.315 16.7236C11.435 16.9188 11.4949 17.1426 11.4949 17.395C11.4949 17.6475 11.435 17.8668 11.315 18.053C11.1968 18.2392 11.0259 18.3842 10.8021 18.488C10.5801 18.5901 10.3133 18.6411 10.0018 18.6411Z" fill="black"/>
<path d="M14.7404 19.3232V20H12.6591V19.3232H14.7404ZM12.9572 16.0898V20H12.0817V16.0898H12.9572ZM14.4718 17.6636V18.3188H12.6591V17.6636H14.4718ZM14.7431 16.0898V16.7693H12.6591V16.0898H14.7431Z" fill="black"/>
<path d="M18.3752 17.9348V19.5112C18.3108 19.5846 18.2123 19.6634 18.0798 19.7476C17.9491 19.8317 17.7817 19.9042 17.5776 19.9651C17.3735 20.0242 17.13 20.0537 16.8471 20.0537C16.5911 20.0537 16.3584 20.0125 16.1489 19.9302C15.9394 19.846 15.7595 19.7234 15.6091 19.5623C15.4587 19.3993 15.3423 19.2006 15.26 18.9661C15.1794 18.7315 15.1391 18.463 15.1391 18.1604V17.9294C15.1391 17.6269 15.1794 17.3583 15.26 17.1238C15.3405 16.8892 15.4542 16.6914 15.601 16.5303C15.7478 16.3674 15.9224 16.2438 16.1247 16.1597C16.327 16.0755 16.5508 16.0334 16.7961 16.0334C17.1452 16.0334 17.4308 16.0898 17.6528 16.2026C17.8748 16.3136 18.0431 16.4676 18.1577 16.6646C18.274 16.8615 18.3457 17.088 18.3725 17.344H17.5293C17.5114 17.2133 17.4755 17.1005 17.4218 17.0056C17.3699 16.9107 17.2956 16.8382 17.1989 16.7881C17.1023 16.7362 16.9769 16.7102 16.823 16.7102C16.6994 16.7102 16.5875 16.7362 16.4873 16.7881C16.3888 16.8382 16.3055 16.9143 16.2375 17.0164C16.1695 17.1184 16.1176 17.2455 16.0817 17.3977C16.0459 17.5481 16.028 17.7236 16.028 17.9241V18.1604C16.028 18.3609 16.0459 18.5373 16.0817 18.6895C16.1193 18.8416 16.174 18.9688 16.2456 19.0708C16.3172 19.1711 16.4076 19.2472 16.5168 19.2991C16.6278 19.351 16.7567 19.377 16.9035 19.377C17.0181 19.377 17.1148 19.368 17.1936 19.3501C17.2723 19.3304 17.3368 19.3062 17.3869 19.2776C17.4371 19.2472 17.4747 19.2194 17.4997 19.1943V18.5444H16.8042V17.9348H18.3752Z" fill="black"/>
</svg>
