<svg width="24" height="24" viewBox="0 0 24 24" fill="none" xmlns="http://www.w3.org/2000/svg">
<path opacity="0.4" d="M20 8C20 8 20 10 20 9.98822V14M20 8C20 8 19.113 7.11297 18.5941 6.59411L15.4059 3.40589C14.887 2.88703 14 2.00001 14 2.00001M20 8L15.6 8C15.0399 8 14.7599 8 14.546 7.89101C14.3578 7.79513 14.2049 7.64215 14.109 7.45399C14 7.24008 14 6.96005 14 6.4V2.00001M14 2.00001C14 2.00001 12.7455 2 12.0118 2H8.8C7.11984 2 6.27976 2 5.63803 2.32698C5.07354 2.6146 4.6146 3.07354 4.32698 3.63803C4 4.27976 4 5.11984 4 6.8V14M20 14V14C21.1046 14 22 14.8948 22 15.9994C22 16.8716 22 17.871 22 18.8007C22 19.9204 22 20.4802 21.782 20.908C21.5903 21.2843 21.2843 21.5903 20.908 21.782C20.4802 22 19.9201 22 18.8 22H15.2H8.8H5.2C4.07989 22 3.51984 22 3.09202 21.782C2.71569 21.5903 2.40973 21.2843 2.21799 20.908C2 20.4802 2 19.9204 2 18.8007C2 17.871 2 16.8716 2 15.9994C2 14.8948 2.89543 14 4 14V14M20 14H4" stroke="black" stroke-width="2" stroke-linecap="round" stroke-linejoin="round"/>
<path d="M5.96387 16.0532L6.75527 17.3796H6.78593L7.58117 16.0532H8.5182L7.32056 17.999L8.54503 19.9449H7.59075L6.78593 18.6166H6.75527L5.95045 19.9449H5L6.22831 17.999L5.02299 16.0532H5.96387Z" fill="black"/>
<path d="M9.04325 19.9449V16.0532H9.87298V19.2665H11.5554V19.9449H9.04325Z" fill="black"/>
<path d="M14.2338 17.1724C14.2185 17.0192 14.1527 16.9001 14.0365 16.8152C13.9202 16.7303 13.7625 16.6879 13.5632 16.6879C13.4278 16.6879 13.3134 16.7069 13.2202 16.7449C13.1269 16.7816 13.0554 16.8329 13.0055 16.8988C12.957 16.9647 12.9327 17.0394 12.9327 17.123C12.9302 17.1927 12.9449 17.2535 12.9768 17.3055C13.01 17.3574 13.0554 17.4024 13.1129 17.4404C13.1703 17.4771 13.2368 17.5094 13.3121 17.5373C13.3875 17.5639 13.468 17.5867 13.5536 17.6057L13.9062 17.6893C14.0774 17.7273 14.2345 17.778 14.3776 17.8413C14.5206 17.9047 14.6446 17.9826 14.7493 18.0751C14.8541 18.1675 14.9352 18.2765 14.9927 18.4019C15.0514 18.5273 15.0815 18.6711 15.0827 18.8333C15.0815 19.0714 15.0201 19.2779 14.8988 19.4527C14.7787 19.6263 14.605 19.7612 14.3776 19.8575C14.1515 19.9525 13.8787 20 13.5593 20C13.2425 20 12.9666 19.9519 12.7315 19.8556C12.4977 19.7593 12.3151 19.6168 12.1835 19.428C12.0532 19.238 11.9848 19.003 11.9784 18.723H12.7813C12.7903 18.8535 12.828 18.9625 12.8944 19.0499C12.9621 19.136 13.0522 19.2013 13.1646 19.2456C13.2783 19.2887 13.4067 19.3102 13.5498 19.3102C13.6903 19.3102 13.8123 19.2899 13.9158 19.2494C14.0205 19.2089 14.1016 19.1525 14.1591 19.0803C14.2166 19.0081 14.2453 18.9251 14.2453 18.8314C14.2453 18.7439 14.2192 18.6705 14.1668 18.6109C14.1157 18.5514 14.0403 18.5007 13.9407 18.4589C13.8423 18.4171 13.7216 18.3791 13.5785 18.3449L13.1512 18.2385C12.8203 18.1587 12.5591 18.0339 12.3674 17.8641C12.1758 17.6944 12.0806 17.4657 12.0819 17.1781C12.0806 16.9425 12.1439 16.7367 12.2716 16.5606C12.4007 16.3845 12.5776 16.247 12.8024 16.1482C13.0273 16.0494 13.2828 16 13.5689 16C13.8602 16 14.1144 16.0494 14.3316 16.1482C14.55 16.247 14.7199 16.3845 14.8413 16.5606C14.9627 16.7367 15.0253 16.9406 15.0291 17.1724H14.2338Z" fill="black"/>
<path d="M16.4188 16.0532L17.2102 17.3796H17.2409L18.0361 16.0532H18.9732L17.7755 17.999L19 19.9449H18.0457L17.2409 18.6166H17.2102L16.4054 19.9449H15.455L16.6833 17.999L15.478 16.0532H16.4188Z" fill="black"/>
</svg>
