<svg width="24" height="24" viewBox="0 0 24 24" fill="none" xmlns="http://www.w3.org/2000/svg">
<path opacity="0.4" d="M20 8C20 8 20 10 20 9.98823V14M20 8C20 8 19.113 7.11297 18.5941 6.59411L15.4059 3.40589C14.887 2.88703 14 2.00001 14 2.00001M20 8L15.6 8C15.0399 8 14.7599 8 14.546 7.89101C14.3578 7.79513 14.2049 7.64215 14.109 7.45399C14 7.24008 14 6.96005 14 6.4V2.00001M14 2.00001C14 2.00001 12.7455 2 12.0118 2H8.8C7.11984 2 6.27976 2 5.63803 2.32698C5.07354 2.6146 4.6146 3.07354 4.32698 3.63803C4 4.27977 4 5.11984 4 6.8V14M20 14V14C21.1046 14 22 14.8948 22 15.9994C22 16.8716 22 17.871 22 18.8007C22 19.9204 22 20.4802 21.782 20.908C21.5903 21.2843 21.2843 21.5903 20.908 21.782C20.4802 22 19.9201 22 18.8 22H15.2H8.8H5.2C4.07989 22 3.51984 22 3.09202 21.782C2.71569 21.5903 2.40973 21.2843 2.21799 20.908C2 20.4802 2 19.9204 2 18.8007C2 17.871 2 16.8716 2 15.9994C2 14.8948 2.89543 14 4 14V14M20 14H4" stroke="black" stroke-width="2" stroke-linecap="round" stroke-linejoin="round"/>
<path d="M8.39331 18.7861V16.0898H9.26343V18.7861C9.26343 19.0475 9.20435 19.2731 9.08618 19.4629C8.96981 19.6509 8.81136 19.7968 8.61084 19.9006C8.41211 20.0027 8.18742 20.0537 7.93677 20.0537C7.67896 20.0537 7.44979 20.0107 7.24927 19.9248C7.04875 19.8371 6.89119 19.7037 6.77661 19.5247C6.66382 19.3438 6.60742 19.1138 6.60742 18.8345H7.48291C7.48291 18.9723 7.49992 19.0815 7.53394 19.1621C7.56974 19.2409 7.62166 19.2964 7.6897 19.3286C7.75773 19.3608 7.84009 19.377 7.93677 19.377C8.02987 19.377 8.11043 19.3546 8.17847 19.3098C8.2465 19.2633 8.29932 19.1961 8.33691 19.1084C8.37451 19.0189 8.39331 18.9115 8.39331 18.7861Z" fill="black"/>
<path d="M11.5018 18.6411H10.5189V17.9617H11.5018C11.6468 17.9617 11.7632 17.9375 11.8509 17.8892C11.9404 17.8408 12.0058 17.7746 12.0469 17.6904C12.0899 17.6045 12.1114 17.5078 12.1114 17.4004C12.1114 17.2894 12.0899 17.1864 12.0469 17.0916C12.0058 16.9949 11.9404 16.917 11.8509 16.8579C11.7632 16.7988 11.6468 16.7693 11.5018 16.7693H10.8358V20H9.96027V16.0898H11.5018C11.8133 16.0898 12.0801 16.1462 12.3021 16.259C12.5259 16.3718 12.6968 16.5267 12.815 16.7236C12.935 16.9188 12.9949 17.1426 12.9949 17.395C12.9949 17.6475 12.935 17.8668 12.815 18.053C12.6968 18.2392 12.5259 18.3842 12.3021 18.488C12.0801 18.5901 11.8133 18.6411 11.5018 18.6411Z" fill="black"/>
<path d="M16.7318 17.9348V19.5112C16.6674 19.5846 16.5689 19.6634 16.4364 19.7476C16.3057 19.8317 16.1383 19.9042 15.9342 19.9651C15.7301 20.0242 15.4866 20.0537 15.2038 20.0537C14.9477 20.0537 14.715 20.0125 14.5055 19.9302C14.296 19.846 14.1161 19.7234 13.9657 19.5623C13.8153 19.3993 13.6989 19.2006 13.6166 18.9661C13.536 18.7315 13.4957 18.463 13.4957 18.1604V17.9294C13.4957 17.6269 13.536 17.3583 13.6166 17.1238C13.6972 16.8892 13.8108 16.6914 13.9577 16.5303C14.1045 16.3674 14.279 16.2438 14.4813 16.1597C14.6836 16.0755 14.9074 16.0334 15.1527 16.0334C15.5018 16.0334 15.7874 16.0898 16.0094 16.2026C16.2314 16.3136 16.3997 16.4676 16.5143 16.6646C16.6307 16.8615 16.7023 17.088 16.7291 17.344H15.8859C15.868 17.2133 15.8322 17.1005 15.7785 17.0056C15.7265 16.9107 15.6522 16.8382 15.5556 16.7881C15.4589 16.7362 15.3336 16.7102 15.1796 16.7102C15.056 16.7102 14.9441 16.7362 14.8439 16.7881C14.7454 16.8382 14.6622 16.9143 14.5941 17.0164C14.5261 17.1184 14.4742 17.2455 14.4384 17.3977C14.4026 17.5481 14.3847 17.7236 14.3847 17.9241V18.1604C14.3847 18.3609 14.4026 18.5373 14.4384 18.6895C14.476 18.8416 14.5306 18.9688 14.6022 19.0708C14.6738 19.1711 14.7642 19.2472 14.8734 19.2991C14.9844 19.351 15.1133 19.377 15.2601 19.377C15.3747 19.377 15.4714 19.368 15.5502 19.3501C15.629 19.3304 15.6934 19.3062 15.7435 19.2776C15.7937 19.2472 15.8313 19.2194 15.8563 19.1943V18.5444H15.1608V17.9348H16.7318Z" fill="black"/>
</svg>
