<svg width="24" height="24" viewBox="0 0 24 24" fill="none" xmlns="http://www.w3.org/2000/svg">
<path fill-rule="evenodd" clip-rule="evenodd" d="M12.9989 1.95227C13 1.97612 13 1.98928 13 2.01558L13 6.43191C13 6.68429 12.9999 6.93008 13.017 7.13824C13.0356 7.36683 13.0797 7.63657 13.218 7.90799C13.4097 8.28432 13.7157 8.59028 14.092 8.78202C14.3634 8.92032 14.6332 8.96439 14.8618 8.98307C15.0699 9.00007 15.3157 9.00004 15.5681 9.00001L19.9845 9.00001C20.0107 9.00001 20.0238 9.00001 20.0477 9.00115C20.5415 9.02471 20.9756 9.45899 20.9989 9.95282C21 9.97664 21 9.98441 21 9.99994V13.1707C22.1652 13.5825 23 14.6938 23 16V20C23 21.6569 21.6569 23 20 23H4C2.34315 23 1 21.6569 1 20V16C1 14.6938 1.83481 13.5825 3 13.1707V6.75869C2.99999 5.95373 2.99998 5.28937 3.0442 4.74818C3.09012 4.18608 3.18868 3.66938 3.43598 3.18404C3.81947 2.43139 4.43139 1.81947 5.18404 1.43598C5.66938 1.18869 6.18608 1.09012 6.74818 1.0442C7.28935 0.999981 7.95368 0.99999 8.75862 1H12C12.0156 0.999995 12.0234 0.999993 12.0473 1.00112C12.541 1.02448 12.9753 1.4585 12.9989 1.95227ZM4 15C3.44772 15 3 15.4477 3 16V20C3 20.5523 3.44772 21 4 21H20C20.5523 21 21 20.5523 21 20V16C21 15.4477 20.5523 15 20 15H4Z" fill="black"/>
<path d="M19.4686 6.92627C19.3484 7 19.2016 7 18.908 6.99999L15.8 6.99995C15.52 6.99995 15.38 6.99995 15.273 6.94545C15.1789 6.89751 15.1024 6.82102 15.0545 6.72694C15 6.61999 15 6.47998 15 6.19996L15 3.09204C15 2.79842 15 2.65161 15.0737 2.53134C15.1779 2.3615 15.4232 2.25996 15.6169 2.30652C15.754 2.33949 15.8497 2.43523 16.041 2.62672L19.3733 5.95904C19.5648 6.15033 19.6605 6.24598 19.6935 6.38313C19.74 6.57684 19.6385 6.82215 19.4686 6.92627Z" fill="black"/>
<path d="M9.89502 17.4157H9.08817C9.07344 17.308 9.04335 17.2124 8.99791 17.1287C8.95247 17.0439 8.89414 16.9717 8.82291 16.9121C8.75168 16.8526 8.6694 16.807 8.57607 16.7753C8.48396 16.7436 8.38387 16.7278 8.2758 16.7278C8.08054 16.7278 7.91045 16.7778 7.76553 16.8779C7.62062 16.9767 7.50825 17.1211 7.42843 17.3112C7.3486 17.4999 7.30869 17.7292 7.30869 17.9991C7.30869 18.2765 7.3486 18.5096 7.42843 18.6983C7.50948 18.8871 7.62246 19.0296 7.76738 19.1259C7.91229 19.2222 8.07992 19.2703 8.27027 19.2703C8.37712 19.2703 8.47598 19.2557 8.56686 19.2266C8.65896 19.1975 8.74063 19.155 8.81186 19.0993C8.88309 19.0423 8.94203 18.9732 8.9887 18.8922C9.0366 18.8111 9.06975 18.7186 9.08817 18.6147L9.89502 18.6185C9.87415 18.7972 9.82195 18.9694 9.73844 19.1354C9.65616 19.3001 9.54502 19.4477 9.40502 19.5781C9.26625 19.7074 9.10046 19.81 8.90765 19.886C8.71607 19.9607 8.49931 19.9981 8.25738 19.9981C7.92089 19.9981 7.62001 19.9196 7.35474 19.7625C7.09071 19.6054 6.88193 19.378 6.72842 19.0803C6.57614 18.7826 6.5 18.4222 6.5 17.9991C6.5 17.5747 6.57737 17.2136 6.73211 16.9159C6.88684 16.6182 7.09685 16.3914 7.36211 16.2356C7.62738 16.0785 7.9258 16 8.25738 16C8.47598 16 8.67861 16.0317 8.86528 16.095C9.05317 16.1584 9.21958 16.2508 9.36449 16.3724C9.50941 16.4928 9.6273 16.6404 9.71818 16.8152C9.81028 16.99 9.86923 17.1902 9.89502 17.4157Z" fill="black"/>
<path d="M12.6173 17.1724C12.6026 17.0192 12.5394 16.9001 12.4276 16.8152C12.3158 16.7303 12.1642 16.6879 11.9726 16.6879C11.8424 16.6879 11.7325 16.7069 11.6429 16.7449C11.5532 16.7816 11.4844 16.8329 11.4365 16.8988C11.3899 16.9647 11.3665 17.0394 11.3665 17.123C11.3641 17.1927 11.3782 17.2535 11.4089 17.3055C11.4408 17.3574 11.4844 17.4024 11.5397 17.4404C11.595 17.4771 11.6588 17.5094 11.7313 17.5373C11.8037 17.5639 11.8811 17.5867 11.9634 17.6057L12.3023 17.6893C12.4669 17.7273 12.618 17.778 12.7555 17.8413C12.893 17.9047 13.0122 17.9826 13.1129 18.0751C13.2136 18.1675 13.2916 18.2765 13.3468 18.4019C13.4033 18.5273 13.4322 18.6711 13.4334 18.8333C13.4322 19.0714 13.3732 19.2779 13.2566 19.4527C13.1411 19.6263 12.9741 19.7612 12.7555 19.8575C12.5381 19.9525 12.2759 20 11.9689 20C11.6644 20 11.3991 19.9519 11.1731 19.8556C10.9484 19.7593 10.7728 19.6168 10.6463 19.428C10.521 19.238 10.4553 19.003 10.4492 18.723H11.221C11.2296 18.8535 11.2658 18.9625 11.3297 19.0499C11.3948 19.136 11.4814 19.2013 11.5894 19.2456C11.6987 19.2887 11.8222 19.3102 11.9597 19.3102C12.0948 19.3102 12.2121 19.2899 12.3115 19.2494C12.4123 19.2089 12.4902 19.1525 12.5455 19.0803C12.6008 19.0081 12.6284 18.9251 12.6284 18.8314C12.6284 18.7439 12.6032 18.6705 12.5529 18.6109C12.5037 18.5514 12.4313 18.5007 12.3355 18.4589C12.2409 18.4171 12.1249 18.3791 11.9873 18.3449L11.5765 18.2385C11.2585 18.1587 11.0073 18.0339 10.8231 17.8641C10.6389 17.6944 10.5474 17.4657 10.5486 17.1781C10.5474 16.9425 10.6082 16.7367 10.731 16.5606C10.855 16.3845 11.0251 16.247 11.2413 16.1482C11.4574 16.0494 11.703 16 11.9781 16C12.2581 16 12.5025 16.0494 12.7113 16.1482C12.9213 16.247 13.0846 16.3845 13.2013 16.5606C13.318 16.7367 13.3781 16.9406 13.3818 17.1724H12.6173Z" fill="black"/>
<path d="M14.7552 16.0532L15.6671 19.01H15.7021L16.6158 16.0532H17.5L16.1995 19.9449H15.1716L13.8692 16.0532H14.7552Z" fill="black"/>
</svg>
