<svg width="24" height="24" viewBox="0 0 24 24" fill="none" xmlns="http://www.w3.org/2000/svg">
<path fill-rule="evenodd" clip-rule="evenodd" d="M12.9989 1.95227C13 1.97612 13 1.98928 13 2.01558L13 6.43191C13 6.68429 12.9999 6.93008 13.017 7.13824C13.0356 7.36683 13.0797 7.63657 13.218 7.90799C13.4097 8.28432 13.7157 8.59028 14.092 8.78202C14.3634 8.92032 14.6332 8.96439 14.8618 8.98307C15.0699 9.00007 15.3157 9.00004 15.5681 9.00001L19.9845 9.00001C20.0107 9.00001 20.0238 9.00001 20.0477 9.00115C20.5415 9.02471 20.9756 9.45899 20.9989 9.95282C21 9.97664 21 9.98441 21 9.99994V13.1707C22.1652 13.5825 23 14.6938 23 16V20C23 21.6569 21.6569 23 20 23H4C2.34315 23 1 21.6569 1 20V16C1 14.6938 1.83481 13.5825 3 13.1707V6.75869C2.99999 5.95373 2.99998 5.28937 3.0442 4.74818C3.09012 4.18608 3.18868 3.66938 3.43598 3.18404C3.81947 2.43139 4.43139 1.81947 5.18404 1.43598C5.66938 1.18869 6.18608 1.09012 6.74818 1.0442C7.28935 0.999981 7.95368 0.99999 8.75862 1H12C12.0156 0.999995 12.0234 0.999993 12.0473 1.00112C12.541 1.02448 12.9753 1.4585 12.9989 1.95227ZM4 15C3.44772 15 3 15.4477 3 16V20C3 20.5523 3.44772 21 4 21H20C20.5523 21 21 20.5523 21 20V16C21 15.4477 20.5523 15 20 15H4Z" fill="black"/>
<path d="M19.4686 6.92627C19.3484 7 19.2016 7 18.908 6.99999L15.8 6.99995C15.52 6.99995 15.38 6.99995 15.273 6.94545C15.1789 6.89751 15.1024 6.82102 15.0545 6.72694C15 6.61999 15 6.47998 15 6.19996L15 3.09204C15 2.79842 15 2.65161 15.0737 2.53134C15.1779 2.3615 15.4232 2.25996 15.6169 2.30652C15.754 2.33949 15.8497 2.43523 16.041 2.62672L19.3733 5.95904C19.5648 6.15033 19.6605 6.24598 19.6935 6.38313C19.74 6.57684 19.6385 6.82215 19.4686 6.92627Z" fill="black"/>
<path d="M7 20V16H8.54552C8.84264 16 9.09577 16.0579 9.3049 16.1738C9.51403 16.2884 9.67342 16.4479 9.78309 16.6523C9.89403 16.8555 9.9495 17.0898 9.9495 17.3555C9.9495 17.6211 9.89339 17.8555 9.78118 18.0586C9.66896 18.2617 9.50638 18.4199 9.29342 18.5332C9.08174 18.6465 8.82543 18.7031 8.52448 18.7031H7.5394V18.0254H8.39059C8.54999 18.0254 8.68133 17.9974 8.78462 17.9414C8.88919 17.8841 8.96697 17.8053 9.01798 17.7051C9.07026 17.6035 9.0964 17.487 9.0964 17.3555C9.0964 17.2227 9.07026 17.1068 9.01798 17.0078C8.96697 16.9076 8.88919 16.8301 8.78462 16.7754C8.68006 16.7194 8.54744 16.6914 8.38676 16.6914H7.82823V20H7Z" fill="black"/>
<path d="M11.8761 20H10.4875V16H11.8876C12.2817 16 12.6209 16.0801 12.9052 16.2402C13.1896 16.3991 13.4083 16.6276 13.5613 16.9258C13.7156 17.224 13.7928 17.5807 13.7928 17.9961C13.7928 18.4128 13.7156 18.7708 13.5613 19.0703C13.4083 19.3698 13.1883 19.5996 12.9014 19.7598C12.6158 19.9199 12.274 20 11.8761 20ZM11.3157 19.2754H11.8417C12.0866 19.2754 12.2925 19.2311 12.4595 19.1426C12.6279 19.0527 12.7541 18.9141 12.8383 18.7266C12.9237 18.5378 12.9664 18.2943 12.9664 17.9961C12.9664 17.7005 12.9237 17.459 12.8383 17.2715C12.7541 17.084 12.6285 16.946 12.4615 16.8574C12.2944 16.7689 12.0885 16.7246 11.8436 16.7246H11.3157V19.2754Z" fill="black"/>
<path d="M14.4063 20V16H17V16.6973H15.2345V17.6504H16.8279V18.3477H15.2345V20H14.4063Z" fill="black"/>
</svg>
