<svg width="24" height="24" viewBox="0 0 24 24" fill="none" xmlns="http://www.w3.org/2000/svg">
<path fill-rule="evenodd" clip-rule="evenodd" d="M12.9989 1.95227C13 1.97612 13 1.98928 13 2.01558L13 6.43191C13 6.68429 12.9999 6.93008 13.017 7.13824C13.0356 7.36683 13.0797 7.63657 13.218 7.90799C13.4097 8.28432 13.7157 8.59028 14.092 8.78202C14.3634 8.92032 14.6332 8.96439 14.8618 8.98307C15.0699 9.00007 15.3157 9.00004 15.5681 9.00001L19.9845 9.00001C20.0107 9.00001 20.0238 9.00001 20.0477 9.00115C20.5415 9.02471 20.9756 9.45899 20.9989 9.95282C21 9.97664 21 9.98441 21 9.99994V13.1707C22.1652 13.5825 23 14.6938 23 16V20C23 21.6569 21.6569 23 20 23H4C2.34315 23 1 21.6569 1 20V16C1 14.6938 1.83481 13.5825 3 13.1707V6.75869C2.99999 5.95373 2.99998 5.28937 3.0442 4.74818C3.09012 4.18608 3.18868 3.66938 3.43598 3.18404C3.81947 2.43139 4.43139 1.81947 5.18404 1.43598C5.66938 1.18869 6.18608 1.09012 6.74818 1.0442C7.28935 0.999981 7.95368 0.99999 8.75862 1H12C12.0156 0.999995 12.0234 0.999993 12.0473 1.00112C12.541 1.02448 12.9753 1.4585 12.9989 1.95227ZM4 15C3.44772 15 3 15.4477 3 16V20C3 20.5523 3.44772 21 4 21H20C20.5523 21 21 20.5523 21 20V16C21 15.4477 20.5523 15 20 15H4Z" fill="black"/>
<path d="M19.4686 6.92627C19.3484 7 19.2016 7 18.908 6.99999L15.8 6.99995C15.52 6.99995 15.38 6.99995 15.273 6.94545C15.1789 6.89751 15.1024 6.82102 15.0545 6.72694C15 6.61999 15 6.47998 15 6.19996L15 3.09204C15 2.79842 15 2.65161 15.0737 2.53134C15.1779 2.3615 15.4232 2.25996 15.6169 2.30652C15.754 2.33949 15.8497 2.43523 16.041 2.62672L19.3733 5.95904C19.5648 6.15033 19.6605 6.24598 19.6935 6.38313C19.74 6.57684 19.6385 6.82215 19.4686 6.92627Z" fill="black"/>
<path d="M5 20V16H6.55374C6.85244 16 7.10691 16.0579 7.31715 16.1738C7.52739 16.2884 7.68764 16.4479 7.79788 16.6523C7.90942 16.8555 7.96518 17.0898 7.96518 17.3555C7.96518 17.6211 7.90878 17.8555 7.79596 18.0586C7.68315 18.2617 7.5197 18.4199 7.30561 18.5332C7.09281 18.6465 6.83513 18.7031 6.53259 18.7031H5.54227V18.0254H6.39798C6.55823 18.0254 6.69027 17.9974 6.79411 17.9414C6.89923 17.8841 6.97743 17.8053 7.02871 17.7051C7.08127 17.6035 7.10755 17.487 7.10755 17.3555C7.10755 17.2227 7.08127 17.1068 7.02871 17.0078C6.97743 16.9076 6.89923 16.8301 6.79411 16.7754C6.68899 16.7194 6.55566 16.6914 6.39413 16.6914H5.83264V20H5Z" fill="black"/>
<path d="M8.50601 20V16H10.0597C10.3584 16 10.6129 16.0579 10.8232 16.1738C11.0334 16.2884 11.1936 16.4479 11.3039 16.6523C11.4154 16.8555 11.4712 17.0898 11.4712 17.3555C11.4712 17.6211 11.4148 17.8555 11.302 18.0586C11.1892 18.2617 11.0257 18.4199 10.8116 18.5332C10.5988 18.6465 10.3411 18.7031 10.0386 18.7031H9.04828V18.0254H9.90399C10.0642 18.0254 10.1963 17.9974 10.3001 17.9414C10.4052 17.8841 10.4834 17.8053 10.5347 17.7051C10.5873 17.6035 10.6136 17.487 10.6136 17.3555C10.6136 17.2227 10.5873 17.1068 10.5347 17.0078C10.4834 16.9076 10.4052 16.8301 10.3001 16.7754C10.195 16.7194 10.0617 16.6914 9.90014 16.6914H9.33864V20H8.50601Z" fill="black"/>
<path d="M11.862 16.6973V16H15.0964V16.6973H13.8907V20H13.0677V16.6973H11.862Z" fill="black"/>
<path d="M16.4098 16L17.204 17.3633H17.2347L18.0328 16H18.9731L17.7712 18L19 20H18.0424L17.2347 18.6348H17.204L16.3963 20H15.4426L16.6752 18L15.4656 16H16.4098Z" fill="black"/>
</svg>
