<svg width="24" height="24" viewBox="0 0 24 24" fill="none" xmlns="http://www.w3.org/2000/svg">
<path opacity="0.4" d="M20 8C20 8 20 10 20 9.98823V14M20 8C20 8 19.113 7.11297 18.5941 6.59411L15.4059 3.40589C14.887 2.88703 14 2.00001 14 2.00001M20 8L15.6 8C15.0399 8 14.7599 8 14.546 7.89101C14.3578 7.79513 14.2049 7.64215 14.109 7.45399C14 7.24008 14 6.96005 14 6.4V2.00001M14 2.00001C14 2.00001 12.7455 2 12.0118 2H8.8C7.11984 2 6.27976 2 5.63803 2.32698C5.07354 2.6146 4.6146 3.07354 4.32698 3.63803C4 4.27977 4 5.11984 4 6.8V14M20 14V14C21.1046 14 22 14.8948 22 15.9994C22 16.8716 22 17.871 22 18.8007C22 19.9204 22 20.4802 21.782 20.908C21.5903 21.2843 21.2843 21.5903 20.908 21.782C20.4802 22 19.9201 22 18.8 22H15.2H8.8H5.2C4.07989 22 3.51984 22 3.09202 21.782C2.71569 21.5903 2.40973 21.2843 2.21799 20.908C2 20.4802 2 19.9204 2 18.8007C2 17.871 2 16.8716 2 15.9994C2 14.8948 2.89543 14 4 14V14M20 14H4" stroke="black" stroke-width="2" stroke-linecap="round" stroke-linejoin="round"/>
<path d="M10.7724 17.9348V19.5112C10.708 19.5846 10.6095 19.6634 10.477 19.7476C10.3463 19.8317 10.1789 19.9042 9.9748 19.9651C9.7707 20.0242 9.52721 20.0537 9.24434 20.0537C8.98831 20.0537 8.75557 20.0125 8.54609 19.9302C8.33662 19.846 8.15669 19.7234 8.0063 19.5623C7.85591 19.3993 7.73953 19.2006 7.65718 18.9661C7.57661 18.7315 7.53633 18.463 7.53633 18.1604V17.9294C7.53633 17.6269 7.57661 17.3583 7.65718 17.1238C7.73774 16.8892 7.85143 16.6914 7.99824 16.5303C8.14505 16.3674 8.31961 16.2438 8.52192 16.1597C8.72423 16.0755 8.94803 16.0334 9.19331 16.0334C9.54243 16.0334 9.82799 16.0898 10.05 16.2026C10.272 16.3136 10.4403 16.4676 10.5549 16.6646C10.6713 16.8615 10.7429 17.088 10.7697 17.344H9.92646C9.90856 17.2133 9.87275 17.1005 9.81904 17.0056C9.76712 16.9107 9.69282 16.8382 9.59614 16.7881C9.49946 16.7362 9.37414 16.7102 9.22017 16.7102C9.09663 16.7102 8.98473 16.7362 8.88447 16.7881C8.786 16.8382 8.70275 16.9143 8.63472 17.0164C8.56668 17.1184 8.51476 17.2455 8.47895 17.3977C8.44315 17.5481 8.42524 17.7236 8.42524 17.9241V18.1604C8.42524 18.3609 8.44315 18.5373 8.47895 18.6895C8.51655 18.8416 8.57116 18.9688 8.64277 19.0708C8.71439 19.1711 8.8048 19.2472 8.91401 19.2991C9.02502 19.351 9.15392 19.377 9.30073 19.377C9.41531 19.377 9.51199 19.368 9.59077 19.3501C9.66955 19.3304 9.734 19.3062 9.78413 19.2776C9.83426 19.2472 9.87186 19.2194 9.89692 19.1943V18.5444H9.20137V17.9348H10.7724Z" fill="black"/>
<path d="M12.3582 16.0898V20H11.4854V16.0898H12.3582Z" fill="black"/>
<path d="M13.995 16.0898V20H13.1195V16.0898H13.995ZM15.5338 17.7388V18.4155H13.7506V17.7388H15.5338ZM15.7057 16.0898V16.7693H13.7506V16.0898H15.7057Z" fill="black"/>
</svg>
