<svg width="24" height="24" viewBox="0 0 24 24" fill="none" xmlns="http://www.w3.org/2000/svg">
<path fill-rule="evenodd" clip-rule="evenodd" d="M12.9989 1.95227C13 1.97612 13 1.98928 13 2.01558L13 6.43191C13 6.68429 12.9999 6.93008 13.017 7.13824C13.0356 7.36683 13.0797 7.63657 13.218 7.90799C13.4097 8.28432 13.7157 8.59028 14.092 8.78202C14.3634 8.92032 14.6332 8.96439 14.8618 8.98307C15.0699 9.00007 15.3157 9.00004 15.5681 9.00001L19.9845 9.00001C20.0107 9.00001 20.0238 9.00001 20.0477 9.00115C20.5415 9.02471 20.9756 9.45899 20.9989 9.95282C21 9.97664 21 9.98441 21 9.99994V13.1707C22.1652 13.5825 23 14.6938 23 16V20C23 21.6569 21.6569 23 20 23H4C2.34315 23 1 21.6569 1 20V16C1 14.6938 1.83481 13.5825 3 13.1707V6.75869C2.99999 5.95373 2.99998 5.28937 3.0442 4.74818C3.09012 4.18608 3.18868 3.66938 3.43598 3.18404C3.81947 2.43139 4.43139 1.81947 5.18404 1.43598C5.66938 1.18869 6.18608 1.09012 6.74818 1.0442C7.28935 0.999981 7.95368 0.99999 8.75862 1H12C12.0156 0.999995 12.0234 0.999993 12.0473 1.00112C12.541 1.02448 12.9753 1.4585 12.9989 1.95227ZM4 15C3.44772 15 3 15.4477 3 16V20C3 20.5523 3.44772 21 4 21H20C20.5523 21 21 20.5523 21 20V16C21 15.4477 20.5523 15 20 15H4Z" fill="black"/>
<path d="M19.4686 6.92627C19.3484 7 19.2016 7 18.908 6.99999L15.8 6.99995C15.52 6.99995 15.38 6.99995 15.273 6.94545C15.1789 6.89751 15.1024 6.82102 15.0545 6.72694C15 6.61999 15 6.47998 15 6.19996L15 3.09204C15 2.79842 15 2.65161 15.0737 2.53134C15.1779 2.3615 15.4232 2.25996 15.6169 2.30652C15.754 2.33949 15.8497 2.43523 16.041 2.62672L19.3733 5.95904C19.5648 6.15033 19.6605 6.24598 19.6935 6.38313C19.74 6.57684 19.6385 6.82215 19.4686 6.92627Z" fill="black"/>
<path d="M5.96387 16.0532L6.75527 17.3796H6.78593L7.58117 16.0532H8.5182L7.32056 17.9991L8.54503 19.9449H7.59075L6.78593 18.6166H6.75527L5.95045 19.9449H5L6.22831 17.9991L5.02299 16.0532H5.96387Z" fill="black"/>
<path d="M9.04325 19.9449V16.0532H9.87298V19.2665H11.5554V19.9449H9.04325Z" fill="black"/>
<path d="M14.2338 17.1724C14.2185 17.0192 14.1527 16.9001 14.0365 16.8152C13.9202 16.7303 13.7625 16.6879 13.5632 16.6879C13.4278 16.6879 13.3134 16.7069 13.2202 16.7449C13.1269 16.7816 13.0554 16.8329 13.0055 16.8988C12.957 16.9647 12.9327 17.0394 12.9327 17.123C12.9302 17.1927 12.9449 17.2535 12.9768 17.3055C13.01 17.3574 13.0554 17.4024 13.1129 17.4404C13.1703 17.4771 13.2368 17.5094 13.3121 17.5373C13.3875 17.5639 13.468 17.5867 13.5536 17.6057L13.9062 17.6893C14.0774 17.7273 14.2345 17.778 14.3776 17.8413C14.5206 17.9047 14.6446 17.9826 14.7493 18.0751C14.8541 18.1675 14.9352 18.2765 14.9927 18.4019C15.0514 18.5273 15.0815 18.6711 15.0827 18.8333C15.0815 19.0714 15.0201 19.2779 14.8988 19.4527C14.7787 19.6263 14.605 19.7612 14.3776 19.8575C14.1515 19.9525 13.8787 20 13.5593 20C13.2425 20 12.9666 19.9519 12.7315 19.8556C12.4977 19.7593 12.3151 19.6168 12.1835 19.428C12.0532 19.238 11.9848 19.003 11.9784 18.723H12.7813C12.7903 18.8535 12.828 18.9625 12.8944 19.0499C12.9621 19.136 13.0522 19.2013 13.1646 19.2456C13.2783 19.2887 13.4067 19.3102 13.5498 19.3102C13.6903 19.3102 13.8123 19.2899 13.9158 19.2494C14.0205 19.2089 14.1016 19.1525 14.1591 19.0803C14.2166 19.0081 14.2453 18.9251 14.2453 18.8314C14.2453 18.7439 14.2192 18.6705 14.1668 18.6109C14.1157 18.5514 14.0403 18.5007 13.9407 18.4589C13.8423 18.4171 13.7216 18.3791 13.5785 18.3449L13.1512 18.2385C12.8203 18.1587 12.5591 18.0339 12.3674 17.8641C12.1758 17.6944 12.0806 17.4657 12.0819 17.1781C12.0806 16.9425 12.1439 16.7367 12.2716 16.5606C12.4007 16.3845 12.5776 16.247 12.8024 16.1482C13.0273 16.0494 13.2828 16 13.5689 16C13.8602 16 14.1144 16.0494 14.3316 16.1482C14.55 16.247 14.7199 16.3845 14.8413 16.5606C14.9627 16.7367 15.0253 16.9406 15.0291 17.1724H14.2338Z" fill="black"/>
<path d="M16.4188 16.0532L17.2102 17.3796H17.2409L18.0361 16.0532H18.9732L17.7755 17.9991L19 19.9449H18.0457L17.2409 18.6166H17.2102L16.4054 19.9449H15.455L16.6833 17.9991L15.478 16.0532H16.4188Z" fill="black"/>
</svg>
