<svg width="24" height="24" viewBox="0 0 24 24" fill="none" xmlns="http://www.w3.org/2000/svg">
<path fill-rule="evenodd" clip-rule="evenodd" d="M12.9989 1.95227C13 1.97612 13 1.98928 13 2.01558L13 6.43191C13 6.68429 12.9999 6.93008 13.017 7.13824C13.0356 7.36683 13.0797 7.63657 13.218 7.90799C13.4097 8.28432 13.7157 8.59028 14.092 8.78202C14.3634 8.92032 14.6332 8.96439 14.8618 8.98307C15.0699 9.00007 15.3157 9.00004 15.5681 9.00001L19.9845 9.00001C20.0107 9.00001 20.0238 9.00001 20.0477 9.00115C20.5415 9.02471 20.9756 9.45899 20.9989 9.95282C21 9.97664 21 9.98441 21 9.99994V13.1707C22.1652 13.5825 23 14.6938 23 16V20C23 21.6569 21.6569 23 20 23H4C2.34315 23 1 21.6569 1 20V16C1 14.6938 1.83481 13.5825 3 13.1707V6.75869C2.99999 5.95373 2.99998 5.28937 3.0442 4.74818C3.09012 4.18608 3.18868 3.66938 3.43598 3.18404C3.81947 2.43139 4.43139 1.81947 5.18404 1.43598C5.66938 1.18869 6.18608 1.09012 6.74818 1.0442C7.28935 0.999981 7.95368 0.99999 8.75862 1H12C12.0156 0.999995 12.0234 0.999993 12.0473 1.00112C12.541 1.02448 12.9753 1.4585 12.9989 1.95227ZM4 15C3.44772 15 3 15.4477 3 16V20C3 20.5523 3.44772 21 4 21H20C20.5523 21 21 20.5523 21 20V16C21 15.4477 20.5523 15 20 15H4Z" fill="black"/>
<path d="M19.4686 6.92627C19.3484 7 19.2016 7 18.908 6.99999L15.8 6.99995C15.52 6.99995 15.38 6.99995 15.273 6.94545C15.1789 6.89751 15.1024 6.82102 15.0545 6.72694C15 6.61999 15 6.47998 15 6.19996L15 3.09204C15 2.79842 15 2.65161 15.0737 2.53134C15.1779 2.3615 15.4232 2.25996 15.6169 2.30652C15.754 2.33949 15.8497 2.43523 16.041 2.62672L19.3733 5.95904C19.5648 6.15033 19.6605 6.24598 19.6935 6.38313C19.74 6.57684 19.6385 6.82215 19.4686 6.92627Z" fill="black"/>
<path d="M6.89331 18.7861V16.0898H7.76343V18.7861C7.76343 19.0475 7.70435 19.2731 7.58618 19.4629C7.46981 19.6509 7.31136 19.7968 7.11084 19.9006C6.91211 20.0027 6.68742 20.0537 6.43677 20.0537C6.17896 20.0537 5.94979 20.0107 5.74927 19.9248C5.54875 19.8371 5.39119 19.7037 5.27661 19.5247C5.16382 19.3438 5.10742 19.1138 5.10742 18.8345H5.98291C5.98291 18.9723 5.99992 19.0815 6.03394 19.1621C6.06974 19.2409 6.12166 19.2964 6.1897 19.3286C6.25773 19.3608 6.34009 19.377 6.43677 19.377C6.52987 19.377 6.61043 19.3546 6.67847 19.3098C6.7465 19.2633 6.79932 19.1961 6.83691 19.1084C6.87451 19.0189 6.89331 18.9115 6.89331 18.7861Z" fill="black"/>
<path d="M10.0018 18.6411H9.01887V17.9617H10.0018C10.1468 17.9617 10.2632 17.9375 10.3509 17.8892C10.4404 17.8408 10.5058 17.7746 10.5469 17.6904C10.5899 17.6045 10.6114 17.5078 10.6114 17.4004C10.6114 17.2894 10.5899 17.1864 10.5469 17.0916C10.5058 16.9949 10.4404 16.917 10.3509 16.8579C10.2632 16.7988 10.1468 16.7693 10.0018 16.7693H9.33576V20H8.46027V16.0898H10.0018C10.3133 16.0898 10.5801 16.1462 10.8021 16.259C11.0259 16.3718 11.1968 16.5267 11.315 16.7236C11.435 16.9188 11.4949 17.1426 11.4949 17.395C11.4949 17.6475 11.435 17.8668 11.315 18.053C11.1968 18.2392 11.0259 18.3842 10.8021 18.488C10.5801 18.5901 10.3133 18.6411 10.0018 18.6411Z" fill="black"/>
<path d="M14.7404 19.3232V20H12.6591V19.3232H14.7404ZM12.9572 16.0898V20H12.0817V16.0898H12.9572ZM14.4718 17.6636V18.3188H12.6591V17.6636H14.4718ZM14.7431 16.0898V16.7693H12.6591V16.0898H14.7431Z" fill="black"/>
<path d="M18.3752 17.9348V19.5112C18.3108 19.5846 18.2123 19.6634 18.0798 19.7476C17.9491 19.8317 17.7817 19.9042 17.5776 19.9651C17.3735 20.0242 17.13 20.0537 16.8471 20.0537C16.5911 20.0537 16.3584 20.0125 16.1489 19.9302C15.9394 19.846 15.7595 19.7234 15.6091 19.5623C15.4587 19.3993 15.3423 19.2006 15.26 18.9661C15.1794 18.7315 15.1391 18.463 15.1391 18.1604V17.9294C15.1391 17.6269 15.1794 17.3583 15.26 17.1238C15.3405 16.8892 15.4542 16.6914 15.601 16.5303C15.7478 16.3674 15.9224 16.2438 16.1247 16.1597C16.327 16.0755 16.5508 16.0334 16.7961 16.0334C17.1452 16.0334 17.4308 16.0898 17.6528 16.2026C17.8748 16.3136 18.0431 16.4676 18.1577 16.6646C18.2741 16.8615 18.3457 17.088 18.3725 17.344H17.5293C17.5114 17.2133 17.4755 17.1005 17.4218 17.0056C17.3699 16.9107 17.2956 16.8382 17.1989 16.7881C17.1023 16.7362 16.9769 16.7102 16.823 16.7102C16.6994 16.7102 16.5875 16.7362 16.4873 16.7881C16.3888 16.8382 16.3055 16.9143 16.2375 17.0164C16.1695 17.1184 16.1176 17.2455 16.0817 17.3977C16.0459 17.5481 16.028 17.7236 16.028 17.9241V18.1604C16.028 18.3609 16.0459 18.5373 16.0817 18.6895C16.1193 18.8416 16.174 18.9688 16.2456 19.0708C16.3172 19.1711 16.4076 19.2472 16.5168 19.2991C16.6278 19.351 16.7567 19.377 16.9035 19.377C17.0181 19.377 17.1148 19.368 17.1936 19.3501C17.2723 19.3304 17.3368 19.3062 17.3869 19.2776C17.4371 19.2472 17.4747 19.2194 17.4997 19.1943V18.5444H16.8042V17.9348H18.3752Z" fill="black"/>
</svg>
