<svg width="24" height="24" viewBox="0 0 24 24" fill="none" xmlns="http://www.w3.org/2000/svg">
<path fill-rule="evenodd" clip-rule="evenodd" d="M12.9989 1.95227C13 1.97612 13 1.98928 13 2.01558L13 6.43191C13 6.68429 12.9999 6.93008 13.017 7.13824C13.0356 7.36683 13.0797 7.63657 13.218 7.90799C13.4097 8.28432 13.7157 8.59028 14.092 8.78202C14.3634 8.92032 14.6332 8.96439 14.8618 8.98307C15.0699 9.00007 15.3157 9.00004 15.5681 9.00001L19.9845 9.00001C20.0107 9.00001 20.0238 9.00001 20.0477 9.00115C20.5415 9.02471 20.9756 9.45899 20.9989 9.95282C21 9.97664 21 9.98441 21 9.99994V13.1707C22.1652 13.5825 23 14.6938 23 16V20C23 21.6569 21.6569 23 20 23H4C2.34315 23 1 21.6569 1 20V16C1 14.6938 1.83481 13.5825 3 13.1707V6.75869C2.99999 5.95373 2.99998 5.28937 3.0442 4.74818C3.09012 4.18608 3.18868 3.66938 3.43598 3.18404C3.81947 2.43139 4.43139 1.81947 5.18404 1.43598C5.66938 1.18869 6.18608 1.09012 6.74818 1.0442C7.28935 0.999981 7.95368 0.99999 8.75862 1H12C12.0156 0.999995 12.0234 0.999993 12.0473 1.00112C12.541 1.02448 12.9753 1.4585 12.9989 1.95227ZM4 15C3.44772 15 3 15.4477 3 16V20C3 20.5523 3.44772 21 4 21H20C20.5523 21 21 20.5523 21 20V16C21 15.4477 20.5523 15 20 15H4Z" fill="black"/>
<path d="M19.4686 6.92627C19.3484 7 19.2016 7 18.908 6.99999L15.8 6.99995C15.52 6.99995 15.38 6.99995 15.273 6.94545C15.1789 6.89751 15.1024 6.82102 15.0545 6.72694C15 6.61999 15 6.47998 15 6.19996L15 3.09204C15 2.79842 15 2.65161 15.0737 2.53134C15.1779 2.3615 15.4232 2.25996 15.6169 2.30652C15.754 2.33949 15.8497 2.43523 16.041 2.62672L19.3733 5.95904C19.5648 6.15033 19.6605 6.24598 19.6935 6.38313C19.74 6.57684 19.6385 6.82215 19.4686 6.92627Z" fill="black"/>
<path d="M8.38377 18.6411H7.40086V17.9617H8.38377C8.52879 17.9617 8.64516 17.9375 8.73289 17.8892C8.82241 17.8408 8.88776 17.7746 8.92894 17.6904C8.9719 17.6045 8.99339 17.5078 8.99339 17.4004C8.99339 17.2894 8.9719 17.1864 8.92894 17.0916C8.88776 16.9949 8.82241 16.917 8.73289 16.8579C8.64516 16.7988 8.52879 16.7693 8.38377 16.7693H7.71775V20H6.84227V16.0898H8.38377C8.69529 16.0898 8.96206 16.1462 9.18406 16.259C9.40786 16.3718 9.57884 16.5267 9.697 16.7236C9.81696 16.9188 9.87693 17.1426 9.87693 17.395C9.87693 17.6475 9.81696 17.8668 9.697 18.053C9.57884 18.2392 9.40786 18.3842 9.18406 18.488C8.96206 18.5901 8.69529 18.6411 8.38377 18.6411Z" fill="black"/>
<path d="M13.689 16.0898V20H12.8162L11.3392 17.4729V20H10.4637V16.0898H11.3392L12.8189 18.6169V16.0898H13.689Z" fill="black"/>
<path d="M17.5414 17.9348V19.5112C17.4769 19.5846 17.3785 19.6634 17.246 19.7476C17.1153 19.8317 16.9479 19.9042 16.7438 19.9651C16.5397 20.0242 16.2962 20.0537 16.0133 20.0537C15.7573 20.0537 15.5245 20.0125 15.3151 19.9302C15.1056 19.846 14.9257 19.7234 14.7753 19.5623C14.6249 19.3993 14.5085 19.2006 14.4261 18.9661C14.3456 18.7315 14.3053 18.463 14.3053 18.1604V17.9294C14.3053 17.6269 14.3456 17.3583 14.4261 17.1238C14.5067 16.8892 14.6204 16.6914 14.7672 16.5303C14.914 16.3674 15.0886 16.2438 15.2909 16.1597C15.4932 16.0755 15.717 16.0334 15.9623 16.0334C16.3114 16.0334 16.597 16.0898 16.819 16.2026C17.041 16.3136 17.2093 16.4676 17.3238 16.6646C17.4402 16.8615 17.5118 17.088 17.5387 17.344H16.6954C16.6775 17.2133 16.6417 17.1005 16.588 17.0056C16.5361 16.9107 16.4618 16.8382 16.3651 16.7881C16.2684 16.7362 16.1431 16.7102 15.9891 16.7102C15.8656 16.7102 15.7537 16.7362 15.6534 16.7881C15.555 16.8382 15.4717 16.9143 15.4037 17.0164C15.3356 17.1184 15.2837 17.2455 15.2479 17.3977C15.2121 17.5481 15.1942 17.7236 15.1942 17.9241V18.1604C15.1942 18.3609 15.2121 18.5373 15.2479 18.6895C15.2855 18.8416 15.3401 18.9688 15.4117 19.0708C15.4834 19.1711 15.5738 19.2472 15.683 19.2991C15.794 19.351 15.9229 19.377 16.0697 19.377C16.1843 19.377 16.281 19.368 16.3597 19.3501C16.4385 19.3304 16.503 19.3062 16.5531 19.2776C16.6032 19.2472 16.6408 19.2194 16.6659 19.1943V18.5444H15.9703V17.9348H17.5414Z" fill="black"/>
</svg>
