<svg width="24" height="24" viewBox="0 0 24 24" fill="none" xmlns="http://www.w3.org/2000/svg">
<path opacity="0.4" d="M20 8C20 8 20 10 20 9.98823V14M20 8C20 8 19.113 7.11297 18.5941 6.59411L15.4059 3.40589C14.887 2.88703 14 2.00001 14 2.00001M20 8L15.6 8C15.0399 8 14.7599 8 14.546 7.89101C14.3578 7.79513 14.2049 7.64215 14.109 7.45399C14 7.24008 14 6.96005 14 6.4V2.00001M14 2.00001C14 2.00001 12.7455 2 12.0118 2H8.8C7.11984 2 6.27976 2 5.63803 2.32698C5.07354 2.6146 4.6146 3.07354 4.32698 3.63803C4 4.27977 4 5.11984 4 6.8V14M20 14V14C21.1046 14 22 14.8948 22 15.9994C22 16.8716 22 17.871 22 18.8007C22 19.9204 22 20.4802 21.782 20.908C21.5903 21.2843 21.2843 21.5903 20.908 21.782C20.4802 22 19.9201 22 18.8 22H15.2H8.8H5.2C4.07989 22 3.51984 22 3.09202 21.782C2.71569 21.5903 2.40973 21.2843 2.21799 20.908C2 20.4802 2 19.9204 2 18.8007C2 17.871 2 16.8716 2 15.9994C2 14.8948 2.89543 14 4 14V14M20 14H4" stroke="black" stroke-width="2" stroke-linecap="round" stroke-linejoin="round"/>
<path d="M7 20V16H8.54552C8.84264 16 9.09577 16.0579 9.3049 16.1738C9.51403 16.2884 9.67342 16.4479 9.78309 16.6523C9.89403 16.8555 9.9495 17.0898 9.9495 17.3555C9.9495 17.6211 9.89339 17.8555 9.78118 18.0586C9.66896 18.2617 9.50638 18.4199 9.29342 18.5332C9.08174 18.6465 8.82543 18.7031 8.52448 18.7031H7.5394V18.0254H8.39059C8.54999 18.0254 8.68133 17.9974 8.78462 17.9414C8.88919 17.8841 8.96697 17.8053 9.01798 17.7051C9.07026 17.6035 9.0964 17.487 9.0964 17.3555C9.0964 17.2227 9.07026 17.1068 9.01798 17.0078C8.96697 16.9076 8.88919 16.8301 8.78462 16.7754C8.68006 16.7194 8.54744 16.6914 8.38676 16.6914H7.82823V20H7Z" fill="black"/>
<path d="M11.8761 20H10.4875V16H11.8876C12.2817 16 12.6209 16.0801 12.9052 16.2402C13.1896 16.3991 13.4083 16.6276 13.5613 16.9258C13.7156 17.224 13.7928 17.5807 13.7928 17.9961C13.7928 18.4128 13.7156 18.7708 13.5613 19.0703C13.4083 19.3698 13.1883 19.5996 12.9014 19.7598C12.6158 19.9199 12.274 20 11.8761 20ZM11.3157 19.2754H11.8417C12.0866 19.2754 12.2925 19.2311 12.4595 19.1426C12.6279 19.0527 12.7541 18.9141 12.8383 18.7266C12.9237 18.5378 12.9664 18.2943 12.9664 17.9961C12.9664 17.7005 12.9237 17.459 12.8383 17.2715C12.7541 17.084 12.6285 16.946 12.4615 16.8574C12.2944 16.7689 12.0885 16.7246 11.8436 16.7246H11.3157V19.2754Z" fill="black"/>
<path d="M14.4063 20V16H17V16.6973H15.2345V17.6504H16.8279V18.3477H15.2345V20H14.4063Z" fill="black"/>
</svg>
