<svg width="24" height="24" viewBox="0 0 24 24" fill="none" xmlns="http://www.w3.org/2000/svg">
<path d="M10.395 17.4157H9.58817C9.57344 17.308 9.54335 17.2124 9.49791 17.1287C9.45247 17.0439 9.39414 16.9717 9.32291 16.9121C9.25168 16.8526 9.1694 16.807 9.07607 16.7753C8.98396 16.7436 8.88387 16.7278 8.7758 16.7278C8.58054 16.7278 8.41045 16.7778 8.26553 16.8779C8.12062 16.9767 8.00825 17.1211 7.92843 17.3112C7.8486 17.4999 7.80869 17.7292 7.80869 17.9991C7.80869 18.2765 7.8486 18.5096 7.92843 18.6983C8.00948 18.8871 8.12246 19.0296 8.26738 19.1259C8.41229 19.2222 8.57992 19.2703 8.77027 19.2703C8.87712 19.2703 8.97598 19.2557 9.06686 19.2266C9.15896 19.1975 9.24063 19.155 9.31186 19.0993C9.38309 19.0423 9.44203 18.9732 9.4887 18.8922C9.5366 18.8111 9.56975 18.7186 9.58817 18.6147L10.395 18.6185C10.3741 18.7972 10.322 18.9694 10.2384 19.1354C10.1562 19.3001 10.045 19.4477 9.90502 19.5781C9.76625 19.7074 9.60046 19.81 9.40765 19.886C9.21607 19.9607 8.99931 19.9981 8.75738 19.9981C8.42089 19.9981 8.12001 19.9196 7.85474 19.7625C7.59071 19.6054 7.38193 19.378 7.22842 19.0803C7.07614 18.7826 7 18.4222 7 17.9991C7 17.5747 7.07737 17.2136 7.23211 16.9159C7.38684 16.6182 7.59685 16.3914 7.86211 16.2356C8.12738 16.0785 8.4258 16 8.75738 16C8.97598 16 9.17861 16.0317 9.36528 16.095C9.55317 16.1584 9.71958 16.2508 9.86449 16.3724C10.0094 16.4928 10.1273 16.6404 10.2182 16.8152C10.3103 16.99 10.3692 17.1902 10.395 17.4157Z" fill="black"/>
<path d="M13.1173 17.1724C13.1026 17.0192 13.0394 16.9001 12.9276 16.8152C12.8158 16.7303 12.6642 16.6879 12.4726 16.6879C12.3424 16.6879 12.2325 16.7069 12.1429 16.7449C12.0532 16.7816 11.9844 16.8329 11.9365 16.8988C11.8899 16.9647 11.8665 17.0394 11.8665 17.123C11.8641 17.1927 11.8782 17.2535 11.9089 17.3055C11.9408 17.3574 11.9844 17.4024 12.0397 17.4404C12.095 17.4771 12.1588 17.5094 12.2313 17.5373C12.3037 17.5639 12.3811 17.5867 12.4634 17.6057L12.8023 17.6893C12.9669 17.7273 13.118 17.778 13.2555 17.8413C13.393 17.9047 13.5122 17.9826 13.6129 18.0751C13.7136 18.1675 13.7916 18.2765 13.8468 18.4019C13.9033 18.5273 13.9322 18.6711 13.9334 18.8333C13.9322 19.0714 13.8732 19.2779 13.7566 19.4527C13.6411 19.6263 13.4741 19.7612 13.2555 19.8575C13.0381 19.9525 12.7759 20 12.4689 20C12.1644 20 11.8991 19.9519 11.6731 19.8556C11.4484 19.7593 11.2728 19.6168 11.1463 19.428C11.021 19.238 10.9553 19.003 10.9492 18.723H11.721C11.7296 18.8535 11.7658 18.9625 11.8297 19.0499C11.8948 19.136 11.9814 19.2013 12.0894 19.2456C12.1987 19.2887 12.3222 19.3102 12.4597 19.3102C12.5948 19.3102 12.7121 19.2899 12.8115 19.2494C12.9123 19.2089 12.9902 19.1525 13.0455 19.0803C13.1008 19.0081 13.1284 18.9251 13.1284 18.8314C13.1284 18.7439 13.1032 18.6705 13.0529 18.6109C13.0037 18.5514 12.9313 18.5007 12.8355 18.4589C12.7409 18.4171 12.6249 18.3791 12.4873 18.3449L12.0765 18.2385C11.7585 18.1587 11.5073 18.0339 11.3231 17.8641C11.1389 17.6944 11.0474 17.4657 11.0486 17.1781C11.0474 16.9425 11.1082 16.7367 11.231 16.5606C11.355 16.3845 11.5251 16.247 11.7413 16.1482C11.9574 16.0494 12.203 16 12.4781 16C12.7581 16 13.0025 16.0494 13.2113 16.1482C13.4213 16.247 13.5846 16.3845 13.7013 16.5606C13.818 16.7367 13.8781 16.9406 13.8818 17.1724H13.1173Z" fill="black"/>
<path d="M15.2552 16.0532L16.1671 19.01H16.2021L17.1158 16.0532H18L16.6995 19.9449H15.6716L14.3692 16.0532H15.2552Z" fill="black"/>
<path opacity="0.4" d="M20 8C20 8 20 10 20 9.98823V14M20 8C20 8 19.113 7.11297 18.5941 6.59411L15.4059 3.40589C14.887 2.88703 14 2.00001 14 2.00001M20 8L15.6 8C15.0399 8 14.7599 8 14.546 7.89101C14.3578 7.79513 14.2049 7.64215 14.109 7.45399C14 7.24008 14 6.96005 14 6.4V2.00001M14 2.00001C14 2.00001 12.7455 2 12.0118 2H8.8C7.11984 2 6.27976 2 5.63803 2.32698C5.07354 2.6146 4.6146 3.07354 4.32698 3.63803C4 4.27977 4 5.11984 4 6.8V14M20 14V14C21.1046 14 22 14.8948 22 15.9994C22 16.8716 22 17.871 22 18.8007C22 19.9204 22 20.4802 21.782 20.908C21.5903 21.2843 21.2843 21.5903 20.908 21.782C20.4802 22 19.9201 22 18.8 22H15.2H8.8H5.2C4.07989 22 3.51984 22 3.09202 21.782C2.71569 21.5903 2.40973 21.2843 2.21799 20.908C2 20.4802 2 19.9204 2 18.8007C2 17.871 2 16.8716 2 15.9994C2 14.8948 2.89543 14 4 14V14M20 14H4" stroke="black" stroke-width="2" stroke-linecap="round" stroke-linejoin="round"/>
</svg>
