<svg width="24" height="24" viewBox="0 0 24 24" fill="none" xmlns="http://www.w3.org/2000/svg">
<path fill-rule="evenodd" clip-rule="evenodd" d="M1.10555 11.5528C1.35254 11.0588 1.95321 10.8586 2.44719 11.1056L12 15.882L21.5528 11.1056C22.0467 10.8586 22.6474 11.0588 22.8944 11.5528C23.1414 12.0468 22.9412 12.6474 22.4472 12.8944L12.805 17.7155C12.7976 17.7192 12.789 17.7236 12.7794 17.7285C12.6861 17.7761 12.493 17.8747 12.2766 17.9153C12.0938 17.9496 11.9062 17.9496 11.7234 17.9153C11.5069 17.8747 11.3139 17.7761 11.2206 17.7285C11.2109 17.7236 11.2024 17.7192 11.195 17.7155L1.55276 12.8944C1.05878 12.6474 0.858558 12.0468 1.10555 11.5528Z" fill="#111111"/>
<path fill-rule="evenodd" clip-rule="evenodd" d="M1.10555 16.5528C1.35254 16.0588 1.95321 15.8586 2.44719 16.1056L12 20.882L21.5528 16.1056C22.0467 15.8586 22.6474 16.0588 22.8944 16.5528C23.1414 17.0468 22.9412 17.6474 22.4472 17.8944L12.805 22.7155C12.7976 22.7192 12.789 22.7236 12.7794 22.7285C12.6861 22.7761 12.493 22.8747 12.2766 22.9153C12.0938 22.9496 11.9062 22.9496 11.7234 22.9153C11.5069 22.8747 11.3139 22.7761 11.2206 22.7285C11.2109 22.7236 11.2024 22.7192 11.195 22.7155L1.55276 17.8944C1.05878 17.6474 0.858558 17.0468 1.10555 16.5528Z" fill="#111111"/>
<path fill-rule="evenodd" clip-rule="evenodd" d="M11.7234 1.08474C11.9062 1.05045 12.0938 1.05045 12.2766 1.08474C12.493 1.12535 12.6861 1.22388 12.7794 1.27149C12.789 1.2764 12.7976 1.28076 12.805 1.28446L22.4472 6.10558C22.786 6.27497 23 6.62123 23 7C23 7.37878 22.786 7.72504 22.4472 7.89443L12.805 12.7155C12.7976 12.7193 12.789 12.7236 12.7794 12.7285C12.6861 12.7761 12.493 12.8747 12.2766 12.9153C12.0938 12.9496 11.9062 12.9496 11.7234 12.9153C11.5069 12.8747 11.3139 12.7761 11.2206 12.7285C11.2109 12.7236 11.2024 12.7192 11.195 12.7155L1.55276 7.89443C1.21398 7.72504 0.999975 7.37878 0.999975 7C0.999975 6.62123 1.21398 6.27497 1.55276 6.10558L11.195 1.28446C11.2024 1.28076 11.211 1.27639 11.2206 1.27149C11.3139 1.22388 11.5069 1.12535 11.7234 1.08474Z" fill="#111111"/>
</svg>
