<svg width="24" height="24" viewBox="0 0 24 24" fill="none" xmlns="http://www.w3.org/2000/svg">
<path fill-rule="evenodd" clip-rule="evenodd" d="M12.9989 1.95227C13 1.97612 13 1.98928 13 2.01558L13 6.43191C13 6.68429 12.9999 6.93008 13.017 7.13824C13.0356 7.36683 13.0797 7.63657 13.218 7.90799C13.4097 8.28432 13.7157 8.59028 14.092 8.78202C14.3634 8.92032 14.6332 8.96439 14.8618 8.98307C15.0699 9.00007 15.3157 9.00004 15.5681 9.00001L19.9845 9.00001C20.0107 9.00001 20.0238 9.00001 20.0477 9.00115C20.5415 9.02471 20.9756 9.45899 20.9989 9.95282C21 9.97664 21 9.98441 21 9.99994V13.1707C22.1652 13.5825 23 14.6938 23 16V20C23 21.6569 21.6569 23 20 23H4C2.34315 23 1 21.6569 1 20V16C1 14.6938 1.83481 13.5825 3 13.1707V6.75869C2.99999 5.95373 2.99998 5.28937 3.0442 4.74818C3.09012 4.18608 3.18868 3.66938 3.43598 3.18404C3.81947 2.43139 4.43139 1.81947 5.18404 1.43598C5.66938 1.18869 6.18608 1.09012 6.74818 1.0442C7.28935 0.999981 7.95368 0.99999 8.75862 1H12C12.0156 0.999995 12.0234 0.999993 12.0473 1.00112C12.541 1.02448 12.9753 1.4585 12.9989 1.95227ZM4 15C3.44772 15 3 15.4477 3 16V20C3 20.5523 3.44772 21 4 21H20C20.5523 21 21 20.5523 21 20V16C21 15.4477 20.5523 15 20 15H4Z" fill="black"/>
<path d="M19.4686 6.92627C19.3484 7 19.2016 7 18.908 6.99999L15.8 6.99995C15.52 6.99995 15.38 6.99995 15.273 6.94545C15.1789 6.89751 15.1024 6.82102 15.0545 6.72694C15 6.61999 15 6.47998 15 6.19996L15 3.09204C15 2.79842 15 2.65161 15.0737 2.53134C15.1779 2.3615 15.4232 2.25996 15.6169 2.30652C15.754 2.33949 15.8497 2.43523 16.041 2.62672L19.3733 5.95904C19.5648 6.15033 19.6605 6.24598 19.6935 6.38313C19.74 6.57684 19.6385 6.82215 19.4686 6.92627Z" fill="black"/>
<path d="M6.74121 16.0898H7.46631L8.40625 18.8855L9.34351 16.0898H10.0686L8.69897 20H8.11084L6.74121 16.0898ZM6.32227 16.0898H7.06079L7.19775 18.9875V20H6.32227V16.0898ZM9.74902 16.0898H10.4902V20H9.61206V18.9875L9.74902 16.0898Z" fill="black"/>
<path d="M12.7366 18.6411H11.7537V17.9617H12.7366C12.8817 17.9617 12.998 17.9375 13.0858 17.8892C13.1753 17.8408 13.2406 17.7746 13.2818 17.6904C13.3248 17.6045 13.3463 17.5078 13.3463 17.4004C13.3463 17.2894 13.3248 17.1864 13.2818 17.0916C13.2406 16.9949 13.1753 16.917 13.0858 16.8579C12.998 16.7988 12.8817 16.7693 12.7366 16.7693H12.0706V20H11.1951V16.0898H12.7366C13.0482 16.0898 13.3149 16.1462 13.5369 16.259C13.7607 16.3718 13.9317 16.5267 14.0499 16.7236C14.1698 16.9188 14.2298 17.1426 14.2298 17.395C14.2298 17.6475 14.1698 17.8668 14.0499 18.053C13.9317 18.2392 13.7607 18.3842 13.5369 18.488C13.3149 18.5901 13.0482 18.6411 12.7366 18.6411Z" fill="black"/>
<path d="M17.5101 18.5068V19.1567H14.6957L14.65 18.6465L16.2506 16.0898H16.914L16.1942 17.2822L15.4664 18.5068H17.5101ZM17.0912 16.0898V20H16.2533V16.0898H17.0912Z" fill="black"/>
</svg>
