<svg width="24" height="24" viewBox="0 0 24 24" fill="none" xmlns="http://www.w3.org/2000/svg">
<path opacity="0.4" d="M20 8C20 8 20 10 20 9.98823V14M20 8C20 8 19.113 7.11297 18.5941 6.59411L15.4059 3.40589C14.887 2.88703 14 2.00001 14 2.00001M20 8L15.6 8C15.0399 8 14.7599 8 14.546 7.89101C14.3578 7.79513 14.2049 7.64215 14.109 7.45399C14 7.24008 14 6.96005 14 6.4V2.00001M14 2.00001C14 2.00001 12.7455 2 12.0118 2H8.8C7.11984 2 6.27976 2 5.63803 2.32698C5.07354 2.6146 4.6146 3.07354 4.32698 3.63803C4 4.27977 4 5.11984 4 6.8V14M20 14V14C21.1046 14 22 14.8948 22 15.9994C22 16.8716 22 17.871 22 18.8007C22 19.9204 22 20.4802 21.782 20.908C21.5903 21.2843 21.2843 21.5903 20.908 21.782C20.4802 22 19.9201 22 18.8 22H15.2H8.8H5.2C4.07989 22 3.51984 22 3.09202 21.782C2.71569 21.5903 2.40973 21.2843 2.21799 20.908C2 20.4802 2 19.9204 2 18.8007C2 17.871 2 16.8716 2 15.9994C2 14.8948 2.89543 14 4 14V14M20 14H4" stroke="black" stroke-width="2" stroke-linecap="round" stroke-linejoin="round"/>
<path d="M5 20V16H6.55374C6.85244 16 7.10691 16.0579 7.31715 16.1738C7.52739 16.2884 7.68764 16.4479 7.79788 16.6523C7.90942 16.8555 7.96518 17.0898 7.96518 17.3555C7.96518 17.6211 7.90877 17.8555 7.79596 18.0586C7.68315 18.2617 7.5197 18.4199 7.30561 18.5332C7.09281 18.6465 6.83513 18.7031 6.53259 18.7031H5.54227V18.0254H6.39798C6.55823 18.0254 6.69027 17.9974 6.79411 17.9414C6.89923 17.8841 6.97743 17.8053 7.02871 17.7051C7.08127 17.6035 7.10755 17.487 7.10755 17.3555C7.10755 17.2227 7.08127 17.1068 7.02871 17.0078C6.97743 16.9076 6.89923 16.8301 6.79411 16.7754C6.68899 16.7194 6.55566 16.6914 6.39413 16.6914H5.83264V20H5Z" fill="black"/>
<path d="M8.50601 20V16H10.0597C10.3584 16 10.6129 16.0579 10.8232 16.1738C11.0334 16.2884 11.1936 16.4479 11.3039 16.6523C11.4154 16.8555 11.4712 17.0898 11.4712 17.3555C11.4712 17.6211 11.4148 17.8555 11.302 18.0586C11.1892 18.2617 11.0257 18.4199 10.8116 18.5332C10.5988 18.6465 10.3411 18.7031 10.0386 18.7031H9.04828V18.0254H9.90399C10.0642 18.0254 10.1963 17.9974 10.3001 17.9414C10.4052 17.8841 10.4834 17.8053 10.5347 17.7051C10.5873 17.6035 10.6136 17.487 10.6136 17.3555C10.6136 17.2227 10.5873 17.1068 10.5347 17.0078C10.4834 16.9076 10.4052 16.8301 10.3001 16.7754C10.195 16.7194 10.0617 16.6914 9.90014 16.6914H9.33864V20H8.50601Z" fill="black"/>
<path d="M11.862 16.6973V16H15.0964V16.6973H13.8907V20H13.0677V16.6973H11.862Z" fill="black"/>
<path d="M16.4098 16L17.204 17.3633H17.2347L18.0328 16H18.9731L17.7712 18L19 20H18.0424L17.2347 18.6348H17.204L16.3963 20H15.4426L16.6752 18L15.4656 16H16.4098Z" fill="black"/>
</svg>
