<svg width="24" height="24" viewBox="0 0 24 24" fill="none" xmlns="http://www.w3.org/2000/svg">
<path opacity="0.4" d="M13.22 7.664L12.12 5.464C11.82 4.864 11.62 4.464 11.42 4.264C11.22 4.064 10.92 3.864 10.72 3.764C10.32 3.664 9.92 3.664 9.22 3.664H5.42C4.32 3.664 3.72 3.664 3.32 3.864C2.92 4.064 2.62 4.364 2.42 4.764C2.22 5.164 2.22 5.764 2.22 6.864V7.664" stroke="black" stroke-width="2" stroke-linecap="round" stroke-linejoin="round"/>
<path d="M22.22 13.164V12.464C22.22 10.764 22.22 9.964 21.92 9.264C21.62 8.664 21.22 8.264 20.62 7.964C19.92 7.664 19.12 7.664 17.42 7.664H2.22V16.864C2.22 18.564 2.22 19.364 2.52 20.064C2.82 20.664 3.22 21.064 3.82 21.364C4.52 21.664 5.32 21.664 7.02 21.664H11.22" stroke="black" stroke-width="2" stroke-linecap="round" stroke-linejoin="round"/>
<path d="M18.72 13.644C18.505 13.644 18.294 13.706 18.114 13.823C17.934 13.94 17.791 14.106 17.704 14.301L17.41 14.958C17.306 15.192 17.13 15.388 16.908 15.516C16.722 15.623 16.511 15.679 16.297 15.679C16.254 15.679 16.212 15.677 16.169 15.672L15.448 15.596C15.409 15.592 15.37 15.59 15.331 15.59C15.156 15.59 14.983 15.631 14.827 15.71C14.635 15.807 14.476 15.958 14.369 16.143C14.261 16.328 14.21 16.541 14.221 16.754C14.232 16.968 14.306 17.174 14.432 17.347L14.857 17.929C15.009 18.137 15.09 18.387 15.09 18.643C15.09 18.9 15.008 19.15 14.857 19.357L14.432 19.939C14.305 20.112 14.232 20.318 14.221 20.532C14.21 20.746 14.261 20.958 14.369 21.143C14.477 21.328 14.636 21.479 14.827 21.576C14.984 21.655 15.157 21.697 15.332 21.697C15.371 21.697 15.41 21.695 15.448 21.691L16.167 21.615C16.21 21.611 16.252 21.608 16.295 21.608C16.509 21.608 16.719 21.664 16.906 21.771C17.129 21.899 17.306 22.095 17.411 22.329L17.705 22.986C17.792 23.182 17.935 23.348 18.115 23.465C18.295 23.582 18.506 23.644 18.721 23.644C18.936 23.644 19.147 23.582 19.327 23.465C19.507 23.348 19.65 23.182 19.737 22.986L20.031 22.329C20.135 22.096 20.311 21.901 20.533 21.773C20.719 21.666 20.93 21.61 21.144 21.61C21.187 21.61 21.229 21.612 21.272 21.617L21.99 21.693C22.029 21.697 22.068 21.699 22.107 21.699C22.282 21.699 22.455 21.658 22.611 21.579C22.803 21.482 22.962 21.331 23.069 21.146C23.177 20.961 23.228 20.748 23.217 20.535C23.206 20.321 23.132 20.115 23.006 19.942L22.581 19.36C22.43 19.151 22.349 18.9 22.35 18.643C22.35 18.386 22.432 18.136 22.583 17.929L23.008 17.347C23.134 17.174 23.208 16.968 23.219 16.754C23.23 16.54 23.179 16.328 23.071 16.143C22.963 15.958 22.804 15.807 22.613 15.71C22.456 15.631 22.283 15.59 22.109 15.59C22.07 15.59 22.031 15.592 21.992 15.596L21.273 15.672C21.23 15.676 21.188 15.679 21.145 15.679C20.931 15.679 20.721 15.623 20.534 15.516C20.312 15.387 20.136 15.192 20.032 14.958L19.736 14.301C19.649 14.105 19.506 13.939 19.326 13.823C19.146 13.706 18.935 13.644 18.72 13.644ZM18.72 20.008C17.974 20.008 17.37 19.397 17.37 18.644C17.37 17.891 17.974 17.28 18.72 17.28C19.466 17.28 20.07 17.891 20.07 18.644C20.07 19.397 19.466 20.008 18.72 20.008Z" fill="black"/>
</svg>
