<svg width="24" height="24" viewBox="0 0 24 24" fill="none" xmlns="http://www.w3.org/2000/svg">
<path fill-rule="evenodd" clip-rule="evenodd" d="M1 16.2413V6.16167C0.999985 5.63457 0.999972 5.17973 1.03057 4.80519C1.06287 4.40984 1.13419 4.01662 1.32698 3.63824C1.6146 3.07376 2.07355 2.61482 2.63803 2.3272C3.01641 2.1344 3.40963 2.06309 3.80498 2.03078C4.17955 2.00018 4.63431 2.0002 5.16146 2.00021L9.14666 2.00011C9.74022 1.99932 10.2622 1.99863 10.7422 2.16418C11.1625 2.30918 11.5454 2.54581 11.8631 2.85696C12.2258 3.21221 12.4586 3.67939 12.7234 4.21064L13.6179 6H17.2413C18.0463 5.99999 18.7106 5.99998 19.2518 6.04419C19.8139 6.09012 20.3306 6.18868 20.816 6.43598C21.5686 6.81947 22.1805 7.43139 22.564 8.18404C22.8113 8.66937 22.9099 9.18608 22.9558 9.74817C23 10.2894 23 10.9537 23 11.7587V13.4682C23 13.5702 23 13.6213 22.9809 13.6618C22.9641 13.6975 22.9371 13.7274 22.9033 13.7477C22.865 13.7709 22.8142 13.7761 22.7127 13.7865L22.1874 13.8404C21.8168 13.878 21.4434 13.8015 21.1206 13.6219C20.7992 13.4418 20.5452 13.1681 20.3949 12.8402L19.9675 11.9201C19.8415 11.6462 19.6357 11.4135 19.3752 11.2502C19.1147 11.0869 18.8107 11 18.5 11C18.1893 11 17.8853 11.0869 17.6248 11.2502C17.3643 11.4135 17.1585 11.6462 17.0325 11.9201L16.6083 12.8402C16.4581 13.1681 16.204 13.4418 15.8826 13.6219C15.5598 13.8015 15.1864 13.878 14.8158 13.8404L13.7748 13.7339C13.4659 13.7024 13.1542 13.758 12.8774 13.894C12.6006 14.0299 12.3706 14.2405 12.2154 14.5C12.0599 14.7594 11.9859 15.0567 12.0022 15.3559C12.0185 15.655 12.1245 15.9432 12.3073 16.1854L12.9217 16.9998C13.1409 17.2904 13.2589 17.6406 13.2588 18C13.2589 18.3594 13.1409 18.7096 12.9217 19.0002L12.3073 19.8146C12.1245 20.0568 12.0185 20.345 12.0022 20.6441C11.9859 20.9433 12.0599 21.2406 12.2154 21.5C12.2961 21.6348 12.3365 21.7022 12.3392 21.7074C12.4243 21.8702 12.357 21.9889 12.1736 21.9997C12.1678 22 12.1105 22 11.996 22H6.7587C5.95376 22 5.28936 22 4.74818 21.9558C4.18608 21.9099 3.66938 21.8113 3.18404 21.564C2.43139 21.1805 1.81947 20.5686 1.43598 19.816C1.18869 19.3306 1.09012 18.8139 1.0442 18.2518C0.999981 17.7107 0.99999 17.0462 1 16.2413ZM9.0223 4.00022C9.81271 4.00022 9.96938 4.01326 10.09 4.05487C10.2301 4.1032 10.3578 4.18208 10.4637 4.2858C10.5548 4.37508 10.6366 4.50938 10.99 5.21635L11.3819 6L3.00008 6C3.00052 5.53501 3.00358 5.21716 3.02393 4.96805C3.04613 4.69639 3.0838 4.59567 3.109 4.54622C3.20487 4.35806 3.35785 4.20508 3.54601 4.10921C3.59546 4.08402 3.69618 4.04634 3.96784 4.02414C4.25118 4.00099 4.62345 4.00022 5.2 4.00022H9.0223Z" fill="#1B1C1E"/>
<path fill-rule="evenodd" clip-rule="evenodd" d="M17.484 22.3428L17.1904 21.6856C17.0858 21.451 16.9091 21.2555 16.6857 21.1272C16.4623 20.9989 16.2038 20.9443 15.9472 20.9711L15.2287 21.0472C15.0149 21.0696 14.7991 21.0298 14.6075 20.9327C14.4159 20.8356 14.2567 20.6853 14.1491 20.5C14.0415 20.3147 13.9902 20.1024 14.0015 19.8887C14.0128 19.675 14.0862 19.4691 14.2127 19.2961L14.6381 18.7144C14.7898 18.5068 14.8715 18.2567 14.8715 18C14.8715 17.7433 14.7898 17.4932 14.6381 17.2856L14.2127 16.7039C14.0862 16.5309 14.0128 16.325 14.0015 16.1113C13.9902 15.8976 14.0415 15.6853 14.1491 15.5C14.2566 15.3146 14.4158 15.1642 14.6074 15.0671C14.799 14.97 15.0149 14.9303 15.2287 14.9528L15.9494 15.0289C16.206 15.0557 16.4645 15.0011 16.688 14.8728C16.9105 14.7441 17.0863 14.5487 17.1904 14.3144L17.484 13.6572C17.5713 13.4616 17.7138 13.2954 17.8941 13.1787C18.0744 13.062 18.2849 13 18.5 13C18.7151 13 18.9256 13.062 19.1059 13.1787C19.2862 13.2954 19.4287 13.4616 19.516 13.6572L19.8119 14.3144C19.9159 14.5487 20.0918 14.7441 20.3143 14.8728C20.5377 15.0011 20.7962 15.0557 21.0528 15.0289L21.7713 14.9528C21.9851 14.9303 22.201 14.97 22.3926 15.0671C22.5842 15.1642 22.7434 15.3146 22.8509 15.5C22.9585 15.6853 23.0098 15.8976 22.9985 16.1113C22.9872 16.325 22.9138 16.5309 22.7873 16.7039L22.3619 17.2856C22.2102 17.4932 22.1285 17.7433 22.1285 18C22.1272 18.2574 22.2082 18.5086 22.3596 18.7172L22.785 19.2989C22.9116 19.4719 22.9849 19.6777 22.9962 19.8914C23.0075 20.1051 22.9563 20.3175 22.8487 20.5028C22.7412 20.6882 22.582 20.8385 22.3904 20.9357C22.1987 21.0328 21.9829 21.0725 21.769 21.05L21.0506 20.9739C20.794 20.9471 20.5355 21.0017 20.312 21.13C20.09 21.2579 19.9141 21.4524 19.8096 21.6856L19.516 22.3428C19.4287 22.5384 19.2862 22.7046 19.1059 22.8213C18.9256 22.938 18.7151 23 18.5 23C18.2849 23 18.0744 22.938 17.8941 22.8213C17.7138 22.7046 17.5713 22.5384 17.484 22.3428ZM19.85 18C19.85 18.7531 19.2456 19.3636 18.5 19.3636C17.7544 19.3636 17.15 18.7531 17.15 18C17.15 17.2469 17.7544 16.6364 18.5 16.6364C19.2456 16.6364 19.85 17.2469 19.85 18Z" fill="#1B1C1E"/>
</svg>
