<svg width="22" height="20" viewBox="0 0 22 20" fill="none" xmlns="http://www.w3.org/2000/svg">
<path fill-rule="evenodd" clip-rule="evenodd" d="M7.41809e-07 4.16167V14.2413C-1.07601e-05 15.0463 -2.02544e-05 15.7106 0.0441961 16.2518C0.0901213 16.8139 0.188686 17.3306 0.435976 17.816C0.81947 18.5686 1.43139 19.1805 2.18404 19.564C2.32933 19.6381 2.47742 19.6988 2.62871 19.7487C2.18778 19.573 1.92206 19.1019 2.02012 18.6204L3.5052 11.3287C3.59236 10.9006 3.66838 10.5273 3.75494 10.2205C3.84716 9.8936 3.96846 9.57542 4.17802 9.27677C4.49475 8.82541 4.92976 8.47007 5.43525 8.24979C5.76971 8.10404 6.1057 8.04868 6.44441 8.02356C6.76236 7.99997 7.14333 7.99998 7.58014 8L21 8C21.5302 8 21.9641 8.41265 21.9979 8.93431C21.9942 8.48615 21.9839 8.09227 21.9558 7.74817C21.9099 7.18608 21.8113 6.66937 21.564 6.18404C21.1805 5.43139 20.5686 4.81947 19.816 4.43598C19.3306 4.18868 18.8139 4.09012 18.2518 4.04419C17.7106 3.99998 17.0463 3.99999 16.2413 4H12.6179L11.7234 2.21064C11.4586 1.67939 11.2258 1.21221 10.8631 0.856961C10.5454 0.545811 10.1625 0.309176 9.74215 0.16418C9.2622 -0.00136684 8.74022 -0.000677455 8.14666 0.000106346L4.16146 0.000214349C3.63431 0.000196468 3.17955 0.000181042 2.80498 0.0307847C2.40963 0.0630857 2.01641 0.134402 1.63803 0.327196C1.07355 0.614816 0.614604 1.07376 0.326984 1.63824C0.13419 2.01662 0.0628738 2.40984 0.0305728 2.80519C-2.94354e-05 3.17974 -1.54583e-05 3.63456 7.41809e-07 4.16167ZM9.09001 2.05487C8.96938 2.01326 8.81271 2.00022 8.02229 2.00022H4.2C3.62345 2.00022 3.25118 2.00099 2.96784 2.02414C2.69618 2.04634 2.59546 2.08402 2.54601 2.10921C2.35785 2.20508 2.20487 2.35806 2.109 2.54622C2.0838 2.59567 2.04613 2.69639 2.02393 2.96805C2.00358 3.21716 2.00052 3.53501 2.00008 4L10.3819 4L9.99004 3.21635C9.63655 2.50938 9.55482 2.37508 9.46365 2.2858C9.35776 2.18208 9.23013 2.1032 9.09001 2.05487Z" fill="#111111"/>
<path d="M21.9987 9.0514C21.9719 9.5798 21.535 10 21 10H7.61396C7.13357 10 6.82746 10.0006 6.59236 10.0181C6.36984 10.0346 6.28191 10.0625 6.23423 10.0833C6.06574 10.1567 5.92074 10.2751 5.81516 10.4256C5.78528 10.4682 5.74039 10.5488 5.67981 10.7635C5.61581 10.9904 5.55409 11.2902 5.45822 11.7609L3.97988 19.0196C3.86967 19.5607 3.34161 19.9101 2.80043 19.7999C2.79718 19.7992 2.79394 19.7985 2.79071 19.7979C3.09578 19.8826 3.41395 19.9285 3.74818 19.9558C4.28937 20 4.95374 20 5.7587 20H16.2413C17.0463 20 17.7106 20 18.2518 19.9558C18.8139 19.9099 19.3306 19.8113 19.816 19.564C20.5686 19.1805 21.1805 18.5686 21.564 17.816C21.8113 17.3306 21.9099 16.8139 21.9558 16.2518C22 15.7106 22 15.0463 22 14.2413V9.75868C22 9.50963 22 9.27404 21.9987 9.0514Z" fill="#111111"/>
</svg>
