<svg width="24" height="13" viewBox="0 0 24 13" fill="none" xmlns="http://www.w3.org/2000/svg">
<path d="M3.5 2.83325V10.1666" stroke="#2A8BFB" stroke-width="0.7" stroke-linecap="round" stroke-linejoin="round"/>
<path d="M8.50033 2.83325V10.1666M4.95866 2.83325V10.1666M5.79199 2.83325H2.66699M8.50033 6.49992H4.95866M5.79199 10.1666H2.66699M9.33366 10.1666H7.66699M9.33366 2.83325H7.66699" stroke="black" stroke-width="0.7" stroke-linecap="round" stroke-linejoin="round"/>
<path d="M14.071 10.1087C13.7599 10.1087 13.4787 10.0511 13.2273 9.93608C12.9759 9.81889 12.7766 9.6495 12.6296 9.42791C12.4847 9.20632 12.4123 8.93466 12.4123 8.61293C12.4123 8.33594 12.4656 8.10795 12.5721 7.92898C12.6786 7.75 12.8224 7.60831 13.0036 7.50391C13.1847 7.3995 13.3871 7.32067 13.6108 7.2674C13.8345 7.21413 14.0625 7.17365 14.2947 7.14595C14.5888 7.11186 14.8274 7.08416 15.0107 7.06286C15.1939 7.03942 15.3271 7.00213 15.4102 6.95099C15.4933 6.89986 15.5348 6.81676 15.5348 6.7017V6.67933C15.5348 6.40021 15.456 6.18395 15.2983 6.03054C15.1428 5.87713 14.9105 5.80043 14.6016 5.80043C14.2798 5.80043 14.0263 5.8718 13.8409 6.01456C13.6577 6.15518 13.5309 6.31179 13.4606 6.48438L12.5625 6.27983C12.669 5.98153 12.8246 5.74077 13.0291 5.55753C13.2358 5.37216 13.4734 5.23793 13.7418 5.15483C14.0103 5.0696 14.2926 5.02699 14.5888 5.02699C14.7848 5.02699 14.9925 5.05043 15.212 5.0973C15.4336 5.14205 15.6403 5.22514 15.832 5.34659C16.0259 5.46804 16.1847 5.64169 16.3082 5.86754C16.4318 6.09126 16.4936 6.3821 16.4936 6.74006V10H15.5604V9.32884H15.522C15.4602 9.45241 15.3675 9.57386 15.244 9.69318C15.1204 9.8125 14.9616 9.91158 14.7678 9.99041C14.5739 10.0692 14.3416 10.1087 14.071 10.1087ZM14.2788 9.34162C14.543 9.34162 14.7688 9.28942 14.9563 9.18501C15.146 9.08061 15.2898 8.94425 15.3878 8.77592C15.4879 8.60547 15.538 8.4233 15.538 8.2294V7.59659C15.5039 7.63068 15.4379 7.66264 15.3398 7.69247C15.244 7.72017 15.1342 7.74467 15.0107 7.76598C14.8871 7.78516 14.7667 7.80327 14.6495 7.82031C14.5323 7.83523 14.4343 7.84801 14.3555 7.85866C14.1701 7.8821 14.0007 7.92152 13.8473 7.97692C13.696 8.03232 13.5746 8.11222 13.483 8.21662C13.3935 8.31889 13.3487 8.45526 13.3487 8.62571C13.3487 8.86222 13.4361 9.04119 13.6108 9.16264C13.7855 9.28196 14.0082 9.34162 14.2788 9.34162Z" fill="#FCECA7"/>
<path d="M18.8054 10.0423C18.6844 10.0423 18.575 10.0199 18.4773 9.97514C18.3795 9.92957 18.302 9.8637 18.2449 9.77752C18.1885 9.69135 18.1603 9.5857 18.1603 9.46058C18.1603 9.35286 18.181 9.2642 18.2225 9.1946C18.2639 9.125 18.3198 9.0699 18.3903 9.0293C18.4607 8.9887 18.5394 8.95804 18.6264 8.93732C18.7134 8.91661 18.8021 8.90086 18.8924 8.89009C19.0067 8.87683 19.0996 8.86606 19.1708 8.85778C19.2421 8.84866 19.2939 8.83416 19.3262 8.81428C19.3585 8.79439 19.3746 8.76207 19.3746 8.71733V8.70863C19.3746 8.60008 19.344 8.51598 19.2827 8.45632C19.2222 8.39666 19.1319 8.36683 19.0117 8.36683C18.8866 8.36683 18.788 8.39459 18.7159 8.45011C18.6446 8.50479 18.5953 8.5657 18.568 8.63281L18.2188 8.55327C18.2602 8.43726 18.3207 8.34363 18.4002 8.27237C18.4806 8.20028 18.573 8.14808 18.6774 8.11577C18.7818 8.08262 18.8916 8.06605 19.0067 8.06605C19.083 8.06605 19.1638 8.07517 19.2491 8.09339C19.3353 8.1108 19.4157 8.14311 19.4902 8.19034C19.5656 8.23757 19.6274 8.3051 19.6754 8.39293C19.7235 8.47994 19.7475 8.59304 19.7475 8.73224V10H19.3846V9.73899H19.3697C19.3456 9.78705 19.3096 9.83428 19.2615 9.88068C19.2135 9.92708 19.1518 9.96561 19.0763 9.99627C19.0009 10.0269 18.9106 10.0423 18.8054 10.0423ZM18.8862 9.74396C18.9889 9.74396 19.0768 9.72366 19.1497 9.68306C19.2234 9.64246 19.2794 9.58943 19.3175 9.52397C19.3564 9.45768 19.3759 9.38684 19.3759 9.31143V9.06534C19.3626 9.0786 19.3369 9.09103 19.2988 9.10263C19.2615 9.1134 19.2189 9.12293 19.1708 9.13121C19.1228 9.13867 19.0759 9.14571 19.0304 9.15234C18.9848 9.15814 18.9467 9.16312 18.916 9.16726C18.8439 9.17637 18.7781 9.1917 18.7184 9.21325C18.6596 9.23479 18.6123 9.26586 18.5767 9.30646C18.5419 9.34624 18.5245 9.39927 18.5245 9.46555C18.5245 9.55753 18.5585 9.62713 18.6264 9.67436C18.6944 9.72076 18.781 9.74396 18.8862 9.74396Z" fill="black"/>
<line x1="22" y1="5.015" x2="11" y2="5.015" stroke="black" stroke-opacity="0.35" stroke-width="0.03"/>
<line x1="22" y1="5.015" x2="11" y2="5.015" stroke="black" stroke-opacity="0.35" stroke-width="0.03"/>
<line x1="22" y1="5.015" x2="11" y2="5.015" stroke="black" stroke-opacity="0.35" stroke-width="0.03"/>
<line x1="22" y1="5.015" x2="11" y2="5.015" stroke="black" stroke-opacity="0.35" stroke-width="0.03"/>
<line x1="22" y1="5.015" x2="11" y2="5.015" stroke="black" stroke-opacity="0.35" stroke-width="0.03"/>
<line x1="22" y1="8.015" x2="17" y2="8.015" stroke="black" stroke-opacity="0.35" stroke-width="0.03" stroke-dasharray="0.5 0.5"/>
<line x1="22" y1="8.015" x2="17" y2="8.015" stroke="black" stroke-opacity="0.35" stroke-width="0.03" stroke-dasharray="0.5 0.5"/>
<line x1="22" y1="8.015" x2="17" y2="8.015" stroke="black" stroke-opacity="0.35" stroke-width="0.03" stroke-dasharray="0.5 0.5"/>
<line x1="22" y1="8.015" x2="17" y2="8.015" stroke="black" stroke-opacity="0.35" stroke-width="0.03" stroke-dasharray="0.5 0.5"/>
<line x1="22" y1="8.015" x2="17" y2="8.015" stroke="black" stroke-opacity="0.35" stroke-width="0.03" stroke-dasharray="0.5 0.5"/>
<line x1="22" y1="10.015" x2="11" y2="10.015" stroke="black" stroke-opacity="0.35" stroke-width="0.03"/>
<line x1="22" y1="10.015" x2="11" y2="10.015" stroke="black" stroke-opacity="0.35" stroke-width="0.03"/>
<line x1="22" y1="10.015" x2="11" y2="10.015" stroke="black" stroke-opacity="0.35" stroke-width="0.03"/>
<line x1="22" y1="10.015" x2="11" y2="10.015" stroke="black" stroke-opacity="0.35" stroke-width="0.03"/>
<line x1="22" y1="10.015" x2="11" y2="10.015" stroke="black" stroke-opacity="0.35" stroke-width="0.03"/>
</svg>
