<svg width="22" height="8" viewBox="0 0 22 8" fill="none" xmlns="http://www.w3.org/2000/svg">
<path d="M2 1L2 7" stroke="#2A8BFB" stroke-width="0.7" stroke-linecap="round" stroke-linejoin="round"/>
<path d="M6.24944 1V7M3.0636 1V7M3.81326 1H1M6.24944 4H3.0636M3.81326 7H1M7 7H5.49978M7 1H5.49978" stroke="black" stroke-width="0.7" stroke-linecap="round" stroke-linejoin="round"/>
<path d="M11.6257 6.99951C11.3209 6.99951 11.0456 6.94244 10.7986 6.82928C10.5608 6.72099 10.3581 6.54779 10.2136 6.32943C10.0715 6.11099 10 5.84434 10 5.5275C10 5.25494 10.0529 5.0306 10.1568 4.85447C10.2616 4.67834 10.4018 4.5396 10.5801 4.43629C10.7565 4.33396 10.9554 4.25622 11.1749 4.20309C11.3934 4.15094 11.6169 4.11158 11.8452 4.08403L12.5468 4.00236C12.7261 3.97875 12.8564 3.94332 12.9388 3.89216C13.0191 3.84198 13.0603 3.76031 13.0603 3.64617V3.6255C13.0603 3.35098 12.9829 3.13844 12.828 2.9879C12.6761 2.83637 12.4488 2.76159 12.146 2.76159C11.8305 2.76159 11.5816 2.83046 11.4003 2.97215C11.221 3.10991 11.0965 3.26439 11.0279 3.43462L10.147 3.2329C10.2518 2.93968 10.4047 2.70156 10.6046 2.52248C10.8074 2.33947 11.0397 2.20762 11.3033 2.12595C11.5659 2.04231 11.8422 2 12.1333 2C12.3253 2 12.5282 2.02263 12.7438 2.06888C12.9613 2.11316 13.1632 2.19482 13.3513 2.31487C13.5414 2.43393 13.6972 2.60514 13.8177 2.82653C13.9392 3.04693 14 3.33327 14 3.68553V6.89225H13.0848V6.23202H13.0475C12.9775 6.36599 12.8854 6.48709 12.7751 6.59018C12.6536 6.70825 12.4988 6.80567 12.3087 6.88241C12.0906 6.9652 11.8587 7.00496 11.6257 6.99951ZM11.8295 6.24481C12.0882 6.24481 12.3097 6.19266 12.4929 6.09033C12.6791 5.98799 12.8202 5.85418 12.9162 5.6869C13.0142 5.51963 13.0632 5.34055 13.0632 5.14966V4.5278C13.0063 4.57306 12.94 4.605 12.8692 4.62127C12.7628 4.65147 12.6548 4.67578 12.5458 4.69409C12.4253 4.71376 12.3077 4.73049 12.193 4.74722L11.904 4.78559C11.7343 4.80578 11.5673 4.84472 11.4062 4.9017C11.2693 4.94882 11.1465 5.03008 11.0495 5.13785C10.9576 5.25103 10.9108 5.39444 10.9182 5.54029C10.9182 5.77251 11.0034 5.94864 11.1749 6.06868C11.3464 6.18577 11.5639 6.24481 11.8295 6.24481Z" fill="#FCECA7"/>
<path d="M17.2206 6.99964C17.0074 7.00223 16.796 6.96752 16.6011 6.89792C16.423 6.83321 16.2711 6.72957 16.1628 6.59883C16.0513 6.45467 15.9955 6.28721 16.0023 6.11756C15.9905 5.98665 16.025 5.85573 16.1019 5.73993C16.1788 5.62414 16.2948 5.52819 16.4367 5.4632C16.5689 5.40095 16.7201 5.35389 16.8825 5.322C17.0481 5.2905 17.2159 5.26667 17.385 5.25065L17.912 5.20206C18.0141 5.19558 18.1136 5.17288 18.2048 5.13526C18.2652 5.1049 18.2973 5.05631 18.2973 4.98799V4.97737C18.3029 4.90717 18.2903 4.83681 18.2604 4.77071C18.2305 4.70461 18.1839 4.64419 18.1235 4.59325C18.0102 4.50216 17.8383 4.45661 17.6116 4.45661C17.4128 4.44797 17.2161 4.49285 17.0525 4.58415C16.93 4.65491 16.8334 4.75088 16.7729 4.86198L16.1118 4.74052C16.1775 4.58097 16.2911 4.43692 16.4427 4.32118C16.5943 4.20543 16.7791 4.12158 16.9807 4.07706C17.3299 3.98794 17.7024 3.97588 18.0593 4.04214C18.2218 4.06947 18.3748 4.11805 18.5145 4.18941C18.6624 4.266 18.7828 4.37222 18.864 4.49761C18.9566 4.62969 19 4.80125 19 5.0138V6.93588H18.3162V6.53962H18.2879C18.1658 6.71767 17.97 6.85572 17.7344 6.92981C17.5704 6.97952 17.3959 7.00324 17.2206 6.99964ZM17.3736 6.54721C17.5682 6.54721 17.7325 6.51685 17.8723 6.45612C18.0002 6.40128 18.1074 6.31974 18.1825 6.22008C18.2576 6.12042 18.2979 6.00634 18.2992 5.88982V5.51634C18.2567 5.54406 18.207 5.56377 18.1538 5.57403C18.0839 5.58921 18.0026 5.60439 17.912 5.61654C17.7516 5.63587 17.591 5.65409 17.4303 5.6712C17.3028 5.6833 17.1774 5.70672 17.0563 5.74104C16.9541 5.76934 16.8625 5.81791 16.7899 5.88223C16.72 5.95032 16.6843 6.03697 16.6898 6.12515C16.6898 6.26482 16.7541 6.36958 16.8825 6.44094C17.011 6.51229 17.1753 6.54721 17.3736 6.54721Z" fill="black"/>
<path d="M22 2H8" stroke="black" stroke-opacity="0.35" stroke-width="0.03"/>
<path d="M20 4H15" stroke="black" stroke-opacity="0.35" stroke-width="0.03" stroke-dasharray="0.5 0.5"/>
<path d="M22 7H8" stroke="black" stroke-opacity="0.35" stroke-width="0.03"/>
</svg>
