<svg width="24" height="24" viewBox="0 0 24 24" fill="none" xmlns="http://www.w3.org/2000/svg">
<path opacity="0.4" d="M12 13.5L12.2929 13.3536C12.7456 13.1272 13.2698 13.0899 13.75 13.25C14.2302 13.4101 14.6272 13.7544 14.8536 14.2071L15.8451 16.1901M20 19.5L19.7071 19.6464C19.2544 19.8728 18.7302 19.9101 18.25 19.75C17.7698 19.5899 17.3728 19.2456 17.1464 18.7929L15.8451 16.1901M15.8451 16.1901L19 13M15.8451 16.1901L12 20" stroke="#111111" stroke-width="2" stroke-linecap="round"/>
<path d="M13 3.49783L12.1774 3.16877C11.1877 2.77292 10.0556 3.09039 9.41606 3.94309C9.14444 4.30524 8.98285 4.73796 8.95059 5.1895L8.75 7.99783M4 19.4978L4.48217 19.7871C5.59659 20.4558 7.04205 20.0944 7.7107 18.98C7.90089 18.663 8.01372 18.3057 8.04006 17.937L8.75 7.99783M8.75 7.99783H6M8.75 7.99783H12" stroke="#111111" stroke-width="2" stroke-linecap="round"/>
</svg>
