<svg width="24" height="24" viewBox="0 0 24 24" fill="none" xmlns="http://www.w3.org/2000/svg">
<path fill-rule="evenodd" clip-rule="evenodd" d="M19.7031 12.289C20.0958 12.6773 20.0993 13.3105 19.711 13.7032L17.0599 16.3838L18.0408 18.3457C18.1486 18.5612 18.3376 18.7251 18.5662 18.8013C18.7948 18.8775 19.0443 18.8598 19.2599 18.752L19.5528 18.6056C20.0467 18.3586 20.6474 18.5588 20.8944 19.0528C21.1414 19.5468 20.9412 20.1474 20.4472 20.3944L20.1543 20.5409C19.4643 20.8859 18.6656 20.9426 17.9337 20.6987C17.2019 20.4547 16.597 19.9301 16.252 19.2401L15.5681 17.8723L12.7038 20.7104C12.3115 21.0991 11.6783 21.0962 11.2896 20.7038C10.9009 20.3115 10.9038 19.6784 11.2961 19.2896L14.6267 15.9896L13.9591 14.6543C13.8513 14.4388 13.6624 14.2749 13.4337 14.1987C13.2051 14.1225 12.9556 14.1402 12.7401 14.248L12.4472 14.3944C11.9532 14.6414 11.3525 14.4412 11.1055 13.9472C10.8586 13.4532 11.0588 12.8526 11.5528 12.6056L11.8457 12.4591C12.5356 12.1141 13.3344 12.0574 14.0662 12.3013C14.798 12.5453 15.403 13.0699 15.748 13.7599L16.1154 14.4947L18.289 12.2968C18.6773 11.9041 19.3105 11.9006 19.7031 12.289Z" fill="#111111"/>
<path d="M12.1872 4.26193C11.2229 3.55223 9.84232 4.19228 9.78879 5.37394L9.71207 7.06748H11.9999C12.5522 7.06748 12.9999 7.50675 12.9999 8.04861C12.9999 8.59046 12.5522 9.02973 11.9999 9.02973H9.62318L9.22985 17.7128C9.09957 20.5889 5.6368 22.0405 3.42857 20.1446L3.34151 20.07C2.92587 19.7131 2.88375 19.0933 3.24743 18.6855C3.61112 18.2778 4.24288 18.2363 4.65851 18.5932L4.74557 18.6679C5.69196 19.4804 7.176 18.8583 7.23184 17.6257L7.62123 9.02973H5.99999C5.44771 9.02973 4.99999 8.59046 4.99999 8.04861C4.99999 7.50675 5.44771 7.06748 5.99999 7.06748H7.71011L7.79077 5.28682C7.91567 2.52959 11.1369 1.03616 13.3872 2.69213L13.5999 2.84862C14.0417 3.17373 14.1313 3.78871 13.7999 4.2222C13.4685 4.65569 12.8417 4.74354 12.3999 4.41842L12.1872 4.26193Z" fill="#111111"/>
</svg>
