<svg width="24" height="24" viewBox="0 0 24 24" fill="none" xmlns="http://www.w3.org/2000/svg">
<path d="M20.3486 13.9615C21.154 13.9615 21.6574 13.0957 21.2547 12.4031L16.0911 3.5196C15.9042 3.19808 15.5588 3 15.1849 3H10.6256C9.82018 3 9.31677 3.86578 9.71942 4.55845L14.8834 13.4419C15.0703 13.7634 15.4158 13.9615 15.7896 13.9615H20.3486ZM9.11549 5.59828C8.71277 4.90553 7.70586 4.90555 7.30317 5.59832L2.14013 14.4806C1.95328 14.802 1.95329 15.198 2.14015 15.5194L4.41989 19.4411C4.82261 20.1339 5.82954 20.1339 6.23223 19.4411L11.3952 10.5586C11.582 10.2372 11.582 9.8412 11.3952 9.51977L9.11549 5.59828ZM10.6264 15C10.2526 15 9.90712 15.1981 9.72023 15.5196L7.44061 19.4416C7.03799 20.1343 7.5414 21 8.34679 21H18.6724C19.0462 21 19.3916 20.8019 19.5785 20.4804L21.8583 16.5584C22.2609 15.8658 21.7575 15 20.9521 15L10.6264 15Z" fill="#111111"/>
</svg>
