<svg width="24" height="24" viewBox="0 0 24 24" fill="none" xmlns="http://www.w3.org/2000/svg">
<path d="M12.1922 2C14.5366 2 16.571 2.71697 18.2233 3.94285C18.9499 4.48206 18.9255 5.49892 18.3343 6.07792L16.9322 7.45025C16.3567 8.01381 15.5007 7.97271 14.9163 7.59108C14.5457 7.34887 14.0818 7.12003 13.5214 6.9743C13.1049 6.86603 12.6618 6.81087 12.1974 6.81086C9.91786 6.81086 7.96373 8.32955 7.2683 10.3707C7.09248 10.8869 6.99692 11.4323 6.99692 12.001C6.99696 12.5468 7.08434 13.0724 7.24671 13.5697L7.31456 13.7712L7.31867 13.7794L7.32175 13.7887C8.06135 15.7523 9.97128 17.1922 12.1953 17.1922C13.1106 17.1922 14.3768 17.0127 15.4478 16.192C15.8026 15.9201 16.1464 15.5656 16.4243 15.1003C16.5562 14.8795 16.6636 14.6472 16.7471 14.4106H13.1493C12.3354 14.4106 11.6752 13.7513 11.6752 12.9375V11.19C11.6752 10.3761 12.3354 9.71587 13.1493 9.71587H20.5033C21.2045 9.71591 21.8466 10.2211 21.9291 10.9648C21.9745 11.3744 22 11.7969 22 12.2169C22 13.7234 21.7264 15.1232 21.2085 16.3688C20.6903 17.6149 19.9292 18.7034 18.9542 19.5843C18.2174 20.2499 17.4027 20.7678 16.4881 21.1632C15.2185 21.7121 13.7885 22 12.1922 22C9.38764 21.9999 7.3409 20.9112 6.19819 20.0921C4.89308 19.1566 3.81703 17.9271 3.08039 16.4973L3.02179 16.3843V16.3709C2.36123 15.0507 2 13.569 2 11.999C2.00003 10.3808 2.38182 8.87257 3.07936 7.51295C3.8291 6.04718 4.93907 4.78704 6.29071 3.84622C7.95711 2.68641 9.99132 2.00004 12.1922 2Z" fill="#111111"/>
</svg>
