<svg width="24" height="24" viewBox="0 0 24 24" fill="none" xmlns="http://www.w3.org/2000/svg">
<path opacity="0.4" d="M11.9875 11.5427L7.73472 18.8026C7.02642 20.0117 5.46489 20.4301 4.24694 19.7371C3.02899 19.044 2.61584 17.502 3.32415 16.2928L9.95857 4.96722" stroke="#111111" stroke-width="2"/>
<path d="M9.83953 7.69908C9.13123 6.48994 9.54438 4.94791 10.7623 4.25485C11.9803 3.5618 13.5418 3.98017 14.2501 5.18932L20.7591 16.3009C21.4674 17.51 21.0543 19.052 19.8363 19.7451C18.6184 20.4381 17.0569 20.0198 16.3486 18.8106L9.83953 7.69908Z" stroke="#111111" stroke-width="2"/>
<path d="M8.09223 17.527C8.09223 18.9145 6.95102 20.0392 5.54326 20.0392C4.13551 20.0392 2.99429 18.9145 2.99429 17.527C2.99429 16.1395 4.13551 15.0147 5.54326 15.0147C6.95102 15.0147 8.09223 16.1395 8.09223 17.527Z" stroke="#111111" stroke-width="2"/>
</svg>
