<svg width="24" height="24" viewBox="0 0 24 24" fill="none" xmlns="http://www.w3.org/2000/svg">
<path d="M20.9361 11.0713C20.8883 10.6398 20.5121 10.3303 20.078 10.3303H13.0917C12.5947 10.3303 12.1917 10.7332 12.1917 11.2303V12.8905C12.1917 13.3876 12.5947 13.7905 13.0917 13.7905H17.1537C17.0739 14.2802 16.8948 14.7619 16.6325 15.2012C16.332 15.7045 15.9605 16.0876 15.5797 16.3794C14.4391 17.2535 13.1092 17.4322 12.1857 17.4322C9.85268 17.4322 7.85927 15.9243 7.08759 13.8754C7.05644 13.8011 7.03576 13.7243 7.01058 13.6484C6.84006 13.1269 6.74688 12.5746 6.74688 12.0006C6.74688 11.4032 6.84778 10.8313 7.03175 10.2912C7.75739 8.16106 9.79574 6.57005 12.1874 6.57005C12.6684 6.57005 13.1317 6.62731 13.571 6.74152C14.1626 6.89532 14.6521 7.13699 15.0436 7.39277C15.4467 7.65618 15.9913 7.65774 16.3354 7.32081L17.6674 6.01634C18.0361 5.65526 18.0286 5.05463 17.6141 4.74713C16.131 3.64673 14.3033 3 12.183 3C10.1975 2.99996 8.36438 3.61859 6.8622 4.66409C5.64398 5.51196 4.64487 6.64716 3.97059 7.96557C3.34342 9.188 3 10.5427 3 11.9992C3 13.4558 3.34394 14.8246 3.97112 16.0357V16.0439C4.63357 17.3297 5.60231 18.4367 6.7797 19.2807C7.80828 20.018 9.65263 21 12.183 21C13.6382 21 14.9278 20.7376 16.0652 20.246C16.8857 19.8913 17.6126 19.4287 18.2708 18.8341C19.1405 18.0485 19.8216 17.0768 20.2864 15.9589C20.7513 14.8409 21 13.5766 21 12.206C21 11.8264 20.9773 11.4433 20.9361 11.0713Z" stroke="#111111" stroke-width="2"/>
<path opacity="0.4" d="M12 17.4097L12 21M3.90924 8.117L7.25021 9.72766" stroke="#111111" stroke-width="2" stroke-linecap="round" stroke-linejoin="round"/>
</svg>
