<svg width="24" height="24" viewBox="0 0 24 24" fill="none" xmlns="http://www.w3.org/2000/svg">
<path d="M11.8037 3.00367C13.1082 2.9442 14.3852 3.62393 15.0493 4.75463L21.52 15.774C22.5019 17.4461 21.9292 19.5791 20.2414 20.5375C18.5534 21.4958 16.3886 20.917 15.4066 19.2449L8.9358 8.22554C8.42194 7.35041 8.3149 6.27401 8.65522 5.31567C9.1273 3.9859 10.4016 3.06777 11.8037 3.00367Z" fill="#111111"/>
<path d="M5.52809 13.9968C7.46216 13.9968 9.05544 15.5429 9.05618 17.4803C9.05618 18.3653 8.70728 19.2132 8.10669 19.8573C7.46049 20.5399 6.54139 20.9648 5.52809 20.9648C2.9566 20.9644 1.21418 18.1629 2.38349 15.8999C2.9958 14.7464 4.21146 13.997 5.52809 13.9968Z" fill="#111111"/>
<path d="M7.51155 7.15869C7.59653 7.69176 7.78062 8.21996 8.07174 8.71585L11.4095 14.4009L9.99889 16.804C9.57024 13.9964 6.50963 12.3085 3.90288 13.304L7.51155 7.15869Z" fill="#111111"/>
</svg>
