<svg width="24" height="24" viewBox="0 0 24 24" fill="none" xmlns="http://www.w3.org/2000/svg">
<path d="M12.3945 14.2773C11.8164 14.5078 11.2809 14.357 11.0117 13.8984C10.8008 13.5391 10.7892 12.7758 11.5045 12.4896C12.2199 12.2035 14.851 11.1593 14.9973 9.34037C15.0702 8.43474 14.7319 7.74251 14.2791 7.14396C13.8528 6.58049 13.0112 6.11954 12.3883 6.03055C11.6883 5.93055 11.162 5.98487 10.3296 6.43649C9.60578 6.82919 9.21308 7.39129 8.95212 8.10273C8.71627 8.74574 8.17075 8.92979 7.66097 8.76332C7.15118 8.59684 6.87983 8.03138 7.07302 7.45183C7.42317 6.40141 8.26461 5.3331 9.30351 4.70976C10.3035 4.10976 11.479 3.82431 12.9069 4.10293C14.0073 4.31764 15.0849 4.96655 15.8849 5.96655C16.5849 6.86655 17 7.8913 17 9.2C17 12.0477 13.9151 13.6332 12.7188 14.1445C12.7188 14.1445 12.4635 14.2499 12.3945 14.2773Z" fill="#111111"/>
<path d="M12 20C11.4 20 11 19.6 11 19C11 18.4 11.4 18 12 18C12.6 18 13 18.4 13 19C13 19.6 12.6 20 12 20Z" fill="#111111"/>
</svg>
