<svg width="24" height="24" viewBox="0 0 24 24" fill="none" xmlns="http://www.w3.org/2000/svg">
<path fill-rule="evenodd" clip-rule="evenodd" d="M12.5227 1.33636C12.1804 1.24368 11.8196 1.24368 11.4773 1.33636C11.08 1.44395 10.7454 1.7066 10.4784 1.91623L10.4038 1.97465L3.54376 7.31012C3.16713 7.6024 2.83532 7.85991 2.58806 8.19421C2.37107 8.48759 2.20942 8.8181 2.11106 9.1695C1.99898 9.56992 1.99943 9.98993 1.99995 10.4667L2.00002 17.8385C2 18.3657 1.99998 18.8204 2.03059 19.195C2.06289 19.5904 2.1342 19.9836 2.327 20.362C2.61462 20.9264 3.07356 21.3854 3.63805 21.673C4.01643 21.8658 4.40964 21.9371 4.80499 21.9694C5.17956 22 5.63431 22 6.16145 22H17.8386C18.3657 22 18.8205 22 19.195 21.9694C19.5904 21.9371 19.9836 21.8658 20.362 21.673C20.9265 21.3854 21.3854 20.9264 21.673 20.362C21.8658 19.9836 21.9371 19.5904 21.9694 19.195C22.0001 18.8204 22 18.3657 22 17.8386L22.0001 10.4667C22.0006 9.98993 22.0011 9.56992 21.889 9.1695C21.7906 8.8181 21.629 8.48759 21.412 8.19421C21.1647 7.8599 20.8329 7.6024 20.4563 7.31011L13.5963 1.97465L13.5216 1.91623C13.2546 1.7066 12.9201 1.44395 12.5227 1.33636ZM9.00003 13.6V20H15V13.6C15 13.0399 15 12.7599 14.891 12.546C14.7952 12.3578 14.6422 12.2049 14.454 12.109C14.2401 12 13.9601 12 13.4 12H10.6C10.04 12 9.75995 12 9.54604 12.109C9.35788 12.2049 9.2049 12.3578 9.10902 12.546C9.00003 12.7599 9.00003 13.0399 9.00003 13.6Z" fill="black"/>
</svg>
