<svg width="21" height="7" viewBox="0 0 21 7" fill="none" xmlns="http://www.w3.org/2000/svg">
<mask id="mask0_110_124" style="mask-type:luminance" maskUnits="userSpaceOnUse" x="7" y="0" width="7" height="7">
<path d="M7.52831 0.701294H13.3019V6.47488H7.52831V0.701294Z" fill="white"/>
</mask>
<g mask="url(#mask0_110_124)">
<path d="M11.9249 1.24472V5.9004M11.1489 1.24472V5.9004M10.373 1.24472V5.9004M9.59704 1.24472V5.9004M8.82109 1.24472V5.9004M12.6892 5.13609H8.03351M12.6892 4.36014H8.03351M12.6892 3.5842H8.03351M12.6892 2.80825H8.03351M12.6892 2.03231H8.03351" stroke="#956FAC" stroke-opacity="0.35" stroke-width="0.03"/>
<path opacity="0.4" d="M10.4151 5.99375C11.0531 5.99375 11.665 5.7403 12.1161 5.28915C12.5673 4.838 12.8207 4.22611 12.8207 3.58809C12.8207 2.95007 12.5673 2.33818 12.1161 1.88704C11.665 1.43589 11.0531 1.18243 10.4151 1.18243C9.77707 1.18243 9.16518 1.43589 8.71403 1.88704C8.26288 2.33818 8.00943 2.95007 8.00943 3.58809C8.00943 4.22611 8.26288 4.838 8.71403 5.28915C9.16518 5.7403 9.77707 5.99375 10.4151 5.99375Z" stroke="#956FAC" stroke-width="0.3" stroke-linecap="round" stroke-linejoin="round"/>
<path d="M9.45283 4.0692C9.45283 4.0692 9.81368 4.55033 10.4151 4.55033C11.0165 4.55033 11.3774 4.0692 11.3774 4.0692M11.6179 2.9241C11.5753 2.97965 11.5207 3.02491 11.4583 3.05655C11.3958 3.0882 11.3271 3.10541 11.2571 3.10693C11.1872 3.10501 11.1185 3.08761 11.0561 3.056C10.9937 3.02439 10.9391 2.97934 10.8962 2.9241M9.93396 2.9241C9.89134 2.97965 9.83678 3.02491 9.77433 3.05655C9.71187 3.0882 9.64311 3.10541 9.57311 3.10693C9.5032 3.10501 9.43457 3.08761 9.37218 3.056C9.30979 3.02439 9.25517 2.97934 9.21227 2.9241" stroke="#956FAC" stroke-width="0.3" stroke-linecap="round" stroke-linejoin="round"/>
</g>
<mask id="mask1_110_124" style="mask-type:luminance" maskUnits="userSpaceOnUse" x="0" y="1" width="5" height="5">
<path d="M0 1.02676H4.65568V5.68244H0V1.02676Z" fill="white"/>
</mask>
<g mask="url(#mask1_110_124)">
<path opacity="0.4" d="M0.387985 3.35458L2.25802 4.2896C2.28362 4.30279 2.29681 4.309 2.31 4.31133C2.32164 4.31365 2.33328 4.31365 2.3457 4.31133C2.36365 4.30638 2.38088 4.29908 2.39691 4.2896L4.26772 3.35458M0.387985 4.32452L2.25802 5.25953C2.28362 5.27272 2.29681 5.27893 2.31 5.28126C2.32164 5.28359 2.33328 5.28359 2.3457 5.28126C2.36365 5.27632 2.38088 5.26901 2.39691 5.25953L4.26772 4.32452" stroke="#2A8BFB" stroke-width="0.4" stroke-linecap="round" stroke-linejoin="round"/>
<path d="M2.39769 1.44965C2.38141 1.44012 2.36392 1.43281 2.3457 1.42793C2.3339 1.42572 2.3218 1.42572 2.31 1.42793C2.29205 1.43288 2.27483 1.44018 2.25879 1.44965L0.387985 2.38467L2.25802 3.31968C2.28362 3.33287 2.29681 3.33908 2.31 3.34141C2.32164 3.34374 2.33328 3.34374 2.3457 3.34141C2.36365 3.33646 2.38087 3.32915 2.39691 3.31968L4.26772 2.38467L2.39769 1.44965Z" stroke="#2A8BFB" stroke-width="0.4" stroke-linecap="round" stroke-linejoin="round"/>
<path d="M4.17917 1V6M3.34583 1V6M2.5125 1V6M1.67917 1V6M0.845833 1V6M5 5.17917H0M5 4.34583H0M5 3.5125H0M5 2.67917H0M5 1.84583H0" stroke="#956FAC" stroke-opacity="0.35" stroke-width="0.03"/>
</g>
<mask id="mask2_110_124" style="mask-type:luminance" maskUnits="userSpaceOnUse" x="15" y="0" width="6" height="7">
<path d="M15.2264 0.701294H21V6.47488H15.2264V0.701294Z" fill="white"/>
</mask>
<g mask="url(#mask2_110_124)">
<path opacity="0.4" d="M19.3449 4.39638C19.2785 4.47096 19.2098 4.54349 19.139 4.61385C18.1055 5.64733 16.8103 6.02838 16.2474 5.4645C15.8605 5.07767 15.9183 4.34827 16.3253 3.59386M16.8834 2.79999C16.9517 2.72301 17.0229 2.64699 17.098 2.57289C18.1315 1.53942 19.4267 1.15837 19.9896 1.72225C20.3764 2.10908 20.3187 2.83944 19.9107 3.59386" stroke="#FB802D" stroke-width="0.4" stroke-linecap="round" stroke-linejoin="round"/>
<path d="M19.139 2.57289C20.1724 3.60636 20.5535 4.90061 19.9896 5.4645C19.4257 6.02838 18.1315 5.64733 17.098 4.61385C16.0645 3.58038 15.6835 2.28518 16.2474 1.72225C16.8113 1.15837 18.1055 1.53942 19.139 2.57289Z" stroke="#FB802D" stroke-width="0.4" stroke-linecap="round" stroke-linejoin="round"/>
<path d="M18.1132 3.82867C18.177 3.82867 18.2382 3.80332 18.2833 3.75821C18.3284 3.71309 18.3538 3.6519 18.3538 3.5881C18.3538 3.5243 18.3284 3.46311 18.2833 3.41799C18.2382 3.37288 18.177 3.34753 18.1132 3.34753C18.0494 3.34753 17.9882 3.37288 17.9431 3.41799C17.898 3.46311 17.8726 3.5243 17.8726 3.5881C17.8726 3.6519 17.898 3.71309 17.9431 3.75821C17.9882 3.80332 18.0494 3.82867 18.1132 3.82867Z" stroke="#FB802D" stroke-width="0.4" stroke-linecap="round" stroke-linejoin="round"/>
<path d="M19.7702 1.24472V5.9004M18.9942 1.24472V5.9004M18.2183 1.24472V5.9004M17.4423 1.24472V5.9004M16.6664 1.24472V5.9004M20.5345 5.13609H15.8788M20.5345 4.36014H15.8788M20.5345 3.5842H15.8788M20.5345 2.80825H15.8788M20.5345 2.03231H15.8788" stroke="#956FAC" stroke-opacity="0.35" stroke-width="0.03"/>
</g>
</svg>
