<svg width="24" height="13" viewBox="0 0 24 13" fill="none" xmlns="http://www.w3.org/2000/svg">
<g clip-path="url(#clip0_6235_85856)">
<path opacity="0.4" d="M12 8.5C13.3807 8.5 14.5 7.38071 14.5 6C14.5 4.61929 13.3807 3.5 12 3.5C10.6193 3.5 9.5 4.61929 9.5 6C9.5 7.38071 10.6193 8.5 12 8.5Z" stroke="#956FAC" stroke-width="0.3" stroke-linecap="round" stroke-linejoin="round"/>
<path d="M11 6.50006C11 6.50006 11.375 7.00006 12 7.00006C12.625 7.00006 13 6.50006 13 6.50006M13.25 5.31006C13.1512 5.43131 13.0162 5.50006 12.875 5.50006C12.7338 5.50006 12.6025 5.43131 12.5 5.31006M11.5 5.31006C11.4012 5.43131 11.2662 5.50006 11.125 5.50006C10.9838 5.50006 10.8525 5.43131 10.75 5.31006" stroke="#956FAC" stroke-width="0.3" stroke-linecap="round" stroke-linejoin="round"/>
</g>
<g clip-path="url(#clip1_6235_85856)">
<path opacity="0.4" d="M1.5 6L3.91056 7.20528C3.94335 7.22168 3.95975 7.22988 3.97695 7.2331C3.99218 7.23596 4.00782 7.23596 4.02305 7.2331C4.04025 7.22988 4.05665 7.22168 4.08944 7.20528L6.5 6M1.5 7.25L3.91056 8.45528C3.94335 8.47168 3.95975 8.47988 3.97695 8.4831C3.99218 8.48596 4.00782 8.48596 4.02305 8.4831C4.04025 8.47988 4.05665 8.47168 4.08944 8.45528L6.5 7.25" stroke="#2A8BFB" stroke-width="0.4" stroke-linecap="round" stroke-linejoin="round"/>
<path d="M4.08944 3.54462C4.05665 3.52822 4.04025 3.52002 4.02305 3.51679C4.00782 3.51393 3.99218 3.51393 3.97695 3.51679C3.95975 3.52002 3.94335 3.52822 3.91056 3.54462L1.5 4.74989L3.91056 5.95517C3.94335 5.97157 3.95975 5.97977 3.97695 5.983C3.99218 5.98585 4.00782 5.98585 4.02305 5.983C4.04025 5.97977 4.05665 5.97157 4.08944 5.95517L6.5 4.74989L4.08944 3.54462Z" stroke="#2A8BFB" stroke-width="0.4" stroke-linecap="round" stroke-linejoin="round"/>
<line x1="6.015" y1="3" x2="6.015" y2="9" stroke="#956FAC" stroke-opacity="0.35" stroke-width="0.03"/>
<line x1="6.015" y1="3" x2="6.015" y2="9" stroke="#956FAC" stroke-opacity="0.35" stroke-width="0.03"/>
<line x1="6.015" y1="3" x2="6.015" y2="9" stroke="#956FAC" stroke-opacity="0.35" stroke-width="0.03"/>
<line x1="6.015" y1="3" x2="6.015" y2="9" stroke="#956FAC" stroke-opacity="0.35" stroke-width="0.03"/>
<line x1="6.015" y1="3" x2="6.015" y2="9" stroke="#956FAC" stroke-opacity="0.35" stroke-width="0.03"/>
<line x1="5.015" y1="3" x2="5.015" y2="9" stroke="#956FAC" stroke-opacity="0.35" stroke-width="0.03"/>
<line x1="5.015" y1="3" x2="5.015" y2="9" stroke="#956FAC" stroke-opacity="0.35" stroke-width="0.03"/>
<line x1="5.015" y1="3" x2="5.015" y2="9" stroke="#956FAC" stroke-opacity="0.35" stroke-width="0.03"/>
<line x1="5.015" y1="3" x2="5.015" y2="9" stroke="#956FAC" stroke-opacity="0.35" stroke-width="0.03"/>
<line x1="5.015" y1="3" x2="5.015" y2="9" stroke="#956FAC" stroke-opacity="0.35" stroke-width="0.03"/>
<line x1="4.015" y1="3" x2="4.015" y2="9" stroke="#956FAC" stroke-opacity="0.35" stroke-width="0.03"/>
<line x1="4.015" y1="3" x2="4.015" y2="9" stroke="#956FAC" stroke-opacity="0.35" stroke-width="0.03"/>
<line x1="4.015" y1="3" x2="4.015" y2="9" stroke="#956FAC" stroke-opacity="0.35" stroke-width="0.03"/>
<line x1="4.015" y1="3" x2="4.015" y2="9" stroke="#956FAC" stroke-opacity="0.35" stroke-width="0.03"/>
<line x1="4.015" y1="3" x2="4.015" y2="9" stroke="#956FAC" stroke-opacity="0.35" stroke-width="0.03"/>
<line x1="3.015" y1="3" x2="3.015" y2="9" stroke="#956FAC" stroke-opacity="0.35" stroke-width="0.03"/>
<line x1="3.015" y1="3" x2="3.015" y2="9" stroke="#956FAC" stroke-opacity="0.35" stroke-width="0.03"/>
<line x1="3.015" y1="3" x2="3.015" y2="9" stroke="#956FAC" stroke-opacity="0.35" stroke-width="0.03"/>
<line x1="3.015" y1="3" x2="3.015" y2="9" stroke="#956FAC" stroke-opacity="0.35" stroke-width="0.03"/>
<line x1="3.015" y1="3" x2="3.015" y2="9" stroke="#956FAC" stroke-opacity="0.35" stroke-width="0.03"/>
<line x1="2.015" y1="3" x2="2.015" y2="9" stroke="#956FAC" stroke-opacity="0.35" stroke-width="0.03"/>
<line x1="2.015" y1="3" x2="2.015" y2="9" stroke="#956FAC" stroke-opacity="0.35" stroke-width="0.03"/>
<line x1="2.015" y1="3" x2="2.015" y2="9" stroke="#956FAC" stroke-opacity="0.35" stroke-width="0.03"/>
<line x1="2.015" y1="3" x2="2.015" y2="9" stroke="#956FAC" stroke-opacity="0.35" stroke-width="0.03"/>
<line x1="2.015" y1="3" x2="2.015" y2="9" stroke="#956FAC" stroke-opacity="0.35" stroke-width="0.03"/>
<line x1="7" y1="8.015" x2="1" y2="8.015" stroke="#956FAC" stroke-opacity="0.35" stroke-width="0.03"/>
<line x1="7" y1="8.015" x2="1" y2="8.015" stroke="#956FAC" stroke-opacity="0.35" stroke-width="0.03"/>
<line x1="7" y1="8.015" x2="1" y2="8.015" stroke="#956FAC" stroke-opacity="0.35" stroke-width="0.03"/>
<line x1="7" y1="8.015" x2="1" y2="8.015" stroke="#956FAC" stroke-opacity="0.35" stroke-width="0.03"/>
<line x1="7" y1="8.015" x2="1" y2="8.015" stroke="#956FAC" stroke-opacity="0.35" stroke-width="0.03"/>
<line x1="7" y1="7.015" x2="1" y2="7.015" stroke="#956FAC" stroke-opacity="0.35" stroke-width="0.03"/>
<line x1="7" y1="7.015" x2="1" y2="7.015" stroke="#956FAC" stroke-opacity="0.35" stroke-width="0.03"/>
<line x1="7" y1="7.015" x2="1" y2="7.015" stroke="#956FAC" stroke-opacity="0.35" stroke-width="0.03"/>
<line x1="7" y1="7.015" x2="1" y2="7.015" stroke="#956FAC" stroke-opacity="0.35" stroke-width="0.03"/>
<line x1="7" y1="7.015" x2="1" y2="7.015" stroke="#956FAC" stroke-opacity="0.35" stroke-width="0.03"/>
<line x1="7" y1="6.015" x2="1" y2="6.015" stroke="#956FAC" stroke-opacity="0.35" stroke-width="0.03"/>
<line x1="7" y1="6.015" x2="1" y2="6.015" stroke="#956FAC" stroke-opacity="0.35" stroke-width="0.03"/>
<line x1="7" y1="6.015" x2="1" y2="6.015" stroke="#956FAC" stroke-opacity="0.35" stroke-width="0.03"/>
<line x1="7" y1="6.015" x2="1" y2="6.015" stroke="#956FAC" stroke-opacity="0.35" stroke-width="0.03"/>
<line x1="7" y1="6.015" x2="1" y2="6.015" stroke="#956FAC" stroke-opacity="0.35" stroke-width="0.03"/>
<line x1="7" y1="5.015" x2="1" y2="5.015" stroke="#956FAC" stroke-opacity="0.35" stroke-width="0.03"/>
<line x1="7" y1="5.015" x2="1" y2="5.015" stroke="#956FAC" stroke-opacity="0.35" stroke-width="0.03"/>
<line x1="7" y1="5.015" x2="1" y2="5.015" stroke="#956FAC" stroke-opacity="0.35" stroke-width="0.03"/>
<line x1="7" y1="5.015" x2="1" y2="5.015" stroke="#956FAC" stroke-opacity="0.35" stroke-width="0.03"/>
<line x1="7" y1="5.015" x2="1" y2="5.015" stroke="#956FAC" stroke-opacity="0.35" stroke-width="0.03"/>
<line x1="7" y1="4.015" x2="1" y2="4.015" stroke="#956FAC" stroke-opacity="0.35" stroke-width="0.03"/>
<line x1="7" y1="4.015" x2="1" y2="4.015" stroke="#956FAC" stroke-opacity="0.35" stroke-width="0.03"/>
<line x1="7" y1="4.015" x2="1" y2="4.015" stroke="#956FAC" stroke-opacity="0.35" stroke-width="0.03"/>
<line x1="7" y1="4.015" x2="1" y2="4.015" stroke="#956FAC" stroke-opacity="0.35" stroke-width="0.03"/>
<line x1="7" y1="4.015" x2="1" y2="4.015" stroke="#956FAC" stroke-opacity="0.35" stroke-width="0.03"/>
</g>
<g clip-path="url(#clip2_6235_85856)">
<path opacity="0.4" d="M21.2791 6.83955C21.2114 6.91606 21.1404 6.99162 21.0661 7.06588C19.9922 8.13982 18.6467 8.53555 18.0609 7.94976C17.6593 7.54816 17.719 6.7895 18.1424 6.00606M18.7227 5.18131C18.7931 5.10124 18.8672 5.02219 18.9448 4.94456C20.0187 3.87062 21.3642 3.47489 21.95 4.06068C22.3519 4.46255 22.2918 5.22199 21.8677 6.006" stroke="#FB802D" stroke-width="0.4" stroke-linecap="round" stroke-linejoin="round"/>
<path d="M21.0661 4.94456C22.1401 6.0185 22.5358 7.36398 21.95 7.94976C21.3642 8.53555 20.0187 8.13982 18.9448 7.06588C17.8709 5.99194 17.4751 4.64646 18.0609 4.06068C18.6467 3.47489 19.9922 3.87062 21.0661 4.94456Z" stroke="#FB802D" stroke-width="0.4" stroke-linecap="round" stroke-linejoin="round"/>
<path d="M20.0003 6.25C20.1383 6.25 20.2503 6.13807 20.2503 6C20.2503 5.86193 20.1383 5.75 20.0003 5.75C19.8622 5.75 19.7503 5.86193 19.7503 6C19.7503 6.13807 19.8622 6.25 20.0003 6.25Z" stroke="#FB802D" stroke-width="0.4" stroke-linecap="round" stroke-linejoin="round"/>
</g>
<line x1="14.015" y1="3" x2="14.015" y2="9" stroke="#956FAC" stroke-opacity="0.35" stroke-width="0.03"/>
<line x1="14.015" y1="3" x2="14.015" y2="9" stroke="#956FAC" stroke-opacity="0.35" stroke-width="0.03"/>
<line x1="14.015" y1="3" x2="14.015" y2="9" stroke="#956FAC" stroke-opacity="0.35" stroke-width="0.03"/>
<line x1="14.015" y1="3" x2="14.015" y2="9" stroke="#956FAC" stroke-opacity="0.35" stroke-width="0.03"/>
<line x1="14.015" y1="3" x2="14.015" y2="9" stroke="#956FAC" stroke-opacity="0.35" stroke-width="0.03"/>
<line x1="13.015" y1="3" x2="13.015" y2="9" stroke="#956FAC" stroke-opacity="0.35" stroke-width="0.03"/>
<line x1="13.015" y1="3" x2="13.015" y2="9" stroke="#956FAC" stroke-opacity="0.35" stroke-width="0.03"/>
<line x1="13.015" y1="3" x2="13.015" y2="9" stroke="#956FAC" stroke-opacity="0.35" stroke-width="0.03"/>
<line x1="13.015" y1="3" x2="13.015" y2="9" stroke="#956FAC" stroke-opacity="0.35" stroke-width="0.03"/>
<line x1="13.015" y1="3" x2="13.015" y2="9" stroke="#956FAC" stroke-opacity="0.35" stroke-width="0.03"/>
<line x1="12.015" y1="3" x2="12.015" y2="9" stroke="#956FAC" stroke-opacity="0.35" stroke-width="0.03"/>
<line x1="12.015" y1="3" x2="12.015" y2="9" stroke="#956FAC" stroke-opacity="0.35" stroke-width="0.03"/>
<line x1="12.015" y1="3" x2="12.015" y2="9" stroke="#956FAC" stroke-opacity="0.35" stroke-width="0.03"/>
<line x1="12.015" y1="3" x2="12.015" y2="9" stroke="#956FAC" stroke-opacity="0.35" stroke-width="0.03"/>
<line x1="12.015" y1="3" x2="12.015" y2="9" stroke="#956FAC" stroke-opacity="0.35" stroke-width="0.03"/>
<line x1="11.015" y1="3" x2="11.015" y2="9" stroke="#956FAC" stroke-opacity="0.35" stroke-width="0.03"/>
<line x1="11.015" y1="3" x2="11.015" y2="9" stroke="#956FAC" stroke-opacity="0.35" stroke-width="0.03"/>
<line x1="11.015" y1="3" x2="11.015" y2="9" stroke="#956FAC" stroke-opacity="0.35" stroke-width="0.03"/>
<line x1="11.015" y1="3" x2="11.015" y2="9" stroke="#956FAC" stroke-opacity="0.35" stroke-width="0.03"/>
<line x1="11.015" y1="3" x2="11.015" y2="9" stroke="#956FAC" stroke-opacity="0.35" stroke-width="0.03"/>
<line x1="10.015" y1="3" x2="10.015" y2="9" stroke="#956FAC" stroke-opacity="0.35" stroke-width="0.03"/>
<line x1="10.015" y1="3" x2="10.015" y2="9" stroke="#956FAC" stroke-opacity="0.35" stroke-width="0.03"/>
<line x1="10.015" y1="3" x2="10.015" y2="9" stroke="#956FAC" stroke-opacity="0.35" stroke-width="0.03"/>
<line x1="10.015" y1="3" x2="10.015" y2="9" stroke="#956FAC" stroke-opacity="0.35" stroke-width="0.03"/>
<line x1="10.015" y1="3" x2="10.015" y2="9" stroke="#956FAC" stroke-opacity="0.35" stroke-width="0.03"/>
<line x1="15" y1="8.015" x2="9" y2="8.015" stroke="#956FAC" stroke-opacity="0.35" stroke-width="0.03"/>
<line x1="15" y1="8.015" x2="9" y2="8.015" stroke="#956FAC" stroke-opacity="0.35" stroke-width="0.03"/>
<line x1="15" y1="8.015" x2="9" y2="8.015" stroke="#956FAC" stroke-opacity="0.35" stroke-width="0.03"/>
<line x1="15" y1="8.015" x2="9" y2="8.015" stroke="#956FAC" stroke-opacity="0.35" stroke-width="0.03"/>
<line x1="15" y1="8.015" x2="9" y2="8.015" stroke="#956FAC" stroke-opacity="0.35" stroke-width="0.03"/>
<line x1="15" y1="7.015" x2="9" y2="7.015" stroke="#956FAC" stroke-opacity="0.35" stroke-width="0.03"/>
<line x1="15" y1="7.015" x2="9" y2="7.015" stroke="#956FAC" stroke-opacity="0.35" stroke-width="0.03"/>
<line x1="15" y1="7.015" x2="9" y2="7.015" stroke="#956FAC" stroke-opacity="0.35" stroke-width="0.03"/>
<line x1="15" y1="7.015" x2="9" y2="7.015" stroke="#956FAC" stroke-opacity="0.35" stroke-width="0.03"/>
<line x1="15" y1="7.015" x2="9" y2="7.015" stroke="#956FAC" stroke-opacity="0.35" stroke-width="0.03"/>
<line x1="15" y1="6.015" x2="9" y2="6.015" stroke="#956FAC" stroke-opacity="0.35" stroke-width="0.03"/>
<line x1="15" y1="6.015" x2="9" y2="6.015" stroke="#956FAC" stroke-opacity="0.35" stroke-width="0.03"/>
<line x1="15" y1="6.015" x2="9" y2="6.015" stroke="#956FAC" stroke-opacity="0.35" stroke-width="0.03"/>
<line x1="15" y1="6.015" x2="9" y2="6.015" stroke="#956FAC" stroke-opacity="0.35" stroke-width="0.03"/>
<line x1="15" y1="6.015" x2="9" y2="6.015" stroke="#956FAC" stroke-opacity="0.35" stroke-width="0.03"/>
<line x1="15" y1="5.015" x2="9" y2="5.015" stroke="#956FAC" stroke-opacity="0.35" stroke-width="0.03"/>
<line x1="15" y1="5.015" x2="9" y2="5.015" stroke="#956FAC" stroke-opacity="0.35" stroke-width="0.03"/>
<line x1="15" y1="5.015" x2="9" y2="5.015" stroke="#956FAC" stroke-opacity="0.35" stroke-width="0.03"/>
<line x1="15" y1="5.015" x2="9" y2="5.015" stroke="#956FAC" stroke-opacity="0.35" stroke-width="0.03"/>
<line x1="15" y1="5.015" x2="9" y2="5.015" stroke="#956FAC" stroke-opacity="0.35" stroke-width="0.03"/>
<line x1="15" y1="4.015" x2="9" y2="4.015" stroke="#956FAC" stroke-opacity="0.35" stroke-width="0.03"/>
<line x1="15" y1="4.015" x2="9" y2="4.015" stroke="#956FAC" stroke-opacity="0.35" stroke-width="0.03"/>
<line x1="15" y1="4.015" x2="9" y2="4.015" stroke="#956FAC" stroke-opacity="0.35" stroke-width="0.03"/>
<line x1="15" y1="4.015" x2="9" y2="4.015" stroke="#956FAC" stroke-opacity="0.35" stroke-width="0.03"/>
<line x1="15" y1="4.015" x2="9" y2="4.015" stroke="#956FAC" stroke-opacity="0.35" stroke-width="0.03"/>
<line x1="22.015" y1="3" x2="22.015" y2="9" stroke="#956FAC" stroke-opacity="0.35" stroke-width="0.03"/>
<line x1="22.015" y1="3" x2="22.015" y2="9" stroke="#956FAC" stroke-opacity="0.35" stroke-width="0.03"/>
<line x1="22.015" y1="3" x2="22.015" y2="9" stroke="#956FAC" stroke-opacity="0.35" stroke-width="0.03"/>
<line x1="22.015" y1="3" x2="22.015" y2="9" stroke="#956FAC" stroke-opacity="0.35" stroke-width="0.03"/>
<line x1="22.015" y1="3" x2="22.015" y2="9" stroke="#956FAC" stroke-opacity="0.35" stroke-width="0.03"/>
<line x1="21.015" y1="3" x2="21.015" y2="9" stroke="#956FAC" stroke-opacity="0.35" stroke-width="0.03"/>
<line x1="21.015" y1="3" x2="21.015" y2="9" stroke="#956FAC" stroke-opacity="0.35" stroke-width="0.03"/>
<line x1="21.015" y1="3" x2="21.015" y2="9" stroke="#956FAC" stroke-opacity="0.35" stroke-width="0.03"/>
<line x1="21.015" y1="3" x2="21.015" y2="9" stroke="#956FAC" stroke-opacity="0.35" stroke-width="0.03"/>
<line x1="21.015" y1="3" x2="21.015" y2="9" stroke="#956FAC" stroke-opacity="0.35" stroke-width="0.03"/>
<line x1="20.015" y1="3" x2="20.015" y2="9" stroke="#956FAC" stroke-opacity="0.35" stroke-width="0.03"/>
<line x1="20.015" y1="3" x2="20.015" y2="9" stroke="#956FAC" stroke-opacity="0.35" stroke-width="0.03"/>
<line x1="20.015" y1="3" x2="20.015" y2="9" stroke="#956FAC" stroke-opacity="0.35" stroke-width="0.03"/>
<line x1="20.015" y1="3" x2="20.015" y2="9" stroke="#956FAC" stroke-opacity="0.35" stroke-width="0.03"/>
<line x1="20.015" y1="3" x2="20.015" y2="9" stroke="#956FAC" stroke-opacity="0.35" stroke-width="0.03"/>
<line x1="19.015" y1="3" x2="19.015" y2="9" stroke="#956FAC" stroke-opacity="0.35" stroke-width="0.03"/>
<line x1="19.015" y1="3" x2="19.015" y2="9" stroke="#956FAC" stroke-opacity="0.35" stroke-width="0.03"/>
<line x1="19.015" y1="3" x2="19.015" y2="9" stroke="#956FAC" stroke-opacity="0.35" stroke-width="0.03"/>
<line x1="19.015" y1="3" x2="19.015" y2="9" stroke="#956FAC" stroke-opacity="0.35" stroke-width="0.03"/>
<line x1="19.015" y1="3" x2="19.015" y2="9" stroke="#956FAC" stroke-opacity="0.35" stroke-width="0.03"/>
<line x1="18.015" y1="3" x2="18.015" y2="9" stroke="#956FAC" stroke-opacity="0.35" stroke-width="0.03"/>
<line x1="18.015" y1="3" x2="18.015" y2="9" stroke="#956FAC" stroke-opacity="0.35" stroke-width="0.03"/>
<line x1="18.015" y1="3" x2="18.015" y2="9" stroke="#956FAC" stroke-opacity="0.35" stroke-width="0.03"/>
<line x1="18.015" y1="3" x2="18.015" y2="9" stroke="#956FAC" stroke-opacity="0.35" stroke-width="0.03"/>
<line x1="18.015" y1="3" x2="18.015" y2="9" stroke="#956FAC" stroke-opacity="0.35" stroke-width="0.03"/>
<line x1="23" y1="8.015" x2="17" y2="8.015" stroke="#956FAC" stroke-opacity="0.35" stroke-width="0.03"/>
<line x1="23" y1="8.015" x2="17" y2="8.015" stroke="#956FAC" stroke-opacity="0.35" stroke-width="0.03"/>
<line x1="23" y1="8.015" x2="17" y2="8.015" stroke="#956FAC" stroke-opacity="0.35" stroke-width="0.03"/>
<line x1="23" y1="8.015" x2="17" y2="8.015" stroke="#956FAC" stroke-opacity="0.35" stroke-width="0.03"/>
<line x1="23" y1="8.015" x2="17" y2="8.015" stroke="#956FAC" stroke-opacity="0.35" stroke-width="0.03"/>
<line x1="23" y1="7.015" x2="17" y2="7.015" stroke="#956FAC" stroke-opacity="0.35" stroke-width="0.03"/>
<line x1="23" y1="7.015" x2="17" y2="7.015" stroke="#956FAC" stroke-opacity="0.35" stroke-width="0.03"/>
<line x1="23" y1="7.015" x2="17" y2="7.015" stroke="#956FAC" stroke-opacity="0.35" stroke-width="0.03"/>
<line x1="23" y1="7.015" x2="17" y2="7.015" stroke="#956FAC" stroke-opacity="0.35" stroke-width="0.03"/>
<line x1="23" y1="7.015" x2="17" y2="7.015" stroke="#956FAC" stroke-opacity="0.35" stroke-width="0.03"/>
<line x1="23" y1="6.015" x2="17" y2="6.015" stroke="#956FAC" stroke-opacity="0.35" stroke-width="0.03"/>
<line x1="23" y1="6.015" x2="17" y2="6.015" stroke="#956FAC" stroke-opacity="0.35" stroke-width="0.03"/>
<line x1="23" y1="6.015" x2="17" y2="6.015" stroke="#956FAC" stroke-opacity="0.35" stroke-width="0.03"/>
<line x1="23" y1="6.015" x2="17" y2="6.015" stroke="#956FAC" stroke-opacity="0.35" stroke-width="0.03"/>
<line x1="23" y1="6.015" x2="17" y2="6.015" stroke="#956FAC" stroke-opacity="0.35" stroke-width="0.03"/>
<line x1="23" y1="5.015" x2="17" y2="5.015" stroke="#956FAC" stroke-opacity="0.35" stroke-width="0.03"/>
<line x1="23" y1="5.015" x2="17" y2="5.015" stroke="#956FAC" stroke-opacity="0.35" stroke-width="0.03"/>
<line x1="23" y1="5.015" x2="17" y2="5.015" stroke="#956FAC" stroke-opacity="0.35" stroke-width="0.03"/>
<line x1="23" y1="5.015" x2="17" y2="5.015" stroke="#956FAC" stroke-opacity="0.35" stroke-width="0.03"/>
<line x1="23" y1="5.015" x2="17" y2="5.015" stroke="#956FAC" stroke-opacity="0.35" stroke-width="0.03"/>
<line x1="23" y1="4.015" x2="17" y2="4.015" stroke="#956FAC" stroke-opacity="0.35" stroke-width="0.03"/>
<line x1="23" y1="4.015" x2="17" y2="4.015" stroke="#956FAC" stroke-opacity="0.35" stroke-width="0.03"/>
<line x1="23" y1="4.015" x2="17" y2="4.015" stroke="#956FAC" stroke-opacity="0.35" stroke-width="0.03"/>
<line x1="23" y1="4.015" x2="17" y2="4.015" stroke="#956FAC" stroke-opacity="0.35" stroke-width="0.03"/>
<line x1="23" y1="4.015" x2="17" y2="4.015" stroke="#956FAC" stroke-opacity="0.35" stroke-width="0.03"/>
<defs>
<clipPath id="clip0_6235_85856">
<rect width="6" height="6" fill="white" transform="translate(9 3)"/>
</clipPath>
<clipPath id="clip1_6235_85856">
<rect width="6" height="6" fill="white" transform="translate(1 3)"/>
</clipPath>
<clipPath id="clip2_6235_85856">
<rect width="6" height="6" fill="white" transform="translate(17 3)"/>
</clipPath>
</defs>
</svg>
