<svg width="24" height="24" viewBox="0 0 24 24" fill="none" xmlns="http://www.w3.org/2000/svg">
<path fill-rule="evenodd" clip-rule="evenodd" d="M15.4772 22.9999L15.5282 23C15.7182 23.0005 15.9573 23.0012 16.1926 22.9447C16.3967 22.8957 16.5918 22.8149 16.7707 22.7052C16.9771 22.5788 17.1457 22.4092 17.2797 22.2746L17.3157 22.2384L22.2384 17.3157L22.2746 17.2797C22.4092 17.1457 22.5788 16.9771 22.7052 16.7707C22.8149 16.5918 22.8957 16.3967 22.9447 16.1926C23.0012 15.9573 23.0005 15.7182 23 15.5282L22.9999 15.4772V8.52269L23 8.47165C23.0005 8.28174 23.0012 8.0426 22.9447 7.80727C22.8957 7.6032 22.8149 7.40811 22.7052 7.22917C22.5788 7.02281 22.4092 6.85416 22.2746 6.72023L22.2384 6.68421L17.3157 1.76147L17.2796 1.7253C17.1457 1.59066 16.9771 1.42112 16.7707 1.29467C16.5918 1.18501 16.3967 1.1042 16.1926 1.05521C15.9573 0.998709 15.7182 0.999348 15.5282 0.999856L15.4772 0.999947L8.52269 0.999947L8.47166 0.999855C8.28174 0.999348 8.0426 0.998709 7.80727 1.05521C7.6032 1.1042 7.40811 1.18501 7.22917 1.29467C7.02281 1.42112 6.85416 1.59067 6.72023 1.72532L6.68421 1.76147L1.76147 6.68421L1.72532 6.72023C1.59067 6.85416 1.42112 7.02281 1.29467 7.22916C1.18501 7.40811 1.1042 7.6032 1.05521 7.80727C0.998709 8.0426 0.999348 8.28174 0.999856 8.47165L0.999947 8.52269L0.999947 15.4772L0.999855 15.5282C0.999348 15.7181 0.998709 15.9573 1.05521 16.1926C1.1042 16.3967 1.18501 16.5918 1.29467 16.7707C1.42112 16.9771 1.59066 17.1457 1.7253 17.2796L1.76147 17.3157L6.68421 22.2384L6.72024 22.2746C6.85416 22.4092 7.02281 22.5788 7.22916 22.7052C7.40811 22.8149 7.6032 22.8957 7.80727 22.9447C8.0426 23.0012 8.28174 23.0005 8.47165 23L8.52269 22.9999H15.4772ZM10.9999 15.9999C10.9999 16.5522 11.4476 16.9999 11.9999 16.9999C12.5522 16.9999 12.9999 16.5522 12.9999 15.9999V11.9999C12.9999 11.4476 12.5522 10.9999 11.9999 10.9999C11.4476 10.9999 10.9999 11.4476 10.9999 11.9999V15.9999ZM11.9999 8.99989C12.5522 8.99989 12.9999 8.55218 12.9999 7.99989C12.9999 7.44761 12.5522 6.99989 11.9999 6.99989H11.9899C11.4376 6.99989 10.9899 7.44761 10.9899 7.99989C10.9899 8.55218 11.4376 8.99989 11.9899 8.99989H11.9999Z" fill="#111111"/>
</svg>
