<svg width="24" height="24" viewBox="0 0 24 24" fill="none" xmlns="http://www.w3.org/2000/svg">
<path fill-rule="evenodd" clip-rule="evenodd" d="M12 23C18.0751 23 23 18.0751 23 12C23 5.92487 18.0751 1 12 0.999999C5.92487 0.999999 1 5.92487 1 12C1 18.0751 5.92487 23 12 23ZM11 16C11 16.5523 11.4477 17 12 17C12.5523 17 13 16.5523 13 16L13 12C13 11.4477 12.5523 11 12 11C11.4477 11 11 11.4477 11 12L11 16ZM12 9C12.5523 9 13 8.55228 13 8C13 7.44771 12.5523 7 12 7L11.99 7C11.4377 7 10.99 7.44771 10.99 8C10.99 8.55228 11.4377 9 11.99 9L12 9Z" fill="#111111"/>
</svg>
