<svg width="24" height="24" viewBox="0 0 24 24" fill="none" xmlns="http://www.w3.org/2000/svg">
<path d="M12.0059 8.66927C13.8468 8.66927 15.3398 10.1618 15.3398 12.002C15.3398 13.8422 13.8468 15.3346 12.0059 15.3346C10.1649 15.3346 8.67188 13.8422 8.67188 12.002C8.67188 10.1618 10.1649 8.66927 12.0059 8.66927Z" fill="#111111"/>
<path fill-rule="evenodd" clip-rule="evenodd" d="M12.0059 2C14.7223 2 15.0623 2.01172 16.1333 2.06251C17.1964 2.1094 17.9234 2.28131 18.5605 2.52745C19.2171 2.7814 19.776 3.12522 20.3311 3.68002C20.89 4.23481 21.23 4.79351 21.4763 5.45771C21.7225 6.09064 21.8945 6.82125 21.9414 7.88396C21.9883 8.95058 22 9.29049 22 12.0059C22 14.7212 21.9883 15.0611 21.9414 16.1278C21.8945 17.1905 21.7225 17.9172 21.4763 18.554C21.2222 19.2104 20.8782 19.7691 20.3232 20.3239C19.7682 20.8787 19.2093 21.2225 18.5527 21.4765C17.9195 21.7226 17.1886 21.8945 16.1255 21.9414C15.0584 21.9883 14.7184 22 12.002 22C9.28552 22 8.94548 21.9883 7.87844 21.9414C6.81532 21.8945 6.08833 21.7226 5.45124 21.4765C4.79461 21.2225 4.23568 20.8787 3.68067 20.3239C3.12175 19.7691 2.78171 19.2104 2.52374 18.5501C2.27751 17.9172 2.10553 17.1866 2.05863 16.1239C2.01173 15.0572 2 14.7173 2 12.002C2 9.28658 2.01173 8.94667 2.05863 7.87615C2.10553 6.81344 2.27751 6.08674 2.52374 5.44989C2.78171 4.79351 3.12175 4.23481 3.68067 3.68002C4.23568 3.12131 4.79461 2.7814 5.45515 2.52354C6.08833 2.2774 6.81923 2.10549 7.88235 2.05861C8.94938 2.01172 9.28943 2 12.0059 2ZM12.0059 6.86423C9.16826 6.86423 6.86613 9.16546 6.86613 12.002C6.86613 14.8384 9.16826 17.1397 12.0059 17.1397C14.8435 17.1397 17.1456 14.8384 17.1456 12.002C17.1456 9.16546 14.8435 6.86423 12.0059 6.86423ZM17.3488 5.46161C16.6883 5.46161 16.1489 5.99687 16.1489 6.66107C16.1489 7.32134 16.6844 7.86052 17.3488 7.86052C18.0094 7.86052 18.5487 7.32525 18.5488 6.66107C18.5488 6.00078 18.0094 5.46161 17.3488 5.46161Z" fill="#111111"/>
</svg>
