<svg width="24" height="24" viewBox="0 0 24 24" fill="none" xmlns="http://www.w3.org/2000/svg">
<g clip-path="url(#clip0_2293_137)">
<path d="M12.0059 3C13.3672 3 14.7297 3.06154 16.0896 3.06154C17.0541 3.10408 17.6733 3.25645 18.2003 3.46006C18.7348 3.6668 19.1735 3.93662 19.6241 4.38702C20 4.76277 20.3252 5.22916 20.5388 5.8053C20.7956 6.4899 20.9101 7.19838 20.9423 7.92783C21.0528 10.6412 21.0528 13.3705 20.9423 16.0839C20.8998 17.048 20.7474 17.6669 20.5436 18.1937C20.3368 18.7279 20.0669 19.1665 19.6163 19.6169C19.1892 20.0438 18.7209 20.2798 18.1906 20.5448C17.7346 20.7221 17.2011 20.8604 16.4277 20.9209C13.8376 21.0818 11.2116 21.0599 8.61889 20.9707C7.66511 20.9319 6.71342 20.8923 5.8114 20.5438C5.19141 20.304 4.68007 19.9189 4.22443 19.4469C3.86874 19.0564 3.64124 18.6616 3.45538 18.1859C3.19246 17.5095 3.10236 16.799 3.05766 16.08C2.93349 13.2565 2.91068 10.3966 3.07818 7.57423C3.13846 6.80534 3.27704 6.27493 3.4544 5.81506C3.66749 5.27299 3.97848 4.79696 4.39056 4.38507C4.83764 3.93503 5.27451 3.66749 5.81824 3.45518C6.3391 3.25281 6.96093 3.1002 7.92606 3.05763C9.28574 3.00235 10.645 3 12.0059 3Z" stroke="#111111" stroke-width="2"/>
<path d="M18 6.5C18 6.77687 17.7753 7 17.5 7C17.2231 7 17 6.77524 17 6.5C17 6.22313 17.2248 6 17.5 6C17.7753 6 18 6.22476 18 6.5Z" stroke="#111111" stroke-width="2"/>
<path opacity="0.5" d="M12 7.86328C14.2837 7.86328 16.1367 9.71635 16.1367 12C16.1367 14.2837 14.2837 16.1367 12 16.1367C9.71635 16.1367 7.86328 14.2837 7.86328 12C7.86328 9.71635 9.71635 7.86328 12 7.86328Z" stroke="#111111" stroke-width="2"/>
</g>
<defs>
<clipPath id="clip0_2293_137">
<rect width="20" height="20" fill="white" transform="translate(2 2)"/>
</clipPath>
</defs>
</svg>
