<svg width="24" height="24" viewBox="0 0 24 24" fill="none" xmlns="http://www.w3.org/2000/svg">
<path d="M16.5262 9.67023C18.1671 9.6703 18.9155 10.1896 19.3328 10.8528C19.8169 11.6223 19.9998 12.8022 19.9998 14.3997V20.0003H18.2722V15.1526C18.2722 14.5008 18.2789 13.5017 17.951 12.6693C17.7756 12.2243 17.4881 11.7763 17.0174 11.4466C16.5443 11.1154 15.9716 10.9633 15.3328 10.9632C14.7172 10.9632 14.1587 11.0838 13.6785 11.3509C13.6727 11.3541 13.6667 11.3574 13.6609 11.3607C13.75 11.2817 13.8273 11.1883 13.8846 11.0794C14.2163 10.4474 15.1034 9.67023 16.5262 9.67023ZM11.95 9.97003V10.6146C11.95 11.1667 12.3979 11.6144 12.95 11.6146H12.9998C13.1426 11.6145 13.2801 11.5819 13.406 11.5257C13.0603 11.7769 12.8007 12.0932 12.6111 12.4388C12.164 13.2541 12.0974 14.2514 12.0974 15.054V20.0003H10.3748V9.97003H11.95ZM6.03201 9.97003V20.0003H4.29959V9.97003H6.03201Z" stroke="#111111" stroke-width="2" stroke-linejoin="round"/>
<path opacity="0.4" d="M5.16602 4C5.80507 4.00007 6.32715 4.52022 6.32715 5.16602C6.32698 5.80823 5.80349 6.33099 5.16602 6.33105C4.52062 6.33105 4.00016 5.81023 4 5.16602C4 4.52166 4.52052 4 5.16602 4Z" stroke="#111111" stroke-width="2" stroke-linejoin="round"/>
</svg>
