<svg width="24" height="24" viewBox="0 0 24 24" fill="none" xmlns="http://www.w3.org/2000/svg">
<path d="M7.0322 21H3.29959V8.97047H7.0322V21ZM5.16589 7.33142C3.96753 7.33142 3 6.36177 3 5.16571C3 3.96965 3.96753 3 5.16589 3C6.35935 3 7.32688 3.96965 7.32688 5.16571C7.32688 6.35685 6.35935 7.33142 5.16589 7.33142ZM21 21H17.2723V15.1526C17.2723 13.7596 17.2477 11.9631 15.3323 11.9631C13.3924 11.9631 13.0977 13.484 13.0977 15.0541V21H9.3749V8.97047H12.9503V10.6144H12.9995C13.4955 9.6694 14.7135 8.67022 16.5258 8.67022C20.3026 8.67022 21 11.1608 21 14.3995V21Z" fill="#111111"/>
</svg>
