<svg width="24" height="24" viewBox="0 0 24 24" fill="none" xmlns="http://www.w3.org/2000/svg">
<path opacity="0.4" d="M6 17C6 17.3513 6 17.5269 6.01567 17.6796C6.14575 18.9474 7.06261 19.9946 8.30206 20.2911C8.45134 20.3268 8.6255 20.3501 8.97368 20.3965L15.5656 21.2754C17.442 21.5256 18.3803 21.6507 19.1084 21.3612C19.7478 21.1069 20.2803 20.6407 20.6168 20.0406C21 19.3571 21 18.4106 21 16.5175V7.48247C21 5.58943 21 4.64291 20.6168 3.95938C20.2803 3.35926 19.7478 2.89304 19.1084 2.63883C18.3803 2.34929 17.4421 2.47439 15.5656 2.72458L8.97368 3.6035C8.62546 3.64993 8.45135 3.67315 8.30206 3.70886C7.0626 4.00535 6.14575 5.05257 6.01567 6.32033C6 6.47304 6 6.64869 6 6.99999" stroke="#111111" stroke-width="2" stroke-linecap="round" stroke-linejoin="round"/>
<path d="M12 8L16 12M16 12L12 16M16 12H3" stroke="#111111" stroke-width="2" stroke-linecap="round" stroke-linejoin="round"/>
</svg>
