<svg width="24" height="24" viewBox="0 0 24 24" fill="none" xmlns="http://www.w3.org/2000/svg">
<path fill-rule="evenodd" clip-rule="evenodd" d="M20.6439 6.97032C20.3232 9.09613 18.771 10.9465 16.9465 12.4019C14.9981 13.9568 12.6626 14.8129 10.371 14.8129C9.50937 14.818 8.65222 14.6889 7.83032 14.4303C7.56581 12.2787 7.91613 10.1594 8.84839 8.3671C9.91871 6.30968 11.6387 4.97484 13.6645 4.48839C14.509 4.28581 15.2826 4.16 15.7503 4.16C15.7503 4.16 17.2239 4.03935 18.5703 4.62452C18.5703 4.62452 19.2058 5.03097 19.7645 5.69097C20.0999 6.08678 20.3945 6.5154 20.6439 6.97032V6.97032ZM22 12.0013C22 17.4439 17.6542 21.871 12.2445 22C11.8703 21.749 11.509 21.4645 11.1645 21.1477C9.62387 19.7284 8.50903 17.7387 8.02129 15.5394C8.76839 15.7316 9.55419 15.829 10.371 15.829C12.8923 15.829 15.4529 14.8935 17.58 13.1968C19.2684 11.849 20.4413 9.93613 21.1768 8.06323C21.6419 9.21742 22 10.6806 22 12.0013V12.0013ZM7.9471 7.89806C7.00129 9.71548 6.59871 11.831 6.76581 13.9923C5.91419 13.5587 5.17161 12.96 4.57355 12.2103C3.48387 10.8445 3.01935 9.14839 3.12258 7.39355C4.78903 4.18903 8.13871 2 12 2C14.1135 2 16.0742 2.65613 17.689 3.77613C16.8448 3.47758 15.9561 3.32401 15.0606 3.32194C14.52 3.32194 13.9774 3.38 13.4484 3.49613C11.1129 4.00452 9.15871 5.56839 7.9471 7.89806V7.89806ZM7.01871 15.7148C7.56194 18.2065 8.81097 20.3568 10.4626 21.8858C5.66968 21.1458 2 17.0019 2 12.0019C2 11.1955 2.09613 10.4129 2.27548 9.66258C2.52335 10.8249 3.03796 11.9138 3.77871 12.8432C4.60447 13.8778 5.68464 14.6803 6.91355 15.1723C6.94452 15.3529 6.97935 15.5335 7.01871 15.7142V15.7148Z" fill="black"/>
</svg>
