<svg width="20" height="20" viewBox="0 0 20 20" fill="none" xmlns="http://www.w3.org/2000/svg">
<g clip-path="url(#clip0_130_364)">
<mask id="mask0_130_364" style="mask-type:alpha" maskUnits="userSpaceOnUse" x="0" y="0" width="20" height="20">
<path d="M20 0H0V20H20V0Z" fill="white"/>
</mask>
<g mask="url(#mask0_130_364)">
<path fill-rule="evenodd" clip-rule="evenodd" d="M10.1984 18.8486C8.67457 17.6952 7.45273 15.9575 6.82278 13.8768C6.7643 13.6834 6.7136 13.4892 6.66668 13.2948C7.40513 13.5019 8.16227 13.6041 8.92207 13.6041C12.6402 13.6041 16.4086 11.2145 18.2416 7.32809C18.2854 7.2352 18.3247 7.14164 18.3659 7.04831C18.6892 7.96651 18.8655 8.95341 18.8655 9.98076C18.8655 14.8026 14.9963 18.7356 10.1984 18.8486ZM1.10892 9.98105C1.10892 9.39085 1.1683 8.8144 1.27881 8.25615C2.01571 10.2564 3.44461 11.9135 5.43941 12.8406C5.51857 13.2919 5.62442 13.7453 5.76139 14.1977C6.29929 15.9744 7.22144 17.5093 8.37879 18.7051C4.24884 17.9464 1.10892 14.3246 1.10892 9.98105ZM9.98742 1.10855C11.5411 1.10855 13.002 1.51055 14.2739 2.21435C13.8423 2.13769 13.4062 2.09657 12.9684 2.09657C12.2746 2.09657 11.5775 2.19568 10.8911 2.40346C7.26013 3.50101 5.06407 7.28636 5.28557 11.4875C3.43417 10.3566 2.27192 8.41011 1.96328 6.18746C3.38908 3.18791 6.44937 1.10855 9.98742 1.10855ZM17.6824 5.567C17.5439 6.00878 17.374 6.44655 17.1708 6.87745C15.5858 10.2381 12.2708 12.496 8.92227 12.496C8.06082 12.496 7.22878 12.3457 6.44408 12.0517C6.25085 10.3924 6.47209 8.75153 7.10448 7.29773C7.94123 5.37328 9.40012 4.01193 11.2124 3.46393C11.7814 3.29193 12.3722 3.2046 12.9686 3.2046C14.3855 3.2046 15.7652 3.68104 16.9749 4.51705C17.235 4.8486 17.4707 5.2001 17.6824 5.567ZM19.6412 7.419C19.4642 6.7519 19.219 6.113 18.915 5.5088C18.6597 5.001 18.3615 4.5186 18.0264 4.0648C17.9439 3.95302 17.8608 3.84169 17.7736 3.73347C15.9434 1.45812 13.1364 0.000366211 9.9876 0.000366211C6.6753 0.000366211 3.7411 1.61282 1.9241 4.09392C1.46581 4.71972 1.07755 5.40012 0.7736 6.12482C0.27573 7.31127 0 8.61417 0 9.98127C0 15.4488 4.39945 19.8868 9.853 19.9593C9.89792 19.9597 9.94216 19.9626 9.9873 19.9626C10.6079 19.9626 11.2145 19.903 11.804 19.7948C16.4521 18.9406 19.9745 14.8735 19.9745 9.98132C19.9745 9.09532 19.8578 8.237 19.6412 7.419Z" fill="#111111"/>
</g>
</g>
<defs>
<clipPath id="clip0_130_364">
<rect width="20" height="20" fill="white"/>
</clipPath>
</defs>
</svg>
