<svg width="24" height="24" viewBox="0 0 24 24" fill="none" xmlns="http://www.w3.org/2000/svg">
<path fill-rule="evenodd" clip-rule="evenodd" d="M22.3726 5.96439C21.9879 8.51536 20.1252 10.7357 17.9357 12.4823C15.5977 14.3481 12.7951 15.3755 10.0452 15.3755C9.01124 15.3816 7.98267 15.2267 6.99639 14.9164C6.67897 12.3345 7.09935 9.79123 8.21806 7.64052C9.50245 5.17161 11.5665 3.56981 13.9974 2.98606C15.0108 2.74297 15.9391 2.592 16.5004 2.592C16.5004 2.592 18.2686 2.44723 19.8844 3.14942C19.8844 3.14942 20.647 3.63716 21.3174 4.42916C21.7199 4.90414 22.0734 5.41848 22.3726 5.96439ZM24 12.0015C24 18.5326 18.785 23.8452 12.2934 24C11.8444 23.6988 11.4108 23.3574 10.9974 22.9773C9.14864 21.2741 7.81084 18.8865 7.22555 16.2472C8.12206 16.4779 9.06503 16.5948 10.0452 16.5948C13.0707 16.5948 16.1435 15.4723 18.696 13.4361C20.7221 11.8188 22.1295 9.52335 23.0121 7.27587C23.5703 8.6609 24 10.4168 24 12.0015ZM7.13652 7.07768C6.00155 9.25858 5.51845 11.7972 5.71897 14.3907C4.69703 13.8705 3.80594 13.152 3.08826 12.2524C1.78065 10.6134 1.22323 8.57806 1.3471 6.47226C3.34684 2.62684 7.36645 0 12 0C14.5363 0 16.889 0.787355 18.8268 2.13135C17.8137 1.77309 16.7473 1.58881 15.6728 1.58632C15.024 1.58632 14.3729 1.656 13.7381 1.79535C10.9355 2.40542 8.59045 4.28206 7.13652 7.07768ZM6.02245 16.4578C6.67432 19.4477 8.17316 22.0281 10.1551 23.863C4.40361 22.975 0 18.0023 0 12.0023C0 11.0346 0.115355 10.0955 0.330581 9.1951C0.628024 10.5899 1.24556 11.8966 2.13445 13.0119C3.12536 14.2534 4.42156 15.2164 5.89626 15.8067C5.93342 16.0235 5.97523 16.2403 6.02245 16.457V16.4578Z" fill="#111111"/>
</svg>
