<svg width="24" height="24" viewBox="0 0 24 24" fill="none" xmlns="http://www.w3.org/2000/svg">
<mask id="mask0_78_397" style="mask-type:alpha" maskUnits="userSpaceOnUse" x="0" y="0" width="24" height="24">
<path d="M24 0H0V24H24V0Z" fill="white"/>
</mask>
<g mask="url(#mask0_78_397)">
<path fill-rule="evenodd" clip-rule="evenodd" d="M12.2381 22.6182C10.4095 21.2342 8.94327 19.1489 8.18733 16.652C8.11716 16.42 8.05631 16.187 8.00001 15.9536C8.88615 16.2022 9.79473 16.3248 10.7065 16.3248C15.1682 16.3248 19.6903 13.4574 21.8899 8.79363C21.9425 8.68216 21.9897 8.5699 22.0391 8.45789C22.427 9.55973 22.6386 10.744 22.6386 11.9768C22.6386 17.763 17.9956 22.4826 12.2381 22.6182ZM1.33071 11.9772C1.33071 11.2689 1.40195 10.5772 1.53457 9.90731C2.41885 12.3075 4.13353 14.2961 6.52729 15.4086C6.62228 15.9503 6.7493 16.4942 6.91367 17.0372C7.55915 19.1691 8.66573 21.011 10.0545 22.446C5.09861 21.5356 1.33071 17.1894 1.33071 11.9772ZM11.9849 1.33019C13.8493 1.33019 15.6024 1.81259 17.1287 2.65715C16.6107 2.56515 16.0875 2.51581 15.562 2.51581C14.7295 2.51581 13.893 2.63474 13.0693 2.88408C8.71215 4.20114 6.07689 8.74356 6.34269 13.7849C4.12101 12.4278 2.72631 10.0921 2.35593 7.42488C4.06689 3.82542 7.73925 1.33019 11.9849 1.33019ZM21.2189 6.68033C21.0527 7.21046 20.8488 7.73579 20.6049 8.25287C18.7029 12.2856 14.725 14.9951 10.7067 14.9951C9.67299 14.9951 8.67453 14.8148 7.73289 14.462C7.50101 12.4708 7.76651 10.5018 8.52537 8.7572C9.52947 6.44786 11.2802 4.81424 13.4549 4.15664C14.1377 3.95024 14.8467 3.84544 15.5623 3.84544C17.2626 3.84544 18.9183 4.41718 20.3699 5.42038C20.6821 5.81825 20.9649 6.24005 21.2189 6.68033ZM23.5695 8.90273C23.3571 8.10221 23.0628 7.33553 22.698 6.61049C22.3916 6.00113 22.0338 5.42225 21.6317 4.87769C21.5327 4.74355 21.4329 4.60996 21.3283 4.48009C19.132 1.74967 15.7637 0.000366211 11.9851 0.000366211C8.01036 0.000366211 4.48932 1.93531 2.30892 4.91263C1.75897 5.66359 1.29306 6.48007 0.92832 7.34971C0.330876 8.77345 0 10.3369 0 11.9774C0 18.5384 5.27934 23.864 11.8236 23.951C11.8775 23.9516 11.9306 23.955 11.9848 23.955C12.7295 23.955 13.4574 23.8836 14.1648 23.7537C19.7425 22.7287 23.9694 17.8481 23.9694 11.9775C23.9694 10.9143 23.8294 9.88433 23.5695 8.90273Z" fill="#111111"/>
</g>
</svg>
