<svg width="24" height="24" viewBox="0 0 24 24" fill="none" xmlns="http://www.w3.org/2000/svg">
<path fill-rule="evenodd" clip-rule="evenodd" d="M12.2114 20.8838C10.6856 19.7283 9.46224 17.9873 8.83148 15.9026C8.77293 15.7089 8.72216 15.5143 8.67518 15.3195C9.41458 15.527 10.1727 15.6295 10.9335 15.6295C14.6563 15.6295 18.4295 13.2354 20.2649 9.34158C20.3087 9.24852 20.3481 9.15479 20.3893 9.06127C20.713 9.98121 20.8896 10.97 20.8896 11.9993C20.8896 16.8302 17.0155 20.7706 12.2114 20.8838ZM3.11034 11.9996C3.11034 11.4083 3.16979 10.8307 3.28044 10.2714C4.01828 12.2754 5.44901 13.9357 7.44635 14.8645C7.52561 15.3167 7.63159 15.7709 7.76874 16.2242C8.30733 18.0042 9.23066 19.542 10.3895 20.7401C6.25426 19.98 3.11034 16.3513 3.11034 11.9996ZM12.0002 3.11028C13.5558 3.11028 15.0186 3.51304 16.2921 4.21817C15.8599 4.14136 15.4233 4.10017 14.9849 4.10017C14.2903 4.10017 13.5923 4.19947 12.905 4.40764C9.26939 5.50727 7.07054 9.29978 7.29232 13.5088C5.43856 12.3758 4.27482 10.4257 3.96578 8.1988C5.3934 5.19357 8.45761 3.11028 12.0002 3.11028ZM19.705 7.57717C19.5663 8.01978 19.3962 8.45838 19.1927 8.8901C17.6057 12.2571 14.2865 14.5192 10.9337 14.5192C10.0711 14.5192 9.238 14.3687 8.4523 14.0742C8.25882 12.4117 8.48035 10.7677 9.11354 9.31117C9.95136 7.38308 11.4121 6.01915 13.2267 5.47012C13.7964 5.29779 14.388 5.21029 14.9851 5.21029C16.4038 5.21029 17.7853 5.68764 18.9965 6.52522C19.257 6.85741 19.493 7.20957 19.705 7.57717ZM21.6663 9.43267C21.4891 8.76431 21.2435 8.1242 20.9391 7.51886C20.6835 7.0101 20.385 6.52678 20.0494 6.07212C19.9668 5.96013 19.8836 5.84859 19.7963 5.74016C17.9637 3.46051 15.1532 2 12.0003 2C8.68382 2 5.74588 3.6155 3.92656 6.10129C3.46768 6.72828 3.07893 7.40997 2.77459 8.13604C2.27608 9.32473 2 10.6301 2 11.9998C2 17.4776 6.40507 21.924 11.8656 21.9967C11.9106 21.9971 11.9549 22 12.0001 22C12.6214 22 13.2288 21.9403 13.8191 21.8319C18.4731 20.9761 22 16.9012 22 11.9998C22 11.1122 21.8832 10.2522 21.6663 9.43267Z" fill="#1B1C1E" stroke="#1B1C1E" stroke-width="0.5"/>
</svg>
