<svg width="20" height="20" viewBox="0 0 20 20" fill="none" xmlns="http://www.w3.org/2000/svg">
<path fill-rule="evenodd" clip-rule="evenodd" d="M18.6439 4.97032C18.3232 7.09613 16.771 8.94645 14.9465 10.4019C12.9981 11.9568 10.6626 12.8129 8.37097 12.8129C7.50937 12.818 6.65222 12.6889 5.83032 12.4303C5.56581 10.2787 5.91613 8.15936 6.84839 6.3671C7.91871 4.30968 9.63871 2.97484 11.6645 2.48839C12.509 2.28581 13.2826 2.16 13.7503 2.16C13.7503 2.16 15.2239 2.03935 16.5703 2.62452C16.5703 2.62452 17.2058 3.03097 17.7645 3.69097C18.0999 4.08678 18.3945 4.5154 18.6439 4.97032ZM20 10.0013C20 15.4439 15.6542 19.871 10.2445 20C9.87032 19.749 9.50903 19.4645 9.16452 19.1477C7.62387 17.7284 6.50903 15.7387 6.02129 13.5394C6.76839 13.7316 7.55419 13.829 8.37097 13.829C10.8923 13.829 13.4529 12.8935 15.58 11.1968C17.2684 9.84903 18.4413 7.93613 19.1768 6.06323C19.6419 7.21742 20 8.68064 20 10.0013ZM5.9471 5.89806C5.00129 7.71548 4.59871 9.83097 4.76581 11.9923C3.91419 11.5587 3.17161 10.96 2.57355 10.2103C1.48387 8.84452 1.01935 7.14839 1.12258 5.39355C2.78903 2.18903 6.13871 0 10 0C12.1135 0 14.0742 0.656129 15.689 1.77613C14.8448 1.47758 13.9561 1.32401 13.0606 1.32194C12.52 1.32194 11.9774 1.38 11.4484 1.49613C9.1129 2.00452 7.15871 3.56839 5.9471 5.89806ZM5.01871 13.7148C5.56194 16.2065 6.81097 18.3568 8.46258 19.8858C3.66968 19.1458 0 15.0019 0 10.0019C0 9.19548 0.096129 8.4129 0.275484 7.66258C0.523353 8.82495 1.03796 9.9138 1.77871 10.8432C2.60447 11.8778 3.68464 12.6803 4.91355 13.1723C4.94452 13.3529 4.97935 13.5335 5.01871 13.7142V13.7148Z" fill="#111111"/>
</svg>
