<svg width="24" height="24" viewBox="0 0 24 24" fill="none" xmlns="http://www.w3.org/2000/svg">
<path opacity="0.4" d="M7 4L7.2 4C8.88016 4 9.72024 4 10.362 4.32698C10.9265 4.6146 11.3854 5.07354 11.673 5.63803C12 6.27976 12 7.11984 12 8.8L12 15.2C12 16.8802 12 17.7202 11.673 18.362C11.3854 18.9265 10.9265 19.3854 10.362 19.673C9.72024 20 8.88016 20 7.2 20L7 20M20 12L7 12" stroke="#111111" stroke-width="2" stroke-linecap="round" stroke-linejoin="round"/>
<path d="M18 9L21 12L18 15M3 12C3 10.8954 3.89543 10 5 10C6.10457 10 7 10.8954 7 12C7 13.1046 6.10457 14 5 14C3.89543 14 3 13.1046 3 12ZM3 20C3 18.8954 3.89543 18 5 18C6.10457 18 7 18.8954 7 20C7 21.1046 6.10457 22 5 22C3.89543 22 3 21.1046 3 20ZM3 4C3 2.89543 3.89543 2 5 2C6.10457 2 7 2.89543 7 4C7 5.10457 6.10457 6 5 6C3.89543 6 3 5.10457 3 4Z" stroke="#111111" stroke-width="2" stroke-linecap="round" stroke-linejoin="round"/>
</svg>
