<svg width="24" height="24" viewBox="0 0 24 24" fill="none" xmlns="http://www.w3.org/2000/svg">
<path d="M9.08892 18.9624C8.75877 18.9894 8.35747 18.997 7.82896 18.9992C7.41689 17.8344 6.30586 17 4.99996 17C3.3431 17 1.99996 18.3431 1.99996 20C1.99996 21.6569 3.3431 23 4.99996 23C6.30645 23 7.41788 22.1648 7.82951 20.9993C8.37681 20.9971 8.84849 20.9888 9.25179 20.9558C9.81388 20.9099 10.3306 20.8113 10.8159 20.564C11.5686 20.1805 12.1805 19.5686 12.564 18.816C12.8113 18.3306 12.9098 17.8139 12.9558 17.2518C13 16.7106 13 16.0463 13 15.2414L13 15.2414L13 13L18.5835 13L17.2929 14.2906C16.9024 14.6811 16.9024 15.3141 17.2929 15.7046C17.6834 16.0952 18.3165 16.0952 18.707 15.7046L21.707 12.7046C22.0975 12.3141 22.0975 11.6811 21.707 11.2906L18.707 8.29057C18.3165 7.90004 17.6834 7.90004 17.2929 8.29057C16.9024 8.68109 16.9024 9.3141 17.2929 9.70463L18.5883 11L13 11L13 8.7587L13 8.75868C13 7.95375 13 7.28935 12.9558 6.74817C12.9098 6.18607 12.8113 5.66937 12.564 5.18404C12.1805 4.43139 11.5686 3.81946 10.8159 3.43597C10.3306 3.18868 9.81389 3.09012 9.25179 3.04419C8.8485 3.01124 8.37681 3.00285 7.82951 3.00072C7.41788 1.83515 6.30645 0.999999 4.99996 0.999999C3.3431 0.999998 1.99996 2.34314 1.99996 4C1.99996 5.65685 3.3431 7 4.99996 7C6.30587 7 7.41689 6.16559 7.82896 5.00083C8.35747 5.00297 8.75877 5.01057 9.08893 5.03755C9.52734 5.07337 9.75154 5.13829 9.90794 5.21798C10.2843 5.40973 10.5902 5.71569 10.782 6.09202C10.8617 6.24842 10.9266 6.47262 10.9624 6.91104C10.9992 7.36112 11 7.94342 11 8.8L11 11L7.82926 11C7.41742 9.83481 6.30618 9 4.99996 9C3.3431 9 1.99996 10.3431 1.99996 12C1.99996 13.6569 3.3431 15 4.99996 15C6.30618 15 7.41742 14.1652 7.82926 13L11 13L11 15.2C11 16.0566 10.9992 16.6389 10.9624 17.089C10.9266 17.5274 10.8617 17.7516 10.782 17.908C10.5902 18.2843 10.2843 18.5903 9.90794 18.782C9.75154 18.8617 9.52734 18.9266 9.08892 18.9624Z" fill="#111111"/>
</svg>
