<svg width="24" height="24" viewBox="0 0 24 24" fill="none" xmlns="http://www.w3.org/2000/svg">
<path d="M6.875 5.13603C7.6574 4.94264 8.43169 4.92647 9.18457 5.17607C10.4539 5.59709 11.2798 6.66573 12.0186 7.71709C12.2822 7.3357 12.5716 6.92814 12.8359 6.59111C13.7752 5.39342 15.4392 4.71938 17.125 5.13603C19.651 5.76052 21.1588 8.48552 21.667 10.8616C22.457 14.3622 21.8032 16.8056 19.9336 17.7005C18.1646 18.547 16.067 17.5942 14.9814 16.0394C13.9267 14.5287 12.9867 12.945 12.0176 11.3802C10.7686 13.3348 9.50024 15.3494 9.01855 16.0394C7.93294 17.5941 5.83533 18.5469 4.0664 17.7005C0.611933 16.0471 1.96473 10.3682 3.59277 7.75517C4.27828 6.65494 5.33825 5.51595 6.875 5.13603ZM8.55469 7.07451C8.2373 6.96928 7.8585 6.95283 7.35449 7.07744C6.53544 7.28 5.84283 7.92557 5.29004 8.81279C4.32802 10.3569 2.84249 14.8978 4.92969 15.8968C5.53935 16.1883 6.65839 15.9258 7.3789 14.8938C7.90196 14.1446 9.40307 11.7431 10.8301 9.52373C10.2622 8.67369 9.59646 7.41991 8.55469 7.07451ZM16.6455 7.07744C15.7585 6.85814 14.8862 7.21853 14.4102 7.82548C14.0285 8.31217 13.5518 9.008 13.2139 9.51591C14.3477 11.2994 16.8206 16.9727 19.0703 15.8968C21.1575 14.8978 19.672 10.3569 18.71 8.81279C18.1572 7.92555 17.4646 7.27998 16.6455 7.07744Z" fill="#111111"/>
</svg>
