<svg width="24" height="24" viewBox="0 0 24 24" fill="none" xmlns="http://www.w3.org/2000/svg">
<path d="M10.3772 7.20798C9.50212 6.38059 8.40118 5.78854 7.11467 6.1066C4.75879 6.68903 3.60926 9.67514 3.31085 11.0706C1.76538 17.896 6.39223 18.0538 8.19854 15.4666C8.77055 14.6473 10.4796 11.9047 11.9662 9.60388M13.6228 12.0881C14.5802 13.5934 15.4302 14.9351 15.8015 15.4668C17.6078 18.054 22.2346 17.8962 20.6892 11.0708C20.3907 9.67533 19.2412 6.68923 16.8853 6.1068C15.5988 5.78874 14.3304 6.30579 13.6228 7.20817C12.9152 8.11056 11.9635 9.59949 11.9635 9.59949" stroke="#111111" stroke-width="2" stroke-linecap="round"/>
</svg>
