<svg width="24" height="24" viewBox="0 0 24 24" fill="none" xmlns="http://www.w3.org/2000/svg">
<path opacity="0.4" d="M7.8 3H16.2C17.8802 3 18.7202 3 19.362 3.32698C19.9265 3.6146 20.3854 4.07354 20.673 4.63803C21 5.27976 21 6.11984 21 7.8V16.2C21 17.8802 21 18.7202 20.673 19.362C20.3854 19.9265 19.9265 20.3854 19.362 20.673C18.7202 21 17.8802 21 16.2 21H7.8C6.11984 21 5.27976 21 4.63803 20.673C4.07354 20.3854 3.6146 19.9265 3.32698 19.362C3 18.7202 3 17.8802 3 16.2V7.8C3 6.11984 3 5.27976 3.32698 4.63803C3.6146 4.07354 4.07354 3.6146 4.63803 3.32698C5.27976 3 6.11984 3 7.8 3Z" stroke="black" stroke-width="2" stroke-linecap="round" stroke-linejoin="round"/>
<path d="M11.5 11.5L17 17M17 17H12M17 17L17 12M8.8 12H6.2C5.07989 12 4.51984 12 4.09202 11.782C3.71569 11.5903 3.40973 11.2843 3.21799 10.908C3 10.4802 3 9.92011 3 8.8V7.8C3 6.11984 3 5.27976 3.32698 4.63803C3.6146 4.07354 4.07354 3.6146 4.63803 3.32698C5.27976 3 6.11984 3 7.8 3H8.8C9.92011 3 10.4802 3 10.908 3.21799C11.2843 3.40973 11.5903 3.71569 11.782 4.09202C12 4.51984 12 5.07989 12 6.2V8.8C12 9.9201 12 10.4802 11.782 10.908C11.5903 11.2843 11.2843 11.5903 10.908 11.782C10.4802 12 9.92011 12 8.8 12Z" stroke="black" stroke-width="2" stroke-linecap="round" stroke-linejoin="round"/>
</svg>
