<svg width="24" height="24" viewBox="0 0 24 24" fill="none" xmlns="http://www.w3.org/2000/svg">
<path fill-rule="evenodd" clip-rule="evenodd" d="M16.2413 2C17.0463 1.99999 17.7106 1.99998 18.2518 2.0442C18.8139 2.09012 19.3306 2.18868 19.816 2.43598C20.5686 2.81947 21.1805 3.43139 21.564 4.18404C21.8113 4.66938 21.9099 5.18608 21.9558 5.74818C22 6.28936 22 6.95373 22 7.75869V16.2413C22 17.0463 22 17.7106 21.9558 18.2518C21.9099 18.8139 21.8113 19.3306 21.564 19.816C21.1805 20.5686 20.5686 21.1805 19.816 21.564C19.3306 21.8113 18.8139 21.9099 18.2518 21.9558C17.7106 22 17.0463 22 16.2413 22H7.75867C6.95372 22 6.28936 22 5.74817 21.9558C5.18608 21.9099 4.66937 21.8113 4.18404 21.564C3.43139 21.1805 2.81947 20.5686 2.43597 19.816C2.18868 19.3306 2.09012 18.8139 2.04419 18.2518C1.99998 17.7106 1.99999 17.0463 2 16.2413L2 7.75862C1.99998 6.95369 1.99998 6.28935 2.04419 5.74818C2.09011 5.18608 2.18868 4.66938 2.43597 4.18404C2.81947 3.43139 3.43139 2.81947 4.18404 2.43598C4.6087 2.2196 5.05739 2.11709 5.53948 2.06407C5.60836 2.0565 5.67791 2.04994 5.74817 2.0442C6.22797 2.00499 6.80456 2.00056 7.49011 2.00006L16.2413 2ZM16.2 4H12.8217C12.9069 4.26461 12.9473 4.53429 12.9694 4.80498C13 5.17953 13 5.63429 13 6.1614V8.83857C13 9.36568 13 9.82048 12.9694 10.195C12.9391 10.5663 12.8744 10.9357 12.7069 11.2927L16 14.5858L16 12C16 11.4477 16.4477 11 17 11C17.5523 11 18 11.4477 18 12V17C18 17.5523 17.5523 18 17 18H12C11.4477 18 11 17.5523 11 17C11 16.4477 11.4477 16 12 16H14.5858L11.2927 12.7069C10.9357 12.8744 10.5663 12.9391 10.195 12.9694C9.82046 13 9.36569 13 8.83855 13H6.16147C5.63433 13 5.17954 13 4.80497 12.9694C4.53429 12.9473 4.26461 12.9069 4 12.8218V16.2C4 17.0566 4.00078 17.6389 4.03755 18.089C4.07337 18.5274 4.1383 18.7516 4.21799 18.908C4.40973 19.2843 4.71569 19.5903 5.09202 19.782C5.24842 19.8617 5.47262 19.9266 5.91104 19.9624C6.36113 19.9992 6.94342 20 7.8 20H16.2C17.0566 20 17.6389 19.9992 18.089 19.9624C18.5274 19.9266 18.7516 19.8617 18.908 19.782C19.2843 19.5903 19.5903 19.2843 19.782 18.908C19.8617 18.7516 19.9266 18.5274 19.9624 18.089C19.9992 17.6389 20 17.0566 20 16.2V7.8C20 6.94342 19.9992 6.36113 19.9624 5.91104C19.9266 5.47262 19.8617 5.24842 19.782 5.09202C19.5903 4.7157 19.2843 4.40974 18.908 4.21799C18.7516 4.1383 18.5274 4.07337 18.089 4.03755C17.6389 4.00078 17.0566 4 16.2 4Z" fill="black"/>
</svg>
