<svg width="24" height="24" viewBox="0 0 24 24" fill="none" xmlns="http://www.w3.org/2000/svg">
<path opacity="0.4" d="M12 9.25H3M12 4L3 4M21 14.75H3M21 20H3" stroke="#111111" stroke-width="2" stroke-linecap="round" stroke-linejoin="round"/>
<path d="M21 9.40001C21 9.91499 21 10.1725 20.8937 10.3083C20.8011 10.4264 20.6604 10.4968 20.5104 10.4999C20.338 10.5035 20.132 10.349 19.72 10.04L15.8533 7.14001C15.5638 6.9229 15.4191 6.81434 15.3673 6.68125C15.322 6.56468 15.322 6.43535 15.3673 6.31878C15.4191 6.18569 15.5638 6.07713 15.8533 5.86001L19.72 2.96001C20.132 2.65103 20.338 2.49654 20.5104 2.50012C20.6604 2.50324 20.8011 2.5736 20.8937 2.69176C21 2.82755 21 3.08504 21 3.60001V9.40001Z" stroke="#111111" stroke-width="2" stroke-linecap="round" stroke-linejoin="round"/>
</svg>
