<svg width="24" height="24" viewBox="0 0 24 24" fill="none" xmlns="http://www.w3.org/2000/svg">
<path opacity="0.4" d="M9 18V6.3554C9 5.87387 9 5.6331 9.0876 5.43782C9.16482 5.26568 9.28917 5.1189 9.44627 5.01443C9.62448 4.89592 9.86198 4.85634 10.337 4.77717L19.137 3.31051C19.7779 3.20368 20.0984 3.15026 20.3482 3.24303C20.5674 3.32444 20.7511 3.48008 20.8674 3.6829C21 3.91402 21 4.23892 21 4.88874V16" stroke="black" stroke-width="2" stroke-linecap="round" stroke-linejoin="round"/>
<path d="M6 21C7.65685 21 9 19.6569 9 18C9 16.3431 7.65685 15 6 15C4.34315 15 3 16.3431 3 18C3 19.6569 4.34315 21 6 21Z" stroke="black" stroke-width="2" stroke-linecap="round" stroke-linejoin="round"/>
<path d="M18 19C19.6569 19 21 17.6569 21 16C21 14.3431 19.6569 13 18 13C16.3431 13 15 14.3431 15 16C15 17.6569 16.3431 19 18 19Z" stroke="black" stroke-width="2" stroke-linecap="round" stroke-linejoin="round"/>
</svg>
