<svg id="Layer_1" data-name="Layer 1" xmlns="http://www.w3.org/2000/svg" xmlns:xlink="http://www.w3.org/1999/xlink" viewBox="0 0 560.2687 678.6955"><defs><style>.cls-1{fill:url(#linear-gradient);}.cls-2{fill:url(#linear-gradient-2);}.cls-3{fill:url(#linear-gradient-3);}.cls-4{fill:url(#linear-gradient-4);}.cls-5{fill:url(#linear-gradient-5);}.cls-6{fill:url(#linear-gradient-7);}.cls-7{mask:url(#mask);}.cls-8{fill:#fff;}.cls-9{mask:url(#mask-2);}.cls-10{mask:url(#mask-3);}.cls-11{mask:url(#mask-4);}.cls-12{mask:url(#mask-5);}.cls-13{mask:url(#mask-7);}.cls-14{fill:#f1f2f2;}</style><linearGradient id="linear-gradient" x1="154.9785" y1="-304.9104" x2="154.9785" y2="170.8394" gradientTransform="matrix(1, 0, 0, -0.6402, 0, 283.8177)" gradientUnits="userSpaceOnUse"><stop offset="0.474" stop-color="#fff"/><stop offset="0.5126" stop-color="#f4f4f4"/><stop offset="0.581" stop-color="#d5d5d5"/><stop offset="0.6712" stop-color="#a4a4a4"/><stop offset="0.78" stop-color="#606060"/><stop offset="0.9033" stop-color="#0b0b0b"/><stop offset="0.9184"/></linearGradient><linearGradient id="linear-gradient-2" x1="94.9785" y1="-397.0663" x2="94.9785" y2="123.1274" xlink:href="#linear-gradient"/><linearGradient id="linear-gradient-3" x1="499.6392" y1="-374.5885" x2="499.6392" y2="145.6051" xlink:href="#linear-gradient"/><linearGradient id="linear-gradient-4" x1="241.9785" y1="-178.3914" x2="241.9785" y2="297.3584" xlink:href="#linear-gradient"/><linearGradient id="linear-gradient-5" x1="294.9785" y1="-178.3914" x2="294.9785" y2="297.3584" xlink:href="#linear-gradient"/><linearGradient id="linear-gradient-7" x1="436.9785" y1="-318.9681" x2="436.9785" y2="156.7817" xlink:href="#linear-gradient"/><mask id="mask" x="-83.5481" y="174.4429" width="477.0533" height="304.5845" maskUnits="userSpaceOnUse"><rect class="cls-1" x="-83.5481" y="174.4429" width="477.0533" height="304.5845"/></mask><mask id="mask-2" x="-143.5481" y="204.9891" width="477.0533" height="333.0383" maskUnits="userSpaceOnUse"><rect class="cls-2" x="-143.5481" y="204.9891" width="477.0533" height="333.0383"/></mask><mask id="mask-3" x="261.1126" y="190.5984" width="477.0533" height="333.4269" maskUnits="userSpaceOnUse"><rect class="cls-3" x="261.1126" y="190.5984" width="477.0533" height="333.0383"/></mask><mask id="mask-4" x="3.4519" y="93.4429" width="477.0533" height="304.5845" maskUnits="userSpaceOnUse"><rect class="cls-4" x="3.4519" y="93.4429" width="477.0533" height="304.5845"/></mask><mask id="mask-5" x="56.4519" y="93.4429" width="477.0533" height="304.5845" maskUnits="userSpaceOnUse"><rect class="cls-5" x="56.4519" y="93.4429" width="477.0533" height="304.5845"/></mask><mask id="mask-7" x="198.4519" y="183.4429" width="477.0533" height="304.5845" maskUnits="userSpaceOnUse"><rect class="cls-6" x="198.4519" y="183.4429" width="477.0533" height="304.5845"/></mask></defs><title>northlight-logo</title><g class="cls-7"><path class="cls-8" d="M163.2075,211.1312q2.8725,52.337,4.5321,104.718c1.4331,26.2076,2.5618,52.3834-.6263,78.5384a247.218,247.218,0,0,1-3.9058,26.1795h-1.2949c-7.0657-34.57-6.6937-69.7264-4.5314-104.7179q1.621-52.38,4.5314-104.718Z"/></g><g class="cls-9"><path class="cls-8" d="M95.5175,220.5334c1.7921,43.722,3.4335,107.3207,4.5315,151.7455,1.4328,37.9564,2.5631,75.89-.6261,113.81-.9,12.6456-2.05,25.2912-3.9054,37.9368H94.2226c-7.09-50.3483-6.6818-101.1057-4.5314-151.7463,1.107-44.5905,2.7327-107.7684,4.5315-151.745l1.2948-.0006Z"/></g><g class="cls-10"><path class="cls-8" d="M501.6587,220.5334c1.7921,43.722,3.4335,107.3207,4.5316,151.7455,1.4327,37.9564,2.563,75.89-.6262,113.81-.8995,12.6456-2.05,25.2912-3.9054,37.9368h-1.2949c-7.09-50.3483-6.6818-101.1057-4.5314-151.7463,1.107-44.5905,2.7327-107.7684,4.5315-151.745l1.2948-.0006Z"/></g><g class="cls-11"><path class="cls-8" d="M230.8979,132.6718c1.7919,30.3584,3.4332,74.52,4.5316,105.3809,1.4338,26.3736,2.5618,52.7142-.6262,79.0356a250.2528,250.2528,0,0,1-3.9054,26.3455H229.603c-7.0666-34.7934-6.6939-70.169-4.5314-105.381,1.1073-30.9757,2.7329-74.8455,4.5315-105.3806l1.2948,0Z"/></g><g class="cls-12"><path class="cls-8" d="M298.5879,93.4429q2.8722,48.2432,4.5321,96.5351c1.4334,24.1636,2.5614,48.294-.6263,72.401a211.3363,211.3363,0,0,1-3.9058,24.1342H297.293c-7.0576-31.815-6.6979-64.2643-4.5314-96.5351q1.6212-48.2914,4.5314-96.5352Z"/></g><g class="cls-12"><path class="cls-8" d="M366.2783,136.2337q2.8716,49.4031,4.5317,98.8507c1.434,24.7416,2.5614,49.451-.6263,74.1373a221.1583,221.1583,0,0,1-3.9054,24.7127h-1.2949c-7.06-32.5942-6.6971-65.81-4.5314-98.85q1.62-49.4484,4.5314-98.8507Z"/></g><g class="cls-13"><path class="cls-8" d="M433.9683,211.1312q2.8725,52.337,4.5321,104.718c1.4331,26.2076,2.5618,52.3834-.6263,78.5384a247.218,247.218,0,0,1-3.9058,26.1795h-1.2949c-7.0657-34.57-6.6937-69.7264-4.5314-104.7179q1.621-52.38,4.5314-104.718Z"/></g><path class="cls-8" d="M163.2083,451.6227q2.87,36.1882,4.532,72.44c2.1649,24.2685,2.503,48.7982-4.5325,72.44h-1.2944c-7.0354-23.6422-6.6969-48.1707-4.5313-72.44q1.6215-36.2508,4.5312-72.44Z"/><path class="cls-8" d="M230.8983,373.1641c1.7919,37.1589,3.4335,91.2133,4.5319,128.9761,1.4325,32.2673,2.5626,64.5085-.6265,96.7328-.8995,10.7481-2.05,21.4962-3.9054,32.2443h-1.2949c-7.0819-42.7179-6.6858-85.9156-4.5314-128.977,1.1072-37.9037,2.7328-91.6,4.5315-128.9757l1.2948,0Z"/><path class="cls-8" d="M298.5883,333.9344c1.7921,45.6393,3.4336,112.0269,4.5319,158.3982,1.432,39.6189,2.5631,79.2154-.6265,118.8-.8995,13.2-2.05,26.3992-3.9054,39.6h-1.2949c-7.0922-52.576-6.68-105.5431-4.5314-158.3991,1.107-46.5443,2.7326-112.4926,4.5315-158.3978l1.2948-.0005Z"/><path class="cls-8" d="M366.2783,377.5242c1.7919,34.8548,3.4335,85.5587,4.5319,120.983,1.4327,30.27,2.5624,60.5131-.6265,90.7376-.8995,10.0827-2.05,20.1645-3.9054,30.2464h-1.2949c-7.0777-40.0354-6.6879-80.5825-4.5314-120.9839,1.1072-35.5564,2.7328-85.9248,4.5315-120.9827l1.2948,0Z"/><path class="cls-8" d="M433.9683,451.6227q2.87,36.1882,4.5321,72.44c2.1649,24.2685,2.5029,48.7982-4.5326,72.44h-1.2944c-7.035-23.6423-6.6971-48.1706-4.5313-72.44q1.6214-36.2508,4.5313-72.44Z"/><polygon class="cls-14" points="119.917 126.667 123.299 132.851 129.483 136.234 123.299 139.616 119.917 145.8 116.535 139.616 110.35 136.234 116.535 132.851 119.917 126.667"/><polygon class="cls-14" points="9.567 333.867 12.949 340.051 19.133 343.434 12.949 346.816 9.567 353 6.184 346.816 0 343.434 6.184 340.051 9.567 333.867"/><polygon class="cls-14" points="304.545 0 307.927 6.184 314.112 9.567 307.927 12.949 304.545 19.133 301.163 12.949 294.979 9.567 301.163 6.184 304.545 0"/><polygon class="cls-14" points="449.439 99.227 452.822 105.412 459.006 108.794 452.822 112.176 449.439 118.361 446.057 112.176 439.873 108.794 446.057 105.412 449.439 99.227"/><polygon class="cls-14" points="550.702 432.489 554.084 438.674 560.269 442.056 554.084 445.438 550.702 451.623 547.32 445.438 541.135 442.056 547.32 438.674 550.702 432.489"/><path class="cls-14" d="M44.1672,256.4021a5.1921,5.1921,0,1,1-5.1921-5.1921A5.1921,5.1921,0,0,1,44.1672,256.4021Z"/><path class="cls-14" d="M207.75,118.3606a5.1922,5.1922,0,1,1-5.1922-5.1922A5.1921,5.1921,0,0,1,207.75,118.3606Z"/><path class="cls-14" d="M115.5423,568.3146a5.1922,5.1922,0,1,1-5.1921-5.1921A5.1921,5.1921,0,0,1,115.5423,568.3146Z"/><circle class="cls-14" cx="264.1181" cy="545.2385" r="5.1921"/><path class="cls-14" d="M341.5916,673.5034a5.1922,5.1922,0,1,1-5.1922-5.1922A5.1921,5.1921,0,0,1,341.5916,673.5034Z"/><path class="cls-14" d="M486.202,596.5022A5.1921,5.1921,0,1,1,481.01,591.31,5.1921,5.1921,0,0,1,486.202,596.5022Z"/><circle class="cls-14" cx="264.1181" cy="353.0004" r="5.1921"/><path class="cls-14" d="M389.09,108.794a5.1922,5.1922,0,1,1-5.1922-5.1922A5.1921,5.1921,0,0,1,389.09,108.794Z"/><path class="cls-14" d="M546.3276,291.7053a5.1922,5.1922,0,1,1-5.1922-5.1921A5.1922,5.1922,0,0,1,546.3276,291.7053Z"/></svg>