<svg width="14" height="15" viewBox="0 0 14 15" fill="none" xmlns="http://www.w3.org/2000/svg">
<g clip-path="url(#clip0_6375_86915)">
<path d="M4.0785 3.94751C4.12635 4.7723 4.1641 5.59743 4.19175 6.42291C4.22756 7.04242 4.25576 7.66118 4.1761 8.27945C4.15527 8.48724 4.12269 8.69382 4.0785 8.8983H4.04614C3.86958 8.08111 3.87888 7.25006 3.93291 6.42291C3.95992 5.59744 3.99766 4.77231 4.04614 3.94751H4.0785Z" fill="#2A8BFB"/>
<path d="M2.38712 4.16968C2.43191 5.20321 2.47292 6.7066 2.50036 7.75674C2.53616 8.65398 2.5644 9.55068 2.48471 10.4471C2.46222 10.746 2.43349 11.0449 2.38712 11.3438H2.35477C2.1776 10.1537 2.1878 8.95383 2.24154 7.75676C2.2692 6.70269 2.30982 5.20925 2.35477 4.1697L2.38712 4.16968Z" fill="#2A8BFB"/>
<path d="M12.5356 4.16968C12.5803 5.20321 12.6214 6.7066 12.6488 7.75674C12.6846 8.65398 12.7128 9.55068 12.6332 10.4471C12.6107 10.746 12.5819 11.0449 12.5356 11.3438H12.5032C12.326 10.1537 12.3362 8.95383 12.39 7.75676C12.4176 6.70269 12.4583 5.20925 12.5032 4.1697L12.5356 4.16968Z" fill="#2A8BFB"/>
<path d="M5.76991 2.09277C5.81469 2.81041 5.8557 3.85433 5.88315 4.58384C5.91898 5.20728 5.94716 5.82994 5.8675 6.45214C5.84668 6.66122 5.81411 6.86911 5.76991 7.07491H5.73756C5.56098 6.25244 5.57029 5.41621 5.62433 4.58384C5.652 3.85162 5.69262 2.81459 5.73756 2.09278L5.76991 2.09277Z" fill="#2A8BFB"/>
<path d="M7.4613 1.16528C7.50915 1.92555 7.5469 2.68621 7.57455 3.44725C7.61037 4.01844 7.63856 4.58885 7.5589 5.15871C7.53803 5.3505 7.50545 5.54099 7.4613 5.72921H7.42895C7.25259 4.97715 7.26158 4.21009 7.31572 3.44725C7.34272 2.68622 7.38047 1.92556 7.42895 1.16528H7.4613Z" fill="#2A8BFB"/>
<path d="M9.15272 2.177C9.20055 2.95555 9.2383 3.73445 9.26596 4.5137C9.30179 5.09856 9.32996 5.68266 9.2503 6.26621C9.22945 6.46252 9.19687 6.65756 9.15272 6.85039H9.12036C8.94394 6.0799 8.95301 5.29473 9.00713 4.5137C9.03412 3.73444 9.07186 2.95554 9.12036 2.177H9.15272Z" fill="#2A8BFB"/>
<path d="M10.8441 3.94751C10.892 4.7723 10.9297 5.59743 10.9574 6.42291C10.9932 7.04242 11.0214 7.66118 10.9417 8.27945C10.9209 8.48724 10.8883 8.69382 10.8441 8.8983H10.8118C10.6352 8.08111 10.6445 7.25006 10.6985 6.42291C10.7255 5.59744 10.7633 4.77231 10.8118 3.94751H10.8441Z" fill="#2A8BFB"/>
<path d="M4.07833 9.63232C4.12614 10.2026 4.16389 10.7734 4.19158 11.3447C4.24567 11.9184 4.25412 12.4982 4.07832 13.0571H4.04598C3.87017 12.4982 3.87863 11.9184 3.93275 11.3447C3.95976 10.7734 3.9975 10.2026 4.04597 9.63232H4.07833Z" fill="#2A8BFB"/>
<path d="M5.76993 7.77759C5.8147 8.65598 5.85572 9.93375 5.88317 10.8264C5.91897 11.5892 5.9472 12.3513 5.86751 13.1131C5.84504 13.3671 5.81629 13.6212 5.76993 13.8753H5.73757C5.56061 12.8655 5.57051 11.8443 5.62434 10.8264C5.65201 9.93042 5.69263 8.66111 5.73757 7.7776L5.76993 7.77759Z" fill="#2A8BFB"/>
<path d="M7.46134 6.85034C7.50612 7.9292 7.54714 9.49851 7.57458 10.5947C7.61036 11.5312 7.63863 12.4672 7.55893 13.4029C7.53645 13.715 7.5077 14.027 7.46134 14.339H7.42898C7.25176 13.0962 7.26206 11.8441 7.31575 10.5947C7.34341 9.49444 7.38403 7.93551 7.42898 6.85037L7.46134 6.85034Z" fill="#2A8BFB"/>
<path d="M9.15273 7.88062C9.19751 8.70454 9.23853 9.90311 9.26598 10.7405C9.30178 11.456 9.33001 12.1709 9.25032 12.8854C9.22785 13.1238 9.1991 13.3621 9.15273 13.6004H9.12038C8.94352 12.654 8.95326 11.6955 9.00715 10.7405C9.03481 9.89999 9.07543 8.70935 9.12038 7.88062L9.15273 7.88062Z" fill="#2A8BFB"/>
<path d="M10.844 9.63232C10.8918 10.2026 10.9295 10.7734 10.9572 11.3447C11.0113 11.9184 11.0197 12.4982 10.8439 13.0571H10.8116C10.6358 12.4982 10.6443 11.9184 10.6984 11.3447C10.7254 10.7734 10.7631 10.2026 10.8116 9.63232H10.844Z" fill="#2A8BFB"/>
<path d="M2.99687 1.95068L3.08138 2.09687L3.23591 2.17683L3.08138 2.25678L2.99687 2.40296L2.91236 2.25678L2.75781 2.17683L2.91236 2.09687L2.99687 1.95068Z" fill="#2A8BFB"/>
<path d="M0.23906 6.84863L0.32357 6.99481L0.478096 7.07478L0.32357 7.15473L0.23906 7.30091L0.154526 7.15473L0 7.07478L0.154526 6.99481L0.23906 6.84863Z" fill="#2A8BFB"/>
<path d="M7.37673 0L7.46124 0.146182L7.61579 0.226151L7.46124 0.306098L7.37673 0.452279L7.29222 0.306098L7.1377 0.226151L7.29222 0.146182L7.37673 0Z" fill="#2A8BFB"/>
<path d="M11.2302 1.302L11.3148 1.44821L11.4693 1.52815L11.3148 1.6081L11.2302 1.7543L11.1457 1.6081L10.9912 1.52815L11.1457 1.44821L11.2302 1.302Z" fill="#2A8BFB"/>
<path d="M13.7605 9.17993L13.8451 9.32614L13.9996 9.40608L13.8451 9.48603L13.7605 9.63223L13.676 9.48603L13.5215 9.40608L13.676 9.32614L13.7605 9.17993Z" fill="#2A8BFB"/>
<path d="M1.10323 5.01751C1.10323 5.04178 1.09562 5.06551 1.08137 5.0857C1.06711 5.10588 1.04685 5.12161 1.02314 5.1309C0.999433 5.14019 0.973346 5.14262 0.948179 5.13789C0.923012 5.13315 0.899895 5.12146 0.88175 5.1043C0.863606 5.08713 0.851249 5.06526 0.846243 5.04145C0.841237 5.01765 0.843806 4.99297 0.853626 4.97054C0.863446 4.94811 0.880075 4.92895 0.90141 4.91546C0.922746 4.90197 0.94783 4.89478 0.97349 4.89478C0.990528 4.89478 1.0074 4.89795 1.02314 4.90412C1.03888 4.91029 1.05318 4.91933 1.06523 4.93072C1.07728 4.94212 1.08683 4.95565 1.09335 4.97054C1.09987 4.98543 1.10323 5.00139 1.10323 5.01751Z" fill="#2A8BFB"/>
<path d="M5.19113 1.75433C5.19113 1.7786 5.18352 1.80233 5.16926 1.82252C5.155 1.8427 5.13474 1.85843 5.11103 1.86772C5.08733 1.87701 5.06124 1.87944 5.03607 1.87471C5.0109 1.86997 4.98779 1.85828 4.96964 1.84112C4.9515 1.82395 4.93914 1.80208 4.93413 1.77827C4.92913 1.75446 4.9317 1.72979 4.94152 1.70736C4.95134 1.68493 4.96797 1.66576 4.9893 1.65228C5.01064 1.63879 5.03572 1.63159 5.06138 1.63159C5.07842 1.63159 5.09529 1.63477 5.11103 1.64093C5.12678 1.6471 5.14108 1.65614 5.15313 1.66754C5.16517 1.67894 5.17473 1.69247 5.18125 1.70736C5.18777 1.72225 5.19113 1.73821 5.19113 1.75433Z" fill="#2A8BFB"/>
<path d="M2.88742 12.3908C2.88742 12.4151 2.87981 12.4388 2.86555 12.459C2.85129 12.4792 2.83103 12.4949 2.80732 12.5042C2.78362 12.5135 2.75753 12.5159 2.73236 12.5112C2.70719 12.5064 2.68408 12.4948 2.66593 12.4776C2.64779 12.4604 2.63543 12.4386 2.63042 12.4147C2.62542 12.3909 2.62799 12.3663 2.63781 12.3438C2.64763 12.3214 2.66426 12.3022 2.68559 12.2888C2.70693 12.2753 2.73201 12.2681 2.75767 12.2681C2.79208 12.2681 2.82508 12.281 2.84942 12.304C2.87375 12.327 2.88742 12.3582 2.88742 12.3908Z" fill="#2A8BFB"/>
<path d="M6.59947 11.9679C6.67112 11.9679 6.72921 11.9129 6.72921 11.8451C6.72921 11.7774 6.67112 11.7224 6.59947 11.7224C6.52781 11.7224 6.46973 11.7774 6.46973 11.8451C6.46973 11.9129 6.52781 11.9679 6.59947 11.9679Z" fill="#2A8BFB"/>
<path d="M8.53585 14.8774C8.53585 14.9017 8.52824 14.9254 8.51399 14.9456C8.49973 14.9657 8.47947 14.9815 8.45576 14.9908C8.43205 15.0001 8.40597 15.0025 8.3808 14.9978C8.35563 14.993 8.33251 14.9813 8.31437 14.9642C8.29622 14.947 8.28387 14.9251 8.27886 14.9013C8.27385 14.8775 8.27642 14.8528 8.28624 14.8304C8.29606 14.808 8.31269 14.7888 8.33403 14.7753C8.35536 14.7618 8.38045 14.7546 8.40611 14.7546C8.42315 14.7546 8.44002 14.7578 8.45576 14.764C8.4715 14.7701 8.4858 14.7792 8.49785 14.7906C8.5099 14.802 8.51946 14.8155 8.52598 14.8304C8.5325 14.8453 8.53585 14.8613 8.53585 14.8774Z" fill="#2A8BFB"/>
<path d="M12.1491 13.0571C12.1491 13.0813 12.1415 13.1051 12.1273 13.1253C12.113 13.1454 12.0927 13.1612 12.069 13.1705C12.0453 13.1797 12.0192 13.1822 11.9941 13.1774C11.9689 13.1727 11.9458 13.161 11.9276 13.1438C11.9095 13.1267 11.8971 13.1048 11.8921 13.081C11.8871 13.0572 11.8897 13.0325 11.8995 13.0101C11.9093 12.9877 11.926 12.9685 11.9473 12.955C11.9686 12.9415 11.9937 12.9343 12.0194 12.9343C12.0364 12.9343 12.0533 12.9375 12.069 12.9437C12.0848 12.9498 12.0991 12.9589 12.1111 12.9703C12.1232 12.9817 12.1327 12.9952 12.1393 13.0101C12.1458 13.025 12.1491 13.0409 12.1491 13.0571Z" fill="#2A8BFB"/>
<path d="M6.59947 7.42369C6.67112 7.42369 6.72921 7.36874 6.72921 7.30096C6.72921 7.23317 6.67112 7.17822 6.59947 7.17822C6.52781 7.17822 6.46973 7.23317 6.46973 7.30096C6.46973 7.36874 6.52781 7.42369 6.59947 7.42369Z" fill="#2A8BFB"/>
<path d="M9.72238 1.52825C9.72238 1.55253 9.71477 1.57626 9.70051 1.59644C9.68625 1.61663 9.66599 1.63236 9.64228 1.64165C9.61858 1.65094 9.59249 1.65337 9.56732 1.64863C9.54215 1.6439 9.51904 1.63221 9.50089 1.61504C9.48275 1.59788 9.47039 1.57601 9.46538 1.5522C9.46038 1.52839 9.46295 1.50371 9.47277 1.48129C9.48259 1.45886 9.49922 1.43969 9.52055 1.4262C9.54189 1.41272 9.56697 1.40552 9.59263 1.40552C9.60967 1.40552 9.62654 1.40869 9.64228 1.41486C9.65803 1.42103 9.67233 1.43007 9.68438 1.44147C9.69642 1.45286 9.70598 1.46639 9.7125 1.48128C9.71902 1.49618 9.72238 1.51214 9.72238 1.52825Z" fill="#2A8BFB"/>
<path d="M13.6521 5.85198C13.6521 5.87626 13.6445 5.89999 13.6302 5.92017C13.6159 5.94036 13.5957 5.95609 13.572 5.96538C13.5483 5.97467 13.5222 5.9771 13.497 5.97236C13.4718 5.96763 13.4487 5.95594 13.4306 5.93877C13.4124 5.92161 13.4001 5.89974 13.3951 5.87593C13.3901 5.85212 13.3926 5.82744 13.4025 5.80502C13.4123 5.78259 13.4289 5.76342 13.4502 5.74993C13.4716 5.73645 13.4967 5.72925 13.5223 5.72925C13.5567 5.72925 13.5897 5.74218 13.6141 5.7652C13.6384 5.78821 13.6521 5.81943 13.6521 5.85198Z" fill="#2A8BFB"/>
</g>
<defs>
<clipPath id="clip0_6375_86915">
<rect width="14" height="15" fill="white"/>
</clipPath>
</defs>
</svg>
