<svg width="24" height="24" viewBox="0 0 24 24" fill="none" xmlns="http://www.w3.org/2000/svg">
<path d="M0.240234 12.2879C0.240234 13.3535 0.341034 14.3182 0.540234 15.1798C0.739434 16.0414 1.01543 16.7927 1.36823 17.4287C1.72103 18.0647 2.16983 18.6239 2.71463 19.1087C3.25943 19.5911 3.84983 19.987 4.48583 20.2942C5.12183 20.6014 5.84903 20.8511 6.66503 21.0407C7.48103 21.2327 8.31623 21.367 9.16583 21.4438C10.0178 21.5206 10.9514 21.559 11.9714 21.559C12.9986 21.559 13.937 21.5206 14.789 21.4438C15.641 21.367 16.4762 21.2327 17.297 21.0407C18.1178 20.8487 18.8474 20.599 19.4882 20.2942C20.129 19.987 20.7218 19.5935 21.2714 19.1087C21.821 18.6263 22.2722 18.0647 22.6274 17.4287C22.985 16.7927 23.261 16.0438 23.4626 15.1798C23.6618 14.3182 23.7626 13.3535 23.7626 12.2879C23.7626 10.3871 23.1266 8.74065 21.8546 7.35345C21.9242 7.16865 21.9866 6.95985 22.0442 6.72705C22.1018 6.49425 22.1546 6.16065 22.205 5.72625C22.2554 5.29185 22.2362 4.79265 22.1474 4.22625C22.0586 3.65745 21.8954 3.07905 21.6578 2.48865L21.485 2.45505C21.3626 2.43105 21.161 2.43825 20.8802 2.47185C20.5994 2.50785 20.2754 2.57505 19.9034 2.67825C19.5314 2.78145 19.0514 2.98065 18.4658 3.27585C17.8802 3.57105 17.261 3.94065 16.6082 4.38465C15.4898 4.07745 13.9514 3.92385 11.9954 3.92385C10.049 3.92385 8.51543 4.07745 7.39463 4.38465C6.74183 3.94065 6.12023 3.57105 5.52503 3.27585C4.92983 2.98065 4.45703 2.78145 4.10423 2.67825C3.75143 2.57505 3.42263 2.50785 3.11543 2.47665C2.80823 2.44545 2.61383 2.43585 2.53463 2.44785C2.45303 2.45985 2.39063 2.47185 2.34503 2.48865C2.10743 3.07905 1.94423 3.65745 1.85543 4.22625C1.76663 4.79265 1.74743 5.29425 1.79783 5.72625C1.84823 6.16065 1.90103 6.49185 1.95863 6.72705C2.01623 6.96225 2.07863 7.16865 2.14823 7.35345C0.876234 8.74305 0.240234 10.3871 0.240234 12.2879ZM3.12743 15.175C3.12743 14.071 3.62903 13.0583 4.63463 12.1391C4.93463 11.8631 5.28263 11.6543 5.68103 11.5127C6.07943 11.3711 6.53063 11.2895 7.03223 11.2703C7.53383 11.2511 8.01623 11.2559 8.47463 11.2823C8.93543 11.3087 9.50183 11.3447 10.1762 11.3903C10.8506 11.4359 11.4338 11.4599 11.9234 11.4599C12.413 11.4599 12.9962 11.4359 13.6706 11.3903C14.345 11.3447 14.9138 11.3087 15.3722 11.2823C15.833 11.2559 16.313 11.2511 16.8146 11.2703C17.3162 11.2895 17.7674 11.3711 18.1658 11.5127C18.5642 11.6543 18.9122 11.8631 19.2122 12.1391C20.2154 13.0439 20.7194 14.0566 20.7194 15.175C20.7194 15.835 20.6378 16.4183 20.4722 16.9295C20.3066 17.4383 20.0954 17.8678 19.8386 18.211C19.5818 18.5566 19.2242 18.8494 18.7682 19.0918C18.3122 19.3342 17.8682 19.5191 17.4338 19.6487C16.9994 19.7783 16.445 19.8815 15.7658 19.9535C15.0866 20.0255 14.4818 20.0711 13.949 20.0855C13.4162 20.0999 12.7394 20.1095 11.9186 20.1095C11.0978 20.1095 10.421 20.1023 9.88823 20.0855C9.35543 20.0711 8.74823 20.0255 8.07143 19.9535C7.39223 19.8815 6.83783 19.7783 6.40343 19.6487C5.96903 19.5191 5.52503 19.3318 5.06903 19.0918C4.61303 18.8494 4.25543 18.5566 3.99863 18.211C3.74183 17.8654 3.53063 17.4383 3.36503 16.9295C3.19943 16.4207 3.12743 15.835 3.12743 15.175ZM14.9402 14.9447C14.9402 13.7278 15.5978 12.7391 16.409 12.7391C17.2202 12.7391 17.8778 13.7255 17.8778 14.9447C17.8778 16.1615 17.2202 17.1502 16.409 17.1502C15.5978 17.1502 14.9402 16.1615 14.9402 14.9447ZM6.12023 14.9447C6.12023 13.7278 6.77783 12.7391 7.58903 12.7391C8.40023 12.7391 9.05783 13.7255 9.05783 14.9447C9.05783 16.1615 8.40023 17.1502 7.58903 17.1502C6.77783 17.1502 6.12023 16.1615 6.12023 14.9447Z" fill="white"/>
</svg>
