<svg width="24" height="24" viewBox="0 0 24 24" fill="none" xmlns="http://www.w3.org/2000/svg">
<path opacity="0.4" d="M12.7778 15L9 11.2222" stroke="#111111" stroke-width="2" stroke-linecap="round" stroke-linejoin="round"/>
<path d="M2.00003 22C4.00003 22 6.60804 22.3417 7.97488 20.9749C9.34171 19.608 9.34171 17.392 7.97488 16.0251C6.60804 14.6583 4.39197 14.6583 3.02513 16.0251C1.6583 17.392 3.02513 20 2.00003 22Z" stroke="#111111" stroke-width="2" stroke-linecap="round" stroke-linejoin="round"/>
<path d="M7.99998 16C7.50856 15.5086 7.26286 15.2629 7.12394 15.0056C6.79082 14.3885 6.80517 13.6421 7.16176 13.0384C7.31046 12.7866 7.56543 12.5505 8.07537 12.0783L17.9434 2.94123C18.8126 2.13645 20.1624 2.1624 21 2.99999C21.8376 3.83758 21.8635 5.18737 21.0587 6.05653L11.9216 15.9246C11.4495 16.4345 11.2134 16.6895 10.9616 16.8382C10.3578 17.1948 9.61143 17.2091 8.99441 16.876C8.7371 16.7371 8.49139 16.4914 7.99998 16Z" stroke="#111111" stroke-width="2" stroke-linecap="round" stroke-linejoin="round"/>
</svg>
