<svg width="24" height="24" viewBox="0 0 24 24" fill="none" xmlns="http://www.w3.org/2000/svg">
<path fill-rule="evenodd" clip-rule="evenodd" d="M11 20C11 19.4477 11.4477 19 12 19H21C21.5522 19 22 19.4477 22 20C22 20.5523 21.5522 21 21 21H12C11.4477 21 11 20.5523 11 20Z" fill="#111111"/>
<path fill-rule="evenodd" clip-rule="evenodd" d="M15.7929 2.79287C17.0118 1.57393 18.9882 1.57392 20.2071 2.79287C21.4261 4.01183 21.4261 5.98814 20.2071 7.20709L7.64437 19.7698C7.62457 19.7896 7.60496 19.8093 7.5855 19.8288C7.29805 20.1168 7.04461 20.3707 6.73907 20.5579C6.47066 20.7224 6.17802 20.8436 5.87192 20.9171C5.52347 21.0007 5.16472 21.0004 4.75782 21C4.73028 21 4.70252 21 4.67452 21H2.99998C2.44769 21 1.99998 20.5523 1.99998 20V18.3255C1.99998 18.2975 1.99995 18.2697 1.99993 18.2422C1.99955 17.8353 1.99922 17.4765 2.08287 17.1281C2.15636 16.822 2.27757 16.5293 2.44206 16.2609C2.6293 15.9554 2.88321 15.7019 3.17119 15.4145C3.19069 15.395 3.21034 15.3754 3.23013 15.3556L15.7929 2.79287Z" fill="#111111"/>
</svg>
