<svg width="24" height="24" viewBox="0 0 24 24" fill="none" xmlns="http://www.w3.org/2000/svg">
<path opacity="0.4" d="M18 2L22 6" stroke="#111111" stroke-width="2" stroke-linecap="round" stroke-linejoin="round"/>
<path d="M6.68014 20.7236C6.98548 20.6403 7.13815 20.5987 7.28052 20.5348C7.40692 20.478 7.52709 20.4083 7.63908 20.3267C7.76521 20.2348 7.87711 20.1229 8.1009 19.8991L18.4343 9.56567C18.6323 9.36766 18.7313 9.26866 18.7684 9.15449C18.8011 9.05407 18.8011 8.9459 18.7684 8.84548C18.7313 8.73131 18.6323 8.63231 18.4343 8.4343L15.5657 5.56567C15.3677 5.36766 15.2687 5.26866 15.1545 5.23156C15.0541 5.19894 14.9459 5.19894 14.8455 5.23156C14.7313 5.26866 14.6323 5.36766 14.4343 5.56567L4.1009 15.8991C3.87711 16.1229 3.76521 16.2348 3.67332 16.3609C3.59172 16.4729 3.52199 16.5931 3.46523 16.7195C3.40131 16.8618 3.35968 17.0145 3.2764 17.3198L2 22L6.68014 20.7236Z" stroke="#111111" stroke-width="2" stroke-linecap="round" stroke-linejoin="round"/>
</svg>
