<svg width="24" height="24" viewBox="0 0 24 24" fill="none" xmlns="http://www.w3.org/2000/svg">
<path opacity="0.4" d="M18 2L22 6" stroke="#111111" stroke-width="2" stroke-linecap="round" stroke-linejoin="round"/>
<path d="M9.5 10.5C9.27621 10.7238 3.76521 16.2348 3.67332 16.3609C3.59172 16.4729 3.52199 16.5931 3.46523 16.7195C3.40131 16.8619 3.35968 17.0145 3.2764 17.3199L2 22L6.68014 20.7236C6.98548 20.6403 7.13815 20.5987 7.28052 20.5348C7.40692 20.478 7.52709 20.4083 7.63908 20.3267C7.76521 20.2348 13.2762 14.7238 13.5 14.5M12.5 7.5C12.698 7.30199 14.7313 5.26867 14.8455 5.23158C14.9459 5.19895 15.0541 5.19895 15.1545 5.23158C15.2687 5.26867 15.3677 5.36768 15.5657 5.56569L18.4343 8.43432C18.6323 8.63232 18.7313 8.73133 18.7684 8.84549C18.8011 8.94591 18.8011 9.05409 18.7684 9.15451C18.7313 9.26867 16.698 11.302 16.5 11.5" stroke="#111111" stroke-width="2" stroke-linecap="round" stroke-linejoin="round"/>
<path d="M2 2L22 22" stroke="#111111" stroke-width="2" stroke-linecap="round" stroke-linejoin="round"/>
</svg>
