<svg width="24" height="24" viewBox="0 0 24 24" fill="none" xmlns="http://www.w3.org/2000/svg">
<path d="M18 2L22 6" stroke="#111111" stroke-width="2" stroke-linecap="round" stroke-linejoin="round"/>
<path d="M15.5657 5.56569L18.4343 8.43432C18.6323 8.63232 18.7313 8.73133 18.7684 8.84549C18.8011 8.94591 18.8011 9.05409 18.7684 9.15451C18.7424 9.23467 17.7322 10.261 17.0641 10.9338C16.8679 11.1315 16.7698 11.2303 16.6554 11.2678C16.5551 11.3007 16.4462 11.3008 16.3457 11.2683C16.2313 11.2313 16.1323 11.1323 15.9343 10.9343L13.0657 8.06569C12.8677 7.86772 12.7687 7.76873 12.7317 7.65426C12.6992 7.5538 12.6993 7.4449 12.7322 7.34456C12.7697 7.23022 12.8685 7.1321 13.0662 6.93585C13.739 6.26783 14.7653 5.25762 14.8455 5.23158C14.9459 5.19895 15.0541 5.19895 15.1545 5.23158C15.2687 5.26867 15.3677 5.36768 15.5657 5.56569Z" fill="#111111"/>
<path d="M2 22L3.2764 17.3199C3.35968 17.0145 3.40131 16.8619 3.46523 16.7195C3.52199 16.5931 3.59172 16.4729 3.67332 16.3609C3.73157 16.281 6.1684 13.8362 8.00177 11.9999C8.5453 11.4555 8.81707 11.1833 9.11122 11.0373C9.6706 10.7597 10.3285 10.7594 10.8881 11.0366C11.1824 11.1824 11.4549 11.4549 12 12C12.5451 12.5451 12.8176 12.8176 12.9634 13.1119C13.2406 13.6715 13.2403 14.3294 12.9627 14.8888C12.8167 15.1829 12.5445 15.4547 12.0001 15.9982L12.0001 15.9982C10.1638 17.8316 7.71904 20.2684 7.63908 20.3267C7.52709 20.4083 7.40692 20.478 7.28052 20.5348C7.13815 20.5987 6.98548 20.6403 6.68014 20.7236L2 22Z" fill="#111111"/>
<path d="M15.5657 5.56569L18.4343 8.43432C18.6323 8.63232 18.7313 8.73133 18.7684 8.84549C18.8011 8.94591 18.8011 9.05409 18.7684 9.15451C18.7424 9.23467 17.7322 10.261 17.0641 10.9338C16.8679 11.1315 16.7698 11.2303 16.6554 11.2678C16.5551 11.3007 16.4462 11.3008 16.3457 11.2683C16.2313 11.2313 16.1323 11.1323 15.9343 10.9343L13.0657 8.06569C12.8677 7.86772 12.7687 7.76873 12.7317 7.65426C12.6992 7.5538 12.6993 7.4449 12.7322 7.34456C12.7697 7.23022 12.8685 7.1321 13.0662 6.93585C13.739 6.26783 14.7653 5.25762 14.8455 5.23158C14.9459 5.19895 15.0541 5.19895 15.1545 5.23158C15.2687 5.26867 15.3677 5.36768 15.5657 5.56569Z" stroke="#111111" stroke-width="2" stroke-linecap="round" stroke-linejoin="round"/>
<path d="M2 22L3.2764 17.3199C3.35968 17.0145 3.40131 16.8619 3.46523 16.7195C3.52199 16.5931 3.59172 16.4729 3.67332 16.3609C3.73157 16.281 6.1684 13.8362 8.00177 11.9999C8.5453 11.4555 8.81707 11.1833 9.11122 11.0373C9.6706 10.7597 10.3285 10.7594 10.8881 11.0366C11.1824 11.1824 11.4549 11.4549 12 12C12.5451 12.5451 12.8176 12.8176 12.9634 13.1119C13.2406 13.6715 13.2403 14.3294 12.9627 14.8888C12.8167 15.1829 12.5445 15.4547 12.0001 15.9982L12.0001 15.9982C10.1638 17.8316 7.71904 20.2684 7.63908 20.3267C7.52709 20.4083 7.40692 20.478 7.28052 20.5348C7.13815 20.5987 6.98548 20.6403 6.68014 20.7236L2 22Z" stroke="#111111" stroke-width="2" stroke-linecap="round" stroke-linejoin="round"/>
<path d="M2 2L22 22" stroke="#111111" stroke-width="2" stroke-linecap="round" stroke-linejoin="round"/>
</svg>
