<svg width="24" height="24" viewBox="0 0 24 24" fill="none" xmlns="http://www.w3.org/2000/svg">
<path opacity="0.4" d="M6.44198 19.0793C4.32647 17.4159 2.97662 14.8257 3.00031 11.9265C3.04092 6.95608 7.10314 2.9597 12.0735 3.00031C17.0439 3.04092 21.0403 7.10314 20.9997 12.0735C20.9591 17.0439 16.8969 21.0403 11.9265 20.9997" stroke="#111111" stroke-width="2" stroke-linecap="round"/>
<path d="M9.21972 19.5745L11.2732 11.207C11.47 10.4536 11.7233 9.47876 11.2732 9.55759C10.0792 9.76672 10.551 11.4947 10.766 13.6122C10.981 15.7297 13.696 16.3322 15.3224 14.6136C18.2511 11.5188 16.7331 7.37963 14.2773 6.34571C11.5033 5.17785 8.85686 6.70074 7.87452 8.25158C6.89219 9.80241 6.63769 11.8797 8.1112 13.4305" stroke="#111111" stroke-width="2" stroke-linecap="round"/>
</svg>
