<svg width="24" height="24" viewBox="0 0 24 24" fill="none" xmlns="http://www.w3.org/2000/svg">
<path fill-rule="evenodd" clip-rule="evenodd" d="M12 2C17.5228 2 22 6.47715 22 12C22 17.5228 17.5228 22 12 22C6.47715 22 2 17.5228 2 12C2 6.47715 6.47715 2 12 2ZM14.666 5.4248C11.3514 4.02934 8.21777 5.84344 7.03027 7.71777C5.89893 9.50398 5.48872 12.1225 7.38672 14.1201C7.76714 14.5205 8.40041 14.5367 8.80078 14.1562C9.20055 13.7758 9.21711 13.1424 8.83691 12.7422C7.78811 11.6383 7.88668 10.1034 8.71973 8.78809C9.49726 7.56099 11.6567 6.32848 13.8896 7.26855C15.6938 8.02847 17.05 11.3335 14.5967 13.9268C14.0196 14.5365 13.2889 14.6993 12.7305 14.5762C12.1924 14.4574 11.8206 14.0913 11.7617 13.5117C11.7595 13.4899 11.7562 13.468 11.7539 13.4463L12.2451 11.4463L12.2441 11.4453C12.3355 11.0957 12.4713 10.5857 12.5117 10.167C12.5296 9.98184 12.551 9.6371 12.4209 9.30859C12.3458 9.11919 12.1955 8.87336 11.9102 8.70898C11.6931 8.58406 11.471 8.54837 11.2803 8.55469L11.1016 8.57324C10.5164 8.67573 10.052 9.00147 9.7793 9.50977C9.54306 9.95052 9.49377 10.4502 9.49121 10.8643C9.48859 11.2946 9.53777 11.7709 9.59375 12.2354C9.63737 12.5973 9.68139 12.953 9.72461 13.3242L8.24902 19.3369C8.11741 19.8732 8.4452 20.4151 8.98145 20.5469C9.51773 20.6783 10.0598 20.3498 10.1914 19.8135L11.1221 16.0205C11.4767 16.2628 11.8774 16.4361 12.2998 16.5293C13.5591 16.807 14.9997 16.4104 16.0488 15.3018C19.4514 11.7059 17.7728 6.73319 14.666 5.4248Z" fill="#111111"/>
</svg>
