<svg width="21" height="6" viewBox="0 0 21 6" fill="none" xmlns="http://www.w3.org/2000/svg">
<g opacity="0.2">
<mask id="mask0_110_120" style="mask-type:luminance" maskUnits="userSpaceOnUse" x="3" y="0" width="18" height="2">
<path d="M21 2V0H3V2H21Z" fill="white"/>
</mask>
<g mask="url(#mask0_110_120)">
<path d="M21 0.666992C19.2 0.666992 18.3 1.33299 16.5 1.33299C14.7 1.33299 13.8 0.666992 12 0.666992C10.2 0.666992 9.3 1.33299 7.5 1.33299C5.7 1.33299 4.8 0.666992 3 0.666992" stroke="#2A8BFB" stroke-width="0.3"/>
</g>
</g>
<g opacity="0.5">
<mask id="mask1_110_120" style="mask-type:luminance" maskUnits="userSpaceOnUse" x="3" y="1" width="18" height="2">
<path d="M21 3V1H3V3H21Z" fill="white"/>
</mask>
<g mask="url(#mask1_110_120)">
<path d="M21 1.66699C19.2 1.66699 18.3 2.33299 16.5 2.33299C14.7 2.33299 13.8 1.66699 12 1.66699C10.2 1.66699 9.3 2.33299 7.5 2.33299C5.7 2.33299 4.8 1.66699 3 1.66699" stroke="#EAEAEA" stroke-width="0.3"/>
</g>
</g>
<g opacity="0.2">
<mask id="mask2_110_120" style="mask-type:luminance" maskUnits="userSpaceOnUse" x="3" y="3" width="18" height="2">
<path d="M21 5V3H3V5H21Z" fill="white"/>
</mask>
<g mask="url(#mask2_110_120)">
<path d="M21 3.66699C19.2 3.66699 18.3 4.33299 16.5 4.33299C14.7 4.33299 13.8 3.66699 12 3.66699C10.2 3.66699 9.3 4.33299 7.5 4.33299C5.7 4.33299 4.8 3.66699 3 3.66699" stroke="black" stroke-width="0.3"/>
</g>
</g>
<g opacity="0.5">
<mask id="mask3_110_120" style="mask-type:luminance" maskUnits="userSpaceOnUse" x="3" y="4" width="18" height="2">
<path d="M21 6V4H3V6H21Z" fill="white"/>
</mask>
<g mask="url(#mask3_110_120)">
<path d="M21 4.66699C19.2 4.66699 18.3 5.33299 16.5 5.33299C14.7 5.33299 13.8 4.66699 12 4.66699C10.2 4.66699 9.3 5.33299 7.5 5.33299C5.7 5.33299 4.8 4.66699 3 4.66699" stroke="#EAEAEA" stroke-width="0.3"/>
</g>
</g>
<path opacity="0.2" fill-rule="evenodd" clip-rule="evenodd" d="M1 3C0.868678 3 0.738642 3.02587 0.617317 3.07612C0.495991 3.12638 0.385752 3.20003 0.292893 3.29289C0.200035 3.38575 0.126375 3.49599 0.0761204 3.61732C0.0258657 3.73864 0 3.86868 0 4C0 4.13132 0.0258657 4.26136 0.0761204 4.38268C0.126375 4.50401 0.200035 4.61425 0.292893 4.70711C0.385752 4.79997 0.495991 4.87362 0.617317 4.92388C0.738642 4.97413 0.868678 5 1 5C1.26522 5 1.51957 4.89464 1.70711 4.70711C1.89464 4.51957 2 4.26522 2 4C2 3.73478 1.89464 3.48043 1.70711 3.29289C1.51957 3.10536 1.26522 3 1 3ZM1.33715 3.66285C1.35421 3.67993 1.36379 3.70308 1.36379 3.72722C1.36379 3.75136 1.35421 3.77452 1.33715 3.7916L1.12875 4L1.33715 4.2084C1.35316 4.22569 1.36185 4.2485 1.3614 4.27205C1.36095 4.29561 1.35139 4.31807 1.33473 4.33473C1.31807 4.35139 1.29561 4.36095 1.27205 4.3614C1.2485 4.36185 1.22569 4.35316 1.2084 4.33715L1 4.12875L0.791598 4.33715C0.774314 4.35316 0.7515 4.36185 0.727946 4.3614C0.704392 4.36095 0.681929 4.35139 0.66527 4.33473C0.648612 4.31807 0.639054 4.29561 0.638603 4.27205C0.638151 4.2485 0.64684 4.22569 0.662848 4.2084L0.871795 4L0.662848 3.7916C0.64684 3.77431 0.638151 3.7515 0.638603 3.72795C0.639054 3.70439 0.648612 3.68193 0.66527 3.66527C0.681929 3.64861 0.704392 3.63905 0.727946 3.6386C0.7515 3.63815 0.774314 3.64684 0.791598 3.66285L1 3.87125L1.2084 3.66285C1.22548 3.64579 1.24864 3.63621 1.27278 3.63621C1.29692 3.63621 1.32007 3.64579 1.33715 3.66285Z" fill="#FF9694"/>
<path opacity="0.2" fill-rule="evenodd" clip-rule="evenodd" d="M1 0C0.868678 -1.95685e-09 0.738642 0.0258657 0.617317 0.0761204C0.495991 0.126375 0.385752 0.200035 0.292893 0.292893C0.200035 0.385752 0.126375 0.495991 0.0761204 0.617317C0.0258657 0.738642 0 0.868678 0 1C0 1.13132 0.0258657 1.26136 0.0761204 1.38268C0.126375 1.50401 0.200035 1.61425 0.292893 1.70711C0.385752 1.79997 0.495991 1.87362 0.617317 1.92388C0.738642 1.97413 0.868678 2 1 2C1.26522 2 1.51957 1.89464 1.70711 1.70711C1.89464 1.51957 2 1.26522 2 1C2 0.734784 1.89464 0.48043 1.70711 0.292893C1.51957 0.105357 1.26522 3.95203e-09 1 0ZM1.47354 0.791053C1.48848 0.773597 1.49627 0.751144 1.49535 0.728189C1.49443 0.705233 1.48488 0.683472 1.4686 0.667262C1.45232 0.651052 1.43052 0.64159 1.40756 0.640771C1.3846 0.639953 1.36218 0.647838 1.34479 0.662848L0.863612 1.14403L0.65521 0.935625C0.637925 0.919617 0.615112 0.910928 0.591558 0.911379C0.568004 0.911831 0.54554 0.921389 0.528882 0.938047C0.512224 0.954706 0.502666 0.977169 0.502214 1.00072C0.501762 1.02428 0.510452 1.04709 0.526459 1.06438L0.799236 1.33715C0.835243 1.37261 0.892526 1.37261 0.927987 1.33715L1.47354 0.791053Z" fill="#2A8BFB"/>
<path d="M18.7 1.29999H3.3C3.13431 1.29999 3 1.41192 3 1.54999V3.54999C3 3.68806 3.13431 3.79999 3.3 3.79999H18.7C18.8657 3.79999 19 3.68806 19 3.54999V1.54999C19 1.41192 18.8657 1.29999 18.7 1.29999Z" fill="#BFBFBF" fill-opacity="0.2"/>
<path d="M4.477 2.16307L4.534 2.27907L4.172 2.45707V2.46407L4.534 2.64807L4.477 2.76707L4 2.51307V2.40507L4.477 2.16207V2.16307ZM6.301 2.16307L6.778 2.40507V2.51307L6.301 2.76707L6.244 2.64807L6.606 2.46407V2.45707L6.244 2.27907L6.301 2.16207V2.16307ZM7.413 2.22107C7.36963 2.20862 7.32503 2.2009 7.28 2.19807C7.24744 2.19608 7.21484 2.20153 7.1847 2.21401C7.15455 2.22648 7.12764 2.24565 7.106 2.27007C7.06206 2.33014 7.0408 2.40382 7.046 2.47807C7.046 2.56907 7.066 2.63907 7.107 2.68807C7.149 2.73807 7.207 2.76307 7.28 2.76307C7.3006 2.76313 7.32111 2.76044 7.341 2.75507C7.3653 2.74838 7.38932 2.74071 7.413 2.73207L7.44 2.61907L7.566 2.64707L7.527 2.83207L7.497 2.84607C7.43024 2.87441 7.35843 2.88893 7.2859 2.88876C7.21337 2.88859 7.14163 2.87373 7.075 2.84507C7.01643 2.81444 6.96862 2.76664 6.938 2.70807C6.90301 2.6366 6.88618 2.5576 6.889 2.47807C6.889 2.39307 6.905 2.32007 6.937 2.26007C6.96745 2.20061 7.01522 2.15179 7.074 2.12007C7.13696 2.08632 7.20758 2.06944 7.279 2.07107C7.3566 2.06946 7.43345 2.08661 7.503 2.12107L7.531 2.13807L7.568 2.32107L7.44 2.35007L7.413 2.22107ZM7.966 2.25707C8.031 2.25707 8.086 2.27007 8.133 2.29507C8.17853 2.32 8.21522 2.35843 8.238 2.40507C8.26362 2.4573 8.27631 2.51491 8.275 2.57307C8.27741 2.61509 8.27139 2.65718 8.25731 2.69684C8.24323 2.73651 8.22136 2.77297 8.193 2.80407C8.16307 2.83307 8.12743 2.85552 8.08835 2.86998C8.04926 2.88444 8.0076 2.8906 7.966 2.88807C7.90933 2.88935 7.85326 2.87628 7.803 2.85007C7.75829 2.8253 7.72206 2.78768 7.699 2.74207C7.67453 2.68917 7.66255 2.63134 7.664 2.57307C7.664 2.50707 7.675 2.45107 7.699 2.40407C7.72163 2.35765 7.75792 2.31926 7.803 2.29407C7.85335 2.2682 7.90942 2.25548 7.966 2.25707ZM7.966 2.37807C7.914 2.37807 7.875 2.39507 7.848 2.42807C7.81914 2.47068 7.80541 2.52173 7.809 2.57307C7.809 2.63607 7.822 2.68507 7.849 2.71907C7.875 2.75307 7.914 2.76907 7.966 2.76907C8.02 2.76907 8.06 2.75307 8.087 2.71907C8.11643 2.67631 8.13052 2.62486 8.127 2.57307C8.127 2.51007 8.114 2.46207 8.087 2.42907C8.06 2.39507 8.02 2.37907 7.967 2.37907L7.966 2.37807ZM8.362 2.86307V2.74507H8.47V2.42507L8.346 2.38507L8.386 2.26607L8.57 2.32607C8.62362 2.28142 8.69122 2.257 8.761 2.25707C8.796 2.25707 8.829 2.26307 8.86 2.27507C8.89 2.28807 8.916 2.30507 8.935 2.33007C8.96179 2.30876 8.99141 2.29126 9.023 2.27807C9.05667 2.26447 9.09269 2.25767 9.129 2.25807C9.21 2.25807 9.269 2.27707 9.306 2.31607C9.342 2.35507 9.36 2.42007 9.36 2.51107V2.74507H9.47V2.86307H9.161V2.74507H9.212V2.51907C9.212 2.47007 9.204 2.43607 9.189 2.41607C9.173 2.39507 9.146 2.38507 9.108 2.38507C9.08605 2.38542 9.06435 2.38983 9.044 2.39807C9.02442 2.40492 9.00616 2.41507 8.99 2.42807V2.74507H9.04V2.86307H8.79V2.74507H8.841V2.51907C8.841 2.47007 8.834 2.43607 8.818 2.41607C8.803 2.39507 8.776 2.38507 8.738 2.38507C8.71605 2.38542 8.69435 2.38983 8.674 2.39807C8.65386 2.40504 8.63496 2.41516 8.618 2.42807V2.74507H8.671V2.86307H8.362ZM9.555 2.28207H9.812V2.74507H9.92V2.86307H9.555V2.74507H9.663V2.39907H9.555V2.28207ZM9.724 2.00007C9.751 2.00007 9.773 2.00807 9.789 2.02507C9.79725 2.03352 9.80371 2.04353 9.808 2.05453C9.8123 2.06552 9.81434 2.07727 9.814 2.08907C9.81461 2.1012 9.81271 2.11333 9.80841 2.12469C9.8041 2.13604 9.7975 2.14639 9.789 2.15507C9.78035 2.16326 9.77014 2.16961 9.75896 2.17374C9.74779 2.17786 9.7359 2.17968 9.724 2.17907C9.71211 2.17968 9.70021 2.17786 9.68904 2.17374C9.67787 2.16961 9.66765 2.16326 9.659 2.15507C9.65096 2.14616 9.64478 2.13573 9.64083 2.12439C9.63688 2.11306 9.63524 2.10105 9.636 2.08907C9.635 2.06555 9.64326 2.04257 9.659 2.02507C9.66756 2.0167 9.67774 2.01016 9.68892 2.00587C9.7001 2.00157 9.71204 1.99959 9.724 2.00007ZM10.01 2.86307V2.74507H10.12V2.42907L9.995 2.38607L10.033 2.26807L10.213 2.33007C10.2452 2.3085 10.2797 2.29072 10.316 2.27707C10.3558 2.263 10.3978 2.25623 10.44 2.25707C10.4854 2.25489 10.5305 2.26564 10.57 2.28807C10.604 2.30907 10.629 2.33807 10.644 2.37607C10.6611 2.41516 10.6696 2.45743 10.669 2.50007V2.74507H10.777V2.86307H10.467V2.74507H10.522V2.52007C10.5243 2.4853 10.5148 2.45077 10.495 2.42207C10.476 2.39807 10.446 2.38607 10.405 2.38607C10.3558 2.38742 10.3079 2.40268 10.267 2.43007V2.74507H10.32V2.86307H10.01ZM11.13 2.71307C11.0575 2.71751 10.9855 2.6982 10.925 2.65807C10.9007 2.63889 10.8815 2.61416 10.8687 2.58597C10.856 2.55778 10.8503 2.52694 10.852 2.49607C10.852 2.42307 10.877 2.36507 10.928 2.32207C10.9859 2.27646 11.0584 2.25337 11.132 2.25707C11.165 2.25707 11.194 2.26007 11.219 2.26507C11.244 2.27007 11.269 2.27907 11.292 2.29207L11.488 2.22307L11.533 2.35307L11.375 2.37707C11.3895 2.39214 11.3999 2.41076 11.405 2.43107C11.41 2.45207 11.412 2.47107 11.412 2.49007C11.4142 2.53627 11.4004 2.5818 11.373 2.61907C11.3467 2.6525 11.3113 2.67753 11.271 2.69107C11.2259 2.70619 11.1776 2.71362 11.13 2.71307ZM11.14 3.17607C11.0369 3.17747 10.9349 3.15488 10.842 3.11007L10.895 2.99407C10.935 3.01207 10.976 3.02507 11.016 3.03407C11.087 3.05217 11.1611 3.05422 11.233 3.04007C11.2519 3.03672 11.2694 3.02765 11.283 3.01407C11.2919 3.00498 11.2969 2.99279 11.297 2.98007C11.2972 2.9716 11.2954 2.96321 11.2917 2.95556C11.2881 2.94792 11.2827 2.94124 11.276 2.93607C11.262 2.92507 11.234 2.91907 11.191 2.91907H10.987V2.66507L11.104 2.69107V2.79707H11.21C11.287 2.79707 11.344 2.81307 11.383 2.84507C11.4022 2.86146 11.4174 2.88209 11.4273 2.90535C11.4372 2.92861 11.4415 2.95384 11.44 2.97907C11.442 3.02053 11.4277 3.06112 11.4 3.09207C11.3702 3.12345 11.332 3.14566 11.29 3.15607C11.2413 3.17022 11.1907 3.17696 11.14 3.17607ZM11.133 2.60307C11.177 2.60307 11.212 2.59307 11.237 2.57207C11.2492 2.56199 11.2589 2.54929 11.2655 2.53491C11.2721 2.52054 11.2753 2.50487 11.275 2.48907C11.275 2.44907 11.262 2.42007 11.237 2.40007C11.2072 2.37754 11.1703 2.36653 11.133 2.36907C11.0954 2.36673 11.0583 2.37771 11.028 2.40007C11.004 2.42007 10.991 2.45007 10.991 2.48907C10.991 2.52207 11.004 2.55007 11.029 2.57207C11.054 2.59207 11.089 2.60307 11.133 2.60307ZM12.235 2.88907C12.1374 2.89054 12.0403 2.87358 11.949 2.83907L11.925 2.66107L12.047 2.64707L12.062 2.74207C12.1435 2.76981 12.231 2.77465 12.315 2.75607C12.34 2.74941 12.363 2.73671 12.382 2.71907C12.3901 2.71036 12.3964 2.70013 12.4005 2.68897C12.4046 2.67781 12.4065 2.66595 12.406 2.65407C12.4064 2.6283 12.3971 2.60333 12.38 2.58407C12.364 2.56407 12.329 2.54907 12.275 2.54107L12.181 2.52507C12.1152 2.51652 12.0531 2.48948 12.002 2.44707C11.9814 2.42807 11.9652 2.40481 11.9545 2.3789C11.9438 2.353 11.9388 2.32507 11.94 2.29707C11.94 2.24807 11.953 2.20707 11.98 2.17307C12.0087 2.13779 12.0468 2.11142 12.09 2.09707C12.1394 2.0792 12.1915 2.0704 12.244 2.07107C12.2997 2.07129 12.3551 2.07834 12.409 2.09207C12.4356 2.09912 12.4617 2.10815 12.487 2.11907L12.512 2.31007L12.38 2.32507L12.363 2.20807C12.3226 2.19486 12.2805 2.18811 12.238 2.18807C12.1962 2.18631 12.1547 2.196 12.118 2.21607C12.089 2.23307 12.075 2.25607 12.075 2.28707C12.075 2.31707 12.085 2.34107 12.106 2.35907C12.1378 2.37908 12.1737 2.39172 12.211 2.39607L12.309 2.41207C12.393 2.42507 12.453 2.45007 12.489 2.48907C12.5252 2.52848 12.5442 2.58062 12.542 2.63407C12.542 2.68407 12.532 2.72607 12.512 2.75907C12.4951 2.79081 12.4703 2.81766 12.44 2.83707C12.4093 2.85619 12.3754 2.86973 12.34 2.87707C12.3055 2.88475 12.2703 2.88877 12.235 2.88907ZM12.953 2.25707C13.018 2.25707 13.073 2.27007 13.12 2.29507C13.1655 2.32005 13.2022 2.35846 13.225 2.40507C13.2503 2.45738 13.2626 2.515 13.261 2.57307C13.2634 2.61509 13.2574 2.65718 13.2433 2.69684C13.2292 2.73651 13.2074 2.77297 13.179 2.80407C13.1492 2.83294 13.1137 2.85531 13.0748 2.86977C13.0359 2.88423 12.9944 2.89046 12.953 2.88807C12.896 2.88952 12.8396 2.87645 12.789 2.85007C12.7443 2.8253 12.7081 2.78768 12.685 2.74207C12.6605 2.68917 12.6485 2.63134 12.65 2.57307C12.65 2.50707 12.662 2.45107 12.685 2.40407C12.7076 2.35765 12.7439 2.31926 12.789 2.29407C12.8396 2.26804 12.8961 2.25531 12.953 2.25707ZM12.953 2.37807C12.901 2.37807 12.862 2.39507 12.835 2.42807C12.8058 2.47055 12.7917 2.52162 12.795 2.57307C12.795 2.63607 12.809 2.68507 12.835 2.71907C12.862 2.75307 12.901 2.76907 12.953 2.76907C13.007 2.76907 13.047 2.75307 13.074 2.71907C13.1034 2.67631 13.1175 2.62486 13.114 2.57307C13.114 2.51007 13.101 2.46207 13.074 2.42907C13.047 2.39507 13.007 2.37907 12.954 2.37907L12.953 2.37807ZM13.674 2.25807C13.739 2.25807 13.794 2.27007 13.841 2.29507C13.8865 2.32005 13.9232 2.35846 13.946 2.40507C13.9713 2.45738 13.9836 2.515 13.982 2.57307C13.9844 2.61509 13.9784 2.65718 13.9643 2.69684C13.9502 2.73651 13.9284 2.77297 13.9 2.80407C13.8702 2.83294 13.8347 2.85531 13.7958 2.86977C13.7569 2.88423 13.7154 2.89046 13.674 2.88807C13.617 2.88952 13.5606 2.87645 13.51 2.85007C13.4653 2.8253 13.4291 2.78768 13.406 2.74207C13.3815 2.68917 13.3696 2.63134 13.371 2.57307C13.371 2.50707 13.383 2.45107 13.406 2.40407C13.4286 2.35765 13.4649 2.31926 13.51 2.29407C13.5606 2.26804 13.6171 2.25631 13.674 2.25807ZM13.674 2.37807C13.622 2.37807 13.583 2.39507 13.556 2.42807C13.5268 2.47055 13.5127 2.52162 13.516 2.57307C13.516 2.63607 13.53 2.68507 13.556 2.71907C13.583 2.75307 13.622 2.76907 13.674 2.76907C13.728 2.76907 13.768 2.75307 13.795 2.71907C13.8244 2.67631 13.8385 2.62486 13.835 2.57307C13.835 2.51007 13.822 2.46207 13.795 2.42907C13.768 2.39507 13.728 2.37907 13.675 2.37907L13.674 2.37807ZM14.07 2.86307V2.74507H14.18V2.42907L14.055 2.38607L14.093 2.26807L14.273 2.33007C14.3052 2.3085 14.3397 2.29072 14.376 2.27707C14.4158 2.26302 14.4578 2.25625 14.5 2.25707C14.5454 2.25489 14.5905 2.26564 14.63 2.28807C14.664 2.30907 14.688 2.33807 14.704 2.37607C14.7211 2.41516 14.7296 2.45743 14.729 2.50007V2.74507H14.837V2.86307H14.527V2.74507H14.582V2.52007C14.5843 2.4853 14.5748 2.45077 14.555 2.42207C14.536 2.39807 14.506 2.38607 14.465 2.38607C14.4158 2.38742 14.3679 2.40268 14.327 2.43007V2.74507H14.38V2.86307H14.07ZM15.402 2.16307L15.459 2.27907L15.099 2.45707V2.46407L15.459 2.64807L15.402 2.76707L14.925 2.51307V2.40507L15.402 2.16207V2.16307ZM17.73 2.16307L18.207 2.40507V2.51307L17.73 2.76707L17.672 2.64807L18.034 2.46407V2.45707L17.673 2.27907L17.73 2.16207V2.16307Z" fill="black"/>
<path d="M4.64301 2.09708L4.97901 2.09908V2.22908H4.90501L4.90301 2.41108H5.23101L5.23201 2.22908H5.15701V2.09708H5.49201V2.22908H5.38301L5.38201 2.73208H5.49201V2.86308H5.15801V2.73208H5.23101V2.54108H4.90301V2.73108H4.97601V2.86308H4.64201V2.73208H4.75201L4.75401 2.22908H4.64401L4.64301 2.09708ZM5.87301 2.07708H5.97101V2.73208H6.16601V2.86308H5.61301V2.73208H5.82001V2.29908L5.66701 2.42608L5.58101 2.32008L5.87301 2.07608V2.07708ZM15.904 2.09708H16.051L15.629 3.03308H15.48L15.904 2.09708ZM16.072 2.09708L16.407 2.09908V2.22908H16.333L16.332 2.41108H16.659L16.661 2.22908H16.585V2.09708H16.92V2.22908H16.811L16.81 2.73208H16.92V2.86308H16.586V2.73208H16.659V2.54108H16.332V2.73108H16.404V2.86308H16.07V2.73208H16.18L16.182 2.22908H16.072V2.09708ZM17.302 2.07708H17.399V2.73208H17.594V2.86308H17.042V2.73208H17.248V2.29908L17.095 2.42608L17.009 2.32008L17.302 2.07608V2.07708Z" fill="#2A8BFB"/>
</svg>
