<svg width="24" height="13" viewBox="0 0 24 13" fill="none" xmlns="http://www.w3.org/2000/svg">
<g clip-path="url(#clip0_6248_88965)">
<path d="M20 2.66659C18.7 2.66659 18.05 3.33325 16.75 3.33325C15.45 3.33325 14.8 2.66659 13.5 2.66659C12.2 2.66659 11.55 3.33325 10.25 3.33325C8.95 3.33325 8.3 2.66659 7 2.66659" stroke="#2A8BFB" stroke-width="0.3"/>
</g>
<g clip-path="url(#clip1_6248_88965)">
<path d="M20 4.66659C18.7 4.66659 18.05 5.33325 16.75 5.33325C15.45 5.33325 14.8 4.66659 13.5 4.66659C12.2 4.66659 11.55 5.33325 10.25 5.33325C8.95 5.33325 8.3 4.66659 7 4.66659" stroke="#EAEAEA" stroke-width="0.3"/>
</g>
<g clip-path="url(#clip2_6248_88965)">
<path d="M20 7.66659C18.7 7.66659 18.05 8.33325 16.75 8.33325C15.45 8.33325 14.8 7.66659 13.5 7.66659C12.2 7.66659 11.55 8.33325 10.25 8.33325C8.95 8.33325 8.3 7.66659 7 7.66659" stroke="black" stroke-width="0.3"/>
</g>
<g clip-path="url(#clip3_6248_88965)">
<path d="M20 9.66659C18.7 9.66659 18.05 10.3333 16.75 10.3333C15.45 10.3333 14.8 9.66659 13.5 9.66659C12.2 9.66659 11.55 10.3333 10.25 10.3333C8.95 10.3333 8.3 9.66659 7 9.66659" stroke="#EAEAEA" stroke-width="0.3"/>
</g>
<path fill-rule="evenodd" clip-rule="evenodd" d="M4.00033 7.16675C2.9878 7.16675 2.16699 7.98756 2.16699 9.00008C2.16699 10.0126 2.9878 10.8334 4.00033 10.8334C5.01285 10.8334 5.83366 10.0126 5.83366 9.00008C5.83366 7.98756 5.01285 7.16675 4.00033 7.16675ZM4.61818 8.38223C4.68326 8.44732 4.68326 8.55285 4.61818 8.61793L4.23603 9.00008L4.61818 9.38223C4.68326 9.44732 4.68326 9.55285 4.61818 9.61793C4.55309 9.68302 4.44756 9.68302 4.38247 9.61793L4.00033 9.23578L3.61818 9.61793C3.55309 9.68302 3.44756 9.68302 3.38247 9.61793C3.31739 9.55285 3.31739 9.44732 3.38247 9.38223L3.76462 9.00008L3.38247 8.61793C3.31739 8.55285 3.31739 8.44732 3.38247 8.38223C3.44756 8.31714 3.55309 8.31714 3.61818 8.38223L4.00033 8.76438L4.38247 8.38223C4.44756 8.31714 4.55309 8.31714 4.61818 8.38223Z" fill="#FF9694"/>
<path fill-rule="evenodd" clip-rule="evenodd" d="M4.00033 2.16675C2.9878 2.16675 2.16699 2.98756 2.16699 4.00008C2.16699 5.0126 2.9878 5.83341 4.00033 5.83341C5.01285 5.83341 5.83366 5.0126 5.83366 4.00008C5.83366 2.98756 5.01285 2.16675 4.00033 2.16675ZM4.86818 3.61793C4.93326 3.55285 4.93326 3.44732 4.86818 3.38223C4.80309 3.31714 4.69756 3.31714 4.63247 3.38223L3.75033 4.26438L3.36818 3.88223C3.30309 3.81714 3.19756 3.81714 3.13247 3.88223C3.06739 3.94732 3.06739 4.05285 3.13247 4.11793L3.63247 4.61793C3.69756 4.68302 3.80309 4.68302 3.86818 4.61793L4.86818 3.61793Z" fill="#2A8BFB"/>
<defs>
<clipPath id="clip0_6248_88965">
<rect width="2" height="13" fill="white" transform="matrix(1.19249e-08 -1 -1 -1.19249e-08 20 4)"/>
</clipPath>
<clipPath id="clip1_6248_88965">
<rect width="2" height="13" fill="white" transform="matrix(1.19249e-08 -1 -1 -1.19249e-08 20 6)"/>
</clipPath>
<clipPath id="clip2_6248_88965">
<rect width="2" height="13" fill="white" transform="matrix(1.19249e-08 -1 -1 -1.19249e-08 20 9)"/>
</clipPath>
<clipPath id="clip3_6248_88965">
<rect width="2" height="13" fill="white" transform="matrix(1.19249e-08 -1 -1 -1.19249e-08 20 11)"/>
</clipPath>
</defs>
</svg>
