<svg width="24" height="13" viewBox="0 0 24 13" fill="none" xmlns="http://www.w3.org/2000/svg">
<g opacity="0.2">
<mask id="mask0_6374_86754" style="mask-type:luminance" maskUnits="userSpaceOnUse" x="7" y="2" width="13" height="2">
<path d="M20 2L20 4L7 4L7 2L20 2Z" fill="white"/>
</mask>
<g mask="url(#mask0_6374_86754)">
<path d="M20 2.6665C18.7 2.6665 18.05 3.33316 16.75 3.33316C15.45 3.33316 14.8 2.6665 13.5 2.6665C12.2 2.6665 11.55 3.33316 10.25 3.33316C8.95 3.33316 8.3 2.6665 7 2.6665" stroke="#2A8BFB" stroke-width="0.3"/>
</g>
<mask id="mask1_6374_86754" style="mask-type:luminance" maskUnits="userSpaceOnUse" x="7" y="4" width="13" height="2">
<path d="M20 4L20 6L7 6L7 4L20 4Z" fill="white"/>
</mask>
<g mask="url(#mask1_6374_86754)">
<path d="M20 4.6665C18.7 4.6665 18.05 5.33316 16.75 5.33316C15.45 5.33316 14.8 4.6665 13.5 4.6665C12.2 4.6665 11.55 5.33316 10.25 5.33316C8.95 5.33316 8.3 4.6665 7 4.6665" stroke="#EAEAEA" stroke-width="0.3"/>
</g>
<mask id="mask2_6374_86754" style="mask-type:luminance" maskUnits="userSpaceOnUse" x="7" y="7" width="13" height="2">
<path d="M20 7L20 9L7 9L7 7L20 7Z" fill="white"/>
</mask>
<g mask="url(#mask2_6374_86754)">
<path d="M20 7.6665C18.7 7.6665 18.05 8.33316 16.75 8.33316C15.45 8.33316 14.8 7.6665 13.5 7.6665C12.2 7.6665 11.55 8.33316 10.25 8.33316C8.95 8.33316 8.3 7.6665 7 7.6665" stroke="black" stroke-width="0.3"/>
</g>
<mask id="mask3_6374_86754" style="mask-type:luminance" maskUnits="userSpaceOnUse" x="7" y="9" width="13" height="2">
<path d="M20 9L20 11L7 11L7 9L20 9Z" fill="white"/>
</mask>
<g mask="url(#mask3_6374_86754)">
<path d="M20 9.6665C18.7 9.6665 18.05 10.3332 16.75 10.3332C15.45 10.3332 14.8 9.6665 13.5 9.6665C12.2 9.6665 11.55 10.3332 10.25 10.3332C8.95 10.3332 8.3 9.6665 7 9.6665" stroke="#EAEAEA" stroke-width="0.3"/>
</g>
<path fill-rule="evenodd" clip-rule="evenodd" d="M4.00033 7.16675C2.9878 7.16675 2.16699 7.98756 2.16699 9.00008C2.16699 10.0126 2.9878 10.8334 4.00033 10.8334C5.01285 10.8334 5.83366 10.0126 5.83366 9.00008C5.83366 7.98756 5.01285 7.16675 4.00033 7.16675ZM4.61818 8.38223C4.68326 8.44732 4.68326 8.55285 4.61818 8.61793L4.23603 9.00008L4.61818 9.38223C4.68326 9.44732 4.68326 9.55285 4.61818 9.61793C4.55309 9.68302 4.44756 9.68302 4.38247 9.61793L4.00033 9.23578L3.61818 9.61793C3.55309 9.68302 3.44756 9.68302 3.38247 9.61793C3.31739 9.55285 3.31739 9.44732 3.38247 9.38223L3.76462 9.00008L3.38247 8.61793C3.31739 8.55285 3.31739 8.44732 3.38247 8.38223C3.44756 8.31714 3.55309 8.31714 3.61818 8.38223L4.00033 8.76438L4.38247 8.38223C4.44756 8.31714 4.55309 8.31714 4.61818 8.38223Z" fill="#FF9694"/>
<path fill-rule="evenodd" clip-rule="evenodd" d="M4.00033 2.16675C2.9878 2.16675 2.16699 2.98756 2.16699 4.00008C2.16699 5.0126 2.9878 5.83341 4.00033 5.83341C5.01285 5.83341 5.83366 5.0126 5.83366 4.00008C5.83366 2.98756 5.01285 2.16675 4.00033 2.16675ZM4.86818 3.61793C4.93326 3.55285 4.93326 3.44732 4.86818 3.38223C4.80309 3.31714 4.69756 3.31714 4.63247 3.38223L3.75033 4.26438L3.36818 3.88223C3.30309 3.81714 3.19756 3.81714 3.13247 3.88223C3.06739 3.94732 3.06739 4.05285 3.13247 4.11793L3.63247 4.61793C3.69756 4.68302 3.80309 4.68302 3.86818 4.61793L4.86818 3.61793Z" fill="#2A8BFB"/>
</g>
<rect x="3" y="4.5" width="16" height="3" rx="0.3" fill="#BFBFBF" fill-opacity="0.2"/>
<path d="M4.5317 5.7993L4.5889 5.9163L4.2275 6.0944V6.1009L4.5889 6.2855L4.5317 6.4038L4.0546 6.1503V6.0424L4.5317 5.7993ZM6.35633 5.7993L6.83343 6.0424V6.1503L6.35633 6.4038L6.29913 6.2855L6.66053 6.1009V6.0944L6.29913 5.9163L6.35633 5.7993ZM7.46798 5.8578C7.46538 5.85607 7.45715 5.85347 7.44328 5.85C7.43028 5.84653 7.41425 5.84307 7.39518 5.8396C7.37612 5.83613 7.35618 5.8344 7.33538 5.8344C7.25998 5.8344 7.20192 5.85867 7.16118 5.9072C7.12045 5.95573 7.10008 6.02507 7.10008 6.1152C7.10008 6.2062 7.12088 6.2764 7.16248 6.3258C7.20408 6.3752 7.26172 6.3999 7.33538 6.3999C7.35705 6.3999 7.37742 6.3973 7.39648 6.3921C7.41555 6.3869 7.43158 6.38213 7.44458 6.3778C7.45758 6.3726 7.46538 6.36957 7.46798 6.3687L7.49528 6.2556L7.62138 6.2842L7.58238 6.4688C7.58238 6.4688 7.57198 6.47357 7.55118 6.4831C7.53038 6.49263 7.50135 6.50217 7.46408 6.5117C7.42682 6.52123 7.38392 6.526 7.33538 6.526C7.25738 6.526 7.18892 6.51127 7.12998 6.4818C7.07192 6.45147 7.02642 6.40597 6.99348 6.3453C6.96055 6.28377 6.94408 6.20707 6.94408 6.1152C6.94408 6.03027 6.96012 5.95747 6.99218 5.8968C7.02425 5.83613 7.06975 5.78977 7.12868 5.7577C7.18762 5.72477 7.25608 5.7083 7.33408 5.7083C7.38868 5.7083 7.43462 5.71393 7.47188 5.7252C7.51002 5.7356 7.53862 5.74643 7.55768 5.7577C7.57675 5.76897 7.58628 5.7746 7.58628 5.7746L7.62268 5.9579L7.49528 5.9865L7.46798 5.8578ZM8.0214 5.8942C8.0864 5.8942 8.14186 5.90677 8.1878 5.9319C8.23373 5.95703 8.26883 5.99343 8.2931 6.0411C8.31736 6.0879 8.3295 6.14423 8.3295 6.2101C8.3295 6.3089 8.3022 6.38603 8.2476 6.4415C8.19386 6.49697 8.11846 6.5247 8.0214 6.5247C7.95813 6.5247 7.90353 6.51213 7.8576 6.487C7.81253 6.46187 7.77786 6.4259 7.7536 6.3791C7.7302 6.33143 7.7185 6.2751 7.7185 6.2101C7.7185 6.14423 7.7302 6.0879 7.7536 6.0411C7.77786 5.99343 7.81253 5.95703 7.8576 5.9319C7.90353 5.90677 7.95813 5.8942 8.0214 5.8942ZM8.0214 6.0151C7.9694 6.0151 7.92996 6.032 7.9031 6.0658C7.8771 6.09873 7.8641 6.14683 7.8641 6.2101C7.8641 6.27337 7.8771 6.3219 7.9031 6.3557C7.92996 6.3895 7.9694 6.4064 8.0214 6.4064C8.07513 6.4064 8.11543 6.3895 8.1423 6.3557C8.16916 6.3219 8.1826 6.27337 8.1826 6.2101C8.1826 6.14683 8.16916 6.09873 8.1423 6.0658C8.11543 6.032 8.07513 6.0151 8.0214 6.0151ZM8.4168 6.5V6.3817H8.5247V6.0619L8.4012 6.0229L8.4402 5.9033L8.6248 5.9631C8.65167 5.94057 8.68157 5.92367 8.7145 5.9124C8.7483 5.90027 8.7821 5.8942 8.8159 5.8942C8.85143 5.8942 8.88437 5.90027 8.9147 5.9124C8.9459 5.92453 8.97103 5.94273 8.9901 5.967C9.0161 5.9462 9.04557 5.92887 9.0785 5.915C9.1123 5.90113 9.1474 5.8942 9.1838 5.8942C9.26527 5.8942 9.3242 5.9137 9.3606 5.9527C9.397 5.9917 9.4152 6.0567 9.4152 6.1477V6.3817H9.5257V6.5H9.2163V6.3817H9.267V6.1555C9.267 6.10697 9.2592 6.07273 9.2436 6.0528C9.228 6.032 9.20113 6.0216 9.163 6.0216C9.14307 6.0216 9.12183 6.02593 9.0993 6.0346C9.07763 6.0424 9.05943 6.05237 9.0447 6.0645V6.3817H9.0954V6.5H8.8445V6.3817H8.8965V6.1555C8.8965 6.10697 8.8887 6.07273 8.8731 6.0528C8.8575 6.032 8.83063 6.0216 8.7925 6.0216C8.77257 6.0216 8.75133 6.02593 8.7288 6.0346C8.70713 6.0424 8.6885 6.05237 8.6729 6.0645V6.3817H8.7262V6.5H8.4168ZM9.61001 5.9189H9.86741V6.3817H9.97531V6.5H9.61001V6.3817H9.71791V6.0359H9.61001V5.9189ZM9.77901 5.6368C9.80587 5.6368 9.82754 5.64503 9.84401 5.6615C9.86047 5.67797 9.86871 5.69963 9.86871 5.7265C9.86871 5.75337 9.86047 5.77503 9.84401 5.7915C9.82754 5.80797 9.80587 5.8162 9.77901 5.8162C9.75214 5.8162 9.73047 5.80797 9.71401 5.7915C9.69841 5.77503 9.69061 5.75337 9.69061 5.7265C9.69061 5.69963 9.69841 5.67797 9.71401 5.6615C9.73047 5.64503 9.75214 5.6368 9.77901 5.6368ZM10.0647 6.5V6.3817H10.1752V6.0658L10.0504 6.0229L10.0881 5.9046L10.2688 5.967C10.3026 5.94447 10.3368 5.9267 10.3715 5.9137C10.4061 5.9007 10.4473 5.8942 10.495 5.8942C10.5487 5.8942 10.592 5.9046 10.625 5.9254C10.6588 5.9462 10.6835 5.97523 10.6991 6.0125C10.7155 6.0489 10.7238 6.0905 10.7238 6.1373V6.3817H10.8317V6.5H10.5223V6.3817H10.5769V6.1568C10.5769 6.1152 10.5678 6.0827 10.5496 6.0593C10.5314 6.03503 10.5015 6.0229 10.4599 6.0229C10.4347 6.0229 10.4096 6.02723 10.3845 6.0359C10.3602 6.04457 10.3394 6.05497 10.3221 6.0671V6.3817H10.3754V6.5H10.0647ZM11.1854 6.3505C11.0979 6.3505 11.0294 6.33187 10.98 6.2946C10.9315 6.25647 10.9072 6.20273 10.9072 6.1334C10.9072 6.05973 10.9324 6.00167 10.9826 5.9592C11.0338 5.91587 11.1018 5.8942 11.1867 5.8942C11.2197 5.8942 11.2487 5.8968 11.2738 5.902C11.299 5.9072 11.3232 5.9163 11.3466 5.9293L11.5429 5.8604L11.5884 5.9891L11.4298 6.0138C11.4446 6.0294 11.4545 6.0476 11.4597 6.0684C11.4649 6.0892 11.4675 6.1087 11.4675 6.1269C11.4675 6.17977 11.4545 6.22267 11.4285 6.2556C11.4034 6.28853 11.3692 6.3128 11.3258 6.3284C11.2834 6.34313 11.2366 6.3505 11.1854 6.3505ZM11.1958 6.8133C11.1482 6.8133 11.1048 6.8094 11.0658 6.8016C11.0268 6.79467 10.993 6.78557 10.9644 6.7743C10.9358 6.7639 10.9133 6.7548 10.8968 6.747L10.9501 6.6313C10.9909 6.64863 11.0312 6.66207 11.071 6.6716C11.1109 6.682 11.1525 6.6872 11.1958 6.6872C11.2348 6.6872 11.2656 6.68373 11.2881 6.6768C11.3115 6.67073 11.328 6.66207 11.3375 6.6508C11.3471 6.6404 11.3518 6.62913 11.3518 6.617C11.3518 6.5988 11.3449 6.58407 11.331 6.5728C11.3172 6.56153 11.289 6.5559 11.2465 6.5559H11.0424V6.3024L11.1594 6.3284V6.4337H11.2647C11.3419 6.4337 11.3995 6.44973 11.4376 6.4818C11.4758 6.513 11.4948 6.55763 11.4948 6.6157C11.4948 6.6625 11.4814 6.7002 11.4545 6.7288C11.4277 6.75827 11.3913 6.7795 11.3453 6.7925C11.3003 6.80637 11.2504 6.8133 11.1958 6.8133ZM11.188 6.24C11.2322 6.24 11.2669 6.2296 11.292 6.2088C11.3172 6.18713 11.3297 6.1594 11.3297 6.1256C11.3297 6.0866 11.3172 6.05713 11.292 6.0372C11.2678 6.0164 11.2331 6.006 11.188 6.006C11.143 6.006 11.1079 6.0164 11.0827 6.0372C11.0585 6.05713 11.0463 6.0866 11.0463 6.1256C11.0463 6.1594 11.0589 6.18713 11.084 6.2088C11.1092 6.2296 11.1438 6.24 11.188 6.24ZM12.2897 6.526C12.2256 6.526 12.1701 6.5208 12.1233 6.5104C12.0774 6.50087 12.0375 6.4896 12.0037 6.4766L11.9803 6.2985L12.1025 6.2842L12.1168 6.3791C12.142 6.38777 12.168 6.39427 12.1948 6.3986C12.2217 6.40293 12.2499 6.4051 12.2793 6.4051C12.3123 6.4051 12.3426 6.4012 12.3703 6.3934C12.3981 6.38473 12.4202 6.37217 12.4366 6.3557C12.4531 6.33837 12.4613 6.3167 12.4613 6.2907C12.4613 6.26383 12.4527 6.24043 12.4353 6.2205C12.4189 6.20057 12.3838 6.18627 12.33 6.1776L12.2364 6.162C12.1584 6.14813 12.0986 6.12213 12.057 6.084C12.0154 6.04587 11.9946 5.99603 11.9946 5.9345C11.9946 5.8851 12.0081 5.8435 12.0349 5.8097C12.0618 5.7759 12.0982 5.75077 12.1441 5.7343C12.1901 5.71697 12.2416 5.7083 12.2988 5.7083C12.3274 5.7083 12.3556 5.71003 12.3833 5.7135C12.4111 5.71697 12.4379 5.72217 12.4639 5.7291C12.4899 5.73603 12.5159 5.74513 12.5419 5.7564L12.5666 5.9475L12.4353 5.9618L12.4184 5.8448C12.4011 5.83873 12.3816 5.83397 12.3599 5.8305C12.3391 5.82703 12.317 5.8253 12.2936 5.8253C12.2425 5.8253 12.2022 5.8344 12.1727 5.8526C12.1441 5.86993 12.1298 5.89377 12.1298 5.9241C12.1298 5.95443 12.1402 5.97827 12.161 5.9956C12.1827 6.01207 12.2178 6.02463 12.2663 6.0333L12.3638 6.0489C12.4479 6.0619 12.5077 6.08747 12.5432 6.1256C12.5788 6.16287 12.5965 6.2114 12.5965 6.2712C12.5965 6.32147 12.587 6.36307 12.5679 6.396C12.5497 6.42893 12.5255 6.45493 12.4951 6.474C12.4648 6.49307 12.4314 6.5065 12.395 6.5143C12.3586 6.5221 12.3235 6.526 12.2897 6.526ZM13.0081 5.8942C13.0731 5.8942 13.1286 5.90677 13.1745 5.9319C13.2204 5.95703 13.2555 5.99343 13.2798 6.0411C13.3041 6.0879 13.3162 6.14423 13.3162 6.2101C13.3162 6.3089 13.2889 6.38603 13.2343 6.4415C13.1806 6.49697 13.1052 6.5247 13.0081 6.5247C12.9448 6.5247 12.8902 6.51213 12.8443 6.487C12.7992 6.46187 12.7646 6.4259 12.7403 6.3791C12.7169 6.33143 12.7052 6.2751 12.7052 6.2101C12.7052 6.14423 12.7169 6.0879 12.7403 6.0411C12.7646 5.99343 12.7992 5.95703 12.8443 5.9319C12.8902 5.90677 12.9448 5.8942 13.0081 5.8942ZM13.0081 6.0151C12.9561 6.0151 12.9167 6.032 12.8898 6.0658C12.8638 6.09873 12.8508 6.14683 12.8508 6.2101C12.8508 6.27337 12.8638 6.3219 12.8898 6.3557C12.9167 6.3895 12.9561 6.4064 13.0081 6.4064C13.0618 6.4064 13.1021 6.3895 13.129 6.3557C13.1559 6.3219 13.1693 6.27337 13.1693 6.2101C13.1693 6.14683 13.1559 6.09873 13.129 6.0658C13.1021 6.032 13.0618 6.0151 13.0081 6.0151ZM13.7292 5.8942C13.7942 5.8942 13.8497 5.90677 13.8956 5.9319C13.9415 5.95703 13.9766 5.99343 14.0009 6.0411C14.0252 6.0879 14.0373 6.14423 14.0373 6.2101C14.0373 6.3089 14.01 6.38603 13.9554 6.4415C13.9017 6.49697 13.8263 6.5247 13.7292 6.5247C13.6659 6.5247 13.6113 6.51213 13.5654 6.487C13.5203 6.46187 13.4857 6.4259 13.4614 6.3791C13.438 6.33143 13.4263 6.2751 13.4263 6.2101C13.4263 6.14423 13.438 6.0879 13.4614 6.0411C13.4857 5.99343 13.5203 5.95703 13.5654 5.9319C13.6113 5.90677 13.6659 5.8942 13.7292 5.8942ZM13.7292 6.0151C13.6772 6.0151 13.6378 6.032 13.6109 6.0658C13.5849 6.09873 13.5719 6.14683 13.5719 6.2101C13.5719 6.27337 13.5849 6.3219 13.6109 6.3557C13.6378 6.3895 13.6772 6.4064 13.7292 6.4064C13.7829 6.4064 13.8232 6.3895 13.8501 6.3557C13.877 6.3219 13.8904 6.27337 13.8904 6.2101C13.8904 6.14683 13.877 6.09873 13.8501 6.0658C13.8232 6.032 13.7829 6.0151 13.7292 6.0151ZM14.1246 6.5V6.3817H14.2351V6.0658L14.1103 6.0229L14.148 5.9046L14.3287 5.967C14.3625 5.94447 14.3967 5.9267 14.4314 5.9137C14.4661 5.9007 14.5072 5.8942 14.5549 5.8942C14.6086 5.8942 14.652 5.9046 14.6849 5.9254C14.7187 5.9462 14.7434 5.97523 14.759 6.0125C14.7755 6.0489 14.7837 6.0905 14.7837 6.1373V6.3817H14.8916V6.5H14.5822V6.3817H14.6368V6.1568C14.6368 6.1152 14.6277 6.0827 14.6095 6.0593C14.5913 6.03503 14.5614 6.0229 14.5198 6.0229C14.4947 6.0229 14.4695 6.02723 14.4444 6.0359C14.4201 6.04457 14.3993 6.05497 14.382 6.0671V6.3817H14.4353V6.5H14.1246ZM15.4573 5.7993L15.5145 5.9163L15.1531 6.0944V6.1009L15.5145 6.2855L15.4573 6.4038L14.9802 6.1503V6.0424L15.4573 5.7993ZM17.7847 5.7993L18.2618 6.0424V6.1503L17.7847 6.4038L17.7275 6.2855L18.0889 6.1009V6.0944L17.7275 5.9163L17.7847 5.7993Z" fill="black"/>
<path d="M4.69825 5.7343L5.03365 5.7356V5.8656H4.95955L4.95825 6.0476H5.28585L5.28715 5.8656H5.21175V5.7343H5.54715V5.8656H5.43795L5.43665 6.3687H5.54715V6.5H5.21305V6.3687H5.28585V6.1776H4.95825V6.3687H5.03105V6.5H4.69695V6.3687H4.80745L4.80875 5.8656H4.69825V5.7343ZM5.92845 5.7135H6.02595V6.3687H6.22095V6.5H5.66845V6.3687H5.87515V5.9358L5.72175 6.0632L5.63595 5.9566L5.92845 5.7135ZM15.9592 5.7343H16.1061L15.6836 6.6703H15.5354L15.9592 5.7343ZM16.1266 5.7343L16.462 5.7356V5.8656H16.3879L16.3866 6.0476H16.7142L16.7155 5.8656H16.6401V5.7343H16.9755V5.8656H16.8663L16.865 6.3687H16.9755V6.5H16.6414V6.3687H16.7142V6.1776H16.3866V6.3687H16.4594V6.5H16.1253V6.3687H16.2358L16.2371 5.8656H16.1266V5.7343ZM17.3568 5.7135H17.4543V6.3687H17.6493V6.5H17.0968V6.3687H17.3035V5.9358L17.1501 6.0632L17.0643 5.9566L17.3568 5.7135Z" fill="#2A8BFB"/>
</svg>
