<svg width="24" height="24" viewBox="0 0 24 24" fill="none" xmlns="http://www.w3.org/2000/svg">
<path opacity="0.4" d="M12 2.06812C12.0478 2.06812 12.0956 2.07154 12.143 2.07839C12.25 2.09385 12.3539 2.13283 12.5618 2.21079L17.9236 4.22146C18.6722 4.50219 19.0465 4.64255 19.3223 4.88564C19.566 5.10039 19.7537 5.37126 19.8692 5.67482C20 6.01845 20 6.4182 20 7.21772V12.0001C20 16.9086 14.646 20.4785 12.698 21.615C12.4766 21.7442 12.3659 21.8087 12.2097 21.8422C12.1491 21.8552 12.0745 21.8617 12 21.8617" stroke="#111111" stroke-width="2" stroke-linecap="round" stroke-linejoin="round"/>
<path d="M6.0764 4.22134L11.4382 2.21067C11.6461 2.13271 11.75 2.09373 11.857 2.07827C11.9044 2.07142 11.9522 2.06799 12 2.06799V21.8616C11.9255 21.8616 11.8509 21.8551 11.7903 21.8421C11.6341 21.8086 11.5234 21.744 11.302 21.6149C9.35396 20.4784 4 16.9084 4 12V7.21759C4 6.41808 4 6.01833 4.13076 5.6747C4.24627 5.37113 4.43398 5.10027 4.67766 4.88552C4.95349 4.64243 5.3278 4.50207 6.0764 4.22134Z" stroke="#111111" stroke-width="2" stroke-linecap="round" stroke-linejoin="round"/>
</svg>
