<svg width="24" height="24" viewBox="0 0 24 24" fill="none" xmlns="http://www.w3.org/2000/svg">
<path d="M11 2.46152C11 2.07366 11 1.87973 10.9185 1.75509C10.8473 1.64606 10.7363 1.56913 10.6092 1.54069C10.4639 1.50818 10.2823 1.57627 9.91912 1.71245L5.59466 3.33401C4.97687 3.56466 4.43433 3.76722 4.01651 4.13544C3.65099 4.45756 3.36943 4.86385 3.19616 5.3192C2.99809 5.83971 2.99893 6.41883 2.99989 7.07827L3.00002 12.0001C3.00002 14.8268 4.53731 17.1833 6.19908 18.9146C7.27808 20.0387 8.5155 21.0553 9.83935 21.9052C10.193 22.1323 10.3699 22.2458 10.5358 22.2339C10.6756 22.2238 10.8163 22.147 10.9003 22.0348C11 21.9016 11 21.6826 11 21.2446L11 2.46152Z" fill="#111111"/>
<path d="M13 21.2446C13 21.6826 13 21.9016 13.0997 22.0348C13.1837 22.147 13.3244 22.2239 13.4642 22.2339C13.6301 22.2458 13.807 22.1323 14.1606 21.9053C15.4845 21.0554 16.7219 20.0387 17.801 18.9146C19.4627 17.1833 21 14.8268 21 12.0001L21.0002 7.07826C21.0011 6.41882 21.0019 5.8397 20.8039 5.3192C20.6306 4.86385 20.349 4.45756 19.9835 4.13544C19.5657 3.76721 19.0232 3.56466 18.4054 3.33401L14.0809 1.71243C13.7177 1.57625 13.5361 1.50817 13.3908 1.54068C13.2637 1.56912 13.1527 1.64604 13.0815 1.75508C13 1.87972 13 2.07364 13 2.4615L13 21.2446Z" fill="#111111"/>
</svg>
