<svg width="24" height="24" viewBox="0 0 24 24" fill="none" xmlns="http://www.w3.org/2000/svg">
<path fill-rule="evenodd" clip-rule="evenodd" d="M15.405 4.02761C15.3167 4.00641 15.2113 3.99998 14.6745 3.99998H7C6.44772 3.99998 6 3.55226 6 2.99998C6 2.44769 6.44772 1.99998 7 1.99998H14.6745C14.7025 1.99998 14.7303 1.99995 14.7578 1.99993C15.1647 1.99955 15.5235 1.99922 15.8719 2.08287C16.178 2.15636 16.4707 2.27757 16.7391 2.44206C17.0446 2.62929 17.298 2.8832 17.5855 3.17119C17.605 3.19068 17.6246 3.21033 17.6444 3.23013L20.7698 6.35562C20.7896 6.37541 20.8093 6.39503 20.8288 6.41449C21.1168 6.70194 21.3707 6.95537 21.5579 7.26091C21.7224 7.52933 21.8436 7.82196 21.9171 8.12807C22.0008 8.47651 22.0004 8.83526 22.0001 9.24216C22 9.2697 22 9.29747 22 9.32546V17C22 17.5523 21.5523 18 21 18C20.4477 18 20 17.5523 20 17V9.32546C20 8.78868 19.9936 8.68328 19.9724 8.59496C19.9479 8.49293 19.9075 8.39538 19.8526 8.30591C19.8052 8.22846 19.7352 8.14939 19.3556 7.76983L16.2302 4.64434C15.8506 4.26478 15.7715 4.1948 15.6941 4.14734C15.6046 4.09251 15.5071 4.05211 15.405 4.02761Z" fill="#111111"/>
<path fill-rule="evenodd" clip-rule="evenodd" d="M13.8883 5.49983C14.0782 5.49933 14.3173 5.49869 14.5527 5.55519C14.7568 5.60418 14.9518 5.68499 15.1308 5.79465C15.3371 5.9211 15.5058 6.09065 15.6397 6.22529L15.6757 6.26145L17.7385 8.32419L17.7746 8.36022C17.9093 8.49415 18.0788 8.66279 18.2053 8.86914C18.3149 9.04809 18.3957 9.24318 18.4447 9.44725C18.5012 9.68256 18.5006 9.92173 18.5001 10.1116L18.5 10.1627V17.8386C18.5 18.3657 18.5 18.8204 18.4694 19.195C18.4371 19.5903 18.3658 19.9835 18.173 20.3619C17.8854 20.9264 17.4265 21.3853 16.862 21.6729C16.4836 21.8657 16.0904 21.9371 15.695 21.9694C15.3205 22 14.8656 21.9999 14.3385 21.9999H6.16136C5.63426 21.9999 5.17952 22 4.80498 21.9694C4.40963 21.9371 4.01641 21.8657 3.63803 21.6729C3.07355 21.3853 2.6146 20.9264 2.32698 20.3619C2.13419 19.9835 2.06287 19.5903 2.03057 19.195C1.99997 18.8204 1.99998 18.3656 2 17.8385V9.66134C1.99998 9.13423 1.99997 8.67945 2.03057 8.3049C2.06287 7.90955 2.13419 7.51633 2.32698 7.13796C2.6146 6.57347 3.07355 6.11453 3.63803 5.82691C4.01641 5.63411 4.40963 5.5628 4.80498 5.5305C5.17955 5.49989 5.63431 5.49991 6.16146 5.49993L13.8373 5.49993L13.8883 5.49983ZM11.9 15H8.6C8.03995 15 7.75992 15 7.54601 15.109C7.35785 15.2048 7.20487 15.3578 7.109 15.546C7 15.7599 7 16.0399 7 16.6V20H13.5V16.6C13.5 16.0399 13.5 15.7599 13.391 15.546C13.2951 15.3578 13.1422 15.2048 12.954 15.109C12.7401 15 12.4601 15 11.9 15ZM8 8.49998C8 7.94769 7.55229 7.49998 7 7.49998C6.44772 7.49998 6 7.94769 6 8.49998L6 8.52645C5.99998 8.7365 5.99996 8.94112 6.01184 9.11521C6.02483 9.30558 6.0553 9.5313 6.15225 9.76535C6.35523 10.2554 6.74458 10.6448 7.23464 10.8477C7.46868 10.9447 7.69441 10.9752 7.88478 10.9881C8.05886 11 8.26349 11 8.47353 11L12.5 11C13.0523 11 13.5 10.5523 13.5 9.99998C13.5 9.4477 13.0523 8.99998 12.5 8.99998H8V8.49998Z" fill="#111111"/>
</svg>
