<svg width="24" height="24" viewBox="0 0 24 24" fill="none" xmlns="http://www.w3.org/2000/svg">
<path d="M22.1261 12.6649C22.3333 12.2459 22.3333 11.7543 22.1261 11.3353C21.9437 10.9663 21.6235 10.7729 21.4577 10.6795C21.2792 10.5791 21.0503 10.4761 20.8222 10.3735L4.03839 2.82085C3.80496 2.71576 3.57224 2.61099 3.37593 2.54299C3.1957 2.48056 2.83283 2.36649 2.43107 2.47828C1.97705 2.60461 1.60879 2.93697 1.43672 3.3757C1.28446 3.76393 1.36084 4.13656 1.40453 4.32223C1.45211 4.52448 1.53256 4.76673 1.61325 5.0097L3.23773 9.90402C3.36853 10.2981 3.43393 10.4951 3.55554 10.6408C3.66294 10.7695 3.80094 10.8691 3.95687 10.9305C4.13345 11 4.34106 11 4.75627 11H12C12.5523 11 13 11.4477 13 12C13 12.5523 12.5523 13 12 13H4.77518C4.36102 13 4.15393 13 3.97767 13.0692C3.82201 13.1304 3.68418 13.2296 3.57678 13.3578C3.45516 13.503 3.38942 13.6993 3.25794 14.0921L1.62039 18.9836C1.53883 19.2272 1.45758 19.4697 1.40938 19.6722C1.36519 19.8578 1.28753 20.2311 1.43938 20.6203C1.61086 21.0599 1.97915 21.3931 2.43359 21.52C2.83602 21.6323 3.19971 21.5178 3.38 21.4553C3.5767 21.3872 3.81 21.2822 4.0442 21.1767L20.8221 13.6267C21.0503 13.524 21.2792 13.4211 21.4577 13.3206C21.6235 13.2273 21.9437 13.0338 22.1261 12.6649Z" fill="#111111"/>
</svg>
