<svg width="24" height="24" viewBox="0 0 24 24" fill="none" xmlns="http://www.w3.org/2000/svg">
<path opacity="0.4" d="M10.5 12H5" stroke="#111111" stroke-width="2" stroke-linecap="round" stroke-linejoin="round"/>
<path d="M2.57395 4.72928C2.39247 4.18252 2.30174 3.90914 2.36778 3.74075C2.42514 3.59451 2.54789 3.48372 2.69923 3.44161C2.87349 3.39312 3.13616 3.51132 3.66151 3.74773L20.3788 11.2705C20.8931 11.5019 21.1503 11.6176 21.2298 11.7784C21.2988 11.9181 21.2988 12.0819 21.2298 12.2216C21.1503 12.3824 20.8931 12.4981 20.3788 12.7295L3.66733 20.2497C3.1404 20.4868 2.87693 20.6054 2.7025 20.5567C2.55102 20.5144 2.42825 20.4033 2.37109 20.2568C2.30527 20.0881 2.39699 19.8141 2.58042 19.2662L4.91534 12.2915C4.94675 12.1977 4.96246 12.1508 4.96873 12.1028C4.9743 12.0602 4.97436 12.017 4.9689 11.9744C4.96275 11.9264 4.94716 11.8794 4.91599 11.7855L2.57395 4.72928Z" stroke="#111111" stroke-width="2" stroke-linecap="round" stroke-linejoin="round"/>
</svg>
