<svg width="24" height="24" viewBox="0 0 24 24" fill="none" xmlns="http://www.w3.org/2000/svg">
<path d="M11 2.26201C11 1.88064 10.5902 1.63967 10.2569 1.82508L3.68596 5.48084C3.34329 5.67148 3.34344 6.16441 3.68622 6.35485L10.2572 10.0054C10.5904 10.1906 11 9.94958 11 9.56834V2.26201Z" fill="#111111"/>
<path d="M2.74313 8.11882C2.40979 7.93363 2.00016 8.17476 2.00031 8.55609L2.003 15.678C2.00314 16.0591 2.41263 16.3 2.74582 16.1149L9.15413 12.5547C9.49704 12.3642 9.49704 11.871 9.15414 11.6805L2.74313 8.11882Z" fill="#111111"/>
<path d="M3.89253 17.7657C3.54963 17.9562 3.54963 18.4494 3.89253 18.6399L10.2572 22.1758C10.5904 22.3609 11 22.12 11 21.7387V14.6669C11 14.2857 10.5904 14.0447 10.2572 14.2298L3.89253 17.7657Z" fill="#111111"/>
<path d="M13 21.7387C13 22.12 13.4095 22.3609 13.7428 22.1758L20.1074 18.6399C20.4503 18.4494 20.4503 17.9562 20.1074 17.7657L13.7428 14.2298C13.4095 14.0447 13 14.2857 13 14.6669V21.7387Z" fill="#111111"/>
<path d="M21.2541 16.1149C21.5873 16.3 21.9968 16.0591 21.997 15.678L21.9997 8.55609C21.9998 8.17476 21.5902 7.93363 21.2568 8.11882L14.8458 11.6805C14.5029 11.871 14.5029 12.3642 14.8458 12.5547L21.2541 16.1149Z" fill="#111111"/>
<path d="M20.3137 6.35484C20.6565 6.16441 20.6567 5.67148 20.314 5.48084L13.7431 1.82508C13.4098 1.63967 13 1.88064 13 2.26201V9.56834C13 9.94958 13.4095 10.1906 13.7428 10.0054L20.3137 6.35484Z" fill="#111111"/>
</svg>
