<svg width="24" height="24" viewBox="0 0 24 24" fill="none" xmlns="http://www.w3.org/2000/svg">
<path d="M9.60586 12.6029C10.0836 12.6029 10.5413 12.7931 10.8785 13.1303L10.998 13.2621C11.2605 13.5823 11.4058 13.9851 11.4059 14.4029V19.2C11.4059 19.618 11.2605 20.0206 10.998 20.3408L10.8785 20.4727C10.5412 20.8099 10.0835 21 9.60586 21C9.18811 20.9999 8.78525 20.8546 8.46504 20.5922L8.3332 20.4727C7.99597 20.1354 7.80586 19.6777 7.80586 19.2V14.4029C7.8059 13.9254 7.99587 13.4676 8.3332 13.1303C8.67063 12.7928 9.12847 12.603 9.60586 12.6029ZM19.2 12.6029C19.6777 12.6029 20.1353 12.793 20.4727 13.1303C20.8101 13.4677 21 13.9254 21 14.4029C21 14.8806 20.81 15.3382 20.4727 15.6756C20.1353 16.013 19.6776 16.2029 19.2 16.2029H14.3941C13.9165 16.2029 13.4588 16.0129 13.1215 15.6756C12.7841 15.3382 12.5941 14.8806 12.5941 14.4029C12.5942 13.9254 12.7841 13.4677 13.1215 13.1303L13.2533 13.0107C13.5734 12.7484 13.9761 12.6029 14.3941 12.6029H19.2ZM9.60586 7.79707C10.0835 7.79707 10.5412 7.9871 10.8785 8.32441C11.2159 8.66181 11.4059 9.11944 11.4059 9.59707L11.3971 9.77549C11.3619 10.1286 11.2229 10.4635 10.998 10.7379L10.8785 10.8697C10.5413 11.2069 10.0836 11.3971 9.60586 11.3971H4.8C4.32235 11.3971 3.86469 11.207 3.52734 10.8697C3.18993 10.5323 3.00004 10.0746 3 9.59707C3 9.11941 3.19003 8.66176 3.52734 8.32441C3.86473 7.98702 4.32236 7.79707 4.8 7.79707H9.60586ZM14.3757 3C14.8534 3 15.3111 3.19032 15.6483 3.52734L15.7679 3.65918C16.0303 3.97935 16.1757 4.38204 16.1757 4.8L16.1669 9.77549C16.1317 10.1286 15.9927 10.4635 15.7679 10.7379L15.6483 10.8697C15.3114 11.2064 14.8561 11.3944 14.3827 11.3962C13.9143 11.3976 13.4473 11.2104 13.1101 10.8768C12.7725 10.5425 12.5757 10.0736 12.5757 9.59707V4.8C12.5757 4.32227 12.766 3.86454 13.103 3.52734L13.2349 3.40781C13.5551 3.14538 13.9582 3.00015 14.3757 3Z" stroke="#111111" stroke-width="2"/>
<path opacity="0.5" d="M14.3941 17.4C14.7511 17.4001 15.0993 17.5069 15.3943 17.7041L15.5024 17.7814C15.746 17.9716 15.9376 18.2226 16.057 18.5109C16.1766 18.7996 16.218 19.1133 16.1801 19.4206L16.159 19.5516C16.0982 19.8566 15.9598 20.1402 15.7573 20.3751L15.6668 20.4727C15.4463 20.6932 15.1731 20.8514 14.8749 20.9341L14.7457 20.9648C14.3975 21.0341 14.0349 20.9995 13.7051 20.8629C13.3774 20.7272 13.0958 20.4971 12.8974 20.2002C12.3783 19.4231 12.5941 18.2801 12.5941 17.4H14.3941ZM6.6 14.4029C6.6 14.8806 6.40997 15.3382 6.07266 15.6756C5.77736 15.9709 5.38999 16.1533 4.97754 16.1941L4.8 16.2029C4.32236 16.2029 3.86474 16.013 3.52734 15.6756C3.19003 15.3382 3 14.8806 3 14.4029L3.00879 14.2245C3.04984 13.8125 3.2322 13.4254 3.52734 13.1303C3.86469 12.793 4.32235 12.6029 4.8 12.6029H6.6V14.4029ZM19.3424 7.80586C19.7544 7.8469 20.1415 8.0293 20.4366 8.32441C20.6989 8.5867 20.8882 8.91391 20.964 9.26309L21 9.59707C21 10.075 20.8028 10.5471 20.4604 10.8829C20.1219 11.2145 19.6536 11.4006 19.1824 11.3962L17.364 11.3971V9.59707C17.364 9.11941 17.554 8.66174 17.8913 8.32441C18.2287 7.98701 18.6864 7.79709 19.164 7.79707L19.3424 7.80586ZM9.60586 3C10.0835 3 10.5412 3.19011 10.8785 3.52734L10.998 3.65918C11.2605 3.97935 11.4059 4.38204 11.4059 4.8V6.6H9.60586C9.18811 6.59993 8.78525 6.4546 8.46504 6.19219L8.3332 6.07266C8.03808 5.77747 7.85553 5.39006 7.81465 4.97754L7.80586 4.8C7.80586 4.32232 7.99597 3.86465 8.3332 3.52734L8.46504 3.40781C8.78525 3.14539 9.18811 3.00007 9.60586 3Z" stroke="#111111" stroke-width="2"/>
</svg>
