<svg width="24" height="24" viewBox="0 0 24 24" fill="none" xmlns="http://www.w3.org/2000/svg">
<path fill-rule="evenodd" clip-rule="evenodd" d="M8.52269 1.00001L8.47165 0.999916C8.28174 0.999409 8.0426 0.99877 7.80727 1.05527C7.6032 1.10426 7.40811 1.18507 7.22916 1.29473C7.02281 1.42118 6.85417 1.59073 6.72024 1.72537L6.68421 1.76153C5.04329 3.40245 3.40239 5.04335 1.76147 6.68427L1.72531 6.7203C1.59067 6.85423 1.42112 7.02287 1.29467 7.22922C1.18501 7.40817 1.1042 7.60326 1.05521 7.80733C0.998709 8.04266 0.999348 8.2818 0.999855 8.47171L0.999947 8.52275V15.4773L0.999855 15.5283C0.999348 15.7182 0.998709 15.9574 1.05521 16.1927C1.1042 16.3968 1.18501 16.5918 1.29467 16.7708C1.42112 16.9771 1.59067 17.1458 1.72532 17.2797L1.76147 17.3157L6.68421 22.2385L6.72024 22.2747C6.85417 22.4093 7.02281 22.5788 7.22916 22.7053C7.40811 22.8149 7.6032 22.8958 7.80727 22.9447C8.0426 23.0012 8.28174 23.0006 8.47166 23.0001L8.52269 23H15.4772L15.5282 23.0001C15.7181 23.0006 15.9573 23.0012 16.1926 22.9447C16.3967 22.8958 16.5918 22.8149 16.7707 22.7053C16.9771 22.5788 17.1457 22.4093 17.2797 22.2746L17.3157 22.2385L22.2384 17.3157L22.2746 17.2797C22.4092 17.1458 22.5788 16.9771 22.7052 16.7708C22.8149 16.5918 22.8957 16.3968 22.9447 16.1927C23.0012 15.9574 23.0005 15.7182 23 15.5283L22.9999 15.4773V8.52275L23 8.47172C23.0005 8.2818 23.0012 8.04266 22.9447 7.80733C22.8957 7.60326 22.8149 7.40817 22.7052 7.22922C22.5788 7.02288 22.4092 6.85424 22.2746 6.72031L22.2384 6.68427L17.3157 1.76153L17.2797 1.72538C17.1457 1.59073 16.9771 1.42118 16.7707 1.29473C16.5918 1.18507 16.3967 1.10426 16.1926 1.05527C15.9573 0.99877 15.7182 0.999409 15.5282 0.999916L15.4772 1.00001H8.52269ZM19.0699 17.6558L20.8242 15.9015C20.9168 15.8089 20.9629 15.7625 20.995 15.7274L20.9974 15.7247L20.9975 15.7211C20.9997 15.6736 20.9999 15.6083 20.9999 15.4773V8.52275C20.9999 8.39175 20.9997 8.32637 20.9975 8.27888L20.9974 8.27529L20.995 8.27263C20.9629 8.23752 20.9168 8.19112 20.8242 8.09849L15.9015 3.17574C15.8088 3.08311 15.7624 3.03705 15.7273 3.005L15.7247 3.00259L15.7211 3.00242C15.6736 3.00025 15.6082 3.00001 15.4772 3.00001H8.52269C8.39169 3.00001 8.32631 3.00025 8.27882 3.00242L8.27523 3.00259L8.27257 3.005C7.6035 3.61556 6.34416 4.93001 6.34416 4.93001L19.0699 17.6558ZM4.92995 6.34422L17.6557 19.07L15.9015 20.8243C15.8088 20.9169 15.7624 20.963 15.7273 20.995L15.7247 20.9974L15.7211 20.9976C15.6736 20.9998 15.6082 21 15.4772 21H8.52269C8.39169 21 8.32631 20.9998 8.27882 20.9976L8.27523 20.9974L8.27257 20.995C8.23746 20.963 8.19106 20.9169 8.09842 20.8243L3.17568 15.9015C3.08305 15.8089 3.03699 15.7625 3.00494 15.7274L3.00253 15.7247L3.00236 15.7211C3.00019 15.6736 2.99995 15.6083 2.99995 15.4773V8.52275C2.99995 8.39175 3.00019 8.32637 3.00236 8.27888L3.00253 8.27529L3.00494 8.27263C3.03699 8.23752 3.08305 8.19112 3.17568 8.09849L4.92995 6.34422Z" fill="#111111"/>
</svg>
