<svg width="24" height="24" viewBox="0 0 24 24" fill="none" xmlns="http://www.w3.org/2000/svg">
<path fill-rule="evenodd" clip-rule="evenodd" d="M16.3857 1.99973C16.9801 1.98472 17.5699 2.04602 18.1376 2.16575L18.3916 2.22434L18.4033 2.22727C19.7051 2.57674 20.8 3.48781 21.414 4.66086L21.4179 4.66868L21.4218 4.67551C21.8301 5.48818 21.9784 6.37236 21.9824 7.19993C22.0194 10.2766 22 13.3613 22 16.4216C22.0141 17.8918 21.658 19.5672 20.3046 20.7429L20.3037 20.7419C19.2641 21.6671 17.9576 21.9554 16.7832 21.9812H16.7744C14.0286 22.0179 11.2518 21.9863 8.53316 21.9978C7.59261 22.0017 6.44093 22.0285 5.32027 21.6823L5.3105 21.6784L5.30074 21.6755C4.09747 21.2763 3.11671 20.3826 2.55855 19.2849L2.54878 19.2654C2.09606 18.3242 1.99745 17.3076 1.99995 16.4187L2.00581 7.59055L2.00386 7.34055C2.01294 6.07854 2.32553 4.70196 3.31831 3.61692C3.83166 3.05596 4.46996 2.62335 5.1816 2.3552L5.19331 2.35129L5.20406 2.34739C6.00487 2.06734 6.83008 1.9953 7.58589 2.00071L16.3857 1.99973ZM15.3418 7.88157C14.461 5.87663 11.7559 5.20128 9.94722 6.36692L9.73921 6.51145C9.26712 6.86724 8.89262 7.3397 8.65425 7.88352L8.56734 8.26633C8.39987 9.1564 8.46928 10.0235 8.51949 10.9333C8.00573 11.3354 7.08485 10.379 6.76949 11.1931L6.76167 11.2634C6.73925 11.9546 8.51325 11.7651 8.41109 12.6667C8.27449 13.8659 5.35737 15.3747 5.42378 15.5368C5.53966 15.8077 6.12234 16.0314 7.10738 16.1833C7.62184 16.2633 7.0256 17.2031 7.85738 17.0095C8.27448 16.9186 8.70782 16.9009 9.12886 16.9714C10.1554 17.2314 10.8262 18.2842 11.9814 18.1843C13.1688 18.2418 13.8114 17.2389 14.8671 16.9714C15.2881 16.9009 15.7218 16.9173 16.1396 17.0046C16.9306 17.1777 16.3915 16.2596 16.8896 16.1823C17.8745 16.0303 18.4568 15.8071 18.5722 15.5378C18.6109 15.4498 18.5901 15.3384 18.5029 15.2986L18.4609 15.2868C17.3375 15.0149 15.7323 13.9521 15.5859 12.6667C15.4764 11.703 17.1375 12.0362 17.2285 11.3122L17.2324 11.238C17.1011 10.3893 15.8715 11.2441 15.4775 10.9333C15.5339 9.8997 15.6152 8.90467 15.3418 7.88157Z" fill="#111111"/>
</svg>
