<svg width="24" height="24" viewBox="0 0 24 24" fill="none" xmlns="http://www.w3.org/2000/svg">
<path d="M20.9826 7.21268C20.98 6.49325 20.8512 5.76796 20.5282 5.12499C20.0384 4.18877 19.1649 3.4672 18.1438 3.1932C17.5779 3.05613 16.9932 2.98525 16.4111 2.99995L7.58567 2.99997C6.89148 2.99452 6.18959 3.06234 5.53435 3.29149C4.96963 3.50428 4.46308 3.84714 4.05583 4.29224C3.23611 5.18813 2.97778 6.3817 3.00598 7.56732L3.00004 16.4217C2.99771 17.2471 3.09229 18.0883 3.45022 18.8322C3.89726 19.7114 4.67884 20.416 5.61549 20.7268C6.56177 21.0191 7.54905 21.0025 8.52906 20.9984C11.2731 20.9869 14.0172 21.0182 16.7613 20.9815C17.8083 20.9585 18.8516 20.703 19.6493 19.9878C20.6919 19.0821 21.0141 17.7516 20.9996 16.4216C20.9996 13.3525 21.0195 10.2815 20.9826 7.21268Z" stroke="#111111" stroke-width="2"/>
<path opacity="0.5" d="M18.5723 15.5376C18.4571 15.807 17.8752 16.0304 16.8899 16.1825C16.3913 16.2594 16.9308 17.1781 16.1395 17.0048C15.7216 16.9174 15.2887 16.9011 14.8677 16.9716C13.8116 17.2389 13.169 18.2418 11.9813 18.1842C10.826 18.2841 10.1556 17.2315 9.12905 16.9715C8.70792 16.901 8.27467 16.9191 7.85747 17.0101C7.02544 17.2037 7.62217 16.2631 7.10709 16.1835C6.12201 16.0316 5.54001 15.8079 5.42412 15.537C5.35402 15.3765 8.27445 13.867 8.41113 12.6671C8.51722 11.7358 6.62193 11.9683 6.76934 11.1934C7.08458 10.3787 8.00562 11.3357 8.51945 10.9335C8.46207 9.89355 8.38015 8.90964 8.6548 7.88314C8.92716 7.26173 9.37666 6.73426 9.94718 6.36657C11.756 5.20083 14.4616 5.87668 15.3421 7.882C15.6156 8.90515 15.5336 9.89974 15.4772 10.9334C15.8711 11.2447 17.1014 10.3888 17.2323 11.2386C17.247 12.0593 15.4722 11.6717 15.5856 12.667C15.7321 13.9524 17.3376 15.0147 18.461 15.2866C18.5826 15.3067 18.6166 15.4369 18.5723 15.5376Z" stroke="#111111" stroke-width="2"/>
</svg>
