<svg width="24" height="24" viewBox="0 0 24 24" fill="none" xmlns="http://www.w3.org/2000/svg">
<path d="M11.2826 3.45332C11.5131 2.98638 11.6283 2.75291 11.7848 2.67831C11.9209 2.61341 12.0791 2.61341 12.2152 2.67831C12.3716 2.75291 12.4869 2.98638 12.7174 3.45332L14.904 7.88328C14.9721 8.02113 15.0061 8.09006 15.0558 8.14358C15.0998 8.19096 15.1526 8.22935 15.2113 8.25662C15.2775 8.28742 15.3536 8.29854 15.5057 8.32077L20.397 9.03571C20.912 9.11099 21.1696 9.14863 21.2888 9.27444C21.3924 9.38389 21.4412 9.5343 21.4215 9.68377C21.3988 9.85558 21.2123 10.0372 20.8394 10.4004L17.3014 13.8464C17.1911 13.9538 17.136 14.0076 17.1004 14.0715C17.0689 14.128 17.0487 14.1902 17.0409 14.2545C17.0321 14.3271 17.0451 14.403 17.0711 14.5547L17.9059 19.4221C17.994 19.9355 18.038 20.1922 17.9553 20.3445C17.8833 20.477 17.7553 20.57 17.607 20.5975C17.4366 20.6291 17.2061 20.5078 16.7451 20.2654L12.3723 17.9658C12.2361 17.8942 12.168 17.8584 12.0962 17.8443C12.0327 17.8318 11.9673 17.8318 11.9038 17.8443C11.832 17.8584 11.7639 17.8942 11.6276 17.9658L7.25489 20.2654C6.79388 20.5078 6.56338 20.6291 6.39294 20.5975C6.24465 20.57 6.11669 20.477 6.04471 20.3445C5.96197 20.1922 6.00599 19.9355 6.09404 19.4221L6.92886 14.5547C6.95488 14.403 6.96789 14.3271 6.95909 14.2545C6.95129 14.1902 6.93108 14.128 6.89958 14.0715C6.86399 14.0076 6.80885 13.9538 6.69855 13.8464L3.16053 10.4004C2.78763 10.0372 2.60118 9.85558 2.5785 9.68377C2.55876 9.5343 2.60752 9.38389 2.71122 9.27444C2.8304 9.14863 3.08794 9.11099 3.60301 9.03571L8.49428 8.32077C8.64639 8.29854 8.72245 8.28742 8.78869 8.25662C8.84733 8.22935 8.90013 8.19096 8.94415 8.14358C8.99388 8.09006 9.0279 8.02113 9.09594 7.88328L11.2826 3.45332Z" stroke="#111111" stroke-width="2" stroke-linecap="round" stroke-linejoin="round"/>
</svg>
