<svg width="24" height="24" viewBox="0 0 24 24" fill="none" xmlns="http://www.w3.org/2000/svg">
<path d="M19.5407 5.67513L19.432 6.08066C16.553 2.45691 11.3788 1.3893 7.25011 3.773C4.5146 5.35234 2.86232 8.08751 2.55215 11.0016C2.49369 11.5508 2.8915 12.0433 3.44068 12.1018C3.98987 12.1603 4.48245 11.7624 4.54091 11.2133C4.78634 8.90753 6.09163 6.75125 8.25011 5.50505C11.406 3.68301 15.3356 4.41519 17.6452 7.06017L17.3013 6.96802C16.7678 6.82508 16.2195 7.14166 16.0766 7.67513C15.9336 8.2086 16.2502 8.75693 16.7837 8.89988L19.5157 9.63193C20.0492 9.77487 20.5975 9.45829 20.7405 8.92482L21.4725 6.19277C21.6155 5.6593 21.2989 5.11097 20.7654 4.96802C20.2319 4.82508 19.6836 5.14166 19.5407 5.67513Z" fill="#111111"/>
<path d="M20.5594 11.8985C21.1086 11.957 21.5064 12.4496 21.4479 12.9988C21.1378 15.9128 19.4855 18.648 16.75 20.2273C12.6212 22.6111 7.44688 21.5434 4.56792 17.9195L4.45934 18.3247C4.3164 18.8582 3.76806 19.1748 3.23459 19.0318C2.70113 18.8889 2.38454 18.3406 2.52749 17.8071L3.25954 15.075C3.40248 14.5416 3.95082 14.225 4.48428 14.3679L7.21633 15.1C7.7498 15.2429 8.06638 15.7913 7.92344 16.3247C7.7805 16.8582 7.23216 17.1748 6.6987 17.0318L6.35434 16.9396C8.66387 19.585 12.5939 20.3175 15.75 18.4953C17.9084 17.2491 19.2137 15.0928 19.4592 12.7871C19.5176 12.2379 20.0102 11.8401 20.5594 11.8985Z" fill="#111111"/>
<path d="M13.0001 7.50005C13.0001 6.94777 12.5523 6.50005 12.0001 6.50005C11.4478 6.50005 11.0001 6.94777 11.0001 7.50005V12.0001C11.0001 12.3513 11.1844 12.6768 11.4856 12.8575L13.9856 14.3575C14.4591 14.6417 15.0734 14.4881 15.3575 14.0145C15.6417 13.541 15.4881 12.9267 15.0145 12.6426L13.0001 11.4339V7.50005Z" fill="#111111"/>
</svg>
