<svg width="24" height="24" viewBox="0 0 24 24" fill="none" xmlns="http://www.w3.org/2000/svg">
<path d="M5 2C5 1.44772 5.44772 1 6 1L10.1137 0.99997C10.7486 0.999668 11.2284 0.99944 11.6911 1.11052C12.0993 1.20851 12.4895 1.37013 12.8474 1.58944C13.2531 1.83807 13.5922 2.17749 14.041 2.62672L21.7071 10.2929C22.0976 10.6834 22.0976 11.3166 21.7071 11.7071C21.3166 12.0976 20.6834 12.0976 20.2929 11.7071L12.6988 4.113C12.1463 3.56048 11.9807 3.40402 11.8024 3.29472C11.6234 3.18506 11.4283 3.10426 11.2242 3.05526C11.0208 3.00643 10.7931 3 10.0118 3L6 3C5.44772 3 5 2.55229 5 2Z" fill="#111111"/>
<path d="M3.63801 4.82706C3.07352 5.11468 2.61458 5.57362 2.32696 6.13811C2.13417 6.51649 2.06285 6.90971 2.03055 7.30505C1.99995 7.67962 1.99996 8.13439 1.99998 8.66154L1.99993 10.7579C1.99955 11.1648 1.99922 11.5235 2.08287 11.872C2.15636 12.1781 2.27757 12.4707 2.44206 12.7391C2.62929 13.0447 2.8832 13.2981 3.17118 13.5856L11.0574 21.4717C11.4301 21.8445 11.7517 22.166 12.0382 22.4093C12.3406 22.666 12.669 22.8936 13.0729 23.0248C13.6755 23.2206 14.3245 23.2206 14.927 23.0248C15.3309 22.8936 15.6594 22.666 15.9618 22.4093C16.2483 22.166 16.5698 21.8445 16.9425 21.4717L19.4716 18.9427C19.8444 18.5699 20.1659 18.2484 20.4092 17.9619C20.6659 17.6595 20.8935 17.331 21.0247 16.9271C21.2205 16.3246 21.2205 15.6756 21.0247 15.073C20.8935 14.6691 20.6659 14.3407 20.4092 14.0383C20.1659 13.7518 19.8444 13.4302 19.4716 13.0575L12.0855 5.67129C11.798 5.3833 11.5446 5.1294 11.239 4.94216C10.9706 4.77767 10.678 4.65646 10.3719 4.58297C10.0234 4.49932 9.6647 4.49965 9.2578 4.50003L6.16144 4.50008C5.6343 4.50006 5.17952 4.50005 4.80495 4.53065C4.40961 4.56295 4.01639 4.63427 3.63801 4.82706Z" fill="#111111"/>
</svg>
