<svg width="24" height="24" viewBox="0 0 24 24" fill="none" xmlns="http://www.w3.org/2000/svg">
<path fill-rule="evenodd" clip-rule="evenodd" d="M1.01636 12.1811C1.09796 12.6256 1.47583 12.9732 1.94688 12.9986C1.9708 12.9999 1.99456 13.0004 2.01815 13H5C5.55228 13 6 12.5523 6 12C6 11.4477 5.55228 11 5 11H3.12879C3.23161 10.3843 3.40825 9.59418 3.70418 8.8192C4.33546 7.16605 5.33393 5.96462 6.97887 6.00088C7.57927 6.01412 8.25412 6.48447 9.02631 7.76009C9.56703 8.65333 10.0556 9.77571 10.5358 11H9C8.44771 11 8 11.4477 8 12C8 12.5523 8.44771 13 9 13H11.2937C11.8682 14.5385 12.4646 16.1157 13.1365 17.3404C13.5167 18.0335 13.9562 18.6816 14.4829 19.1629C15.022 19.6554 15.7029 20.0157 16.5207 19.9995C17.817 19.9739 18.8763 19.377 19.699 18.6006C20.5135 17.832 21.1406 16.8489 21.611 15.9243C22.0851 14.9925 22.4241 14.0721 22.6441 13.3898C22.7546 13.047 22.8363 12.7604 22.8909 12.5574C22.9182 12.4558 22.9388 12.3749 22.9529 12.3181C22.9599 12.2897 22.9653 12.2673 22.9691 12.2513L22.9736 12.2322L22.975 12.2264L22.9754 12.2244L22.9757 12.2231C23.091 11.7191 22.8034 11.2169 22.3245 11.0538C22.2559 11.0303 22.1839 11.014 22.1095 11.0059C22.0678 11.0013 22.0262 10.9994 21.985 11H19C18.4477 11 18 11.4477 18 12C18 12.5523 18.4477 13 19 13H20.6667C20.4695 13.5841 20.1918 14.3032 19.8284 15.0174C19.4135 15.833 18.9103 16.595 18.3264 17.146C17.7506 17.6894 17.1433 17.9868 16.4811 17.9999C16.3197 18.0031 16.1136 17.9437 15.832 17.6864C15.5381 17.4178 15.2233 16.9861 14.89 16.3785C14.384 15.4561 13.916 14.285 13.4302 13H15C15.5523 13 16 12.5523 16 12C16 11.4477 15.5523 11 15 11H12.6795C12.1052 9.48825 11.4775 7.94717 10.7372 6.72438C9.90745 5.35361 8.73045 4.03901 7.02295 4.00137C4.05208 3.93587 2.55054 6.23394 1.83578 8.10572C1.46724 9.07081 1.2609 10.0262 1.14606 10.7315C1.08825 11.0865 1.05271 11.3839 1.03146 11.5951C1.02303 11.6788 1.01198 11.8128 1.0055 11.8945C1.00356 11.9129 1.00212 11.9316 1.00121 11.9503C1.0004 11.9668 1 11.9833 1 12C0.999975 12.0616 1.00558 12.1224 1.01636 12.1811Z" fill="#111111"/>
</svg>
