<svg width="24" height="24" viewBox="0 0 24 24" fill="none" xmlns="http://www.w3.org/2000/svg">
<path d="M7.56641 3.51854C10.6988 1.23404 15.4279 1.55493 17.8359 4.30956C18.7494 5.2763 19.5371 6.67197 19.9316 7.68456C20.1321 8.19908 19.8777 8.77889 19.3633 8.97948C18.8488 9.17995 18.269 8.92554 18.0684 8.41112C17.7458 7.58315 17.0824 6.42403 16.3828 5.68358L16.3672 5.66698L16.3516 5.64842C14.7188 3.75105 11.1585 3.37289 8.74415 5.13378C7.81658 5.81032 7.06457 6.95885 6.58008 8.41405C6.09854 9.86053 5.90764 11.5377 6.042 13.168C6.3169 16.5032 7.87485 19.2171 10.5313 19.833C11.7409 20.1134 13.371 20.0704 14.7061 19.4756C15.9808 18.9075 17.0002 17.8413 17.1846 15.9258C17.2613 15.1284 17.0705 14.5292 16.7481 14.0664C16.6083 13.8659 16.4356 13.6822 16.2363 13.5146C15.835 15.3959 14.5855 17.4209 12.1777 17.4209C10.2035 17.4209 8.85693 16.2178 8.54297 14.7002C8.2332 13.2023 8.97545 11.568 10.71 10.8564C11.6823 10.4577 12.9635 10.3573 14.2246 10.5586C14.0478 9.90958 13.7616 9.43611 13.4326 9.166C12.5823 8.46793 11.4594 8.65299 10.7178 9.32616C10.309 9.69739 9.67599 9.6675 9.30469 9.25878C8.93342 8.84991 8.96418 8.21697 9.37305 7.84569C10.6513 6.68507 12.8943 6.13707 14.7012 7.6201C15.4899 8.26762 15.9616 9.2254 16.1992 10.1973C16.2811 10.532 16.3349 10.8795 16.3672 11.2314C17.1424 11.6179 17.8639 12.1699 18.3887 12.9228C18.9926 13.7894 19.2962 14.8651 19.1758 16.1172C18.9151 18.8263 17.3802 20.474 15.5205 21.3027C13.7212 22.1045 11.6365 22.142 10.0801 21.7812C6.16339 20.8734 4.35274 17.0197 4.04883 13.332C3.8938 11.4508 4.11026 9.5015 4.68262 7.78221C5.25205 6.07193 6.20051 4.51477 7.56641 3.51854ZM14.3604 12.6221C13.2753 12.3623 12.1579 12.4243 11.4688 12.707C10.6266 13.0525 10.3859 13.7376 10.501 14.2949C10.6122 14.8326 11.0986 15.4209 12.1777 15.4209C13.202 15.4209 14.0294 14.5366 14.3145 12.9326C14.3327 12.83 14.3479 12.7261 14.3604 12.6221Z" fill="#111111"/>
</svg>
