<svg width="24" height="24" viewBox="0 0 24 24" fill="none" xmlns="http://www.w3.org/2000/svg">
<path d="M14.8232 4C14.9578 6.13168 17.1491 7.61114 19 8.13021V9.4401C17.3009 9.05581 15.8046 8.02044 14.625 6.75438C14.625 9.53736 14.66 12.5269 14.66 15.3099C14.5926 17.8896 12.5239 20 9.82959 20C7.13547 19.9998 5.00009 17.8629 5 15.3099C5 12.6303 7.33869 10.603 9.86035 10.6181V11.7795C7.96324 11.7639 6.25269 13.3124 6.25269 15.3099C6.25277 17.29 7.88917 18.8409 9.82959 18.8411C11.7704 18.8411 13.2963 17.3563 13.4065 15.3099L13.4022 4H14.8232Z" stroke="#111111" stroke-width="2" stroke-linejoin="round"/>
</svg>
