<svg width="24" height="24" viewBox="0 0 24 24" fill="none" xmlns="http://www.w3.org/2000/svg">
<path d="M14.8681 3.05026C15.3368 3.05026 15.725 3.4177 15.7552 3.88991C15.8036 4.65158 16.2244 5.35771 16.9184 5.96534C17.6128 6.57328 18.5156 7.02101 19.3472 7.25285C19.7326 7.36028 20 7.71422 20 8.11791V9.44048C20 9.71269 19.8778 9.97042 19.6675 10.1408C19.4571 10.3111 19.1808 10.3761 18.9175 10.3169C17.6771 10.038 16.55 9.46219 15.5634 8.72792C15.5731 10.9325 15.5911 13.2097 15.5911 15.367C15.5911 18.5132 12.8311 21 9.79514 21C6.59762 20.9998 4.00011 18.4703 4 15.367C4 12.0983 6.84444 9.71464 9.8316 9.73233C10.3205 9.73523 10.7153 10.1362 10.7153 10.6298V11.8025C10.7153 12.0418 10.6205 12.2712 10.4523 12.4397C10.2841 12.6081 10.0563 12.7019 9.81944 12.7C8.34021 12.6879 7.05035 13.8937 7.05035 15.367L7.05382 15.5038C7.12735 16.9098 8.32719 18.0348 9.79514 18.035C11.2719 18.035 12.4447 16.9339 12.5391 15.3346L12.5356 3.94775C12.5356 3.70979 12.6294 3.4815 12.796 3.3132C13.275 2.82953 14.264 3.05026 14.8681 3.05026Z" fill="#111111"/>
</svg>
