<svg width="21" height="4" viewBox="0 0 21 4" fill="none" xmlns="http://www.w3.org/2000/svg">
<path d="M3.79299 3.83299V1.04099H0.994995V3.83299H3.79299Z" fill="#C5C5C5"/>
<path d="M6.75499 2.437C6.75499 1.679 7.37099 1.065 8.13099 1.065C8.88999 1.065 9.50599 1.679 9.50599 2.437C9.50599 3.195 8.88999 3.81 8.13099 3.81C7.37099 3.81 6.75499 3.195 6.75499 2.437Z" fill="#0129F3"/>
<path d="M18.136 2.437C18.136 1.679 18.752 1.065 19.511 1.065C20.271 1.065 20.886 1.679 20.886 2.437C20.886 3.195 20.271 3.81 19.511 3.81C18.752 3.81 18.136 3.195 18.136 2.437Z" fill="#57E2C5"/>
<path d="M3.276 3.265V0.520996H0.526001V3.265H3.276Z" fill="#D7D7D7"/>
<path d="M6.239 1.94001C6.239 1.17001 6.855 0.545013 7.614 0.545013C8.374 0.545013 8.989 1.17001 8.989 1.94001C8.989 2.71101 8.373 3.33601 7.614 3.33601C6.854 3.33601 6.239 2.71101 6.239 1.94001Z" fill="#074CF7"/>
<path d="M12.495 1.064V3.81H15.198V1.064H12.495Z" fill="#FFDA46"/>
<path d="M11.93 0.544006V3.29001H14.68V0.544006H11.93Z" fill="#FFE66C"/>
<path d="M2.799 2.792V0H0V2.792H2.799Z" fill="#EAEAEA"/>
<path d="M11.402 0.0239868V2.71999H14.105V0.0239868H11.402Z" fill="#FFF2A6"/>
<path d="M17.62 1.94001C17.62 1.17001 18.235 0.545013 18.995 0.545013C19.755 0.545013 20.37 1.17001 20.37 1.94001C20.37 2.71101 19.754 3.33601 18.995 3.33601C18.235 3.33601 17.62 2.71101 17.62 1.94001Z" fill="#7CEBD7"/>
<path d="M5.714 1.39599C5.714 0.637987 6.33 0.0239868 7.09 0.0239868C7.849 0.0239868 8.465 0.637987 8.465 1.39599C8.465 2.15399 7.849 2.76799 7.09 2.76799C6.33 2.76799 5.714 2.15399 5.714 1.39599Z" fill="#2A8BFB"/>
<path d="M17.095 1.39599C17.095 0.637987 17.711 0.0239868 18.47 0.0239868C19.23 0.0239868 19.845 0.637987 19.845 1.39599C19.845 2.15399 19.23 2.76799 18.47 2.76799C17.71 2.76799 17.095 2.15399 17.095 1.39599Z" fill="#B2F5EA"/>
</svg>
