<svg width="24" height="13" viewBox="0 0 24 13" fill="none" xmlns="http://www.w3.org/2000/svg">
<path d="M5.34277 7.83301L5.34277 5.04113L2.54514 5.04113L2.54514 7.83301L5.34277 7.83301Z" fill="#C5C5C5"/>
<path d="M8.30545 6.43729C8.30545 5.6794 8.9211 5.06501 9.68056 5.06501C10.44 5.06501 11.0557 5.6794 11.0557 6.43729C11.0557 7.19518 10.44 7.80957 9.68056 7.80957C8.92111 7.80957 8.30545 7.19518 8.30545 6.43729Z" fill="#0129F3"/>
<path d="M19.6863 6.43729C19.6863 5.6794 20.302 5.06501 21.0614 5.06501C21.8209 5.06501 22.4365 5.6794 22.4365 6.43729C22.4365 7.19518 21.8209 7.80957 21.0614 7.80957C20.302 7.80957 19.6863 7.19518 19.6863 6.43729Z" fill="#57E2C5"/>
<path d="M4.82617 7.26514L4.82617 4.52058L2.07595 4.52058L2.07595 7.26514L4.82617 7.26514Z" fill="#D7D7D7"/>
<path d="M7.78885 5.94049C7.78885 5.16953 8.4045 4.54455 9.16395 4.54455C9.92341 4.54455 10.5391 5.16953 10.5391 5.94049C10.5391 6.71144 9.92341 7.33643 9.16395 7.33643C8.4045 7.33643 7.78885 6.71144 7.78885 5.94049Z" fill="#074CF7"/>
<path d="M14.0449 5.06445L14.0449 7.80901L16.7477 7.80901L16.7477 5.06445L14.0449 5.06445Z" fill="#FFDA46"/>
<path d="M13.4795 4.54443L13.4795 7.28899L16.2297 7.28899L16.2297 4.54443L13.4795 4.54443Z" fill="#FFE66C"/>
<path d="M4.34863 6.79175L4.34863 3.99987L1.551 3.99987L1.551 6.79175L4.34863 6.79175Z" fill="#EAEAEA"/>
<path d="M12.9521 4.02368L12.9521 6.72092L15.6549 6.72092L15.6549 4.02368L12.9521 4.02368Z" fill="#FFF2A6"/>
<path d="M19.1697 5.94049C19.1697 5.16953 19.7854 4.54455 20.5448 4.54455C21.3043 4.54455 21.9199 5.16953 21.9199 5.94049C21.9199 6.71144 21.3043 7.33643 20.5448 7.33643C19.7854 7.33643 19.1697 6.71144 19.1697 5.94049Z" fill="#7CEBD7"/>
<path d="M7.26443 5.39603C7.26443 4.63814 7.88009 4.02375 8.63954 4.02375C9.39899 4.02375 10.0146 4.63814 10.0146 5.39603C10.0146 6.15392 9.39899 6.76831 8.63954 6.76831C7.88009 6.76831 7.26443 6.15392 7.26443 5.39603Z" fill="#2A8BFB"/>
<path d="M18.6453 5.39603C18.6453 4.63814 19.2609 4.02375 20.0204 4.02375C20.7798 4.02375 21.3955 4.63814 21.3955 5.39603C21.3955 6.15392 20.7798 6.76831 20.0204 6.76831C19.2609 6.76831 18.6453 6.15392 18.6453 5.39603Z" fill="#B2F5EA"/>
</svg>
