<svg width="24" height="24" viewBox="0 0 24 24" fill="none" xmlns="http://www.w3.org/2000/svg">
<path fill-rule="evenodd" clip-rule="evenodd" d="M18.0315 14.8768C18.1692 14.3419 18.7144 14.0199 19.2492 14.1576C21.4056 14.7126 23 16.6688 23 19V21C23 21.5523 22.5523 22 22 22C21.4477 22 21 21.5523 21 21V19C21 17.6035 20.0449 16.4275 18.7507 16.0945C18.2159 15.9568 17.8939 15.4116 18.0315 14.8768Z" fill="#111111"/>
<path fill-rule="evenodd" clip-rule="evenodd" d="M14.573 2.91554C14.7803 2.40361 15.3633 2.1566 15.8752 2.36382C17.7057 3.10481 19 4.90006 19 7C19 9.09994 17.7057 10.8952 15.8752 11.6362C15.3633 11.8434 14.7803 11.5964 14.573 11.0845C14.3658 10.5725 14.6128 9.98953 15.1248 9.7823C16.226 9.33652 17 8.25744 17 7C17 5.74256 16.226 4.66348 15.1248 4.2177C14.6128 4.01047 14.3658 3.42748 14.573 2.91554Z" fill="#111111"/>
<path fill-rule="evenodd" clip-rule="evenodd" d="M7.17892 14C8.72629 14.0005 10.2737 14.0005 11.821 14C12.9117 13.9996 13.6559 13.9994 14.2941 14.1704C16.0195 14.6327 17.3673 15.9804 17.8296 17.7059C18.0599 18.5652 17.9932 19.4836 18.0001 20.3641C18.001 20.471 18.0027 20.6872 17.9489 20.8882C17.8102 21.4059 17.4058 21.8102 16.8882 21.9489C16.6872 22.0028 16.471 22.001 16.3641 22.0002C11.7891 21.9637 7.2109 21.9637 2.63589 22.0002C2.52897 22.001 2.31276 22.0028 2.11175 21.9489C1.59411 21.8102 1.18979 21.4059 1.05109 20.8882C0.997225 20.6872 0.998949 20.471 0.999801 20.3641C1.0068 19.4858 0.94046 18.5639 1.17035 17.7059C1.63268 15.9804 2.98042 14.6327 4.70588 14.1704C5.3441 13.9994 6.0883 13.9996 7.17892 14Z" fill="#111111"/>
<path fill-rule="evenodd" clip-rule="evenodd" d="M4.49998 7C4.49998 4.23858 6.73855 2 9.49998 2C12.2614 2 14.5 4.23858 14.5 7C14.5 9.76142 12.2614 12 9.49998 12C6.73855 12 4.49998 9.76142 4.49998 7Z" fill="#111111"/>
</svg>
