<svg width="24" height="24" viewBox="0 0 24 24" fill="none" xmlns="http://www.w3.org/2000/svg">
<path fill-rule="evenodd" clip-rule="evenodd" d="M7.50005 2C7.8148 2.00001 8.11101 2.14859 8.29986 2.40039L13.1045 8.80664L18.5479 2.35547C18.904 1.93353 19.535 1.87956 19.9571 2.23535C20.379 2.59139 20.433 3.22243 20.0772 3.64453L14.336 10.4482L21.7999 20.4004C22.027 20.7034 22.0639 21.1085 21.8946 21.4473C21.7252 21.786 21.3788 22 21.0001 22H16.5001C16.1853 22 15.8891 21.8514 15.7002 21.5996L10.6299 14.8398L4.8897 21.6445C4.53357 22.0666 3.90263 22.1198 3.48052 21.7637C3.05854 21.4075 3.0043 20.7766 3.3604 20.3545L9.39849 13.1982L2.20025 3.59961C1.97309 3.29661 1.93616 2.89146 2.10552 2.55273C2.27492 2.21396 2.62129 2 3.00005 2H7.50005ZM16.9991 20H19.001L7.00103 4H4.99908L16.9991 20Z" fill="#111111"/>
</svg>
