<svg width="24" height="24" viewBox="0 0 24 24" fill="none" xmlns="http://www.w3.org/2000/svg">
<path d="M20.8207 8.58928C20.8207 8.58928 20.6449 7.41294 20.1035 6.89642C19.418 6.21661 18.6516 6.21327 18.3 6.17329C15.7828 6 12.0035 6 12.0035 6H11.9965C11.9965 6 8.21719 6 5.7 6.17329C5.34844 6.21327 4.58203 6.21661 3.89648 6.89642C3.35508 7.41294 3.18281 8.58928 3.18281 8.58928C3.18281 8.58928 3 9.97223 3 11.3518V12.6448C3 14.0244 3.1793 15.4074 3.1793 15.4074C3.1793 15.4074 3.35508 16.5837 3.89297 17.1003C4.57852 17.7801 5.47852 17.7567 5.8793 17.83C7.3207 17.96 12 18 12 18C12 18 15.7828 17.9933 18.3 17.8234C18.6516 17.7834 19.418 17.7801 20.1035 17.1003C20.6449 16.5837 20.8207 15.4074 20.8207 15.4074C20.8207 15.4074 21 14.0278 21 12.6448V11.3518C21 9.97223 20.8207 8.58928 20.8207 8.58928Z" stroke="#111111" stroke-width="2"/>
<path opacity="0.5" d="M9.14023 10.2247C9.14023 9.11242 10.3083 8.38681 11.3053 8.87999L14.5367 10.4786C15.6513 11.0302 15.6498 12.6214 14.5338 13.17L11.3014 14.7579C10.3047 15.2473 9.14023 14.5217 9.14023 13.4112V10.2247Z" stroke="#111111" stroke-width="2"/>
</svg>
